<?xml version="1.0" encoding="UTF-8" standalone="no"?>
<svg
   xmlns:dc="http://purl.org/dc/elements/1.1/"
   xmlns:cc="http://creativecommons.org/ns#"
   xmlns:rdf="http://www.w3.org/1999/02/22-rdf-syntax-ns#"
   xmlns:svg="http://www.w3.org/2000/svg"
   xmlns="http://www.w3.org/2000/svg"
   xmlns:sodipodi="http://sodipodi.sourceforge.net/DTD/sodipodi-0.dtd"
   xmlns:inkscape="http://www.inkscape.org/namespaces/inkscape"
   export-ydpi="90"
   export-xdpi="90"
   id="svg2"
   height="24"
   width="24"
   version="1.1"
   inkscape:version="0.92.1 r15371"
   sodipodi:docname="blabiplise.svg"
   inkscape:export-filename="C:\Users\balandin_a\Downloads\plise.png"
   inkscape:export-xdpi="90"
   inkscape:export-ydpi="90">
  <metadata
     id="metadata11">
    <rdf:RDF>
      <cc:Work
         rdf:about="">
        <dc:format>image/svg+xml</dc:format>
        <dc:type
           rdf:resource="http://purl.org/dc/dcmitype/StillImage" />
      </cc:Work>
    </rdf:RDF>
  </metadata>
  <defs
     id="defs9" />
  <sodipodi:namedview
     pagecolor="#ffffff"
     bordercolor="#666666"
     borderopacity="1"
     objecttolerance="10"
     gridtolerance="10"
     guidetolerance="10"
     inkscape:pageopacity="0"
     inkscape:pageshadow="2"
     inkscape:window-width="741"
     inkscape:window-height="419"
     id="namedview7"
     showgrid="false"
     inkscape:zoom="9.8333333"
     inkscape:cx="13.830508"
     inkscape:cy="11.898305"
     inkscape:window-x="323"
     inkscape:window-y="231"
     inkscape:window-maximized="0"
     inkscape:current-layer="svg2" />
  <path
     inkscape:connector-curvature="0"
     connector-curvature="0"
     style="fill:#000000;fill-opacity:1;stroke-width:1px;stroke-linecap:butt;stroke-linejoin:miter;stroke-opacity:1"
     id="b"
     d="m 10.730845,7.7031734 1.808719,0 c 0,0 -0.973926,-7.3431279 -2.226116,-7.3431279 -1.2521907,0 -1.1901928,0.881422 -1.1901928,0.881422 0,0 2.7206478,4.4703485 1.6075898,6.4617059 z" />
  <path
     inkscape:connector-curvature="0"
     connector-curvature="0"
     style="fill:#ffffff;fill-opacity:1;stroke:#000000;stroke-width:0.84286922;stroke-linecap:round;stroke-linejoin:round;stroke-miterlimit:4;stroke-dasharray:none;stroke-opacity:1"
     id="c"
     d="m 11.894731,7.6966378 c 0,0 -3.2012256,-1.7767821 -7.0055926,-0.8526204 -7.4825491,1.8176704 -4.51560217,15.9189506 1.2292697,16.3185886 3.318313,0.230836 2.8040994,-0.965332 5.0218699,-0.791913 2.206734,0.172556 1.246055,0.90733 4.318567,1.022748 5.169898,-0.01936 8.589776,-9.317235 5.299024,-14.3455642 C 19.900218,7.7373706 18.867506,6.968738 16.853815,6.5368095 13.658403,5.7288856 12.140531,7.8120554 11.894731,7.6966378 Z"
     inkscape:export-xdpi="90"
     inkscape:export-ydpi="90" />
  <path
     inkscape:connector-curvature="0"
     connector-curvature="0"
     style="fill:#ffffff;fill-opacity:1;stroke:#000000;stroke-width:0.67429537;stroke-linecap:butt;stroke-linejoin:miter;stroke-miterlimit:4;stroke-dasharray:none;stroke-opacity:1"
     id="d"
     d="m 11.774735,7.2976874 c 0,0 0.599243,-2.340844 3.931,-3.6410321 3.331752,-1.3001881 5.707337,-0.6594862 5.707337,-0.6594862 1.479335,0.2104628 -1.000454,4.9006052 -5.442794,5.1006341 -4.442339,0.2000287 -4.195543,-0.7001013 -4.195543,-0.8001158 z"
     inkscape:export-xdpi="90"
     inkscape:export-ydpi="90" />
</svg>
