<?xml version="1.0" encoding="UTF-8" standalone="no"?>
<svg
   xmlns:dc="http://purl.org/dc/elements/1.1/"
   xmlns:cc="http://creativecommons.org/ns#"
   xmlns:rdf="http://www.w3.org/1999/02/22-rdf-syntax-ns#"
   xmlns:svg="http://www.w3.org/2000/svg"
   xmlns="http://www.w3.org/2000/svg"
   xmlns:sodipodi="http://sodipodi.sourceforge.net/DTD/sodipodi-0.dtd"
   xmlns:inkscape="http://www.inkscape.org/namespaces/inkscape"
   export-ydpi="90"
   export-xdpi="90"
   id="svg2"
   height="23.162676"
   width="26.567381"
   version="1.1"
   sodipodi:docname="crinoplise.svg"
   inkscape:version="0.92.1 r15371">
  <metadata
     id="metadata11">
    <rdf:RDF>
      <cc:Work
         rdf:about="">
        <dc:format>image/svg+xml</dc:format>
        <dc:type
           rdf:resource="http://purl.org/dc/dcmitype/StillImage" />
        <dc:title></dc:title>
      </cc:Work>
    </rdf:RDF>
  </metadata>
  <defs
     id="defs9" />
  <sodipodi:namedview
     pagecolor="#ffffff"
     bordercolor="#666666"
     borderopacity="1"
     objecttolerance="10"
     gridtolerance="10"
     guidetolerance="10"
     inkscape:pageopacity="0"
     inkscape:pageshadow="2"
     inkscape:window-width="877"
     inkscape:window-height="480"
     id="namedview7"
     showgrid="false"
     fit-margin-top="0"
     fit-margin-left="0"
     fit-margin-right="0"
     fit-margin-bottom="0"
     inkscape:zoom="9.8333333"
     inkscape:cx="5.8514107"
     inkscape:cy="13.053839"
     inkscape:window-x="389"
     inkscape:window-y="384"
     inkscape:window-maximized="0"
     inkscape:current-layer="a" />
  <g
     transform="matrix(0.14598923,0.08428692,-0.08428692,0.14598923,-3.5761266,12.869954)"
     id="a">
    <g
       id="g4491">
      <path
         inkscape:connector-curvature="0"
         connector-curvature="0"
         style="fill:#000000;fill-opacity:1;stroke-width:1px;stroke-linecap:butt;stroke-linejoin:miter;stroke-opacity:1"
         id="b"
         d="m 71.825776,-81.703827 7.586928,-7.586929 c 0,0 -34.887054,-26.716514 -40.139547,-21.464024 -5.252488,5.25249 -1.295184,8.68967 -1.295184,8.68967 0,0 30.163655,7.339377 33.847803,20.361283 z" />
      <path
         inkscape:connector-curvature="0"
         connector-curvature="0"
         style="fill:#1fe058;fill-opacity:1;stroke:#000000;stroke-width:5;stroke-linecap:round;stroke-linejoin:round;stroke-miterlimit:4;stroke-dasharray:none;stroke-opacity:1"
         id="c"
         d="m 78.028946,-86.801438 c 0,0 -18.990048,-10.540082 -41.558004,-5.057845 -44.3873677,10.782636 -26.787087,94.4331 7.292174,96.8038 19.684626,1.36935 16.63425,-5.72646 29.790328,-4.69772 13.090609,1.02362 7.391744,5.38239 25.618251,6.06706 30.668445,-0.11484 50.955575,-55.270941 31.434445,-85.099585 -5.08769,-7.774078 -11.21386,-12.333698 -23.15931,-14.895949 -18.95557,-4.7927 -27.959766,7.56491 -29.417884,6.880239 z" />
      <path
         inkscape:connector-curvature="0"
         connector-curvature="0"
         style="fill:#40a41f;fill-opacity:1;stroke:#000000;stroke-width:4;stroke-linecap:butt;stroke-linejoin:miter;stroke-miterlimit:4;stroke-dasharray:none;stroke-opacity:1"
         id="d"
         d="m 79.412704,-89.290756 c 0,0 3.554781,-13.886164 23.319156,-21.599034 19.76435,-7.71287 33.8566,-3.91215 33.8566,-3.91215 8.77559,1.24849 -5.93481,29.070971 -32.2873,30.257566 -26.352482,1.186594 -24.888456,-4.153084 -24.888456,-4.746382 z" />
    </g>
  </g>
</svg>
