<?xml version="1.0" encoding="UTF-8"?>
<svg    width="16"
   height="16" fill="none" stroke="#000000" stroke-linecap="round" stroke-linejoin="round" stroke-width="2" version="1.1" viewBox="0 0 18.311 15.98" xmlns="http://www.w3.org/2000/svg">
<g transform="scale(.91448 .88186)">
<path d="m0.56085 15.271c0.24346-1.3807 1.46-1.9 2.8407-1.9h13.5" stroke-width=".8"/>
<path d="m6.0731 0.45h13.5l-2.6563 12.972s-1.2918 1.2545-1.4292 1.9256c-0.15265 0.74545 0.55899 2.3239 0.55899 2.3239h-13.5c-1.3807 0-2.3026-0.96377-2.0592-2.1526l2.6449-12.916c0.24346-1.1889 1.5601-2.1526 2.9408-2.1526z" stroke-width=".9"/>
</g>
<path d="m2.156 15.182c-0.72187-0.049975-1.2536-0.4654-1.3286-1.038-0.021031-0.16057-0.0081151-0.26831 0.080889-0.67475 0.074883-0.34195 0.11322-0.43275 0.26438-0.6262 0.27944-0.35762 0.72963-0.571 1.4225-0.67425 0.1452-0.02164 0.5954-0.02367 6.0831-0.0275 3.2595-0.0023 5.9263-0.0012 5.9263 0.0024s-0.06963 0.08695-0.15474 0.18525c-0.27677 0.31966-0.50498 0.65264-0.60317 0.88007-0.0871 0.20176-0.10374 0.28985-0.10342 0.54765 4.12e-4 0.33834 0.06519 0.65915 0.23404 1.159 0.04637 0.13727 0.08431 0.25663 0.08431 0.26525 0 0.01821-11.643 0.01928-11.906 0.0011z" fill="#e6e6e6" stroke="#000" stroke-linejoin="bevel" stroke-width=".012628"/>
<path d="m1.2455 11.76c0.02259-0.07371 0.48274-2.221 1.0226-4.7718 0.53982-2.5508 1.045-4.7781 1.1227-4.9496 0.17199-0.37982 0.70426-0.85594 1.208-1.0805 0.36993-0.16495 0.43502-0.16681 6.5773-0.1884 4.9973-0.017563 6.2038-0.00241 6.2045 0.077946 4.85e-4 0.054862-0.49968 2.4586-1.1114 5.3416l-1.1122 5.2418-6.0622 0.0016c-3.59 9.7e-4 -6.2894 0.03325-6.6193 0.07924-0.3064 0.04271-0.71769 0.14616-0.91399 0.2299-0.32655 0.1393-0.35342 0.14085-0.31584 0.01824z" fill="#db0d0d" stroke="#000" stroke-linejoin="bevel" stroke-width=".071437"/>
</svg>