<?xml version="1.0" encoding="UTF-8" standalone="no"?>
<svg
   xmlns:dc="http://purl.org/dc/elements/1.1/"
   xmlns:cc="http://creativecommons.org/ns#"
   xmlns:rdf="http://www.w3.org/1999/02/22-rdf-syntax-ns#"
   xmlns:svg="http://www.w3.org/2000/svg"
   xmlns="http://www.w3.org/2000/svg"
   xmlns:sodipodi="http://sodipodi.sourceforge.net/DTD/sodipodi-0.dtd"
   xmlns:inkscape="http://www.inkscape.org/namespaces/inkscape"
   width="280"
   height="280"
   version="1.0"
   viewBox="-1 -1 206.96935 206.97461"
   id="svg2"
   inkscape:version="0.91 r13725"
   sodipodi:docname="Double_girl_sign.svg">
  <defs
     id="defs12" />
  <sodipodi:namedview
     pagecolor="#ffffff"
     bordercolor="#666666"
     borderopacity="1"
     objecttolerance="10"
     gridtolerance="10"
     guidetolerance="10"
     inkscape:pageopacity="0"
     inkscape:pageshadow="2"
     inkscape:window-width="1213"
     inkscape:window-height="778"
     id="namedview10"
     showgrid="false"
     inkscape:zoom="0.84285714"
     inkscape:cx="100"
     inkscape:cy="138.81356"
     inkscape:window-x="59"
     inkscape:window-y="-8"
     inkscape:window-maximized="1"
     inkscape:current-layer="svg2" />
  <metadata
     id="metadata4">
    <rdf:RDF>
      <cc:Work
         rdf:about="">
        <dc:format>image/svg+xml</dc:format>
        <dc:type
           rdf:resource="http://purl.org/dc/dcmitype/StillImage" />
        <dc:title></dc:title>
      </cc:Work>
    </rdf:RDF>
  </metadata>
  <g
     id="g3340"
     transform="translate(29.569623,-3.1250002e-7)">
    <path
       inkscape:connector-curvature="0"
       id="path6"
       d="m 36.472058,16.060618 c -6.23762,3.10954 -2.63198,8.220788 -15.15625,14.656248 -1.52611,0.78417 5.23864,2.85631 5.0625,4.09375 -3.06899,21.560336 -20.70004,13.008076 -18.21875,16.906246 4.66726,7.33237 17.07656,2.62805 17.4375,3.1875 0.78026,1.20936 -9.19097,2.85631 -8.15625,4.1875 1.81803,2.33891 9.68427,0.78562 10.125,1.9375 0.62035,1.62132 -13.31952,1.13444 -12,2.84375 5.2404,6.788398 14.28986,1.75414 13.65625,4.062498 -5.24381,19.10434 -14.63115,42.81496 -16.03125,43.09375 -2.74353,0.54627 -5.20889,0.86068 -7.21875,1.8125 -3.6279,1.71808 -5.77417996,4.33823 -5.43749996,5.71875 0.1626,0.66673 6.12448996,-0.5962 6.34374996,-0.0937 0.38736,0.88763 0.63182,1.76299 1.21875,2.0625 0.53574,0.27338 1.05303,-1.80214 2.34375,-1.78125 1.99386,0.0323 5.10738,1.26179 6.375,-0.75 13.33145,-21.157902 21.76357,-46.12747 23.03125,-46.09376 2.90607,0.07504 5.34989,11.83272 4.46875,14.37501 -3.86534,11.152368 -4.73925,18.37154 -3.53125,22.375 2.02931,3.02967 5.91674,11.79861 15.34375,10.46875 8.00054,-1.12864 33.1225,-10.84413 35.56251,-9.8125 12.219252,5.16624 26.744982,3.67855 36.412762,3.39672 2.37993,-0.0694 4.46547,1.28222 6.14974,1.25953 1.67594,-0.0226 1.47702,-1.7789 2.5625,-2.75 8.0518,-7.20334 9.33867,-6.25416 8.125,-10.6875 -0.38929,-1.422032 -7.19981,4.43649 -14.71875,5.96875 -7.4623,1.52071 -15.68958,-0.73781 -16.375,-1.90625 C 103.34309,86.68578 97.631548,74.74001 92.722068,72.8106 c -2.23341,-0.87772 -23.967892,8.49404 -33.90626,15.50001 -1.66429,1.17323 -5.17582,-6.1949 -3.28125,-11.53125 1.09802,-3.09272 7.41591,-8.14932 8,-11.124998 0.06242,-0.5604 0.11347,-0.9499 0.09031,-1.45466 -0.0016,-0.034 0.22321,-0.10912 0.22259,-0.24922 -5.7e-4,-0.12931 -0.26973,-0.26499 -0.27233,-0.30444 -0.56506,-8.55435 -12.62242,-9.27623 -14.60307,-17.77293 0.12489,-0.69144 5.31943,1.49155 5.34375,-0.03125 0.02127,-1.25728 3.32256,-6.147326 3.09375,-7.437496 -0.18049,-1.01774 -0.01475,-1.87211 -0.1875,-2.90625 -0.08703,-0.52103 -0.5112,-1.29188 -0.59375,-1.8125 -0.10808,-0.68164 1.04688,-1.19725 0.9375,-1.875 -0.26275,-1.62814 0.14112,-3.22478 -0.15625,-4.78125 -0.10136,-0.53054 -0.61468,-0.82603 -0.71875,-1.34375 -0.13589,-0.67605 0.61669,-1.16358 0.78125,-1.8125 0.36047,-1.421468 0.405,-2.941848 -0.03125,-4.187498 -5.82331,-9.02803 -13.15833,-7.385 -20.96875,-3.625 z m 53.28126,68.312492 c 0.0928,0.02122 0.15218,0.08583 0.1875,0.1875 2.74612,7.9045 11.292892,16.13168 10.125002,16.78125 C 87.009248,94.50524 76.690806,98.799278 76.690806,96.873108 80.815246,92.37698 88.361448,84.05484 89.753318,84.37311 Z"
       style="fill:#1a1a1a;fill-rule:evenodd;stroke:#000000;stroke-width:1px;stroke-linecap:butt" />
    <path
       inkscape:connector-curvature="0"
       id="path8"
       d="M 82.566458,131.97461 C 115.69678,126.01914 138.79914,95.755508 135.8096,62.227188 132.82005,28.698861 104.7278,3 71.066453,3 37.405108,3 9.312858,28.698861 6.32331,62.227188 3.333762,95.755508 26.436127,126.01914 59.566453,131.97461 l 0,22 -26,0 0,21 26,0 0,27 23.000005,0 0,-27 24.999992,0 0,-21 -24.999992,0 0,-22 z M 119.56645,67.974604 c 0,26.509667 -21.490332,48.000006 -47.999997,48.000006 -26.509668,0 -48,-21.490339 -48,-48.000006 0,-26.509668 21.490332,-48 48,-48 26.509665,0 47.999997,21.490332 47.999997,48 l 0,0 z"
       style="fill:#ffffff;stroke:#000000;stroke-width:6;stroke-linejoin:round" />
  </g>
</svg>
