<svg xmlns="http://www.w3.org/2000/svg" width="120.945" height="120.945" viewBox="0 0 32 32" xmlns:v="https://vecta.io/nano"><path d="M11.64 19.843q0 1.925-1.511 2.982-1.501 1.056-4.236 1.056-5.085 0-5.894-3.535l1.827-.365q.316 1.254 1.343 1.846 1.027.583 2.794.583 1.827 0 2.814-.622.997-.632.997-1.846 0-.681-.316-1.106-.306-.425-.869-.701-.563-.276-1.343-.464-.78-.188-1.728-.405-1.649-.365-2.508-.731-.849-.365-1.343-.81-.494-.454-.76-1.056-.257-.602-.257-1.382 0-1.787 1.362-2.755 1.372-.968 3.92-.968 2.37 0 3.623.731 1.254.721 1.757 2.468l-1.856.326q-.306-1.106-1.165-1.599-.859-.504-2.379-.504-1.669 0-2.547.553-.879.553-.879 1.649 0 .642.336 1.066.346.415.987.711.642.286 2.557.711.642.148 1.274.306.642.148 1.224.365.583.207 1.086.494.513.286.889.701.375.415.583.977.217.563.217 1.323zm15.305-8.19c-1.031 2.851-2.447 5.176-4.307 7.057-1.921-1.961-3.357-4.347-4.347-7.057zm4.853 0v-1.476h-8.391V6.759H21.89v3.417h-8.23v1.476h2.972c1.153 3.215 2.73 5.945 4.812 8.149-2.164 1.779-4.812 3.073-8.027 4.004.324.344.809 1.072.95 1.436 3.255-1.051 5.985-2.447 8.209-4.347 2.224 2.002 4.974 3.458 8.351 4.327.222-.425.708-1.112 1.072-1.456-3.276-.768-6.005-2.143-8.209-4.004 2.103-2.123 3.7-4.792 4.893-8.108z"/></svg>