<?xml version="1.0" encoding="UTF-8" standalone="no"?>
<svg
   xmlns:dc="http://purl.org/dc/elements/1.1/"
   xmlns:cc="http://creativecommons.org/ns#"
   xmlns:rdf="http://www.w3.org/1999/02/22-rdf-syntax-ns#"
   xmlns:svg="http://www.w3.org/2000/svg"
   xmlns="http://www.w3.org/2000/svg"
   xmlns:sodipodi="http://sodipodi.sourceforge.net/DTD/sodipodi-0.dtd"
   xmlns:inkscape="http://www.inkscape.org/namespaces/inkscape"
   width="680"
   height="432"
   viewBox="0 0 340 216"
   version="1.1"
   id="svg10"
   sodipodi:docname="Flag_of_Interlingua.svg"
   inkscape:version="0.92.1 r15371">
  <defs
     id="defs14" />
  <sodipodi:namedview
     pagecolor="#ffffff"
     bordercolor="#666666"
     borderopacity="1"
     objecttolerance="10"
     gridtolerance="10"
     guidetolerance="10"
     inkscape:pageopacity="0"
     inkscape:pageshadow="2"
     inkscape:window-width="767"
     inkscape:window-height="480"
     id="namedview12"
     showgrid="false"
     inkscape:zoom="0.42205882"
     inkscape:cx="298.53659"
     inkscape:cy="216"
     inkscape:window-x="369"
     inkscape:window-y="345"
     inkscape:window-maximized="0"
     inkscape:current-layer="svg10" />
  <metadata
     id="metadata2">
    <rdf:RDF>
      <cc:Work
         rdf:about="">
        <dc:format>image/svg+xml</dc:format>
        <dc:type
           rdf:resource="http://purl.org/dc/dcmitype/StillImage" />
        <dc:title></dc:title>
      </cc:Work>
    </rdf:RDF>
  </metadata>
  <rect
     fill="#ff0000"
     width="340"
     height="216"
     id="rect4"
     style="fill:#ff4000;fill-opacity:1" />
  <rect
     fill="#0000ff"
     width="340"
     height="108"
     id="rect6"
     style="fill:#008fff;fill-opacity:1" />
  <path
     fill="#ffffff"
     transform="translate(170,108)scale(0.1,0.1)"
     d="M-193,183L-449,152C-590,135-924,95-1192,63-1461,31-1680,3-1680,0-1680-3-1461-31-1192-63-924-95-590-135-449-152L-193-183-99-621C-47-863-3-1060,0-1060C3-1060,47-863,99-621L193-183L449-152C590-135,924-95,1192-63C1461-31,1680-3,1680,0C1680,3,1461,31,1192,63C924,95,590,135,449,152L193,183L99,621C47,863,3,1060,0,1060-3,1060-47,863-99,621Z"
     id="path8" />
</svg>
