<?xml version="1.0" encoding="UTF-8" standalone="no"?>
<svg
   xmlns:dc="http://purl.org/dc/elements/1.1/"
   xmlns:cc="http://creativecommons.org/ns#"
   xmlns:rdf="http://www.w3.org/1999/02/22-rdf-syntax-ns#"
   xmlns:svg="http://www.w3.org/2000/svg"
   xmlns="http://www.w3.org/2000/svg"
   xmlns:sodipodi="http://sodipodi.sourceforge.net/DTD/sodipodi-0.dtd"
   xmlns:inkscape="http://www.inkscape.org/namespaces/inkscape"
   version="1.0"
   width="143.57129pt"
   height="143.351pt"
   viewBox="0 0 143.57129 143.351"
   preserveAspectRatio="xMidYMid meet"
   id="svg2"
   inkscape:version="0.92.1 r15371"
   sodipodi:docname="Flag_of_Interlingue.svg">
  <defs
     id="defs12" />
  <sodipodi:namedview
     pagecolor="#ffffff"
     bordercolor="#666666"
     borderopacity="1"
     objecttolerance="10"
     gridtolerance="10"
     guidetolerance="10"
     inkscape:pageopacity="0"
     inkscape:pageshadow="2"
     inkscape:window-width="821"
     inkscape:window-height="566"
     id="namedview10"
     showgrid="false"
     inkscape:zoom="0.85679012"
     inkscape:cx="3.6842082"
     inkscape:cy="86.669037"
     inkscape:window-x="408"
     inkscape:window-y="303"
     inkscape:window-maximized="0"
     inkscape:current-layer="svg2"
     fit-margin-top="0"
     fit-margin-left="0"
     fit-margin-right="0"
     fit-margin-bottom="0" />
  <metadata
     id="metadata4">
Created by potrace 1.11, written by Peter Selinger 2001-2013
<rdf:RDF>
  <cc:Work
     rdf:about="">
    <dc:format>image/svg+xml</dc:format>
    <dc:type
       rdf:resource="http://purl.org/dc/dcmitype/StillImage" />
    <dc:title></dc:title>
  </cc:Work>
</rdf:RDF>
</metadata>
  <rect
     style="fill:#ffffff;fill-opacity:1;stroke:none"
     id="rect2989"
     width="324"
     height="216"
     x="-90.207222"
     y="-36.400776" />
  <g
     transform="matrix(0.1,0,0,-0.1,-90.207225,179.59922)"
     id="g6"
     style="fill:#ff2d3d;stroke:none;fill-opacity:1">
    <path
       d="m 1476,1784 c -194,-43 -358,-157 -462,-319 -229,-359 -94,-841 290,-1029 329,-161 724,-50 922,259 162,255 147,579 -39,828 -82,109 -242,214 -382,252 -88,24 -245,28 -329,9 z m 327,-153 c 125,-44 234,-127 272,-208 63,-131 -6,-301 -140,-346 -98,-34 -186,-15 -275,58 -135,111 -288,133 -436,64 -47,-23 -132,-97 -168,-149 -16,-24 -17,-23 -12,65 8,148 63,272 167,376 79,79 197,141 309,163 57,11 226,-3 283,-23 z m 394,-588 c -16,-244 -170,-439 -407,-519 -77,-26 -263,-26 -340,0 -129,43 -246,131 -285,213 -63,131 6,301 140,346 98,34 186,15 275,-58 134,-110 288,-133 432,-65 57,27 129,88 158,135 12,19 24,35 27,35 3,0 3,-39 0,-87 z"
       id="path8"
       inkscape:connector-curvature="0"
       style="fill:#ff2d3d;fill-opacity:1" />
  </g>
</svg>
