<?xml version="1.0" encoding="UTF-8" standalone="no"?>
<!-- Created with Inkscape (http://www.inkscape.org/) -->

<svg
   xmlns:dc="http://purl.org/dc/elements/1.1/"
   xmlns:cc="http://creativecommons.org/ns#"
   xmlns:rdf="http://www.w3.org/1999/02/22-rdf-syntax-ns#"
   xmlns:svg="http://www.w3.org/2000/svg"
   xmlns="http://www.w3.org/2000/svg"
   xmlns:xlink="http://www.w3.org/1999/xlink"
   xmlns:sodipodi="http://sodipodi.sourceforge.net/DTD/sodipodi-0.dtd"
   xmlns:inkscape="http://www.inkscape.org/namespaces/inkscape"
   width="16.933332mm"
   height="16.933332mm"
   viewBox="0 0 16.933332 16.933332"
   version="1.1"
   id="svg8"
   sodipodi:docname="jbotcan.svg"
   inkscape:version="0.92.1 r15371">
  <defs
     id="defs2" />
  <sodipodi:namedview
     id="base"
     pagecolor="#ffffff"
     bordercolor="#666666"
     borderopacity="1.0"
     inkscape:pageopacity="0.0"
     inkscape:pageshadow="2"
     inkscape:zoom="5.296874"
     inkscape:cx="31.999998"
     inkscape:cy="31.999991"
     inkscape:document-units="mm"
     inkscape:current-layer="g3843"
     showgrid="false"
     fit-margin-top="0"
     fit-margin-left="0"
     fit-margin-right="0"
     fit-margin-bottom="0"
     inkscape:window-width="708"
     inkscape:window-height="522"
     inkscape:window-x="293"
     inkscape:window-y="347"
     inkscape:window-maximized="0" />
  <metadata
     id="metadata5">
    <rdf:RDF>
      <cc:Work
         rdf:about="">
        <dc:format>image/svg+xml</dc:format>
        <dc:type
           rdf:resource="http://purl.org/dc/dcmitype/StillImage" />
        <dc:title></dc:title>
      </cc:Work>
    </rdf:RDF>
  </metadata>
  <g
     inkscape:label="Layer 1"
     inkscape:groupmode="layer"
     id="layer1"
     transform="translate(-5.620307,-148.50053)">
    <image
       sodipodi:absref="C:\Users\arkadiy.b\Desktop\favicon.png"
       xlink:href="favicon.png"
       width="16.933332"
       height="16.933332"
       preserveAspectRatio="none"
       id="image3840"
       x="5.620307"
       y="148.50053" />
    <g
       id="g3843">
      <path
         style="fill:#ffffff;stroke-width:0.35277775"
         d="M 7.2078069,165.43386 H 6.6786403 v -1.05833 -1.05833 h 0.5291666 0.5291666 v 1.05833 1.05833 z m 6.3499991,0 H 8.7953068 v -3.175 -3.175 H 9.3244734 9.85364 v 2.64584 2.64583 h 0.529167 0.529166 v -1.5875 -1.5875 h 0.529167 0.529167 v 1.5875 1.5875 h 0.529166 0.529167 v -3.70417 -3.70416 h 0.529166 0.529167 v 2.64583 2.64583 h 0.529167 0.529166 v -1.5875 -1.5875 h 0.529167 0.529167 v 1.5875 1.5875 h 0.529166 0.529167 v -3.70416 -3.70417 h 0.529166 0.529167 v 2.64583 2.64584 h 0.529167 0.529166 v -1.5875 -1.5875 h 0.529167 0.529166 v 1.5875 1.5875 h 0.529167 0.529167 v -3.70417 -3.70417 h 0.529166 0.529167 v 4.7625 4.7625 h -1.5875 -1.5875 v 0.52917 0.52917 h -0.529166 -0.529167 v 1.05833 1.05833 z M 9.3244734,154.85053 H 8.7953068 v -0.52917 -0.52916 H 7.2078069 5.620307 v -1.05834 -1.05833 h 1.5874999 1.5874999 v -0.52917 -0.52916 H 9.3244734 9.85364 v -1.05834 -1.05833 h 4.233333 4.233333 v 1.05833 1.05834 h -0.529167 -0.529166 v -0.52917 -0.52917 h -1.5875 -1.5875 v 1.5875 1.5875 H 13.557806 13.02864 v -0.52916 -0.52917 h -1.5875 -1.5875 v 1.5875 1.5875 z M 22.024472,150.6172 h -0.529166 v -1.05834 -1.05833 h 0.529166 0.529167 v 1.05833 1.05834 z"
         id="path3851"
         inkscape:connector-curvature="0" />
      <path
         style="fill:#b52591;stroke-width:0.35277775"
         d="M 6.1494736,165.43386 H 5.620307 v -5.82083 -5.82083 h 1.5874999 1.5874999 v 1.5875 1.5875 H 9.85364 10.911973 v 1.05833 1.05833 H 9.85364 8.7953068 v 3.175 3.175 H 8.2661401 7.7369735 v -1.05833 -1.05833 H 7.2078069 6.6786403 v 1.05833 1.05833 z m 8.4666664,-3.175 h -0.529167 v -2.64583 -2.64583 h 0.529167 0.529166 v -1.05834 -1.05833 H 14.086973 13.02864 v -1.05833 -1.05834 h 0.529166 0.529167 v -1.5875 -1.5875 h 1.5875 1.5875 v 1.5875 1.5875 h 1.058333 1.058333 v 1.05834 1.05833 h -1.058333 -1.058333 v 3.70417 3.70416 H 16.732806 16.20364 v -1.5875 -1.5875 h -0.529167 -0.529167 v 1.5875 1.5875 z"
         id="path3849"
         inkscape:connector-curvature="0" />
      <path
         style="fill:#7c5c90;stroke-width:0.35277775"
         d="m 20.966139,165.43386 h -1.5875 v -1.05833 -1.05833 h 1.5875 1.5875 v 1.05833 1.05833 z M 10.382807,164.37553 H 9.85364 v -2.64583 -2.64584 h 0.529167 0.529166 v -1.05833 -1.05833 H 9.85364 8.7953068 v -1.05834 -1.05833 H 9.3244734 9.85364 v -1.5875 -1.5875 h 1.5875 1.5875 v 1.5875 1.5875 h 1.058333 1.058333 v 1.05833 1.05834 H 14.086973 13.02864 v 3.70416 3.70417 h -0.529167 -0.529166 v -1.5875 -1.5875 H 11.44114 10.911973 v 1.5875 1.5875 z m 8.466666,-4.23333 h -0.529167 v -2.64584 -2.64583 h 0.529167 0.529166 v -1.05833 -1.05834 h -1.058333 -1.058333 v -1.05833 -1.05833 h 0.529166 0.529167 v -1.05834 -1.05833 h 1.5875 1.5875 v 1.05833 1.05834 h 0.529166 0.529167 v 1.05833 1.05833 h -0.529167 -0.529166 v 3.70417 3.70417 h -0.529167 -0.529167 v -1.5875 -1.5875 h -0.529166 -0.529167 v 1.5875 1.5875 z M 7.2078069,150.6172 H 5.620307 v -1.05834 -1.05833 h 1.5874999 1.5874999 v 1.05833 1.05834 z"
         id="path3847"
         inkscape:connector-curvature="0" />
      <path
         style="fill:#000000;stroke-width:0.35277775"
         d="m 18.849473,165.43386 h -0.529167 v -1.05833 -1.05833 h 0.529167 0.529166 v -0.52917 -0.52917 h 1.5875 1.5875 v 0.52917 0.52917 h -1.5875 -1.5875 v 1.05833 1.05833 z M 7.2078069,151.67553 H 5.620307 v -0.52917 -0.52916 h 1.5874999 1.5874999 v -1.05834 -1.05833 H 9.3244734 9.85364 v 1.05833 1.05834 H 9.3244734 8.7953068 v 0.52916 0.52917 z"
         id="path3845"
         inkscape:connector-curvature="0" />
    </g>
  </g>
</svg>
