<?xml version="1.0" encoding="UTF-8" standalone="no"?>
<svg
   xmlns:dc="http://purl.org/dc/elements/1.1/"
   xmlns:cc="http://creativecommons.org/ns#"
   xmlns:rdf="http://www.w3.org/1999/02/22-rdf-syntax-ns#"
   xmlns:svg="http://www.w3.org/2000/svg"
   xmlns="http://www.w3.org/2000/svg"
   xmlns:sodipodi="http://sodipodi.sourceforge.net/DTD/sodipodi-0.dtd"
   xmlns:inkscape="http://www.inkscape.org/namespaces/inkscape"
   width="64.187271mm"
   height="64.187271mm"
   viewBox="0 0 227.43521 227.43521"
   id="svg2"
   version="1.1"
   inkscape:version="0.91 r13725"
   sodipodi:docname="ldp.svg">
  <defs
     id="defs4" />
  <sodipodi:namedview
     id="base"
     pagecolor="#ffffff"
     bordercolor="#666666"
     borderopacity="1.0"
     inkscape:pageopacity="0.0"
     inkscape:pageshadow="2"
     inkscape:zoom="1.4"
     inkscape:cx="162.94689"
     inkscape:cy="-41.388955"
     inkscape:document-units="px"
     inkscape:current-layer="g3338"
     showgrid="false"
     fit-margin-top="0"
     fit-margin-left="0"
     fit-margin-right="0"
     fit-margin-bottom="0"
     inkscape:window-width="1213"
     inkscape:window-height="778"
     inkscape:window-x="59"
     inkscape:window-y="-8"
     inkscape:window-maximized="1" />
  <metadata
     id="metadata7">
    <rdf:RDF>
      <cc:Work
         rdf:about="">
        <dc:format>image/svg+xml</dc:format>
        <dc:type
           rdf:resource="http://purl.org/dc/dcmitype/StillImage" />
        <dc:title></dc:title>
      </cc:Work>
    </rdf:RDF>
  </metadata>
  <g
     inkscape:label="Layer 1"
     inkscape:groupmode="layer"
     id="layer1"
     transform="translate(-463.42526,-227.21603)">
    <g
       id="g3338"
       transform="translate(433.61186,190.03283)">
      <path
         d="m 102.2499,48.2541 c -17.1997,0 -31.1427,13.9429 -31.1427,31.1427 0,17.1998 13.943,31.1427 31.1427,31.1427 17.1998,0 31.1428,-13.9429 31.1428,-31.1427 0,-17.1998 -13.943,-31.1427 -31.1428,-31.1427 z"
         style="fill:#8f5444;fill-rule:evenodd"
         id="path3342"
         inkscape:connector-curvature="0" />
      <path
         d="m 72.0273,78.477 c -17.1998,0 -31.1427,13.943 -31.1427,31.1427 0,17.1998 13.9429,31.1427 31.1427,31.1427 17.1998,0 31.1427,-13.9429 31.1427,-31.1427 C 103.17,92.42 89.2271,78.477 72.0273,78.477 Z"
         style="fill:#901d77;fill-rule:evenodd"
         id="path3344"
         inkscape:connector-curvature="0" />
      <path
         d="m 60.9561,119.7582 c -17.1998,0 -31.1427,13.943 -31.1427,31.1427 0,17.1998 13.9429,31.1428 31.1427,31.1428 17.1998,0 31.1427,-13.943 31.1427,-31.1428 0,-17.1997 -13.9429,-31.1427 -31.1427,-31.1427 z"
         style="fill:#6c609e;fill-rule:evenodd"
         id="path3346"
         inkscape:connector-curvature="0" />
      <path
         d="m 72.027,161.0395 c -17.1998,0 -31.1427,13.9429 -31.1427,31.1427 0,17.1997 13.9429,31.1427 31.1427,31.1427 17.1998,0 31.1427,-13.943 31.1427,-31.1427 0,-17.1998 -13.9429,-31.1427 -31.1427,-31.1427 z"
         style="fill:#29166e;fill-rule:evenodd"
         id="path3348"
         inkscape:connector-curvature="0" />
      <path
         d="m 102.2499,191.2621 c -17.1997,0 -31.1427,13.9429 -31.1427,31.1427 0,17.1998 13.943,31.1427 31.1427,31.1427 17.1998,0 31.1428,-13.9429 31.1428,-31.1427 0,-17.1998 -13.943,-31.1427 -31.1428,-31.1427 z"
         style="fill:#007cc2;fill-rule:evenodd"
         id="path3350"
         inkscape:connector-curvature="0" />
      <path
         d="m 143.5312,202.333 a 31.1427,31.1427 0 0 1 31.1427,31.1427 31.1427,31.1427 0 1 1 -31.1427,-31.1427 z"
         style="fill:#76c5ef;fill-rule:evenodd"
         id="path3352"
         inkscape:connector-curvature="0" />
      <path
         d="m 184.8121,191.2621 c 17.1997,0 31.1427,13.9429 31.1427,31.1427 0,17.1998 -13.943,31.1427 -31.1427,31.1427 -17.1998,0 -31.1427,-13.9429 -31.1427,-31.1427 0,-17.1998 13.9429,-31.1427 31.1427,-31.1427 z"
         style="fill:#00923f;fill-rule:evenodd"
         id="path3354"
         inkscape:connector-curvature="0" />
      <path
         d="m 215.035,161.0395 c 17.1998,0 31.1427,13.9429 31.1427,31.1427 0,17.1997 -13.9429,31.1427 -31.1427,31.1427 -17.1998,0 -31.1427,-13.943 -31.1427,-31.1427 0,-17.1998 13.9429,-31.1427 31.1427,-31.1427 z"
         style="fill:#85c226;fill-rule:evenodd"
         id="path3356"
         inkscape:connector-curvature="0" />
      <path
         d="m 226.1059,119.7582 c 17.1998,0 31.1427,13.943 31.1427,31.1427 0,17.1998 -13.9429,31.1428 -31.1427,31.1428 -17.1998,0 -31.1427,-13.943 -31.1427,-31.1428 0,-17.1997 13.9429,-31.1427 31.1427,-31.1427 z"
         style="fill:#b6dc7b;fill-rule:evenodd"
         id="path3358"
         inkscape:connector-curvature="0" />
      <path
         d="m 215.0347,78.477 c 17.1998,0 31.1427,13.943 31.1427,31.1427 0,17.1998 -13.9429,31.1427 -31.1427,31.1427 -17.1998,0 -31.1427,-13.9429 -31.1427,-31.1427 0,-17.1997 13.9429,-31.1427 31.1427,-31.1427 z"
         style="fill:#fef400;fill-rule:evenodd"
         id="path3360"
         inkscape:connector-curvature="0" />
      <path
         d="m 184.8121,48.2541 c 17.1997,0 31.1427,13.9429 31.1427,31.1427 0,17.1998 -13.943,31.1427 -31.1427,31.1427 -17.1998,0 -31.1427,-13.9429 -31.1427,-31.1427 0,-17.1998 13.9429,-31.1427 31.1427,-31.1427 z"
         style="fill:#e67717;fill-rule:evenodd"
         id="path3362"
         inkscape:connector-curvature="0" />
      <path
         d="m 143.5309,37.1832 c 17.1997,0 31.1427,13.9429 31.1427,31.1427 0,17.1998 -13.943,31.1427 -31.1427,31.1427 -5.3463,0 -10.3772,-1.3477 -14.7732,-3.721 2.9377,-4.7525 4.635,-10.353 4.635,-16.3508 0,-11.8536 -6.6228,-22.1599 -16.3696,-27.4218 5.487,-8.8763 15.3057,-14.7918 26.5078,-14.7918 z"
         style="fill:#da251b;fill-rule:evenodd"
         id="path3364"
         inkscape:connector-curvature="0" />
      <path
         inkscape:connector-curvature="0"
         id="path3366"
         style="fill:#ffffff;fill-rule:evenodd"
         d="M 143.531,70.0121 A 80.4856,80.8889 0 0 1 224.0166,150.9009 80.4856,80.8889 0 1 1 143.531,70.0121 Z" />
      <g
         id="g3368">
        <g
           id="g3370">
          <path
             inkscape:connector-curvature="0"
             id="path3372"
             style="fill:#39acda;fill-rule:evenodd"
             d="m 110.6928,80.392 c -2.0614,1.4875 -6.1028,3.2905 -8.5754,4.8283 -6.6368,4.1295 -12.878,9.8377 -17.864,15.8636 l -2.3713,2.7055 c -0.4709,0.3935 -0.0509,0.2169 -0.7449,0.4604 -0.6314,2.0238 -2.5799,4.2855 -3.8173,6.3231 -10.873,17.9033 -11.847,33.851 -10.0064,54.1721 l 4.6252,16.8541 c 5.6087,7.9832 5.0409,12.0861 16.6057,24.124 3.7664,3.9202 6.6446,6.0978 10.5936,9.1061 l 13.0351,7.5648 c 3.2202,1.3049 6.5826,2.3088 10.1332,3.4394 2.11,0.5196 9.8182,2.6789 11.7778,2.6009 7.8194,-0.0365 22.0455,0.1101 29.2993,-1.8766 2.4244,-0.664 5.8898,-2.1576 8.0176,-2.312 0.2811,-0.2407 11.6539,-5.3707 16.656,-9.0568 4.0757,-3.0033 11.4934,-8.986 13.8121,-12.6118 l 2.1427,-2.3365 c 1.0293,-1.1411 1.5423,-1.8239 2.306,-2.8804 4.1986,-5.8106 8.3153,-13.1646 10.7181,-20.1755 5.0359,-14.6909 2.9866,-21.9437 3.2938,-37.8399 0.3658,-3.8311 -2.3204,-11.282 -3.4858,-14.5647 -1.2878,-6.4254 -7.2871,-15.4944 -10.5693,-19.8789 -2.1881,-2.9225 -4.3197,-5.4769 -6.7857,-8.2511 -2.0331,-2.2883 -6.5571,-5.1726 -7.7862,-7.3634 -1.4233,-0.3581 -2.6181,-1.8816 -3.7061,-2.6834 l -12.1713,-6.5926 c -4.1449,-1.9872 -14.2564,-5.5848 -19.0887,-5.7625 -4.6462,-0.28 -7.4132,-0.8848 -12.6212,-0.8832 -5.2588,0.0017 -7.9494,0.1893 -12.645,0.7538 -7.7447,0.9302 -14.4695,3.8471 -20.7776,6.2732 z" />
          <path
             inkscape:connector-curvature="0"
             id="path3374"
             style="fill:#fdfdff;fill-rule:evenodd"
             d="m 145.8647,175.4703 0.2164,11.1364 c 6.5654,0.6879 26.8921,0.2889 34.582,0.2064 2.8129,-3.9883 8.1874,-27.4676 5.7824,-33.0463 l -36.753,-0.0354 c -3.8743,0.0459 -3.2008,0.3641 -3.3729,4.4714 -0.2363,5.6518 -0.4339,11.6168 -0.4549,17.2675 z" />
          <path
             inkscape:connector-curvature="0"
             id="path3376"
             style="fill:#fdfdff;fill-rule:evenodd"
             d="m 106.2656,186.8104 28.0105,0.5783 c 5.5118,0.003 5.244,2.1399 5.2412,-12.3872 l -0.1096,-21.0742 c -4.2041,-0.083 -38.6367,-0.9159 -39.6018,0.6613 -0.6873,1.1234 0.4543,10.3401 0.6901,12.0097 0.5257,3.7243 1.1853,7.1421 1.9512,10.65 0.4356,1.9955 0.8069,3.4001 1.399,5.2013 1.057,3.2158 0.8445,3.3907 2.4194,4.3608 z" />
          <path
             inkscape:connector-curvature="0"
             id="path3378"
             style="fill:#fdfdff;fill-rule:evenodd"
             d="m 146.6251,146.2423 c 6.4614,0.9391 34.0607,1.3979 39.8802,-0.0542 1.389,-8.255 -2.8251,-23.041 -5.0221,-30.0802 l -34.8935,-0.1123 c -0.2314,5.6202 -0.9762,26.0492 0.0354,30.2467 z" />
          <path
             inkscape:connector-curvature="0"
             id="path3380"
             style="fill:#fdfdff;fill-rule:evenodd"
             d="m 99.7196,146.3392 c 13.1386,0.6358 26.3187,0.4521 39.474,0.3231 l 0.565,-26.011 c -0.001,-6.1194 -0.5667,-4.8948 -14.8536,-4.8599 l -19.2868,0.2208 c -3.2119,4.4548 -6.4481,23.088 -5.8986,30.327 z" />
          <path
             inkscape:connector-curvature="0"
             id="path3382"
             style="fill:#fdfdff;fill-rule:evenodd"
             d="m 194.5018,153.6932 c -1.4582,3.4255 -1.7111,12.3273 -2.4167,16.8264 -0.7758,4.9429 -3.1787,12.2798 -3.2102,16.3101 3.3303,0.1052 6.7237,0.0526 10.0595,0.0261 4.4781,-0.0355 5.674,0.56 7.8848,-2.56 2.5068,-3.539 4.4249,-9.6661 5.6844,-14.4375 l 2.3735,-12.6655 c 0.1837,-2.4288 0.482,-3.3209 -1.3386,-3.9158 -2.1583,-0.7055 -16.749,-0.2385 -19.0367,0.4162 z" />
          <path
             inkscape:connector-curvature="0"
             id="path3384"
             style="fill:#fdfdff;fill-rule:evenodd"
             d="m 108.7504,109.1352 c 6.1371,0.0791 25.8799,0.6851 30.6407,-0.6658 1.285,-2.3917 1.2983,-24.1538 0.6608,-27.8549 -11.3794,-3.2567 -32.7818,22.17 -31.3015,28.5207 z" />
          <path
             inkscape:connector-curvature="0"
             id="path3386"
             style="fill:#fdfdff;fill-rule:evenodd"
             d="m 90.7021,187.413 6.9019,-0.3414 c 0.4554,-1.9424 -2.4892,-13.1315 -2.9956,-15.9598 -3.3247,-18.5713 1.6779,-17.557 -11.4031,-17.5415 -10.074,0.0117 -10.6977,-0.4715 -10.2256,5.0138 0.6458,7.4995 3.5804,17.5242 6.8388,24.0177 2.7138,5.4078 3.8688,4.8057 10.8836,4.8112 z" />
          <path
             inkscape:connector-curvature="0"
             id="path3388"
             style="fill:#fdfdff;fill-rule:evenodd"
             d="m 146.1646,221.6807 c 12.2671,1.5844 29.2507,-17.7511 31.5163,-27.3464 -3.8494,-1.0586 -24.839,-1.1643 -29.3542,-0.5628 -2.3358,0.311 -2.1134,-0.254 -2.3408,5.11 -0.2103,4.975 -0.5196,19.1955 0.1787,22.7992 z" />
          <path
             inkscape:connector-curvature="0"
             id="path3390"
             style="fill:#fdfdff;fill-rule:evenodd"
             d="m 146.7452,108.1856 c 3.7204,1.6635 26.026,1.047 31.2755,0.4875 -0.6281,-8.1526 -19.9288,-30.0857 -30.1571,-28.2152 -1.5578,2.4282 -1.6918,23.6348 -1.1184,27.7277 z" />
          <path
             inkscape:connector-curvature="0"
             id="path3392"
             style="fill:#fdfdff;fill-rule:evenodd"
             d="m 188.7504,116.0913 c -0.1478,1.4471 2.5799,11.9555 3.1515,14.4059 1.9524,8.3623 -0.7072,15.1962 4.0752,16.0799 0.5938,0.1101 1.3603,0.1267 2.0382,0.1694 18.1009,1.1355 17.3139,0.1715 16.1507,-7.0635 -1.0177,-6.3336 -4.5085,-17.9327 -7.5793,-22.4655 -1.7808,-2.6286 -4.4858,-1.9568 -8.121,-1.8976 -3.3563,0.0548 -6.5599,0.1688 -9.7153,0.7714 z" />
          <path
             inkscape:connector-curvature="0"
             id="path3394"
             style="fill:#fdfdff;fill-rule:evenodd"
             d="m 73.7251,146.9612 c 3.1931,0.7836 15.6676,0.9208 18.3826,-0.3891 1.3065,-1.7808 2.5301,-16.1468 3.2777,-19.8346 0.466,-2.2988 2.1566,-7.7957 2.2982,-9.0923 0.3072,-2.8112 -4.0264,-1.8666 -9.7939,-1.8787 -6.6695,-0.0139 -7.6661,0.4405 -11.3368,11.8077 -1.7769,5.5018 -4.8449,13.3179 -2.8278,19.387 z" />
          <path
             inkscape:connector-curvature="0"
             id="path3396"
             style="fill:#fdfdff;fill-rule:evenodd"
             d="m 108.8251,194.6802 c 0.1444,1.9534 3.8427,7.6589 4.9451,9.2682 2.244,3.2755 3.8411,5.1266 6.3773,7.6672 2.2207,2.2241 12.7003,11.9627 18.2973,9.302 1.2551,-1.1583 0.8013,-17.4214 0.7421,-21.0837 -0.0857,-5.2816 0.4765,-5.8261 -1.5954,-6.2284 -1.5191,-0.2955 -28.1217,0.7775 -28.7664,1.0747 z" />
          <path
             inkscape:connector-curvature="0"
             id="path3398"
             style="fill:#fdfdff;fill-rule:evenodd"
             d="m 200.5681,108.6941 c -0.3703,-2.9014 -9.7635,-11.5421 -12.2361,-13.516 -3.1743,-2.534 -11.7192,-8.5438 -16.5907,-9.8886 0.5147,1.6978 7.4426,10.7923 10.3833,16.0832 1.5656,2.8168 3.249,7.1609 5.5749,7.5367 1.9036,0.3071 10.8625,0.109 12.8686,-0.2153 z" />
          <path
             inkscape:connector-curvature="0"
             id="path3400"
             style="fill:#fdfdff;fill-rule:evenodd"
             d="m 171.3744,217.0416 c 7.6363,-1.1754 27.7958,-18.9033 28.5805,-22.1334 l -0.0249,-0.7864 c -2.4726,-1.0526 -9.6152,-0.8899 -12.6655,-0.3204 -2.5799,0.482 -6.4094,9.8869 -10.5731,15.6444 -1.4377,1.9883 -4.7669,5.7309 -5.317,7.5958 z" />
          <path
             inkscape:connector-curvature="0"
             id="path3402"
             style="fill:#fdfdff;fill-rule:evenodd"
             d="m 86.981,108.9382 c 2.0083,0.9097 9.3468,0.9142 11.6445,0.4266 2.6895,-0.5705 6.5157,-9.738 10.1614,-15.1286 1.3304,-1.9667 4.4963,-5.5378 4.9722,-7.7458 -4.566,1.3126 -12.2836,6.8178 -15.112,9.3147 -2.4499,2.1621 -11.2305,9.8149 -11.6661,13.1331 z" />
          <path
             inkscape:connector-curvature="0"
             id="path3404"
             style="fill:#fdfdff;fill-rule:evenodd"
             d="m 114.0463,215.3565 c -0.855,-2.0957 -6.4597,-8.3506 -9.375,-14.0268 -3.5489,-6.9091 -2.9877,-8.5598 -16.781,-6.991 0.2191,2.9003 8.6772,10.1824 11.0103,12.2826 2.1488,1.9352 11.1431,8.6074 15.1457,8.7352 z" />
        </g>
        <path
           inkscape:connector-curvature="0"
           id="path3406"
           style="fill:none"
           d="M 143.531,73.2302 A 77.6706,77.6706 0 0 1 221.2016,150.9008 77.6706,77.6706 0 1 1 143.531,73.2302 Z" />
        <path
           inkscape:connector-curvature="0"
           id="path3408"
           style="fill:none"
           d="M 143.531,73.2302 A 77.6706,77.6706 0 0 0 65.8604,150.9008 77.6706,77.6706 0 1 0 143.531,73.2302 Z" />
      </g>
    </g>
  </g>
</svg>
