<?xml version="1.0" encoding="UTF-8" standalone="no"?>
<svg
   xmlns:dc="http://purl.org/dc/elements/1.1/"
   xmlns:cc="http://creativecommons.org/ns#"
   xmlns:rdf="http://www.w3.org/1999/02/22-rdf-syntax-ns#"
   xmlns:svg="http://www.w3.org/2000/svg"
   xmlns="http://www.w3.org/2000/svg"
   xmlns:sodipodi="http://sodipodi.sourceforge.net/DTD/sodipodi-0.dtd"
   xmlns:inkscape="http://www.inkscape.org/namespaces/inkscape"
   export-ydpi="90"
   export-xdpi="90"
   id="svg2"
   height="24"
   width="24"
   version="1.1"
   sodipodi:docname="plise.svg"
   inkscape:version="0.92.1 r15371">
  <metadata
     id="metadata11">
    <rdf:RDF>
      <cc:Work
         rdf:about="">
        <dc:format>image/svg+xml</dc:format>
        <dc:type
           rdf:resource="http://purl.org/dc/dcmitype/StillImage" />
        <dc:title></dc:title>
      </cc:Work>
    </rdf:RDF>
  </metadata>
  <defs
     id="defs9" />
  <sodipodi:namedview
     pagecolor="#ffffff"
     bordercolor="#666666"
     borderopacity="1"
     objecttolerance="10"
     gridtolerance="10"
     guidetolerance="10"
     inkscape:pageopacity="0"
     inkscape:pageshadow="2"
     inkscape:window-width="640"
     inkscape:window-height="480"
     id="namedview7"
     showgrid="false"
     inkscape:zoom="9.8333333"
     inkscape:cx="12"
     inkscape:cy="12"
     inkscape:window-x="449"
     inkscape:window-y="394"
     inkscape:window-maximized="0"
     inkscape:current-layer="svg2" />
  <g
     transform="matrix(0.16857384,0,0,0.16857384,-1.6121692,22.349773)"
     id="a">
    <path
       d="m 73.220223,-86.885365 10.729538,0 c 0,0 -5.777445,-43.560305 -13.205588,-43.560305 -7.428142,0 -7.060363,5.2287 -7.060363,5.2287 0,0 16.139207,26.518637 9.536413,38.331605 z"
       id="b"
       style="fill:#000000;fill-opacity:1;stroke-width:1px;stroke-linecap:butt;stroke-linejoin:miter;stroke-opacity:1"
       connector-curvature="0" />
    <path
       d="m 80.124531,-86.924135 c 0,0 -18.990048,-10.540082 -41.558004,-5.057845 -44.3873677,10.782636 -26.787087,94.4331 7.292174,96.8038 19.684626,1.36935 16.63425,-5.72646 29.790328,-4.69772 13.090609,1.02362 7.391744,5.38239 25.618251,6.06706 30.66845,-0.11484 50.95557,-55.270941 31.43444,-85.099585 -5.08769,-7.774078 -11.21386,-12.333698 -23.15931,-14.895949 -18.955565,-4.7927 -27.959761,7.56491 -29.417879,6.880239 z"
       id="c"
       style="fill:#ff0000;fill-opacity:1;stroke:#000000;stroke-width:5;stroke-linecap:round;stroke-linejoin:round;stroke-miterlimit:4;stroke-dasharray:none;stroke-opacity:1"
       connector-curvature="0" />
    <path
       d="m 79.412704,-89.290756 c 0,0 3.554781,-13.886164 23.319156,-21.599034 19.76435,-7.71287 33.8566,-3.91215 33.8566,-3.91215 8.77559,1.24849 -5.93481,29.070971 -32.2873,30.257566 -26.352482,1.186594 -24.888456,-4.153084 -24.888456,-4.746382 z"
       id="d"
       style="fill:#30c300;fill-opacity:1;stroke:#000000;stroke-width:4;stroke-linecap:butt;stroke-linejoin:miter;stroke-miterlimit:4;stroke-dasharray:none;stroke-opacity:1"
       connector-curvature="0" />
  </g>
</svg>
