<?xml version="1.0" encoding="UTF-8"?>
<svg width="24" height="24" export-xdpi="90" export-ydpi="90" version="1.1" viewBox="0 0 24 24" xmlns="http://www.w3.org/2000/svg" xmlns:cc="http://creativecommons.org/ns#" xmlns:dc="http://purl.org/dc/elements/1.1/" xmlns:rdf="http://www.w3.org/1999/02/22-rdf-syntax-ns#">
<g transform="matrix(.16857 0 0 .16857 -1.6122 22.35)">
<path d="m73.22-86.885h10.73s-5.7774-43.56-13.206-43.56c-7.4281 0-7.0604 5.2287-7.0604 5.2287s16.139 26.519 9.5364 38.332z" stroke-width="1px" connector-curvature="0"/>
<path d="m80.125-86.924s-18.99-10.54-41.558-5.0578c-44.387 10.783-26.787 94.433 7.2922 96.804 19.685 1.3694 16.634-5.7265 29.79-4.6977 13.091 1.0236 7.3917 5.3824 25.618 6.0671 30.668-0.11484 50.956-55.271 31.434-85.1-5.0877-7.7741-11.214-12.334-23.159-14.896-18.956-4.7927-27.96 7.5649-29.418 6.8802z" fill="#f00" stroke="#000" stroke-linecap="round" stroke-linejoin="round" stroke-width="5" connector-curvature="0"/>
<path d="m79.413-89.291s3.5548-13.886 23.319-21.599c19.764-7.7129 33.857-3.9122 33.857-3.9122 8.7756 1.2485-5.9348 29.071-32.287 30.258-26.352 1.1866-24.888-4.1531-24.888-4.7464z" fill="#30c300" stroke="#000" stroke-width="4" connector-curvature="0"/>
</g>
</svg>
