
<svg xmlns="http://www.w3.org/2000/svg" xmlns:xlink="http://www.w3.org/1999/xlink" height="128" version="1.0" width="128" enable-background="new"><defs><linearGradient id="d"><stop offset="0" stop-color="#898989"/><stop offset="1" stop-color="#cbcbcb"/></linearGradient><linearGradient id="g"><stop offset="0" stop-color="#898989"/><stop offset="1" stop-color="#cbcbcb"/></linearGradient><linearGradient id="a"><stop offset="0" stop-color="#f9f9f9"/><stop offset="1" stop-color="#f9f9f9" stop-opacity="0"/></linearGradient><linearGradient id="e"><stop offset="0" stop-color="#f9f9f9"/><stop offset="1" stop-color="#f9f9f9" stop-opacity="0"/></linearGradient><linearGradient id="b"><stop offset="0" stop-color="#f9f9f9"/><stop offset="1" stop-color="#f9f9f9" stop-opacity="0"/></linearGradient><linearGradient id="c"><stop offset="0" stop-color="#f9f9f9"/><stop offset="1" stop-color="#f9f9f9" stop-opacity="0"/></linearGradient><linearGradient id="i"><stop offset="0" stop-color="#ededed"/><stop offset="1" stop-color="#fff"/></linearGradient><linearGradient id="h"><stop offset="0" stop-color="#c5c5c5"/><stop offset="1" stop-color="#fff"/></linearGradient><linearGradient id="f"><stop offset="0" stop-color="#bebebe" stop-opacity=".961"/><stop offset="1" stop-color="#d2d2d2" stop-opacity=".961"/></linearGradient><linearGradient gradientTransform="translate(-6.443 -26.228)" gradientUnits="userSpaceOnUse" id="z" x1="80.818" x2="116.553" xlink:href="#a" y1="76.956" y2="93.669"/><linearGradient gradientTransform="translate(-75.792 28.674)" gradientUnits="userSpaceOnUse" id="y" x1="98.067" x2="98.067" xlink:href="#b" y1="-.766" y2="82.386"/><linearGradient gradientTransform="translate(-74.533 27.818)" gradientUnits="userSpaceOnUse" id="x" x1="98.067" x2="98.081" xlink:href="#b" y1="40.044" y2="86.029"/><linearGradient gradientTransform="translate(3.945 -2.187)" gradientUnits="userSpaceOnUse" id="w" x1="22.092" x2="111.036" xlink:href="#c" y1="110.049" y2="70.222"/><linearGradient gradientTransform="translate(3.945 -2.187)" gradientUnits="userSpaceOnUse" id="v" x1="111.086" x2="18.042" xlink:href="#a" y1="70.171" y2="112.276"/><linearGradient gradientTransform="translate(1.037 -2.138)" gradientUnits="userSpaceOnUse" id="u" x1="64.454" x2="109.618" xlink:href="#c" y1="90.905" y2="70.019"/><linearGradient gradientTransform="translate(1.037 -2.138)" gradientUnits="userSpaceOnUse" id="t" x1="65.518" x2="22.092" xlink:href="#a" y1="89.905" y2="110.049"/><linearGradient gradientTransform="translate(1.037 -2.138)" gradientUnits="userSpaceOnUse" id="s" x1="55.206" x2="50.39" xlink:href="#d" y1="100.437" y2="86.955"/><linearGradient gradientTransform="translate(-53.57 -11.378)" gradientUnits="userSpaceOnUse" id="r" x1="75.904" x2="75.904" xlink:href="#e" y1="119.266" y2="35.166"/><linearGradient gradientTransform="translate(-52.31 -12.234)" gradientUnits="userSpaceOnUse" id="q" x1="75.847" x2="75.934" xlink:href="#e" y1="80.096" y2="39.602"/><linearGradient gradientTransform="translate(-8.373 -31.564)" gradientUnits="userSpaceOnUse" id="p" x1="68.241" x2="126.918" xlink:href="#a" y1="67.286" y2="94.518"/><linearGradient gradientTransform="translate(-11.417 -52.458)" gradientUnits="userSpaceOnUse" id="o" x1="101.387" x2="31.871" xlink:href="#a" y1="101.794" y2="70.446"/><linearGradient gradientTransform="translate(-9.48 -47.187)" gradientUnits="userSpaceOnUse" id="n" x1="84.912" x2="33.036" xlink:href="#a" y1="98.91" y2="74.748"/><linearGradient gradientTransform="translate(1.037 -2.138)" gradientUnits="userSpaceOnUse" id="m" x1="70.455" x2="69.013" xlink:href="#f" y1="44.609" y2="48.071"/><linearGradient gradientTransform="translate(1.037 -2.138)" gradientUnits="userSpaceOnUse" id="l" x1="14.667" x2="29.997" xlink:href="#g" y1="75.029" y2="72.661"/><linearGradient gradientTransform="matrix(1.81722 0 0 -1.84309 -59.864 191.459)" gradientUnits="userSpaceOnUse" id="j" x1="90.698" x2="45.536" xlink:href="#i" y1="87.632" y2="45.213"/><radialGradient cx="52.383" cy="76.917" fx="52.383" fy="76.917" gradientTransform="matrix(-1.903 .01053 .00625 1.3944 174.218 -7.75)" gradientUnits="userSpaceOnUse" id="k" r="24.97" xlink:href="#h"/><filter color-interpolation-filters="sRGB" id="A"><feGaussianBlur stdDeviation="1.9"/></filter></defs><path d="M15.503 21.184l4.454-3.598 91.999 42.659v6.51l-92 43.344-4.282-4.283-.171-84.632z" fill="#fff" fill-rule="evenodd"/><path d="M18.03 112.86c.013 2.004 1.524 3.044 3.998 2.05L116.02 70.99l-.024-6.955L22 20.428c-2.443-1.073-3.984.465-3.992 2.436l.022 89.995z" fill="url(#j)" fill-rule="evenodd" transform="translate(-3 -4)"/><path d="M23.066 26.862l-.03 81.556 87.967-39.936c.538-.501.556-.947-.023-1.443L23.066 26.862z" opacity=".3" fill="url(#k)" fill-rule="evenodd" enable-background="new" transform="translate(-3 -4)"/><path d="M23.034 108.475l-3.753 6.623c-.863-.47-1.282-1.208-1.254-2.236v-90.01c.093-1.408.394-1.626.645-2.024l4.371 5.995-.009 81.652z" fill="url(#l)" fill-rule="evenodd" transform="translate(-3 -4)"/><path d="M21.037 20.023c-1.08-.15-1.838.224-2.38.825l4.396 6.008 87.931 40.176c.198.206.467.258.424.704l6.14-.68c-.226-1.508-.545-2.213-1.548-3.009L21.037 20.023z" fill="url(#m)" fill-rule="evenodd" transform="translate(-3 -4)"/><path d="M74.931 51.224L24.055 28.062" fill="none" stroke="url(#n)" enable-background="new" transform="translate(-3 -4)"/><path d="M72.5 46.5L24.078 24.172" fill="none" stroke="url(#o)" enable-background="new" transform="translate(-3 -4)"/><path d="M72.5 46.5l40.612 18.367" fill="none" stroke="url(#p)" enable-background="new" transform="translate(-3 -4)"/><path d="M23.545 67.868l.016-39.903" fill="none" stroke="url(#q)" enable-background="new" transform="translate(-3 -4)"/><path d="M22.633 68.897l-.077-41.237" fill="none" stroke="url(#r)" enable-background="new" transform="translate(-3 -4)"/><path d="M23.043 108.396l-3.784 6.702c.823.3 1.753.225 2.788-.22l93.98-43.875c1.584-1.198 1.675-3.471 1.533-4.005l-6.043.639c-.01.41-.271.72-.49.869l-87.984 39.89z" fill="url(#s)" fill-rule="evenodd" transform="translate(-3 -4)"/><path d="M66.055 88.267L23.628 107.41" fill="none" stroke="url(#t)" transform="translate(-3 -4)"/><path d="M110.155 68.382L65.991 88.267" fill="none" stroke="url(#u)" enable-background="new" transform="translate(-3 -4)"/><path d="M69.419 88.016l-46.577 21.118" fill="none" stroke="url(#v)" enable-background="new" transform="translate(-3 -4)"/><path d="M111.495 68.991l-42.14 19.025" fill="none" stroke="url(#w)" enable-background="new" transform="translate(-3 -4)"/><path d="M23.525 107.417l.02-39.55" fill="none" stroke="url(#x)" enable-background="new" transform="translate(-3 -4)"/><path d="M22.786 107.753l-.154-38.857" fill="none" stroke="url(#y)" enable-background="new" transform="translate(-3 -4)"/><path d="M74.875 51.228l34.735 15.713" fill="none" stroke="url(#z)" enable-background="new" transform="translate(-3 -4)"/><path d="M17.122 24.884c.642-1.47 1.284-1.265 1.926 0v88c.046 1.098.639 1.696 2.053 1.54l91.364-42.648c1.27.484 2.372-.282.571 1.606l-91.935 43.523c-3.275.518-4.32-1.123-4.064-4.021l.085-88z" fill="#3b3b3b" fill-rule="evenodd" filter="url(#A)" transform="translate(-3 -4)"/></svg>