<?xml version="1.0" encoding="UTF-8" standalone="no"?>
<!-- Created with Inkscape (http://www.inkscape.org/) -->

<svg
   xmlns:a="http://ns.adobe.com/AdobeSVGViewerExtensions/3.0/"
   xmlns:dc="http://purl.org/dc/elements/1.1/"
   xmlns:cc="http://creativecommons.org/ns#"
   xmlns:rdf="http://www.w3.org/1999/02/22-rdf-syntax-ns#"
   xmlns:svg="http://www.w3.org/2000/svg"
   xmlns="http://www.w3.org/2000/svg"
   xmlns:xlink="http://www.w3.org/1999/xlink"
   xmlns:sodipodi="http://sodipodi.sourceforge.net/DTD/sodipodi-0.dtd"
   xmlns:inkscape="http://www.inkscape.org/namespaces/inkscape"
   version="1.0"
   width="48pt"
   height="48pt"
   viewBox="0 0 256 256"
   id="svg2"
   xml:space="preserve"
   sodipodi:version="0.32"
   inkscape:version="0.48.4 r9939"
   sodipodi:docname="selsku_lanci_por.svg"
   inkscape:output_extension="org.inkscape.output.svg.inkscape"><metadata
   id="metadata45"><rdf:RDF><cc:Work
       rdf:about=""><dc:format>image/svg+xml</dc:format><dc:type
         rdf:resource="http://purl.org/dc/dcmitype/StillImage" /><dc:title></dc:title></cc:Work></rdf:RDF></metadata><sodipodi:namedview
   inkscape:window-height="777"
   inkscape:window-width="1218"
   inkscape:pageshadow="2"
   inkscape:pageopacity="0.0"
   guidetolerance="10.0"
   gridtolerance="10.0"
   objecttolerance="10.0"
   borderopacity="1.0"
   bordercolor="#666666"
   pagecolor="#ffffff"
   id="base"
   inkscape:zoom="5.854782"
   inkscape:cx="3.2816047"
   inkscape:cy="23.140363"
   inkscape:window-x="54"
   inkscape:window-y="-8"
   inkscape:current-layer="svg2"
   showguides="true"
   inkscape:guide-bbox="true"
   showgrid="false"
   inkscape:window-maximized="1" /><defs
   id="defs271"><linearGradient
     x1="87.396973"
     y1="141.97266"
     x2="240.94727"
     y2="141.97266"
     id="XMLID_22_"
     gradientUnits="userSpaceOnUse"
     gradientTransform="matrix(1.567692,0,0,1.567692,-129.3706,-94.56783)">
								<stop
   style="stop-color:#ffffff;stop-opacity:0.66666675"
   offset="0"
   id="stop139" />
								
								<stop
   style="stop-color:#d7d7d7;stop-opacity:0.21875"
   offset="0.24074516"
   id="stop143" />
								<stop
   style="stop-color:#4d4d4d;stop-opacity:0"
   offset="0.4585622"
   id="stop145" /><stop
   style="stop-color:#ffffff;stop-opacity:0.51041669"
   offset="0.71891773"
   id="stop3696" /><stop
   style="stop-color:#f2f2f2;stop-opacity:0.40000001"
   offset="0.87351298"
   id="stop2807" /><stop
   style="stop-color:#ffffff;stop-opacity:0.62352943"
   offset="1"
   id="stop3694" />
								
								
								<a:midPointStop
   style="stop-color:#E9E9EF"
   offset="0" />
								<a:midPointStop
   style="stop-color:#E9E9EF"
   offset="0.5" />
								<a:midPointStop
   style="stop-color:#B1B1C5"
   offset="0.157303" />
								<a:midPointStop
   style="stop-color:#B1B1C5"
   offset="0.5" />
								<a:midPointStop
   style="stop-color:#CECEDB"
   offset="0.314607" />
								<a:midPointStop
   style="stop-color:#CECEDB"
   offset="0.5" />
								<a:midPointStop
   style="stop-color:#FFFFFF"
   offset="0.65" />
								<a:midPointStop
   style="stop-color:#FFFFFF"
   offset="0.5" />
								<a:midPointStop
   style="stop-color:#CECEDB"
   offset="0.837079" />
								<a:midPointStop
   style="stop-color:#CECEDB"
   offset="0.5" />
								<a:midPointStop
   style="stop-color:#FFFF66"
   offset="1" />
							</linearGradient><linearGradient
     x1="87.396973"
     y1="141.97266"
     x2="269.33331"
     y2="141.97276"
     id="linearGradient1945"
     xlink:href="#XMLID_22_"
     gradientUnits="userSpaceOnUse"
     gradientTransform="matrix(1.567692,0,0,1.567692,-129.3714,-94.56962)" /><linearGradient
     inkscape:collect="always"
     xlink:href="#XMLID_22_"
     id="linearGradient3129"
     gradientUnits="userSpaceOnUse"
     gradientTransform="matrix(1.567692,0,0,1.567692,-129.3714,-94.56962)"
     x1="87.396973"
     y1="141.97266"
     x2="269.33331"
     y2="141.97276" /><g
     id="star"
     fill="white"
     transform="scale(1)"><g
       id="cone"><polygon
         id="triangle"
         points="0,0 0,1 .5,1"
         transform="translate(0,-1) rotate(18)" /><use
         xlink:href="#triangle"
         transform="scale(-1,1)"
         id="use7171" /></g><use
       xlink:href="#cone"
       transform="rotate(72)"
       id="use7173" /><use
       xlink:href="#cone"
       transform="rotate(-72)"
       id="use7175" /><use
       xlink:href="#cone"
       transform="rotate(144)"
       id="use7177" /><use
       xlink:href="#cone"
       transform="rotate(-144)"
       id="use7179" /></g><linearGradient
     gradientTransform="matrix(1.567692,0,0,1.567692,-69.82581,15.22741)"
     x1="124.66386"
     y1="19.659014"
     x2="126.18921"
     y2="122.01807"
     id="XMLID_17_"
     gradientUnits="userSpaceOnUse">
								<stop
   style="stop-color:#034da2;stop-opacity:1;"
   offset="0"
   id="stop18" />
								<stop
   style="stop-color:#034da2;stop-opacity:1;"
   offset="0.154607"
   id="stop20" />
								<stop
   style="stop-color:#ed1d25;stop-opacity:1;"
   offset="0.25460699"
   id="stop22" />
								<stop
   style="stop-color:#ed1d25;stop-opacity:1;"
   offset="0.75"
   id="stop24" />
								<stop
   style="stop-color:#034da2;stop-opacity:1;"
   offset="0.84999996"
   id="stop26" />
								<stop
   style="stop-color:#034da2;stop-opacity:1;"
   offset="1"
   id="stop28" />
								<a:midPointStop
   style="stop-color:#CF0000"
   offset="0" />
								<a:midPointStop
   style="stop-color:#CF0000"
   offset="0.5" />
								<a:midPointStop
   style="stop-color:#7C0000"
   offset="0.157303" />
								<a:midPointStop
   style="stop-color:#7C0000"
   offset="0.5" />
								<a:midPointStop
   style="stop-color:#CF0000"
   offset="0.314607" />
								<a:midPointStop
   style="stop-color:#CF0000"
   offset="0.5" />
								<a:midPointStop
   style="stop-color:#B80000"
   offset="0.65" />
								<a:midPointStop
   style="stop-color:#B80000"
   offset="0.5" />
								<a:midPointStop
   style="stop-color:#CF0000"
   offset="0.837079" />
								<a:midPointStop
   style="stop-color:#CF0000"
   offset="0.5" />
								<a:midPointStop
   style="stop-color:#FF0000"
   offset="1" />
							</linearGradient><linearGradient
     inkscape:collect="always"
     xlink:href="#XMLID_22_"
     id="linearGradient10057"
     gradientUnits="userSpaceOnUse"
     gradientTransform="matrix(1.567692,0,0,1.567692,-129.3714,-94.56962)"
     x1="87.396973"
     y1="141.97266"
     x2="269.33331"
     y2="141.97276" /><linearGradient
     inkscape:collect="always"
     xlink:href="#XMLID_22_"
     id="linearGradient10072"
     gradientUnits="userSpaceOnUse"
     gradientTransform="matrix(1.567692,0,0,1.567692,-129.3714,-94.56962)"
     x1="87.396973"
     y1="141.97266"
     x2="269.33331"
     y2="141.97276" /><linearGradient
     inkscape:collect="always"
     xlink:href="#XMLID_17_"
     id="linearGradient10077"
     gradientUnits="userSpaceOnUse"
     gradientTransform="matrix(1.567692,0,0,1.567692,-69.82581,15.22741)"
     x1="124.66386"
     y1="19.659014"
     x2="126.18921"
     y2="122.01807" /><linearGradient
     gradientTransform="matrix(1.567692,0,0,1.567692,-69.82581,15.22741)"
     gradientUnits="userSpaceOnUse"
     id="linearGradient2938"
     y2="112.30453"
     x2="126.18921"
     y1="39.617504"
     x1="126.18921">
								<stop
   id="stop2940"
   offset="0"
   style="stop-color:#000099;stop-opacity:1;" />
								<stop
   id="stop2942"
   offset="0.19460699"
   style="stop-color:#000099;stop-opacity:1;" />
								<stop
   id="stop2944"
   offset="0.37049741"
   style="stop-color:#ff0000;stop-opacity:1;" />
								<stop
   id="stop2946"
   offset="1"
   style="stop-color:#ff0000;stop-opacity:1;" />
								
								
								<a:midPointStop
   offset="0"
   style="stop-color:#CF0000" />
								<a:midPointStop
   offset="0.5"
   style="stop-color:#CF0000" />
								<a:midPointStop
   offset="0.157303"
   style="stop-color:#7C0000" />
								<a:midPointStop
   offset="0.5"
   style="stop-color:#7C0000" />
								<a:midPointStop
   offset="0.314607"
   style="stop-color:#CF0000" />
								<a:midPointStop
   offset="0.5"
   style="stop-color:#CF0000" />
								<a:midPointStop
   offset="0.65"
   style="stop-color:#B80000" />
								<a:midPointStop
   offset="0.5"
   style="stop-color:#B80000" />
								<a:midPointStop
   offset="0.837079"
   style="stop-color:#CF0000" />
								<a:midPointStop
   offset="0.5"
   style="stop-color:#CF0000" />
								<a:midPointStop
   offset="1"
   style="stop-color:#FF0000" />
							</linearGradient><linearGradient
     gradientTransform="matrix(1.567692,0,0,1.567692,-129.3714,-94.56962)"
     gradientUnits="userSpaceOnUse"
     xlink:href="#XMLID_22_"
     id="linearGradient2936"
     y2="141.97276"
     x2="269.33331"
     y1="141.97266"
     x1="87.396973" /><linearGradient
     gradientTransform="matrix(1.567692,0,0,1.567692,-129.3706,-94.56783)"
     gradientUnits="userSpaceOnUse"
     id="linearGradient2926"
     y2="141.97266"
     x2="240.94727"
     y1="141.97266"
     x1="87.396973">
								<stop
   id="stop2928"
   offset="0"
   style="stop-color:#000000;stop-opacity:0.11764706" />
								<stop
   id="stop141"
   offset="0.15730301"
   style="stop-color:#000000;stop-opacity:0.34901962" />
								<stop
   id="stop2931"
   offset="0.31460699"
   style="stop-color:#000000;stop-opacity:0" />
								<stop
   id="stop2933"
   offset="0.64999998"
   style="stop-color:#000000;stop-opacity:0.37113401" />
								<stop
   id="stop147"
   offset="1"
   style="stop-color:#000000;stop-opacity:0" />
								
								<a:midPointStop
   offset="0"
   style="stop-color:#E9E9EF" />
								<a:midPointStop
   offset="0.5"
   style="stop-color:#E9E9EF" />
								<a:midPointStop
   offset="0.157303"
   style="stop-color:#B1B1C5" />
								<a:midPointStop
   offset="0.5"
   style="stop-color:#B1B1C5" />
								<a:midPointStop
   offset="0.314607"
   style="stop-color:#CECEDB" />
								<a:midPointStop
   offset="0.5"
   style="stop-color:#CECEDB" />
								<a:midPointStop
   offset="0.65"
   style="stop-color:#FFFFFF" />
								<a:midPointStop
   offset="0.5"
   style="stop-color:#FFFFFF" />
								<a:midPointStop
   offset="0.837079"
   style="stop-color:#CECEDB" />
								<a:midPointStop
   offset="0.5"
   style="stop-color:#CECEDB" />
								<a:midPointStop
   offset="1"
   style="stop-color:#FFFF66" />
							</linearGradient><linearGradient
     inkscape:collect="always"
     xlink:href="#XMLID_22_"
     id="linearGradient2966"
     gradientUnits="userSpaceOnUse"
     gradientTransform="matrix(1.567692,0,0,1.567692,-129.3714,-94.56962)"
     x1="87.396973"
     y1="141.97266"
     x2="269.33331"
     y2="141.97276" /><linearGradient
     x1="1.7908548"
     y1="30"
     x2="58.209145"
     y2="30"
     id="linearGradient4439"
     xlink:href="#linearGradient4393"
     gradientUnits="userSpaceOnUse"
     gradientTransform="translate(0,0.2524855)" /><linearGradient
     id="linearGradient4393"><stop
       id="stop4395"
       style="stop-color:#ffffff;stop-opacity:0.88235295"
       offset="0" /><stop
       id="stop4397"
       style="stop-color:#ffffff;stop-opacity:0"
       offset="0.19114393" /><stop
       id="stop4399"
       style="stop-color:#ffffff;stop-opacity:1"
       offset="0.6526885" /><stop
       id="stop4401"
       style="stop-color:#ffffff;stop-opacity:0"
       offset="0.82074904" /><stop
       id="stop4403"
       style="stop-color:#ffffff;stop-opacity:0.60714287"
       offset="1" /></linearGradient><linearGradient
     x1="1.7908548"
     y1="30"
     x2="58.209145"
     y2="30"
     id="linearGradient4431"
     xlink:href="#linearGradient4451"
     gradientUnits="userSpaceOnUse"
     gradientTransform="translate(0,0.2524855)" /><linearGradient
     id="linearGradient4451"><stop
       id="stop4453"
       style="stop-color:#000000;stop-opacity:0"
       offset="0" /><stop
       id="stop4455"
       style="stop-color:#000000;stop-opacity:0.84523809"
       offset="0.19114393" /><stop
       id="stop4457"
       style="stop-color:#000000;stop-opacity:0"
       offset="0.6526885" /><stop
       id="stop4459"
       style="stop-color:#000000;stop-opacity:0.61057693"
       offset="0.82074904" /><stop
       id="stop4461"
       style="stop-color:#000000;stop-opacity:0"
       offset="1" /></linearGradient><linearGradient
     x1="1.7908548"
     y1="30"
     x2="58.209145"
     y2="30"
     id="linearGradient4439-1"
     xlink:href="#linearGradient4393-7"
     gradientUnits="userSpaceOnUse"
     gradientTransform="translate(0,0.2524855)" /><linearGradient
     id="linearGradient4393-7"><stop
       id="stop4395-4"
       style="stop-color:#ffffff;stop-opacity:0.88235295"
       offset="0" /><stop
       id="stop4397-0"
       style="stop-color:#ffffff;stop-opacity:0"
       offset="0.19114393" /><stop
       id="stop4399-9"
       style="stop-color:#ffffff;stop-opacity:1"
       offset="0.6526885" /><stop
       id="stop4401-4"
       style="stop-color:#ffffff;stop-opacity:0"
       offset="0.82074904" /><stop
       id="stop4403-8"
       style="stop-color:#ffffff;stop-opacity:0.60714287"
       offset="1" /></linearGradient><linearGradient
     x1="1.7908548"
     y1="30"
     x2="58.209145"
     y2="30"
     id="linearGradient4431-8"
     xlink:href="#linearGradient4451-2"
     gradientUnits="userSpaceOnUse"
     gradientTransform="translate(0,0.2524855)" /><linearGradient
     id="linearGradient4451-2"><stop
       id="stop4453-4"
       style="stop-color:#000000;stop-opacity:0"
       offset="0" /><stop
       id="stop4455-5"
       style="stop-color:#000000;stop-opacity:0.84523809"
       offset="0.19114393" /><stop
       id="stop4457-5"
       style="stop-color:#000000;stop-opacity:0"
       offset="0.6526885" /><stop
       id="stop4459-1"
       style="stop-color:#000000;stop-opacity:0.61057693"
       offset="0.82074904" /><stop
       id="stop4461-7"
       style="stop-color:#000000;stop-opacity:0"
       offset="1" /></linearGradient><linearGradient
     x1="1.7908548"
     y1="30"
     x2="58.209145"
     y2="30"
     id="linearGradient4439-11"
     xlink:href="#linearGradient4393-5"
     gradientUnits="userSpaceOnUse"
     gradientTransform="translate(0,0.2524855)" /><linearGradient
     id="linearGradient4393-5"><stop
       id="stop4395-2"
       style="stop-color:#ffffff;stop-opacity:0.88235295"
       offset="0" /><stop
       id="stop4397-7"
       style="stop-color:#ffffff;stop-opacity:0"
       offset="0.19114393" /><stop
       id="stop4399-6"
       style="stop-color:#ffffff;stop-opacity:1"
       offset="0.6526885" /><stop
       id="stop4401-1"
       style="stop-color:#ffffff;stop-opacity:0"
       offset="0.82074904" /><stop
       id="stop4403-4"
       style="stop-color:#ffffff;stop-opacity:0.60714287"
       offset="1" /></linearGradient><linearGradient
     x1="1.7908548"
     y1="30"
     x2="58.209145"
     y2="30"
     id="linearGradient4431-2"
     xlink:href="#linearGradient4451-3"
     gradientUnits="userSpaceOnUse"
     gradientTransform="translate(0,0.2524855)" /><linearGradient
     id="linearGradient4451-3"><stop
       id="stop4453-2"
       style="stop-color:#000000;stop-opacity:0"
       offset="0" /><stop
       id="stop4455-2"
       style="stop-color:#000000;stop-opacity:0.84523809"
       offset="0.19114393" /><stop
       id="stop4457-1"
       style="stop-color:#000000;stop-opacity:0"
       offset="0.6526885" /><stop
       id="stop4459-6"
       style="stop-color:#000000;stop-opacity:0.61057693"
       offset="0.82074904" /><stop
       id="stop4461-8"
       style="stop-color:#000000;stop-opacity:0"
       offset="1" /></linearGradient><linearGradient
     x1="1.7908548"
     y1="30"
     x2="58.209145"
     y2="30"
     id="linearGradient4439-5"
     xlink:href="#linearGradient4393-76"
     gradientUnits="userSpaceOnUse"
     gradientTransform="translate(0,0.2524855)" /><linearGradient
     id="linearGradient4393-76"><stop
       id="stop4395-1"
       style="stop-color:#ffffff;stop-opacity:0.88235295"
       offset="0" /><stop
       id="stop4397-8"
       style="stop-color:#ffffff;stop-opacity:0"
       offset="0.19114393" /><stop
       id="stop4399-92"
       style="stop-color:#ffffff;stop-opacity:1"
       offset="0.6526885" /><stop
       id="stop4401-7"
       style="stop-color:#ffffff;stop-opacity:0"
       offset="0.82074904" /><stop
       id="stop4403-9"
       style="stop-color:#ffffff;stop-opacity:0.60714287"
       offset="1" /></linearGradient><linearGradient
     x1="1.7908548"
     y1="30"
     x2="58.209145"
     y2="30"
     id="linearGradient4431-5"
     xlink:href="#linearGradient4451-4"
     gradientUnits="userSpaceOnUse"
     gradientTransform="translate(0,0.2524855)" /><linearGradient
     id="linearGradient4451-4"><stop
       id="stop4453-3"
       style="stop-color:#000000;stop-opacity:0"
       offset="0" /><stop
       id="stop4455-1"
       style="stop-color:#000000;stop-opacity:0.84523809"
       offset="0.19114393" /><stop
       id="stop4457-2"
       style="stop-color:#000000;stop-opacity:0"
       offset="0.6526885" /><stop
       id="stop4459-3"
       style="stop-color:#000000;stop-opacity:0.61057693"
       offset="0.82074904" /><stop
       id="stop4461-3"
       style="stop-color:#000000;stop-opacity:0"
       offset="1" /></linearGradient><linearGradient
     x1="1.7908548"
     y1="30"
     x2="58.209145"
     y2="30"
     id="linearGradient4439-4"
     xlink:href="#linearGradient4393-1"
     gradientUnits="userSpaceOnUse"
     gradientTransform="translate(0,0.2524855)" /><linearGradient
     id="linearGradient4393-1"><stop
       id="stop4395-13"
       style="stop-color:#ffffff;stop-opacity:0.88235295"
       offset="0" /><stop
       id="stop4397-87"
       style="stop-color:#ffffff;stop-opacity:0"
       offset="0.19114393" /><stop
       id="stop4399-4"
       style="stop-color:#ffffff;stop-opacity:1"
       offset="0.6526885" /><stop
       id="stop4401-2"
       style="stop-color:#ffffff;stop-opacity:0"
       offset="0.82074904" /><stop
       id="stop4403-7"
       style="stop-color:#ffffff;stop-opacity:0.60714287"
       offset="1" /></linearGradient><linearGradient
     x1="1.7908548"
     y1="30"
     x2="58.209145"
     y2="30"
     id="linearGradient4431-7"
     xlink:href="#linearGradient4451-9"
     gradientUnits="userSpaceOnUse"
     gradientTransform="translate(0,0.2524855)" /><linearGradient
     id="linearGradient4451-9"><stop
       id="stop4453-31"
       style="stop-color:#000000;stop-opacity:0"
       offset="0" /><stop
       id="stop4455-9"
       style="stop-color:#000000;stop-opacity:0.84523809"
       offset="0.19114393" /><stop
       id="stop4457-8"
       style="stop-color:#000000;stop-opacity:0"
       offset="0.6526885" /><stop
       id="stop4459-65"
       style="stop-color:#000000;stop-opacity:0.61057693"
       offset="0.82074904" /><stop
       id="stop4461-0"
       style="stop-color:#000000;stop-opacity:0"
       offset="1" /></linearGradient><linearGradient
     x1="1.7908548"
     y1="30"
     x2="58.209145"
     y2="30"
     id="linearGradient4439-2"
     xlink:href="#linearGradient4393-8"
     gradientUnits="userSpaceOnUse"
     gradientTransform="translate(0,0.2524855)" /><linearGradient
     id="linearGradient4393-8"><stop
       id="stop4395-6"
       style="stop-color:#ffffff;stop-opacity:0.88235295"
       offset="0" /><stop
       id="stop4397-02"
       style="stop-color:#ffffff;stop-opacity:0"
       offset="0.19114393" /><stop
       id="stop4399-48"
       style="stop-color:#ffffff;stop-opacity:1"
       offset="0.6526885" /><stop
       id="stop4401-6"
       style="stop-color:#ffffff;stop-opacity:0"
       offset="0.82074904" /><stop
       id="stop4403-5"
       style="stop-color:#ffffff;stop-opacity:0.60714287"
       offset="1" /></linearGradient><linearGradient
     x1="1.7908548"
     y1="30"
     x2="58.209145"
     y2="30"
     id="linearGradient4431-0"
     xlink:href="#linearGradient4451-90"
     gradientUnits="userSpaceOnUse"
     gradientTransform="translate(0,0.2524855)" /><linearGradient
     id="linearGradient4451-90"><stop
       id="stop4453-0"
       style="stop-color:#000000;stop-opacity:0"
       offset="0" /><stop
       id="stop4455-6"
       style="stop-color:#000000;stop-opacity:0.84523809"
       offset="0.19114393" /><stop
       id="stop4457-13"
       style="stop-color:#000000;stop-opacity:0"
       offset="0.6526885" /><stop
       id="stop4459-8"
       style="stop-color:#000000;stop-opacity:0.61057693"
       offset="0.82074904" /><stop
       id="stop4461-9"
       style="stop-color:#000000;stop-opacity:0"
       offset="1" /></linearGradient><linearGradient
     x1="1.7908548"
     y1="30"
     x2="58.209145"
     y2="30"
     id="linearGradient4439-1-3"
     xlink:href="#linearGradient4393-7-4"
     gradientUnits="userSpaceOnUse"
     gradientTransform="translate(0,0.2524855)" /><linearGradient
     id="linearGradient4393-7-4"><stop
       id="stop4395-4-4"
       style="stop-color:#ffffff;stop-opacity:0.88235295"
       offset="0" /><stop
       id="stop4397-0-6"
       style="stop-color:#ffffff;stop-opacity:0"
       offset="0.19114393" /><stop
       id="stop4399-9-0"
       style="stop-color:#ffffff;stop-opacity:1"
       offset="0.6526885" /><stop
       id="stop4401-4-6"
       style="stop-color:#ffffff;stop-opacity:0"
       offset="0.82074904" /><stop
       id="stop4403-8-6"
       style="stop-color:#ffffff;stop-opacity:0.60714287"
       offset="1" /></linearGradient><linearGradient
     x1="1.7908548"
     y1="30"
     x2="58.209145"
     y2="30"
     id="linearGradient4431-8-1"
     xlink:href="#linearGradient4451-2-8"
     gradientUnits="userSpaceOnUse"
     gradientTransform="translate(0,0.2524855)" /><linearGradient
     id="linearGradient4451-2-8"><stop
       id="stop4453-4-4"
       style="stop-color:#000000;stop-opacity:0"
       offset="0" /><stop
       id="stop4455-5-9"
       style="stop-color:#000000;stop-opacity:0.84523809"
       offset="0.19114393" /><stop
       id="stop4457-5-6"
       style="stop-color:#000000;stop-opacity:0"
       offset="0.6526885" /><stop
       id="stop4459-1-3"
       style="stop-color:#000000;stop-opacity:0.61057693"
       offset="0.82074904" /><stop
       id="stop4461-7-7"
       style="stop-color:#000000;stop-opacity:0"
       offset="1" /></linearGradient><linearGradient
     x1="1.7908548"
     y1="30"
     x2="58.209145"
     y2="30"
     id="linearGradient4439-8"
     xlink:href="#linearGradient4393-82"
     gradientUnits="userSpaceOnUse"
     gradientTransform="translate(0,0.2524855)" /><linearGradient
     id="linearGradient4393-82"><stop
       id="stop4395-9"
       style="stop-color:#ffffff;stop-opacity:0.88235295"
       offset="0" /><stop
       id="stop4397-1"
       style="stop-color:#ffffff;stop-opacity:0"
       offset="0.19114393" /><stop
       id="stop4399-3"
       style="stop-color:#ffffff;stop-opacity:1"
       offset="0.6526885" /><stop
       id="stop4401-5"
       style="stop-color:#ffffff;stop-opacity:0"
       offset="0.82074904" /><stop
       id="stop4403-98"
       style="stop-color:#ffffff;stop-opacity:0.60714287"
       offset="1" /></linearGradient><linearGradient
     x1="1.7908548"
     y1="30"
     x2="58.209145"
     y2="30"
     id="linearGradient4431-4"
     xlink:href="#linearGradient4451-0"
     gradientUnits="userSpaceOnUse"
     gradientTransform="translate(0,0.2524855)" /><linearGradient
     id="linearGradient4451-0"><stop
       id="stop4453-7"
       style="stop-color:#000000;stop-opacity:0"
       offset="0" /><stop
       id="stop4455-63"
       style="stop-color:#000000;stop-opacity:0.84523809"
       offset="0.19114393" /><stop
       id="stop4457-6"
       style="stop-color:#000000;stop-opacity:0"
       offset="0.6526885" /><stop
       id="stop4459-15"
       style="stop-color:#000000;stop-opacity:0.61057693"
       offset="0.82074904" /><stop
       id="stop4461-4"
       style="stop-color:#000000;stop-opacity:0"
       offset="1" /></linearGradient></defs>
	
		
	<path
   d="m 203.2,27.276189 c -5.14436,-0.061 -10.22483,0.249088 -15.33333,0.8 C 157.2154,31.3817 127.03079,44.243272 97.199998,52.209522 67.369205,60.175773 38.10052,63.310514 8.8,47.809522 7.9692783,47.406608 6.9900276,47.457531 6.2055762,47.94443 c -0.7844515,0.486904 -1.2646524,1.34185 -1.2722428,2.265092 0,55.614768 0,111.184438 0,166.799998 -0.00114,1.0121 0.5654878,1.93932 1.4666666,2.4 41.172495,21.78127 82.259949,8.5793 122.4,-4.26667 40.14005,-12.84596 79.33273,-25.33591 118.4,-4.66666 0.83072,0.4029 1.80997,0.352 2.59442,-0.13491 0.78446,-0.48691 1.26466,-1.34185 1.27225,-2.2651 0,-55.6148 0,-111.184464 0,-166.799995 0.001,-1.012097 -0.56549,-1.939314 -1.46667,-2.399996 -15.44209,-8.170074 -30.96691,-11.417016 -46.4,-11.6 z"
   id="path4316"
   style="fill:#fe7342;fill-opacity:1;stroke:#4d4d4d;stroke-width:4.26666689;stroke-miterlimit:4;stroke-opacity:1;stroke-dasharray:none"
   inkscape:connector-curvature="0" /><g
   transform="scale(4.2666667,4.2666667)"
   id="g4423"><path
     inkscape:connector-curvature="0"
     d="M 47.625,7.6875 C 46.478387,7.6751786 45.307947,7.750798 44.15625,7.875 37.246136,8.6202046 30.242215,11.599363 23.125,13.5 16.336129,15.312953 9.3884528,16.071833 2.46875,12.8125 c 0,12.53404 0,25.05922 0,37.59375 9.012776,4.561494 18.032463,1.719877 27.3125,-1.25 9.082663,-2.906712 18.415007,-5.837518 27.75,-1.4375 0,-12.544483 0,-25.080057 0,-37.625 C 54.230112,8.4228131 50.940234,7.7231253 47.625,7.6875 z"
     id="path4437"
     style="opacity:0.71052635;fill:url(#linearGradient4439-8);fill-opacity:1" /><path
     inkscape:connector-curvature="0"
     d="M 47.625,7.6875 C 46.478172,7.6751714 45.308113,7.7507801 44.15625,7.875 37.24514,8.620312 30.241758,11.599485 23.125,13.5 16.334133,15.313486 9.3895661,16.044038 2.46875,12.78125 c 0,12.544474 0,25.080051 0,37.625 9.014617,4.562425 18.032463,1.719877 27.3125,-1.25 9.082663,-2.906712 18.416806,-5.836671 27.75,-1.4375 0,-12.544483 0,-25.080057 0,-37.625 C 54.229425,8.422469 50.940856,7.7231461 47.625,7.6875 z"
     id="path4429"
     style="opacity:0.2842105;fill:url(#linearGradient4431-4);fill-opacity:1" /></g><g
   transform="scale(4.2666667,4.2666667)"
   style="font-size:40px;font-style:normal;font-weight:normal;line-height:125%;letter-spacing:0px;word-spacing:0px;fill:#000000;fill-opacity:1;stroke:none;font-family:Sans"
   id="text3035"><path
     inkscape:connector-curvature="0"
     d="m 6.1114354,34.442677 1.1806641,0 c 1.2314397,0 2.1761816,-0.351236 2.8342285,-1.053711 0.658032,-0.702472 0.987052,-1.709632 0.987061,-3.021485 -9e-6,-1.311843 -0.327971,-2.314771 -0.983887,-3.008789 C 9.4735708,26.66469 8.5277709,26.317685 7.2920995,26.317677 l -1.1806641,0 z m -2.4946289,0.672851 0,-0.672851 1.2060547,0 0,-8.125 -1.2060547,0 0,-0.6792 3.7705078,0 c 1.6334574,10e-6 2.9061617,0.416839 3.8181157,1.250489 0.911937,0.833666 1.36791,1.99317 1.367919,3.478515 -9e-6,1.489587 -0.45704,2.653323 -1.371093,3.491211 -0.91407,0.837891 -2.185716,1.256836 -3.8149417,1.256836 z"
     style="font-size:13px;font-variant:normal;font-stretch:normal;font-family:DejaVu Serif;-inkscape-font-specification:DejaVu Serif"
     id="path3030" /><path
     inkscape:connector-curvature="0"
     d="m 20.380967,31.865528 -5.033692,0 0,0.05078 c -2e-6,0.909833 0.171385,1.596438 0.51416,2.059815 0.342771,0.463379 0.848467,0.695069 1.51709,0.695068 0.51204,10e-7 0.932043,-0.134358 1.26001,-0.403076 0.327957,-0.268716 0.55753,-0.66756 0.688721,-1.196533 l 0.939453,0 c -0.186205,0.740561 -0.530036,1.297038 -1.031494,1.669433 -0.501471,0.372396 -1.160568,0.558594 -1.977295,0.558594 -0.986006,0 -1.778404,-0.324788 -2.377197,-0.974365 -0.598797,-0.649575 -0.898194,-1.511798 -0.898194,-2.58667 0,-1.066402 0.294107,-1.92545 0.882324,-2.577148 0.588214,-0.651687 1.360512,-0.977533 2.316895,-0.97754 1.019852,7e-6 1.802729,0.314216 2.348633,0.942627 0.545891,0.628424 0.82942,1.541427 0.850586,2.739014 z m -1.377442,-0.672851 c -0.0254,-0.787105 -0.191493,-1.38061 -0.498291,-1.780518 -0.306808,-0.399896 -0.74797,-0.599847 -1.323486,-0.599854 -0.537438,7e-6 -0.960615,0.201016 -1.269531,0.603028 -0.308922,0.402023 -0.497235,0.994471 -0.564942,1.777344 z"
     style="font-size:13px;font-variant:normal;font-stretch:normal;font-family:DejaVu Serif;-inkscape-font-specification:DejaVu Serif"
     id="path3032" /><path
     inkscape:connector-curvature="0"
     d="m 25.630478,28.36797 2.183594,0 0,6.074707 1.104492,0 0,0.672851 -2.272461,0 0,-1.193359 c -0.215825,0.448568 -0.495122,0.790283 -0.83789,1.025146 -0.342778,0.234863 -0.740564,0.352295 -1.19336,0.352295 -0.749026,0 -1.300213,-0.212646 -1.653564,-0.637939 -0.353355,-0.425292 -0.530031,-1.092854 -0.530029,-2.002686 l 0,-3.611816 -1.053711,0 0,-0.679199 2.228027,0 0,3.929199 c -3e-6,0.820965 0.100502,1.38379 0.301514,1.688476 0.201006,0.304689 0.559648,0.457032 1.075927,0.457032 0.541663,0 0.95426,-0.198893 1.237793,-0.59668 0.283524,-0.397785 0.425288,-0.975421 0.425293,-1.73291 l 0,-3.065918 -1.015625,0 z"
     style="font-size:13px;font-variant:normal;font-stretch:normal;font-family:DejaVu Serif;-inkscape-font-specification:DejaVu Serif"
     id="path3034" /><path
     inkscape:connector-curvature="0"
     d="m 30.810166,29.047169 -1.02832,0 0,-0.679199 1.02832,0 0,-2.094727 1.174316,0 0,2.094727 2.196289,0 0,0.679199 -2.196289,0 0,4.284668 c -2e-6,0.57129 0.05501,0.937338 0.165039,1.098144 0.110024,0.160808 0.313148,0.241212 0.609375,0.241211 0.304684,1e-6 0.526852,-0.08992 0.666504,-0.269775 0.139645,-0.17985 0.2137,-0.470784 0.222168,-0.872803 l 0.882324,0 c -0.03386,0.613608 -0.201014,1.062175 -0.501464,1.345703 -0.30046,0.283529 -0.757491,0.425293 -1.371094,0.425293 -0.672854,0 -1.148928,-0.14917 -1.428223,-0.44751 -0.279298,-0.298339 -0.418947,-0.805093 -0.418945,-1.520263 z"
     style="font-size:13px;font-variant:normal;font-stretch:normal;font-family:DejaVu Serif;-inkscape-font-specification:DejaVu Serif"
     id="path3036" /><path
     inkscape:connector-curvature="0"
     d="m 35.367783,34.741016 0,-1.574218 0.672852,0 c 0.01693,0.503582 0.174559,0.880209 0.4729,1.129882 0.298338,0.249675 0.739499,0.374513 1.323486,0.374512 0.524736,1e-6 0.924638,-0.09839 1.199707,-0.295166 0.275061,-0.196776 0.412593,-0.483478 0.412598,-0.860107 -5e-6,-0.296222 -0.100509,-0.535317 -0.301514,-0.717285 -0.201013,-0.181964 -0.625248,-0.376625 -1.272705,-0.583985 l -0.844238,-0.285644 c -0.579754,-0.186195 -0.999757,-0.418942 -1.26001,-0.698243 -0.260255,-0.279292 -0.390381,-0.634761 -0.390381,-1.066406 0,-0.617833 0.226399,-1.10237 0.6792,-1.453613 0.452797,-0.35123 1.079099,-0.526849 1.878906,-0.526856 0.355465,7e-6 0.729976,0.04656 1.123535,0.139649 0.39355,0.09311 0.799799,0.228522 1.21875,0.40625 l 0,1.472656 -0.672852,0 c -0.01693,-0.435867 -0.169275,-0.776524 -0.457031,-1.021972 -0.287764,-0.245437 -0.679203,-0.368158 -1.174316,-0.368165 -0.490888,7e-6 -0.862226,0.08676 -1.114014,0.260254 -0.251792,0.173509 -0.377687,0.433762 -0.377685,0.780762 -2e-6,0.283534 0.09521,0.510991 0.285644,0.682373 0.190427,0.171391 0.571286,0.345952 1.142578,0.523682 l 0.926758,0.285644 c 0.638993,0.198897 1.099197,0.447513 1.380615,0.74585 0.281407,0.298342 0.422113,0.682375 0.422119,1.1521 -6e-6,0.638998 -0.24439,1.14152 -0.733154,1.507568 -0.488774,0.366048 -1.162683,0.549072 -2.021728,0.549072 -0.435876,0 -0.861168,-0.04655 -1.275879,-0.139648 -0.414715,-0.0931 -0.829429,-0.232748 -1.244141,-0.418946 z"
     style="font-size:13px;font-variant:normal;font-stretch:normal;font-family:DejaVu Serif;-inkscape-font-specification:DejaVu Serif"
     id="path3038" /><path
     inkscape:connector-curvature="0"
     d="m 47.999619,33.090626 c -0.165046,0.719402 -0.482428,1.267416 -0.952148,1.644043 -0.469732,0.376627 -1.076991,0.564941 -1.821778,0.564941 -0.981774,0 -1.770998,-0.324788 -2.367676,-0.974365 -0.59668,-0.649575 -0.89502,-1.511798 -0.895019,-2.58667 -10e-7,-1.079097 0.298339,-1.94132 0.895019,-2.58667 0.596678,-0.645338 1.385902,-0.968011 2.367676,-0.968018 0.427405,7e-6 0.852697,0.04973 1.275879,0.14917 0.423172,0.09945 0.848464,0.250739 1.275879,0.453858 l 0,1.726562 -0.679199,0 c -0.08887,-0.592442 -0.282476,-1.024083 -0.580811,-1.294922 -0.298344,-0.270827 -0.724695,-0.406243 -1.279052,-0.40625 -0.630538,7e-6 -1.106611,0.244391 -1.428223,0.733155 -0.321617,0.488774 -0.482424,1.219812 -0.482422,2.193115 -2e-6,0.97331 0.159747,1.705405 0.479248,2.196289 0.319496,0.490886 0.796628,0.736329 1.431397,0.736328 0.503576,1e-6 0.905594,-0.131184 1.206054,-0.393555 0.300451,-0.262368 0.505691,-0.658038 0.615723,-1.187011 z"
     style="font-size:13px;font-variant:normal;font-stretch:normal;font-family:DejaVu Serif;-inkscape-font-specification:DejaVu Serif"
     id="path3040" /><path
     inkscape:connector-curvature="0"
     d="m 49.135849,35.115528 0,-0.672851 1.053711,0 0,-8.53125 -1.117187,0 0,-0.672852 2.285156,0 0,4.329102 c 0.215818,-0.457026 0.496172,-0.801915 0.841065,-1.034668 0.344885,-0.232741 0.745845,-0.349115 1.20288,-0.349122 0.744787,7e-6 1.2928,0.213712 1.644043,0.641114 0.351231,0.427414 0.526849,1.093918 0.526856,1.999511 l 0,3.618165 1.041016,0 0,0.672851 -3.22461,0 0,-0.672851 1.009278,0 0,-3.25 c -6e-6,-0.825191 -0.100511,-1.389074 -0.301514,-1.691651 -0.201015,-0.302566 -0.559657,-0.453851 -1.075928,-0.453857 -0.54167,6e-6 -0.954268,0.196783 -1.237793,0.590332 -0.283531,0.39356 -0.425296,0.966964 -0.425293,1.720215 l 0,3.084961 1.015625,0 0,0.672851 z"
     style="font-size:13px;font-variant:normal;font-stretch:normal;font-family:DejaVu Serif;-inkscape-font-specification:DejaVu Serif"
     id="path3042" /></g></svg>