<?xml version="1.0" encoding="UTF-8" standalone="no"?>
<!-- Created with Inkscape (http://www.inkscape.org/) -->

<svg
   xmlns:a="http://ns.adobe.com/AdobeSVGViewerExtensions/3.0/"
   xmlns:dc="http://purl.org/dc/elements/1.1/"
   xmlns:cc="http://creativecommons.org/ns#"
   xmlns:rdf="http://www.w3.org/1999/02/22-rdf-syntax-ns#"
   xmlns:svg="http://www.w3.org/2000/svg"
   xmlns="http://www.w3.org/2000/svg"
   xmlns:xlink="http://www.w3.org/1999/xlink"
   xmlns:sodipodi="http://sodipodi.sourceforge.net/DTD/sodipodi-0.dtd"
   xmlns:inkscape="http://www.inkscape.org/namespaces/inkscape"
   version="1.0"
   width="48pt"
   height="48pt"
   viewBox="0 0 256 256"
   id="svg2"
   xml:space="preserve"
   sodipodi:version="0.32"
   inkscape:version="0.48.4 r9939"
   sodipodi:docname="lanci_epo.svg"
   inkscape:output_extension="org.inkscape.output.svg.inkscape"><metadata
   id="metadata45"><rdf:RDF><cc:Work
       rdf:about=""><dc:format>image/svg+xml</dc:format><dc:type
         rdf:resource="http://purl.org/dc/dcmitype/StillImage" /><dc:title></dc:title></cc:Work></rdf:RDF></metadata><sodipodi:namedview
   inkscape:window-height="777"
   inkscape:window-width="1218"
   inkscape:pageshadow="2"
   inkscape:pageopacity="0.0"
   guidetolerance="10.0"
   gridtolerance="10.0"
   objecttolerance="10.0"
   borderopacity="1.0"
   bordercolor="#666666"
   pagecolor="#ffffff"
   id="base"
   inkscape:zoom="5.854782"
   inkscape:cx="9.589334"
   inkscape:cy="23.140363"
   inkscape:window-x="54"
   inkscape:window-y="-8"
   inkscape:current-layer="svg2"
   showguides="true"
   inkscape:guide-bbox="true"
   showgrid="false"
   inkscape:window-maximized="1" /><defs
   id="defs271"><linearGradient
     x1="87.396973"
     y1="141.97266"
     x2="240.94727"
     y2="141.97266"
     id="XMLID_22_"
     gradientUnits="userSpaceOnUse"
     gradientTransform="matrix(1.567692,0,0,1.567692,-129.3706,-94.56783)">
								<stop
   style="stop-color:#ffffff;stop-opacity:0.66666675"
   offset="0"
   id="stop139" />
								
								<stop
   style="stop-color:#d7d7d7;stop-opacity:0.21875"
   offset="0.24074516"
   id="stop143" />
								<stop
   style="stop-color:#4d4d4d;stop-opacity:0"
   offset="0.4585622"
   id="stop145" /><stop
   style="stop-color:#ffffff;stop-opacity:0.51041669"
   offset="0.71891773"
   id="stop3696" /><stop
   style="stop-color:#f2f2f2;stop-opacity:0.40000001"
   offset="0.87351298"
   id="stop2807" /><stop
   style="stop-color:#ffffff;stop-opacity:0.62352943"
   offset="1"
   id="stop3694" />
								
								
								<a:midPointStop
   style="stop-color:#E9E9EF"
   offset="0" />
								<a:midPointStop
   style="stop-color:#E9E9EF"
   offset="0.5" />
								<a:midPointStop
   style="stop-color:#B1B1C5"
   offset="0.157303" />
								<a:midPointStop
   style="stop-color:#B1B1C5"
   offset="0.5" />
								<a:midPointStop
   style="stop-color:#CECEDB"
   offset="0.314607" />
								<a:midPointStop
   style="stop-color:#CECEDB"
   offset="0.5" />
								<a:midPointStop
   style="stop-color:#FFFFFF"
   offset="0.65" />
								<a:midPointStop
   style="stop-color:#FFFFFF"
   offset="0.5" />
								<a:midPointStop
   style="stop-color:#CECEDB"
   offset="0.837079" />
								<a:midPointStop
   style="stop-color:#CECEDB"
   offset="0.5" />
								<a:midPointStop
   style="stop-color:#FFFF66"
   offset="1" />
							</linearGradient><linearGradient
     x1="87.396973"
     y1="141.97266"
     x2="269.33331"
     y2="141.97276"
     id="linearGradient1945"
     xlink:href="#XMLID_22_"
     gradientUnits="userSpaceOnUse"
     gradientTransform="matrix(1.567692,0,0,1.567692,-129.3714,-94.56962)" /><linearGradient
     inkscape:collect="always"
     xlink:href="#XMLID_22_"
     id="linearGradient3129"
     gradientUnits="userSpaceOnUse"
     gradientTransform="matrix(1.567692,0,0,1.567692,-129.3714,-94.56962)"
     x1="87.396973"
     y1="141.97266"
     x2="269.33331"
     y2="141.97276" /><g
     id="star"
     fill="white"
     transform="scale(1)"><g
       id="cone"><polygon
         id="triangle"
         points="0,0 0,1 .5,1"
         transform="translate(0,-1) rotate(18)" /><use
         xlink:href="#triangle"
         transform="scale(-1,1)"
         id="use7171" /></g><use
       xlink:href="#cone"
       transform="rotate(72)"
       id="use7173" /><use
       xlink:href="#cone"
       transform="rotate(-72)"
       id="use7175" /><use
       xlink:href="#cone"
       transform="rotate(144)"
       id="use7177" /><use
       xlink:href="#cone"
       transform="rotate(-144)"
       id="use7179" /></g><linearGradient
     gradientTransform="matrix(1.567692,0,0,1.567692,-69.82581,15.22741)"
     x1="124.66386"
     y1="19.659014"
     x2="126.18921"
     y2="122.01807"
     id="XMLID_17_"
     gradientUnits="userSpaceOnUse">
								<stop
   style="stop-color:#034da2;stop-opacity:1;"
   offset="0"
   id="stop18" />
								<stop
   style="stop-color:#034da2;stop-opacity:1;"
   offset="0.154607"
   id="stop20" />
								<stop
   style="stop-color:#ed1d25;stop-opacity:1;"
   offset="0.25460699"
   id="stop22" />
								<stop
   style="stop-color:#ed1d25;stop-opacity:1;"
   offset="0.75"
   id="stop24" />
								<stop
   style="stop-color:#034da2;stop-opacity:1;"
   offset="0.84999996"
   id="stop26" />
								<stop
   style="stop-color:#034da2;stop-opacity:1;"
   offset="1"
   id="stop28" />
								<a:midPointStop
   style="stop-color:#CF0000"
   offset="0" />
								<a:midPointStop
   style="stop-color:#CF0000"
   offset="0.5" />
								<a:midPointStop
   style="stop-color:#7C0000"
   offset="0.157303" />
								<a:midPointStop
   style="stop-color:#7C0000"
   offset="0.5" />
								<a:midPointStop
   style="stop-color:#CF0000"
   offset="0.314607" />
								<a:midPointStop
   style="stop-color:#CF0000"
   offset="0.5" />
								<a:midPointStop
   style="stop-color:#B80000"
   offset="0.65" />
								<a:midPointStop
   style="stop-color:#B80000"
   offset="0.5" />
								<a:midPointStop
   style="stop-color:#CF0000"
   offset="0.837079" />
								<a:midPointStop
   style="stop-color:#CF0000"
   offset="0.5" />
								<a:midPointStop
   style="stop-color:#FF0000"
   offset="1" />
							</linearGradient><linearGradient
     inkscape:collect="always"
     xlink:href="#XMLID_22_"
     id="linearGradient10057"
     gradientUnits="userSpaceOnUse"
     gradientTransform="matrix(1.567692,0,0,1.567692,-129.3714,-94.56962)"
     x1="87.396973"
     y1="141.97266"
     x2="269.33331"
     y2="141.97276" /><linearGradient
     inkscape:collect="always"
     xlink:href="#XMLID_22_"
     id="linearGradient10072"
     gradientUnits="userSpaceOnUse"
     gradientTransform="matrix(1.567692,0,0,1.567692,-129.3714,-94.56962)"
     x1="87.396973"
     y1="141.97266"
     x2="269.33331"
     y2="141.97276" /><linearGradient
     inkscape:collect="always"
     xlink:href="#XMLID_17_"
     id="linearGradient10077"
     gradientUnits="userSpaceOnUse"
     gradientTransform="matrix(1.567692,0,0,1.567692,-69.82581,15.22741)"
     x1="124.66386"
     y1="19.659014"
     x2="126.18921"
     y2="122.01807" /><linearGradient
     gradientTransform="matrix(1.567692,0,0,1.567692,-69.82581,15.22741)"
     gradientUnits="userSpaceOnUse"
     id="linearGradient2938"
     y2="112.30453"
     x2="126.18921"
     y1="39.617504"
     x1="126.18921">
								<stop
   id="stop2940"
   offset="0"
   style="stop-color:#000099;stop-opacity:1;" />
								<stop
   id="stop2942"
   offset="0.19460699"
   style="stop-color:#000099;stop-opacity:1;" />
								<stop
   id="stop2944"
   offset="0.37049741"
   style="stop-color:#ff0000;stop-opacity:1;" />
								<stop
   id="stop2946"
   offset="1"
   style="stop-color:#ff0000;stop-opacity:1;" />
								
								
								<a:midPointStop
   offset="0"
   style="stop-color:#CF0000" />
								<a:midPointStop
   offset="0.5"
   style="stop-color:#CF0000" />
								<a:midPointStop
   offset="0.157303"
   style="stop-color:#7C0000" />
								<a:midPointStop
   offset="0.5"
   style="stop-color:#7C0000" />
								<a:midPointStop
   offset="0.314607"
   style="stop-color:#CF0000" />
								<a:midPointStop
   offset="0.5"
   style="stop-color:#CF0000" />
								<a:midPointStop
   offset="0.65"
   style="stop-color:#B80000" />
								<a:midPointStop
   offset="0.5"
   style="stop-color:#B80000" />
								<a:midPointStop
   offset="0.837079"
   style="stop-color:#CF0000" />
								<a:midPointStop
   offset="0.5"
   style="stop-color:#CF0000" />
								<a:midPointStop
   offset="1"
   style="stop-color:#FF0000" />
							</linearGradient><linearGradient
     gradientTransform="matrix(1.567692,0,0,1.567692,-129.3714,-94.56962)"
     gradientUnits="userSpaceOnUse"
     xlink:href="#XMLID_22_"
     id="linearGradient2936"
     y2="141.97276"
     x2="269.33331"
     y1="141.97266"
     x1="87.396973" /><linearGradient
     gradientTransform="matrix(1.567692,0,0,1.567692,-129.3706,-94.56783)"
     gradientUnits="userSpaceOnUse"
     id="linearGradient2926"
     y2="141.97266"
     x2="240.94727"
     y1="141.97266"
     x1="87.396973">
								<stop
   id="stop2928"
   offset="0"
   style="stop-color:#000000;stop-opacity:0.11764706" />
								<stop
   id="stop141"
   offset="0.15730301"
   style="stop-color:#000000;stop-opacity:0.34901962" />
								<stop
   id="stop2931"
   offset="0.31460699"
   style="stop-color:#000000;stop-opacity:0" />
								<stop
   id="stop2933"
   offset="0.64999998"
   style="stop-color:#000000;stop-opacity:0.37113401" />
								<stop
   id="stop147"
   offset="1"
   style="stop-color:#000000;stop-opacity:0" />
								
								<a:midPointStop
   offset="0"
   style="stop-color:#E9E9EF" />
								<a:midPointStop
   offset="0.5"
   style="stop-color:#E9E9EF" />
								<a:midPointStop
   offset="0.157303"
   style="stop-color:#B1B1C5" />
								<a:midPointStop
   offset="0.5"
   style="stop-color:#B1B1C5" />
								<a:midPointStop
   offset="0.314607"
   style="stop-color:#CECEDB" />
								<a:midPointStop
   offset="0.5"
   style="stop-color:#CECEDB" />
								<a:midPointStop
   offset="0.65"
   style="stop-color:#FFFFFF" />
								<a:midPointStop
   offset="0.5"
   style="stop-color:#FFFFFF" />
								<a:midPointStop
   offset="0.837079"
   style="stop-color:#CECEDB" />
								<a:midPointStop
   offset="0.5"
   style="stop-color:#CECEDB" />
								<a:midPointStop
   offset="1"
   style="stop-color:#FFFF66" />
							</linearGradient><linearGradient
     inkscape:collect="always"
     xlink:href="#XMLID_22_"
     id="linearGradient2966"
     gradientUnits="userSpaceOnUse"
     gradientTransform="matrix(1.567692,0,0,1.567692,-129.3714,-94.56962)"
     x1="87.396973"
     y1="141.97266"
     x2="269.33331"
     y2="141.97276" /><linearGradient
     x1="1.7908548"
     y1="30"
     x2="58.209145"
     y2="30"
     id="linearGradient4439"
     xlink:href="#linearGradient4393"
     gradientUnits="userSpaceOnUse"
     gradientTransform="translate(0,0.2524855)" /><linearGradient
     id="linearGradient4393"><stop
       id="stop4395"
       style="stop-color:#ffffff;stop-opacity:0.88235295"
       offset="0" /><stop
       id="stop4397"
       style="stop-color:#ffffff;stop-opacity:0"
       offset="0.19114393" /><stop
       id="stop4399"
       style="stop-color:#ffffff;stop-opacity:1"
       offset="0.6526885" /><stop
       id="stop4401"
       style="stop-color:#ffffff;stop-opacity:0"
       offset="0.82074904" /><stop
       id="stop4403"
       style="stop-color:#ffffff;stop-opacity:0.60714287"
       offset="1" /></linearGradient><linearGradient
     x1="1.7908548"
     y1="30"
     x2="58.209145"
     y2="30"
     id="linearGradient4431"
     xlink:href="#linearGradient4451"
     gradientUnits="userSpaceOnUse"
     gradientTransform="translate(0,0.2524855)" /><linearGradient
     id="linearGradient4451"><stop
       id="stop4453"
       style="stop-color:#000000;stop-opacity:0"
       offset="0" /><stop
       id="stop4455"
       style="stop-color:#000000;stop-opacity:0.84523809"
       offset="0.19114393" /><stop
       id="stop4457"
       style="stop-color:#000000;stop-opacity:0"
       offset="0.6526885" /><stop
       id="stop4459"
       style="stop-color:#000000;stop-opacity:0.61057693"
       offset="0.82074904" /><stop
       id="stop4461"
       style="stop-color:#000000;stop-opacity:0"
       offset="1" /></linearGradient></defs>
	
		
	<path
   d="m 203.2,26.128067 c -5.14436,-0.061 -10.22483,0.249088 -15.33333,0.8 -30.65128,3.305511 -60.83589,16.167083 -90.666677,24.133333 -29.83079,7.966251 -59.09947,11.100992 -88.39999,-4.4 -0.83073,-0.402914 -1.80998,-0.351991 -2.59443,0.134908 -0.78445,0.486904 -1.26465,1.34185 -1.27224,2.265092 0,55.61476 0,111.18444 0,166.8 -0.001,1.0121 0.56549,1.93932 1.46667,2.4 41.17249,21.78127 82.25994,8.5793 122.399987,-4.26667 40.14005,-12.84596 79.33274,-25.33591 118.40001,-4.66666 0.83072,0.4029 1.80997,0.352 2.59442,-0.13491 0.78446,-0.48691 1.26466,-1.34185 1.27225,-2.2651 0,-55.6148 0,-111.184466 0,-166.799997 0.001,-1.012097 -0.56549,-1.939314 -1.46667,-2.399996 -15.44209,-8.170075 -30.96691,-11.417016 -46.4,-11.6 z"
   id="path4316"
   style="fill:#ffffff;fill-opacity:1;stroke:#4d4d4d;stroke-width:4.26666689;stroke-miterlimit:4;stroke-opacity:1;stroke-dasharray:none"
   inkscape:connector-curvature="0" /><g
   transform="matrix(4.2666667,0,0,4.2666667,-9.9999997e-7,-1.034972)"
   id="g4423"><path
     inkscape:connector-curvature="0"
     d="M 47.625,7.6875 C 46.478387,7.6751786 45.307947,7.750798 44.15625,7.875 37.246136,8.6202046 30.242215,11.599363 23.125,13.5 16.336129,15.312953 9.3884528,16.071833 2.46875,12.8125 c 0,12.53404 0,25.05922 0,37.59375 9.012776,4.561494 18.032463,1.719877 27.3125,-1.25 9.082663,-2.906712 18.415007,-5.837518 27.75,-1.4375 0,-12.544483 0,-25.080057 0,-37.625 C 54.230112,8.4228131 50.940234,7.7231253 47.625,7.6875 z"
     id="path4437"
     style="opacity:0.71052635;fill:url(#linearGradient4439);fill-opacity:1" /><path
     inkscape:connector-curvature="0"
     d="M 47.625,7.6875 C 46.478172,7.6751714 45.308113,7.7507801 44.15625,7.875 37.24514,8.620312 30.241758,11.599485 23.125,13.5 16.334133,15.313486 9.3895661,16.044038 2.46875,12.78125 c 0,12.544474 0,25.080051 0,37.625 9.014617,4.562425 18.032463,1.719877 27.3125,-1.25 9.082663,-2.906712 18.416806,-5.836671 27.75,-1.4375 0,-12.544483 0,-25.080057 0,-37.625 C 54.229425,8.422469 50.940856,7.7231461 47.625,7.6875 z"
     id="path4429"
     style="opacity:0.2842105;fill:url(#linearGradient4431);fill-opacity:1" /></g><g
   transform="matrix(4.2666667,0,0,4.2666667,-8.8933334e-6,-1.148129)"
   style="font-size:40px;font-style:normal;font-weight:normal;line-height:125%;letter-spacing:0px;word-spacing:0px;fill:#ec0000;fill-opacity:1;stroke:none;font-family:Sans"
   id="text3031"><path
     inkscape:connector-curvature="0"
     d="m 15.545946,22.483814 -11.5901183,0 0,16.194123 1.6374207,0 0,-1.608582 8.2550356,0 0,1.568207 1.697662,0 z m -1.697662,1.41568 0,4.998139 -8.2550356,0 0,-4.998139 z m 0,6.454193 0,5.219879 -8.2550356,0 0,-5.219879 z"
     style="font-size:21px;font-variant:normal;font-weight:bold;font-stretch:normal;letter-spacing:-2.27999997px;fill:#ec0000;stroke:none;font-family:GulimChe;-inkscape-font-specification:GulimChe Bold"
     id="path3812" /><path
     inkscape:connector-curvature="0"
     d="m 37.222916,25.45937 -7.982666,0 0,-3.055024 c 0.242237,-0.127303 0.37511,-0.263595 0.39862,-0.408874 0.0158,-0.246505 -0.244182,-0.424453 -0.779938,-0.533844 l -1.336853,-0.124329 0,4.122071 -7.942291,0 0,1.435547 7.238617,0 c -0.956612,1.559884 -2.121711,3.039863 -3.4953,4.439941 -1.406926,1.433416 -2.889254,2.556431 -4.446991,3.369049 0.216612,0.238406 0.405241,0.43793 0.565887,0.598572 0.150817,0.15082 0.318724,0.344362 0.503723,0.580627 1.476559,-0.738705 2.937312,-1.830318 4.382264,-3.274841 1.340263,-1.353509 2.404959,-2.788627 3.194091,-4.305359 l 0,5.460846 -3.800354,0 0,1.435547 3.800354,0 0,4.001587 1.718171,0 0,-4.001587 3.820221,0 0,-1.435547 -3.820221,0 0,-5.621704 c 0.625476,1.325753 1.694445,2.706397 3.206909,4.141937 1.473983,1.458622 2.993482,2.57117 4.558502,3.337647 0.165325,-0.228575 0.332805,-0.447111 0.502441,-0.65561 0.09269,-0.103817 0.238384,-0.26788 0.437073,-0.492187 l 0.142273,-0.28775 c -1.735065,-0.790828 -3.333604,-1.88415 -4.795624,-3.279969 -1.270644,-1.21807 -2.440229,-2.555135 -3.508758,-4.011199 l 7.43985,0 z"
     style="font-size:21px;font-variant:normal;font-weight:bold;font-stretch:normal;letter-spacing:-2.27999997px;fill:#ec0000;stroke:none;font-family:GulimChe;-inkscape-font-specification:GulimChe Bold"
     id="path3814" /><path
     inkscape:connector-curvature="0"
     d="m 54.536207,31.873829 -7.891022,0 0,7.146332 1.617554,0 0,-1.146515 4.636048,0 0,0.945282 1.63742,0 z m -1.63742,1.435547 0,3.088348 -4.636048,0 0,-3.088348 z m -13.833802,-11.247895 0,1.435547 5.598633,0 0,-1.435547 z m -0.764557,2.633973 0,1.435547 6.865631,0 0,-1.435547 z m 0.804291,2.734588 0,1.41568 5.437775,0 0,-1.41568 z m -0.03973,2.633972 0,1.41568 5.457642,0 0,-1.41568 z m 5.738983,2.553864 -6.020965,0 0,6.321533 1.577179,0 0,-1.24649 2.826874,0 0,0.783783 1.616912,0 z m -1.616912,1.41568 0,2.284058 -2.826874,0 0,-2.284058 z m 11.952209,-11.991943 -9.479095,0 0,1.415039 3.599121,0 -0.406311,1.882232 -2.630127,0 0,1.375305 2.372497,0 -0.58255,2.384675 -2.935821,0 0,1.456054 10.967193,0 0,-1.456054 -2.091156,0 0,-3.75998 -3.519012,0 0.441559,-1.882232 4.263702,0 z m -2.803802,4.672576 0,2.384675 -2.70575,0 0.542816,-2.384675 z"
     style="font-size:21px;font-variant:normal;font-weight:bold;font-stretch:normal;letter-spacing:-2.27999997px;fill:#ec0000;stroke:none;font-family:GulimChe;-inkscape-font-specification:GulimChe Bold"
     id="path3816" /></g></svg>