<?xml version="1.0" encoding="UTF-8" standalone="no"?>
<!-- Created with Inkscape (http://www.inkscape.org/) -->

<svg
   xmlns:a="http://ns.adobe.com/AdobeSVGViewerExtensions/3.0/"
   xmlns:dc="http://purl.org/dc/elements/1.1/"
   xmlns:cc="http://creativecommons.org/ns#"
   xmlns:rdf="http://www.w3.org/1999/02/22-rdf-syntax-ns#"
   xmlns:svg="http://www.w3.org/2000/svg"
   xmlns="http://www.w3.org/2000/svg"
   xmlns:xlink="http://www.w3.org/1999/xlink"
   xmlns:sodipodi="http://sodipodi.sourceforge.net/DTD/sodipodi-0.dtd"
   xmlns:inkscape="http://www.inkscape.org/namespaces/inkscape"
   version="1.0"
   width="48pt"
   height="48pt"
   viewBox="0 0 256 256"
   id="svg2"
   xml:space="preserve"
   sodipodi:version="0.32"
   inkscape:version="0.48.4 r9939"
   sodipodi:docname="selsku_lanci_jpn.svg"
   inkscape:output_extension="org.inkscape.output.svg.inkscape"><metadata
   id="metadata45"><rdf:RDF><cc:Work
       rdf:about=""><dc:format>image/svg+xml</dc:format><dc:type
         rdf:resource="http://purl.org/dc/dcmitype/StillImage" /><dc:title></dc:title></cc:Work></rdf:RDF></metadata><sodipodi:namedview
   inkscape:window-height="777"
   inkscape:window-width="1218"
   inkscape:pageshadow="2"
   inkscape:pageopacity="0.0"
   guidetolerance="10.0"
   gridtolerance="10.0"
   objecttolerance="10.0"
   borderopacity="1.0"
   bordercolor="#666666"
   pagecolor="#ffffff"
   id="base"
   inkscape:zoom="5.854782"
   inkscape:cx="9.589334"
   inkscape:cy="23.140363"
   inkscape:window-x="54"
   inkscape:window-y="-8"
   inkscape:current-layer="svg2"
   showguides="true"
   inkscape:guide-bbox="true"
   showgrid="false"
   inkscape:window-maximized="1" /><defs
   id="defs271"><linearGradient
     x1="87.396973"
     y1="141.97266"
     x2="240.94727"
     y2="141.97266"
     id="XMLID_22_"
     gradientUnits="userSpaceOnUse"
     gradientTransform="matrix(1.567692,0,0,1.567692,-129.3706,-94.56783)">
								<stop
   style="stop-color:#ffffff;stop-opacity:0.66666675"
   offset="0"
   id="stop139" />
								
								<stop
   style="stop-color:#d7d7d7;stop-opacity:0.21875"
   offset="0.24074516"
   id="stop143" />
								<stop
   style="stop-color:#4d4d4d;stop-opacity:0"
   offset="0.4585622"
   id="stop145" /><stop
   style="stop-color:#ffffff;stop-opacity:0.51041669"
   offset="0.71891773"
   id="stop3696" /><stop
   style="stop-color:#f2f2f2;stop-opacity:0.40000001"
   offset="0.87351298"
   id="stop2807" /><stop
   style="stop-color:#ffffff;stop-opacity:0.62352943"
   offset="1"
   id="stop3694" />
								
								
								<a:midPointStop
   style="stop-color:#E9E9EF"
   offset="0" />
								<a:midPointStop
   style="stop-color:#E9E9EF"
   offset="0.5" />
								<a:midPointStop
   style="stop-color:#B1B1C5"
   offset="0.157303" />
								<a:midPointStop
   style="stop-color:#B1B1C5"
   offset="0.5" />
								<a:midPointStop
   style="stop-color:#CECEDB"
   offset="0.314607" />
								<a:midPointStop
   style="stop-color:#CECEDB"
   offset="0.5" />
								<a:midPointStop
   style="stop-color:#FFFFFF"
   offset="0.65" />
								<a:midPointStop
   style="stop-color:#FFFFFF"
   offset="0.5" />
								<a:midPointStop
   style="stop-color:#CECEDB"
   offset="0.837079" />
								<a:midPointStop
   style="stop-color:#CECEDB"
   offset="0.5" />
								<a:midPointStop
   style="stop-color:#FFFF66"
   offset="1" />
							</linearGradient><linearGradient
     x1="87.396973"
     y1="141.97266"
     x2="269.33331"
     y2="141.97276"
     id="linearGradient1945"
     xlink:href="#XMLID_22_"
     gradientUnits="userSpaceOnUse"
     gradientTransform="matrix(1.567692,0,0,1.567692,-129.3714,-94.56962)" /><linearGradient
     inkscape:collect="always"
     xlink:href="#XMLID_22_"
     id="linearGradient3129"
     gradientUnits="userSpaceOnUse"
     gradientTransform="matrix(1.567692,0,0,1.567692,-129.3714,-94.56962)"
     x1="87.396973"
     y1="141.97266"
     x2="269.33331"
     y2="141.97276" /><g
     id="star"
     fill="white"
     transform="scale(1)"><g
       id="cone"><polygon
         id="triangle"
         points="0,0 0,1 .5,1"
         transform="translate(0,-1) rotate(18)" /><use
         xlink:href="#triangle"
         transform="scale(-1,1)"
         id="use7171" /></g><use
       xlink:href="#cone"
       transform="rotate(72)"
       id="use7173" /><use
       xlink:href="#cone"
       transform="rotate(-72)"
       id="use7175" /><use
       xlink:href="#cone"
       transform="rotate(144)"
       id="use7177" /><use
       xlink:href="#cone"
       transform="rotate(-144)"
       id="use7179" /></g><linearGradient
     gradientTransform="matrix(1.567692,0,0,1.567692,-69.82581,15.22741)"
     x1="124.66386"
     y1="19.659014"
     x2="126.18921"
     y2="122.01807"
     id="XMLID_17_"
     gradientUnits="userSpaceOnUse">
								<stop
   style="stop-color:#034da2;stop-opacity:1;"
   offset="0"
   id="stop18" />
								<stop
   style="stop-color:#034da2;stop-opacity:1;"
   offset="0.154607"
   id="stop20" />
								<stop
   style="stop-color:#ed1d25;stop-opacity:1;"
   offset="0.25460699"
   id="stop22" />
								<stop
   style="stop-color:#ed1d25;stop-opacity:1;"
   offset="0.75"
   id="stop24" />
								<stop
   style="stop-color:#034da2;stop-opacity:1;"
   offset="0.84999996"
   id="stop26" />
								<stop
   style="stop-color:#034da2;stop-opacity:1;"
   offset="1"
   id="stop28" />
								<a:midPointStop
   style="stop-color:#CF0000"
   offset="0" />
								<a:midPointStop
   style="stop-color:#CF0000"
   offset="0.5" />
								<a:midPointStop
   style="stop-color:#7C0000"
   offset="0.157303" />
								<a:midPointStop
   style="stop-color:#7C0000"
   offset="0.5" />
								<a:midPointStop
   style="stop-color:#CF0000"
   offset="0.314607" />
								<a:midPointStop
   style="stop-color:#CF0000"
   offset="0.5" />
								<a:midPointStop
   style="stop-color:#B80000"
   offset="0.65" />
								<a:midPointStop
   style="stop-color:#B80000"
   offset="0.5" />
								<a:midPointStop
   style="stop-color:#CF0000"
   offset="0.837079" />
								<a:midPointStop
   style="stop-color:#CF0000"
   offset="0.5" />
								<a:midPointStop
   style="stop-color:#FF0000"
   offset="1" />
							</linearGradient><linearGradient
     inkscape:collect="always"
     xlink:href="#XMLID_22_"
     id="linearGradient10057"
     gradientUnits="userSpaceOnUse"
     gradientTransform="matrix(1.567692,0,0,1.567692,-129.3714,-94.56962)"
     x1="87.396973"
     y1="141.97266"
     x2="269.33331"
     y2="141.97276" /><linearGradient
     inkscape:collect="always"
     xlink:href="#XMLID_22_"
     id="linearGradient10072"
     gradientUnits="userSpaceOnUse"
     gradientTransform="matrix(1.567692,0,0,1.567692,-129.3714,-94.56962)"
     x1="87.396973"
     y1="141.97266"
     x2="269.33331"
     y2="141.97276" /><linearGradient
     inkscape:collect="always"
     xlink:href="#XMLID_17_"
     id="linearGradient10077"
     gradientUnits="userSpaceOnUse"
     gradientTransform="matrix(1.567692,0,0,1.567692,-69.82581,15.22741)"
     x1="124.66386"
     y1="19.659014"
     x2="126.18921"
     y2="122.01807" /><linearGradient
     gradientTransform="matrix(1.567692,0,0,1.567692,-69.82581,15.22741)"
     gradientUnits="userSpaceOnUse"
     id="linearGradient2938"
     y2="112.30453"
     x2="126.18921"
     y1="39.617504"
     x1="126.18921">
								<stop
   id="stop2940"
   offset="0"
   style="stop-color:#000099;stop-opacity:1;" />
								<stop
   id="stop2942"
   offset="0.19460699"
   style="stop-color:#000099;stop-opacity:1;" />
								<stop
   id="stop2944"
   offset="0.37049741"
   style="stop-color:#ff0000;stop-opacity:1;" />
								<stop
   id="stop2946"
   offset="1"
   style="stop-color:#ff0000;stop-opacity:1;" />
								
								
								<a:midPointStop
   offset="0"
   style="stop-color:#CF0000" />
								<a:midPointStop
   offset="0.5"
   style="stop-color:#CF0000" />
								<a:midPointStop
   offset="0.157303"
   style="stop-color:#7C0000" />
								<a:midPointStop
   offset="0.5"
   style="stop-color:#7C0000" />
								<a:midPointStop
   offset="0.314607"
   style="stop-color:#CF0000" />
								<a:midPointStop
   offset="0.5"
   style="stop-color:#CF0000" />
								<a:midPointStop
   offset="0.65"
   style="stop-color:#B80000" />
								<a:midPointStop
   offset="0.5"
   style="stop-color:#B80000" />
								<a:midPointStop
   offset="0.837079"
   style="stop-color:#CF0000" />
								<a:midPointStop
   offset="0.5"
   style="stop-color:#CF0000" />
								<a:midPointStop
   offset="1"
   style="stop-color:#FF0000" />
							</linearGradient><linearGradient
     gradientTransform="matrix(1.567692,0,0,1.567692,-129.3714,-94.56962)"
     gradientUnits="userSpaceOnUse"
     xlink:href="#XMLID_22_"
     id="linearGradient2936"
     y2="141.97276"
     x2="269.33331"
     y1="141.97266"
     x1="87.396973" /><linearGradient
     gradientTransform="matrix(1.567692,0,0,1.567692,-129.3706,-94.56783)"
     gradientUnits="userSpaceOnUse"
     id="linearGradient2926"
     y2="141.97266"
     x2="240.94727"
     y1="141.97266"
     x1="87.396973">
								<stop
   id="stop2928"
   offset="0"
   style="stop-color:#000000;stop-opacity:0.11764706" />
								<stop
   id="stop141"
   offset="0.15730301"
   style="stop-color:#000000;stop-opacity:0.34901962" />
								<stop
   id="stop2931"
   offset="0.31460699"
   style="stop-color:#000000;stop-opacity:0" />
								<stop
   id="stop2933"
   offset="0.64999998"
   style="stop-color:#000000;stop-opacity:0.37113401" />
								<stop
   id="stop147"
   offset="1"
   style="stop-color:#000000;stop-opacity:0" />
								
								<a:midPointStop
   offset="0"
   style="stop-color:#E9E9EF" />
								<a:midPointStop
   offset="0.5"
   style="stop-color:#E9E9EF" />
								<a:midPointStop
   offset="0.157303"
   style="stop-color:#B1B1C5" />
								<a:midPointStop
   offset="0.5"
   style="stop-color:#B1B1C5" />
								<a:midPointStop
   offset="0.314607"
   style="stop-color:#CECEDB" />
								<a:midPointStop
   offset="0.5"
   style="stop-color:#CECEDB" />
								<a:midPointStop
   offset="0.65"
   style="stop-color:#FFFFFF" />
								<a:midPointStop
   offset="0.5"
   style="stop-color:#FFFFFF" />
								<a:midPointStop
   offset="0.837079"
   style="stop-color:#CECEDB" />
								<a:midPointStop
   offset="0.5"
   style="stop-color:#CECEDB" />
								<a:midPointStop
   offset="1"
   style="stop-color:#FFFF66" />
							</linearGradient><linearGradient
     inkscape:collect="always"
     xlink:href="#XMLID_22_"
     id="linearGradient2966"
     gradientUnits="userSpaceOnUse"
     gradientTransform="matrix(1.567692,0,0,1.567692,-129.3714,-94.56962)"
     x1="87.396973"
     y1="141.97266"
     x2="269.33331"
     y2="141.97276" /><linearGradient
     x1="1.7908548"
     y1="30"
     x2="58.209145"
     y2="30"
     id="linearGradient4439"
     xlink:href="#linearGradient4393"
     gradientUnits="userSpaceOnUse"
     gradientTransform="translate(0,0.2524855)" /><linearGradient
     id="linearGradient4393"><stop
       id="stop4395"
       style="stop-color:#ffffff;stop-opacity:0.88235295"
       offset="0" /><stop
       id="stop4397"
       style="stop-color:#ffffff;stop-opacity:0"
       offset="0.19114393" /><stop
       id="stop4399"
       style="stop-color:#ffffff;stop-opacity:1"
       offset="0.6526885" /><stop
       id="stop4401"
       style="stop-color:#ffffff;stop-opacity:0"
       offset="0.82074904" /><stop
       id="stop4403"
       style="stop-color:#ffffff;stop-opacity:0.60714287"
       offset="1" /></linearGradient><linearGradient
     x1="1.7908548"
     y1="30"
     x2="58.209145"
     y2="30"
     id="linearGradient4431"
     xlink:href="#linearGradient4451"
     gradientUnits="userSpaceOnUse"
     gradientTransform="translate(0,0.2524855)" /><linearGradient
     id="linearGradient4451"><stop
       id="stop4453"
       style="stop-color:#000000;stop-opacity:0"
       offset="0" /><stop
       id="stop4455"
       style="stop-color:#000000;stop-opacity:0.84523809"
       offset="0.19114393" /><stop
       id="stop4457"
       style="stop-color:#000000;stop-opacity:0"
       offset="0.6526885" /><stop
       id="stop4459"
       style="stop-color:#000000;stop-opacity:0.61057693"
       offset="0.82074904" /><stop
       id="stop4461"
       style="stop-color:#000000;stop-opacity:0"
       offset="1" /></linearGradient><linearGradient
     x1="1.7908548"
     y1="30"
     x2="58.209145"
     y2="30"
     id="linearGradient4439-1"
     xlink:href="#linearGradient4393-7"
     gradientUnits="userSpaceOnUse"
     gradientTransform="translate(0,0.2524855)" /><linearGradient
     id="linearGradient4393-7"><stop
       id="stop4395-4"
       style="stop-color:#ffffff;stop-opacity:0.88235295"
       offset="0" /><stop
       id="stop4397-0"
       style="stop-color:#ffffff;stop-opacity:0"
       offset="0.19114393" /><stop
       id="stop4399-9"
       style="stop-color:#ffffff;stop-opacity:1"
       offset="0.6526885" /><stop
       id="stop4401-4"
       style="stop-color:#ffffff;stop-opacity:0"
       offset="0.82074904" /><stop
       id="stop4403-8"
       style="stop-color:#ffffff;stop-opacity:0.60714287"
       offset="1" /></linearGradient><linearGradient
     x1="1.7908548"
     y1="30"
     x2="58.209145"
     y2="30"
     id="linearGradient4431-8"
     xlink:href="#linearGradient4451-2"
     gradientUnits="userSpaceOnUse"
     gradientTransform="translate(0,0.2524855)" /><linearGradient
     id="linearGradient4451-2"><stop
       id="stop4453-4"
       style="stop-color:#000000;stop-opacity:0"
       offset="0" /><stop
       id="stop4455-5"
       style="stop-color:#000000;stop-opacity:0.84523809"
       offset="0.19114393" /><stop
       id="stop4457-5"
       style="stop-color:#000000;stop-opacity:0"
       offset="0.6526885" /><stop
       id="stop4459-1"
       style="stop-color:#000000;stop-opacity:0.61057693"
       offset="0.82074904" /><stop
       id="stop4461-7"
       style="stop-color:#000000;stop-opacity:0"
       offset="1" /></linearGradient></defs>
	
		
	<path
   d="m 203.2,26.128067 c -5.14436,-0.061 -10.22484,0.249088 -15.33334,0.8 -30.65127,3.305512 -60.83588,16.167083 -90.666665,24.133333 -29.83079,7.966251 -59.09948,11.100992 -88.4000005,-4.4 -0.83072,-0.402914 -1.80997,-0.351991 -2.59442,0.134908 -0.78445,0.486904 -1.26465,1.34185 -1.27224,2.265092 0,55.61476 0,111.18444 0,166.8 -0.001,1.0121 0.56548,1.93932 1.46666,2.4 41.1725005,21.78127 82.2599505,8.5793 122.3999955,-4.26667 40.14005,-12.84596 79.33274,-25.33591 118.40001,-4.66666 0.83072,0.4029 1.80997,0.352 2.59442,-0.13491 0.78446,-0.48691 1.26466,-1.34185 1.27225,-2.2651 0,-55.6148 0,-111.184466 0,-166.799997 0.001,-1.012097 -0.56549,-1.939314 -1.46667,-2.399996 -15.44209,-8.170074 -30.96691,-11.417016 -46.4,-11.6 z"
   id="path4316"
   style="fill:#feffd1;fill-opacity:1;stroke:#4d4d4d;stroke-width:4.26666689;stroke-miterlimit:4;stroke-opacity:1;stroke-dasharray:none"
   inkscape:connector-curvature="0" /><g
   transform="matrix(4.2666667,0,0,4.2666667,-1e-6,-1.034972)"
   id="g4423"><path
     inkscape:connector-curvature="0"
     d="M 47.625,7.6875 C 46.478387,7.6751786 45.307947,7.750798 44.15625,7.875 37.246136,8.6202046 30.242215,11.599363 23.125,13.5 16.336129,15.312953 9.3884528,16.071833 2.46875,12.8125 c 0,12.53404 0,25.05922 0,37.59375 9.012776,4.561494 18.032463,1.719877 27.3125,-1.25 9.082663,-2.906712 18.415007,-5.837518 27.75,-1.4375 0,-12.544483 0,-25.080057 0,-37.625 C 54.230112,8.4228131 50.940234,7.7231253 47.625,7.6875 z"
     id="path4437"
     style="opacity:0.71052635;fill:url(#linearGradient4439-1);fill-opacity:1" /><path
     inkscape:connector-curvature="0"
     d="M 47.625,7.6875 C 46.478172,7.6751714 45.308113,7.7507801 44.15625,7.875 37.24514,8.620312 30.241758,11.599485 23.125,13.5 16.334133,15.313486 9.3895661,16.044038 2.46875,12.78125 c 0,12.544474 0,25.080051 0,37.625 9.014617,4.562425 18.032463,1.719877 27.3125,-1.25 9.082663,-2.906712 18.416806,-5.836671 27.75,-1.4375 0,-12.544483 0,-25.080057 0,-37.625 C 54.229425,8.422469 50.940856,7.7231461 47.625,7.6875 z"
     id="path4429"
     style="opacity:0.2842105;fill:url(#linearGradient4431-8);fill-opacity:1" /></g><g
   transform="matrix(4.2666667,0,0,4.2666667,-1.64e-6,-1.148129)"
   style="font-size:40px;font-style:normal;font-weight:normal;line-height:125%;letter-spacing:0px;word-spacing:0px;fill:#000000;fill-opacity:1;stroke:none;font-family:Sans"
   id="text3035"><path
     inkscape:connector-curvature="0"
     d="m 5.9460449,28.91106 1.6113281,0 c 0.6062773,5e-6 1.0681095,-0.163773 1.3854981,-0.491333 C 9.2602475,28.092177 9.4189388,27.619155 9.4189453,27.00066 9.4189388,26.378109 9.2602475,25.904069 8.9428711,25.578541 8.6254825,25.253028 8.1636503,25.090268 7.557373,25.09026 l -1.6113281,0 z m -2.3986816,4.638672 0,-0.646972 1.1596679,0 0,-7.8125 -1.1596679,0 0,-0.653077 4.309082,0 c 0.9114524,9e-6 1.6337011,0.230926 2.1667477,0.692749 0.533033,0.461841 0.799553,1.085416 0.799561,1.870728 -8e-6,0.781256 -0.266528,1.403814 -0.799561,1.867676 -0.5330466,0.463871 -1.2552953,0.695804 -2.1667477,0.695801 l -1.9104004,0 0,3.338623 1.4099121,0 0,0.646972 z"
     style="font-size:12.5px;font-variant:normal;font-stretch:normal;font-family:DejaVu Serif;-inkscape-font-specification:DejaVu Serif"
     id="path3030" /><path
     inkscape:connector-curvature="0"
     d="m 14.173584,34.739918 0.427246,-1.080323 -2.423096,-5.944824 -0.738525,0 0,-0.653076 2.984619,0 0,0.653076 -1.037598,0 1.824952,4.46167 1.824951,-4.46167 -0.970459,0 0,-0.653076 2.435303,0 0,0.653076 -0.726319,0 -2.972412,7.299805 c -0.203454,0.504555 -0.429284,0.849404 -0.67749,1.034546 -0.248212,0.185137 -0.598147,0.277707 -1.049805,0.27771 -0.191245,-3e-6 -0.387574,-0.01628 -0.588989,-0.04883 -0.201417,-0.03256 -0.40385,-0.07935 -0.6073,-0.140381 l 0,-1.239014 0.573731,0 c 0.02441,0.276691 0.0946,0.475055 0.210571,0.595093 0.115965,0.120034 0.296019,0.180052 0.540161,0.180054 0.223793,-2e-6 0.403847,-0.06206 0.540161,-0.186158 0.136309,-0.124106 0.279742,-0.373333 0.430298,-0.74768 z"
     style="font-size:12.5px;font-variant:normal;font-stretch:normal;font-family:DejaVu Serif;-inkscape-font-specification:DejaVu Serif"
     id="path3032" /><path
     inkscape:connector-curvature="0"
     d="m 25.056152,31.602711 c -0.158697,0.691733 -0.463873,1.218669 -0.915527,1.58081 -0.451665,0.362142 -1.035568,0.543213 -1.751709,0.543213 -0.944013,0 -1.702883,-0.312296 -2.276611,-0.936889 -0.573732,-0.624592 -0.860597,-1.453652 -0.860596,-2.487183 -1e-6,-1.037593 0.286864,-1.866654 0.860596,-2.487183 0.573728,-0.620517 1.332598,-0.930779 2.276611,-0.930786 0.410966,7e-6 0.819901,0.04782 1.226807,0.143433 0.406895,0.09563 0.81583,0.241095 1.226806,0.436401 l 0,1.660156 -0.653076,0 c -0.08545,-0.569656 -0.271612,-0.984695 -0.558472,-1.245117 -0.28687,-0.260411 -0.696822,-0.390619 -1.229858,-0.390625 -0.606286,6e-6 -1.064049,0.234991 -1.373291,0.704956 -0.309247,0.469976 -0.463869,1.172897 -0.463867,2.108765 -2e-6,0.935875 0.153603,1.639813 0.460815,2.111816 0.307208,0.472006 0.765988,0.708009 1.376343,0.708008 0.484208,10e-7 0.870764,-0.126139 1.159668,-0.378418 0.288895,-0.252277 0.486241,-0.63273 0.592041,-1.141357 z"
     style="font-size:12.5px;font-variant:normal;font-stretch:normal;font-family:DejaVu Serif;-inkscape-font-specification:DejaVu Serif"
     id="path3034" /><path
     inkscape:connector-curvature="0"
     d="m 32.062988,31.602711 c -0.158697,0.691733 -0.463873,1.218669 -0.915527,1.58081 -0.451665,0.362142 -1.035568,0.543213 -1.751709,0.543213 -0.944013,0 -1.702883,-0.312296 -2.276611,-0.936889 -0.573732,-0.624592 -0.860597,-1.453652 -0.860596,-2.487183 -1e-6,-1.037593 0.286864,-1.866654 0.860596,-2.487183 0.573728,-0.620517 1.332598,-0.930779 2.276611,-0.930786 0.410966,7e-6 0.819901,0.04782 1.226807,0.143433 0.406895,0.09563 0.81583,0.241095 1.226806,0.436401 l 0,1.660156 -0.653076,0 c -0.08545,-0.569656 -0.271612,-0.984695 -0.558472,-1.245117 -0.28687,-0.260411 -0.696822,-0.390619 -1.229858,-0.390625 -0.606286,6e-6 -1.064049,0.234991 -1.373291,0.704956 -0.309247,0.469976 -0.463869,1.172897 -0.463867,2.108765 -2e-6,0.935875 0.153603,1.639813 0.460815,2.111816 0.307208,0.472006 0.765988,0.708009 1.376343,0.708008 0.484208,10e-7 0.870764,-0.126139 1.159668,-0.378418 0.288894,-0.252277 0.486241,-0.63273 0.592041,-1.141357 z"
     style="font-size:12.5px;font-variant:normal;font-stretch:normal;font-family:DejaVu Serif;-inkscape-font-specification:DejaVu Serif"
     id="path3036" /><path
     inkscape:connector-curvature="0"
     d="m 36.219482,27.061695 0,0.646973 -1.013183,0 0,2.526855 2.734375,-2.526855 -0.933838,0 0,-0.646973 2.935791,0 0,0.646973 -1.11084,0 -1.928711,1.78833 2.46582,3.405762 0.933838,0 0,0.646972 -3.198242,0 0,-0.646972 0.927735,0 -1.940918,-2.667237 -0.88501,0.823975 0,1.843262 1.013183,0 0,0.646972 -3.149414,0 0,-0.646972 1.013184,0 0,-5.194092 -1.013184,0 0,-0.646973 z"
     style="font-size:12.5px;font-variant:normal;font-stretch:normal;font-family:DejaVu Serif;-inkscape-font-specification:DejaVu Serif"
     id="path3038" /><path
     inkscape:connector-curvature="0"
     d="m 40.882568,33.549732 0,-0.646972 1.013184,0 0,-5.194092 -1.013184,0 0,-0.646973 3.149414,0 0,0.646973 -1.013183,0 0,3.723144 2.972412,-3.14331 0,-0.579834 -1.013184,0 0,-0.646973 3.149414,0 0,0.646973 -1.013183,0 0,5.194092 1.013183,0 0,0.646972 -3.149414,0 0,-0.646972 1.013184,0 0,-3.625489 -2.972412,3.143311 0,0.482178 1.013183,0 0,0.646972 z"
     style="font-size:12.5px;font-variant:normal;font-stretch:normal;font-family:DejaVu Serif;-inkscape-font-specification:DejaVu Serif"
     id="path3040" /><path
     inkscape:connector-curvature="0"
     d="m 50.947266,24.669117 c -3e-6,-0.109854 0.04883,-0.213614 0.146484,-0.311279 0.09765,-0.09765 0.215655,-0.146475 0.354004,-0.146485 0.138343,10e-6 0.256345,0.04884 0.354004,0.146485 0.09765,0.09766 0.146481,0.219735 0.146484,0.366211 -3e-6,0.146493 -0.05087,0.266528 -0.152588,0.360107 0.203448,0.142424 0.557451,0.213631 1.062012,0.213623 0.504553,8e-6 0.858556,-0.0712 1.062012,-0.213623 -0.101731,-0.09358 -0.152593,-0.213614 -0.152588,-0.360107 -5e-6,-0.146476 0.04882,-0.268546 0.146484,-0.366211 0.09765,-0.09765 0.215652,-0.146475 0.354004,-0.146485 0.138341,10e-6 0.256342,0.04884 0.354004,0.146485 0.09765,0.09766 0.146478,0.201425 0.146484,0.311279 -6e-6,0.109872 -0.0529,0.330616 -0.158691,0.662231 -0.1058,0.331633 -0.689702,0.497445 -1.751709,0.497437 -1.062015,8e-6 -1.645917,-0.165804 -1.751709,-0.497437 -0.105796,-0.331615 -0.158694,-0.552359 -0.158691,-0.662231 z m -1.739502,8.880615 0,-0.646972 1.013183,0 0,-5.194092 -1.013183,0 0,-0.646973 3.149414,0 0,0.646973 -1.013184,0 0,3.723144 2.972412,-3.14331 0,-0.579834 -1.013183,0 0,-0.646973 3.149414,0 0,0.646973 -1.013184,0 0,5.194092 1.013184,0 0,0.646972 -3.149414,0 0,-0.646972 1.013183,0 0,-3.625489 -2.972412,3.143311 0,0.482178 1.013184,0 0,0.646972 z"
     style="font-size:12.5px;font-variant:normal;font-stretch:normal;font-family:DejaVu Serif;-inkscape-font-specification:DejaVu Serif"
     id="path3042" /></g></svg>