<?xml version="1.0" encoding="UTF-8" standalone="no"?>
<!-- Created with Inkscape (http://www.inkscape.org/) -->

<svg
   xmlns:dc="http://purl.org/dc/elements/1.1/"
   xmlns:cc="http://creativecommons.org/ns#"
   xmlns:rdf="http://www.w3.org/1999/02/22-rdf-syntax-ns#"
   xmlns:svg="http://www.w3.org/2000/svg"
   xmlns="http://www.w3.org/2000/svg"
   xmlns:sodipodi="http://sodipodi.sourceforge.net/DTD/sodipodi-0.dtd"
   xmlns:inkscape="http://www.inkscape.org/namespaces/inkscape"
   width="40mm"
   height="40mm"
   viewBox="0 0 39.999998 40"
   version="1.1"
   id="svg8"
   inkscape:version="0.92.1 r15371"
   sodipodi:docname="simplingua.svg">
  <defs
     id="defs2">
    <clipPath
       clipPathUnits="userSpaceOnUse"
       id="clipPath3695">
      <rect
         style="fill:#301b0b;stroke-width:0.26458332"
         id="rect3697"
         width="58.019348"
         height="38.931545"
         x="160.46349"
         y="232.42906" />
    </clipPath>
    <clipPath
       clipPathUnits="userSpaceOnUse"
       id="clipPath3701">
      <path
         style="fill:#000000;stroke-width:0.35277778"
         d="m 134.52026,284.36299 c -0.0926,-0.24253 -0.12727,-12.74409 -0.0771,-27.78125 l 0.0912,-27.34027 55.12153,-0.0893 55.12152,-0.0893 v 27.87055 27.87055 h -55.0444 c -43.71058,0 -55.07906,-0.0908 -55.21272,-0.44098 z m 109.55157,-27.42847 v -26.81111 l -0.88195,-0.0254 c -0.48507,-0.0139 -24.77382,-0.0254 -53.975,-0.0254 -29.20118,0 -53.2518,0.0114 -53.44583,0.0254 -0.23187,0.0167 -0.35278,9.21452 -0.35278,26.83649 v 26.81111 h 54.32778 54.32778 z m -69.40903,20.8032 c -0.90232,-0.36303 -1.07965,-1.40042 -0.23938,-1.40042 0.50396,0 0.50396,-0.0504 0,-0.55437 -0.69624,-0.69623 -0.69624,-1.01725 0,-1.71349 0.69374,-0.69374 1.36127,-0.705 2.032,-0.0342 0.44549,0.44549 0.54769,0.44819 0.71244,0.0189 0.16868,-0.43956 1.1711,-0.51097 3.11561,-0.22197 0.13245,0.0197 0.34814,0.37394 0.47932,0.78725 0.2318,0.73035 0.26102,0.72321 1.04039,-0.25421 0.69268,-0.8687 0.87963,-0.94114 1.37277,-0.53187 0.37588,0.31196 0.57088,0.33854 0.57088,0.0778 0,-0.47692 1.38222,-0.515 2.10483,-0.058 0.32728,0.20699 0.68204,0.19051 0.96565,-0.0449 0.90371,-0.75001 1.46686,-0.0773 1.25535,1.49962 -0.19632,1.46371 -0.18552,1.48208 0.73607,1.25078 0.78059,-0.19591 0.93532,-0.11692 0.93532,0.47753 0,0.60899 -0.23019,0.71227 -1.5875,0.71227 -1.44168,0 -1.5875,-0.078 -1.5875,-0.84891 0,-0.67524 -0.14435,-0.81117 -0.70556,-0.66441 -0.39049,0.10211 -0.70555,0.48119 -0.70555,0.84891 0,0.42299 -0.24935,0.66441 -0.68623,0.66441 -0.56492,0 -0.70958,-0.2962 -0.81835,-1.67569 l -0.13213,-1.67569 -0.0636,1.67569 -0.0636,1.67567 h -1.38171 c -0.77529,0 -1.45981,-0.19354 -1.55965,-0.44097 -0.14235,-0.35278 -0.18351,-0.35278 -0.20579,0 -0.0153,0.24253 -0.26598,0.44097 -0.55702,0.44097 -0.39299,0 -0.52916,-0.41389 -0.52916,-1.60832 0,-1.08665 -0.12676,-1.52998 -0.39078,-1.3668 -0.24305,0.15021 -0.30746,0.76258 -0.17039,1.61977 0.21975,1.37424 0.21702,1.37809 -0.93214,1.3209 -0.63389,-0.0315 -1.39065,0.0327 -1.68169,0.14287 -0.29105,0.11013 -0.88636,0.0565 -1.32292,-0.11911 z m 21.60432,-0.12451 c -0.4962,-0.36282 -0.82383,-0.39024 -1.27753,-0.1069 -0.48897,0.30536 -0.75292,0.20957 -1.32863,-0.48216 l -0.71844,-0.86324 -0.0117,0.79375 c -0.0222,1.50062 -1.02031,0.89589 -1.16454,-0.70556 l -0.13505,-1.4993 -0.0616,1.4993 c -0.0511,1.24358 -0.18196,1.49931 -0.76718,1.49931 -0.59319,0 -0.71398,-0.25283 -0.75847,-1.5875 -0.0291,-0.87313 -0.0688,-1.78594 -0.0882,-2.02847 -0.0604,-0.75468 2.33962,-0.65533 3.18197,0.13171 0.74583,0.69686 0.74832,0.69679 0.93712,-0.0252 0.21954,-0.83954 0.89315,-0.95817 1.18102,-0.20799 0.1705,0.44433 0.32075,0.43546 1.08287,-0.0639 0.70241,-0.46024 1.08983,-0.50245 1.87865,-0.20471 0.67223,0.25375 1.10959,0.25927 1.35179,0.0171 0.77938,-0.77938 1.40988,-0.0102 1.21045,1.47675 -0.15685,1.16939 -0.0862,1.43389 0.38329,1.43389 0.44839,0 0.57561,-0.35658 0.57561,-1.61336 0,-1.34665 0.10207,-1.59371 0.61737,-1.49448 0.33954,0.0654 0.60148,0.31516 0.58208,0.55504 -0.0194,0.23987 -0.0591,1.07454 -0.0882,1.85481 -0.0424,1.13745 -0.22488,1.49703 -0.92041,1.81393 -0.68481,0.31202 -1.04091,0.28163 -1.69099,-0.14432 -0.70704,-0.46327 -0.91819,-0.47035 -1.49299,-0.05 -0.84894,0.62075 -1.63077,0.62125 -2.47823,10e-4 z m -3.81999,-1.71688 c -0.0979,-0.24254 -0.17794,-0.0441 -0.17794,0.44097 0,0.48507 0.0801,0.68351 0.17794,0.44097 0.0979,-0.24253 0.0979,-0.63941 0,-0.88194 z m 5.49557,-0.0799 c 0.19494,-1.01978 0.0354,-1.26697 -0.64842,-1.00457 -0.77468,0.29727 -0.58231,1.87823 0.22855,1.87823 0.13907,0 0.32801,-0.39315 0.41987,-0.87366 z m 5.20691,1.49473 c 0,-0.99028 1.26871,-3.44073 1.78206,-3.44197 0.55705,-10e-4 2.19746,3.3099 1.82451,3.68284 -0.41278,0.41278 -1.48991,0.1722 -1.48991,-0.33278 0,-0.29104 -0.15875,-0.52916 -0.35278,-0.52916 -0.19402,0 -0.35277,0.23812 -0.35277,0.52916 0,0.29398 -0.31358,0.52917 -0.70556,0.52917 -0.38805,0 -0.70555,-0.19677 -0.70555,-0.43726 z m -14.01007,-14.73218 c -0.01,-4.75368 0.10362,-8.16681 0.25173,-7.58473 l 0.2693,1.05834 0.0417,-0.99096 c 0.0237,-0.56273 0.19419,-0.89674 0.39452,-0.77293 0.40271,0.24889 0.41327,8.40635 0.0176,13.58194 -0.23775,3.10971 -0.26462,3.19875 -0.3726,1.23472 l -0.11637,-2.11666 -0.23417,2.11666 c -0.13111,1.18514 -0.2419,-1.68706 -0.25173,-6.52638 z m -7.86216,-5.74275 c 0,-0.2862 1.48044,-1.87931 3.28986,-3.54024 2.9634,-2.72021 4.07464,-3.3442 4.63743,-2.60408 0.10263,0.13497 0.0839,0.1692 -0.0415,0.0761 -0.12548,-0.0931 -1.48125,1.05371 -3.01282,2.54855 -3.21388,3.13679 -4.87294,4.33512 -4.87294,3.51971 z m 4.05695,-3.42948 c 0.75785,-0.77611 1.29854,-1.41111 1.20152,-1.41111 -0.097,0 -0.79645,0.635 -1.5543,1.41111 -0.75785,0.77611 -1.29854,1.41111 -1.20153,1.41111 0.097,0 0.79646,-0.635 1.55431,-1.41111 z m 2.46944,-2.11666 c 0.35119,-0.38806 0.55915,-0.70556 0.46213,-0.70556 -0.097,0 -0.46372,0.3175 -0.81491,0.70556 -0.35118,0.38805 -0.55914,0.70555 -0.46213,0.70555 0.097,0 0.46373,-0.3175 0.81491,-0.70555 z m 9.77581,5.38173 c -0.24942,-0.34058 -0.34187,-0.39335 -0.20544,-0.11727 0.37698,0.76288 -0.65865,-0.0436 -4.03178,-3.13966 -3.27406,-3.00512 -3.4601,-4.31396 -0.22064,-1.55223 3.89906,3.32405 5.18667,4.60245 5.04966,5.01351 -0.0898,0.26944 -0.29728,0.19781 -0.5918,-0.20435 z m -0.77997,-0.92881 c 0,-0.0733 -0.27782,-0.35107 -0.61737,-0.61737 -0.55952,-0.43881 -0.572,-0.42633 -0.13319,0.1332 0.46086,0.58764 0.75056,0.77451 0.75056,0.48417 z m -3.52778,-3.2182 c -0.85691,-0.87313 -1.63739,-1.5875 -1.73441,-1.5875 -0.097,0 0.52472,0.71437 1.38163,1.5875 0.85691,0.87312 1.63739,1.5875 1.7344,1.5875 0.097,0 -0.52471,-0.71438 -1.38162,-1.5875 z m -17.4625,-2.64583 c -4.89538,-0.20503 -4.87673,-0.20714 2.11666,-0.23925 4.54224,-0.0209 6.55289,0.0716 5.64445,0.25948 -0.77611,0.16054 -1.72861,0.2682 -2.11667,0.23925 -0.38805,-0.029 -2.92805,-0.14572 -5.64444,-0.25948 z m 19.40278,-0.0321 c -0.58209,-0.13046 2.11666,-0.24345 5.99722,-0.25109 3.88055,-0.008 6.8968,0.0415 6.70278,0.1093 -0.7131,0.249 -11.67558,0.37139 -12.7,0.14179 z m -9.76754,-0.20889 c 0.25466,-0.10191 0.55893,-0.0894 0.67616,0.0279 0.11722,0.11723 -0.0911,0.2006 -0.46302,0.18529 -0.41097,-0.0169 -0.49456,-0.10052 -0.21314,-0.21314 z m -8.81664,-0.80844 c 3.16662,-0.12437 6.421,-0.11775 7.23195,0.0147 0.81094,0.13246 -1.77993,0.23421 -5.7575,0.22612 l -7.23194,-0.0147 z m 18.58418,0.008 c 1.0259,-0.24423 12.55105,-0.0615 12.84699,0.20371 0.0808,0.0725 -3.01478,0.11294 -6.87917,0.09 -3.86439,-0.023 -6.54991,-0.15511 -5.96782,-0.29369 z m -8.99906,-1.8574 c -3.94647,-3.56373 -5.28199,-4.94055 -5.09143,-5.24887 0.28607,-0.46287 1.90994,0.7628 5.16838,3.90098 1.98458,1.91135 2.60142,2.6961 2.14618,2.73039 -0.35137,0.0265 -1.35178,-0.59566 -2.22313,-1.3825 z m 1.41433,0.68026 c 0,-0.0558 -0.83343,-0.88923 -1.85208,-1.85208 l -1.85208,-1.75063 1.75062,1.85209 c 1.62672,1.72099 1.95354,2.01386 1.95354,1.75062 z m 2.88622,0.46978 c 0.1944,-0.52934 7.42235,-7.0711 7.81281,-7.0711 0.20457,0 0.0638,0.23852 -0.31285,0.53003 -0.57084,0.44184 -0.58206,0.49426 -0.0674,0.31504 0.33955,-0.11825 0.61736,-0.13819 0.61736,-0.0443 0,0.44393 -6.75557,6.30548 -7.41317,6.43212 -0.41201,0.0793 -0.69854,0.007 -0.63672,-0.16178 z m 2.22906,-1.42665 c 0.75785,-0.77611 1.29854,-1.41111 1.20153,-1.41111 -0.097,0 -0.79646,0.635 -1.55431,1.41111 -0.75785,0.77611 -1.29854,1.41111 -1.20152,1.41111 0.097,0 0.79645,-0.635 1.5543,-1.41111 z m 3.70417,-3.35139 c 0.4557,-0.48507 0.74917,-0.88195 0.65215,-0.88195 -0.097,0 -0.54923,0.39688 -1.00493,0.88195 -0.4557,0.48507 -0.74917,0.88194 -0.65216,0.88194 0.097,0 0.54924,-0.39687 1.00494,-0.88194 z m -6.70587,1.05833 c -0.0716,-1.57027 -0.10995,-1.64772 -0.34969,-0.70555 -0.15697,0.61687 -0.26583,-1.22255 -0.26098,-4.40973 0.005,-3.30527 0.10826,-4.90991 0.26098,-4.05694 l 0.25266,1.41111 0.0501,-1.38171 c 0.0964,-2.66199 0.39189,-1.00188 0.5953,3.34498 0.1129,2.4127 0.0538,5.1011 -0.13133,5.97423 l -0.33661,1.5875 z"
         id="path3703"
         inkscape:connector-curvature="0"
         clip-path="url(#clipPath3695)" />
    </clipPath>
  </defs>
  <sodipodi:namedview
     id="base"
     pagecolor="#ffffff"
     bordercolor="#666666"
     borderopacity="1.0"
     inkscape:pageopacity="0.0"
     inkscape:pageshadow="2"
     inkscape:zoom="1.4"
     inkscape:cx="52.882205"
     inkscape:cy="65.654449"
     inkscape:document-units="mm"
     inkscape:current-layer="layer1"
     showgrid="false"
     fit-margin-top="0"
     fit-margin-left="0"
     fit-margin-right="0"
     fit-margin-bottom="0"
     inkscape:window-width="1031"
     inkscape:window-height="522"
     inkscape:window-x="329"
     inkscape:window-y="342"
     inkscape:window-maximized="0" />
  <metadata
     id="metadata5">
    <rdf:RDF>
      <cc:Work
         rdf:about="">
        <dc:format>image/svg+xml</dc:format>
        <dc:type
           rdf:resource="http://purl.org/dc/dcmitype/StillImage" />
        <dc:title></dc:title>
      </cc:Work>
    </rdf:RDF>
  </metadata>
  <g
     inkscape:label="Layer 1"
     inkscape:groupmode="layer"
     id="layer1"
     transform="translate(-167.83403,-234.95139)">
    <rect
       style="fill:#31289f;fill-opacity:1;stroke:none;stroke-width:3.53665948;stroke-linecap:round;stroke-linejoin:round;stroke-miterlimit:4;stroke-dasharray:none;stroke-opacity:1;paint-order:stroke fill markers"
       id="rect4493"
       width="40"
       height="40"
       x="167.83403"
       y="234.95139" />
    <rect
       style="fill:#e6e6e6;fill-opacity:1;stroke-width:0.26458332"
       id="rect3699"
       width="41.766369"
       height="45.357143"
       x="167.83403"
       y="229.59425"
       clip-path="url(#clipPath3701)"
       transform="translate(-2.1166667,2.6458334)" />
  </g>
</svg>
