<?xml version="1.0" encoding="UTF-8"?>
<svg width="210" height="100" version="1.1" viewBox="0 0 55.562 26.458" xmlns="http://www.w3.org/2000/svg" xmlns:cc="http://creativecommons.org/ns#" xmlns:dc="http://purl.org/dc/elements/1.1/" xmlns:rdf="http://www.w3.org/1999/02/22-rdf-syntax-ns#">
<defs>
<clipPath id="a">
<rect x="89.554" y="142.18" width="32.279" height="35.375" fill="#333" style="paint-order:stroke fill markers"/>
</clipPath>
</defs>
<metadata>
<rdf:RDF>
<cc:Work rdf:about="">
<dc:format>image/svg+xml</dc:format>
<dc:type rdf:resource="http://purl.org/dc/dcmitype/StillImage"/>
<dc:title/>
</cc:Work>
</rdf:RDF>
</metadata>
<path d="m0 9.26h55.562v17.198h-55.562z" fill="#fff"/>
<g transform="matrix(1.7288 0 0 .72917 -155.06 -103.89)" clip-path="url(#a)" stroke-width=".26458">
<path d="m89.694 148.83v-6.35h32.279v12.7h-32.279z" fill="#52a0ed"/>
<path d="m89.694 152.21-6.4e-5 -2.9766 15.774 0.0723c11.559 0.053 15.872-9e-3 16.14-0.23084 0.30717-0.25493 0.36524 0.20676 0.36524 2.9043v3.2074h-32.279z" fill="#2373e1"/>
</g>
<g transform="matrix(.69266 0 0 .69266 65.783 -108.44)">
<g transform="matrix(.038626 .022301 -.022301 .038626 -78.263 163.6)">
<path d="m71.826-81.704 7.5869-7.5869s-34.887-26.717-40.14-21.464c-5.2525 5.2525-1.2952 8.6897-1.2952 8.6897s30.164 7.3394 33.848 20.361z" stroke-width="1px" connector-curvature="0"/>
<path d="m78.029-86.801s-18.99-10.54-41.558-5.0578c-44.387 10.783-26.787 94.433 7.2922 96.804 19.685 1.3694 16.634-5.7265 29.79-4.6977 13.091 1.0236 7.3917 5.3824 25.618 6.0671 30.668-0.11484 50.956-55.271 31.434-85.1-5.0877-7.7741-11.214-12.334-23.159-14.896-18.956-4.7927-27.96 7.5649-29.418 6.8802z" fill="#1fe058" stroke="#000" stroke-linecap="round" stroke-linejoin="round" stroke-width="5" connector-curvature="0"/>
<path d="m79.413-89.291s3.5548-13.886 23.319-21.599c19.764-7.7129 33.857-3.9122 33.857-3.9122 8.7756 1.2485-5.9348 29.071-32.287 30.258-26.352 1.1866-24.888-4.1531-24.888-4.7464z" fill="#40a41f" stroke="#000" stroke-width="4" connector-curvature="0"/>
</g>
<g transform="matrix(.044602 0 0 .044602 -91.015 165.98)">
<path d="m73.22-86.885h10.73s-5.7774-43.56-13.206-43.56c-7.4281 0-7.0604 5.2287-7.0604 5.2287s16.139 26.519 9.5364 38.332z" stroke-width="1px" connector-curvature="0"/>
<path d="m80.125-86.924s-18.99-10.54-41.558-5.0578c-44.387 10.783-26.787 94.433 7.2922 96.804 19.685 1.3694 16.634-5.7265 29.79-4.6977 13.091 1.0236 7.3917 5.3824 25.618 6.0671 30.668-0.11484 50.956-55.271 31.434-85.1-5.0877-7.7741-11.214-12.334-23.159-14.896-18.956-4.7927-27.96 7.5649-29.418 6.8802z" fill="#f00" stroke="#000" stroke-linecap="round" stroke-linejoin="round" stroke-width="5" connector-curvature="0"/>
<path d="m79.413-89.291s3.5548-13.886 23.319-21.599c19.764-7.7129 33.857-3.9122 33.857-3.9122 8.7756 1.2485-5.9348 29.071-32.287 30.258-26.352 1.1866-24.888-4.1531-24.888-4.7464z" fill="#30c300" stroke="#000" stroke-width="4" connector-curvature="0"/>
</g>
<g transform="matrix(.26458 0 0 .26458 -83.941 160.07)">
<path d="m10.731 7.7032h1.8087s-0.97393-7.3431-2.2261-7.3431c-1.2522 0-1.1902 0.88142-1.1902 0.88142s2.7206 4.4703 1.6076 6.4617z" stroke-width="1px" connector-curvature="0"/>
<path d="m11.895 7.6966s-3.2012-1.7768-7.0056-0.85262c-7.4825 1.8177-4.5156 15.919 1.2293 16.319 3.3183 0.23084 2.8041-0.96533 5.0219-0.79191 2.2067 0.17256 1.2461 0.90733 4.3186 1.0227 5.1699-0.01936 8.5898-9.3172 5.299-14.346-0.85765-1.3105-1.8904-2.0791-3.9041-2.5111-3.1954-0.80792-4.7133 1.2752-4.9591 1.1598z" fill="#ffd700" stroke="#000" stroke-linecap="round" stroke-linejoin="round" stroke-width=".84287" connector-curvature="0"/>
<path d="m11.775 7.2977s0.59924-2.3408 3.931-3.641c3.3318-1.3002 5.7073-0.65949 5.7073-0.65949 1.4793 0.21046-1.0005 4.9006-5.4428 5.1006-4.4423 0.20003-4.1955-0.7001-4.1955-0.80012z" fill="#30c300" stroke="#000" stroke-width=".6743" connector-curvature="0"/>
</g>
<g transform="matrix(.26458 0 0 .26458 -63.998 160.07)">
<path d="m10.731 7.7032h1.8087s-0.97393-7.3431-2.2261-7.3431c-1.2522 0-1.1902 0.88142-1.1902 0.88142s2.7206 4.4703 1.6076 6.4617z" stroke-width="1px" connector-curvature="0"/>
<path d="m11.895 7.6966s-3.2012-1.7768-7.0056-0.85262c-7.4825 1.8177-4.5156 15.919 1.2293 16.319 3.3183 0.23084 2.8041-0.96533 5.0219-0.79191 2.2067 0.17256 1.2461 0.90733 4.3186 1.0227 5.1699-0.01936 8.5898-9.3172 5.299-14.346-0.85765-1.3105-1.8904-2.0791-3.9041-2.5111-3.1954-0.80792-4.7133 1.2752-4.9591 1.1598z" fill="#006dff" stroke="#000" stroke-linecap="round" stroke-linejoin="round" stroke-width=".84287" connector-curvature="0"/>
<path d="m11.775 7.2977s0.59924-2.3408 3.931-3.641c3.3318-1.3002 5.7073-0.65949 5.7073-0.65949 1.4793 0.21046-1.0005 4.9006-5.4428 5.1006-4.4423 0.20003-4.1955-0.7001-4.1955-0.80012z" fill="#fff" stroke="#000" stroke-width=".6743" connector-curvature="0"/>
</g>
<g transform="matrix(.26458 0 0 .26458 -70.646 160.07)">
<path d="m10.731 7.7032h1.8087s-0.97393-7.3431-2.2261-7.3431c-1.2522 0-1.1902 0.88142-1.1902 0.88142s2.7206 4.4703 1.6076 6.4617z" stroke-width="1px" connector-curvature="0"/>
<path d="m11.895 7.6966s-3.2012-1.7768-7.0056-0.85262c-7.4825 1.8177-4.5156 15.919 1.2293 16.319 3.3183 0.23084 2.8041-0.96533 5.0219-0.79191 2.2067 0.17256 1.2461 0.90733 4.3186 1.0227 5.1699-0.01936 8.5898-9.3172 5.299-14.346-0.85765-1.3105-1.8904-2.0791-3.9041-2.5111-3.1954-0.80792-4.7133 1.2752-4.9591 1.1598z" fill="#fff" stroke="#000" stroke-linecap="round" stroke-linejoin="round" stroke-width=".84287" connector-curvature="0"/>
<path d="m11.775 7.2977s0.59924-2.3408 3.931-3.641c3.3318-1.3002 5.7073-0.65949 5.7073-0.65949 1.4793 0.21046-1.0005 4.9006-5.4428 5.1006-4.4423 0.20003-4.1955-0.7001-4.1955-0.80012z" fill="#fff" stroke="#000" stroke-width=".6743" connector-curvature="0"/>
</g>
</g>
<text x="4.5354972" y="17.388618" fill="#000000" font-family="Lavi" font-size="10.583px" letter-spacing="0px" stroke-width=".26458" word-spacing="0px" style="line-height:1.25" xml:space="preserve"><tspan x="4.5354972" y="27.079247" font-family="Lavi" stroke-width=".26458"/></text>
<path d="m25.186 10.463c-0.07597 0.0038-0.14472 0.02204-0.12259 0.02243-0.04005 0.01271-0.07759 0.0349-0.10913 0.06276-2.93e-4 2.45e-4 2.92e-4 0.0015 0 0.0015-0.03141 0.02641-0.06017 0.05901-0.07923 0.09867-2.39e-4 4.74e-4 2.35e-4 7.65e-4 0 0.0015-0.02358 0.04799-0.02729 0.10021-0.02243 0.14651l-0.0015-0.01194c0 0.02495 2.58e-4 0.06797-0.0015 0.12408a0.10993 0.10993 0 0 0-0.0015 0.0031c0 0.05465-0.0012 0.11812-3e-3 0.18985a0.10993 0.10993 0 0 0 0 0.0031c0 0.06904-0.0012 0.14254-3e-3 0.22125-0.0018 0.07804-0.0028 0.15303-0.0045 0.22424-0.0018 0.06965-0.0026 0.1314-6e-3 0.18537a0.10993 0.10993 0 0 0 0 0.0046c-0.0017 0.05465-0.0043 0.09228-6e-3 0.11809a0.10993 0.10993 0 0 0 0 0.0015c-0.0034 0.06889-0.0094 0.15854-0.01644 0.26759-7e-3 0.10959-0.01371 0.22627-0.02243 0.34832-0.0087 0.12211-0.01935 0.2471-0.0299 0.37373l-0.0284 0.34682c-0.0088 0.10505-0.01693 0.1942-0.02392 0.26759-0.0069 0.07057-0.01386 0.11863-0.01495 0.12408a0.10993 0.10993 0 0 0 0 0.0015l-0.16594 0.94481a0.10993 0.10993 0 0 0-3e-3 0.01944v0.09268c0 0.08953 0.02289 0.17581 0.07176 0.24666a0.10993 0.10993 0 0 0 0.0015 0.0015c0.05868 0.08103 0.16033 0.12259 0.26161 0.12259 0.08825 0 0.17635-0.03284 0.23919-0.09567 0.05553-0.05549 0.09897-0.12295 0.13156-0.20032 0.0317-0.07531 0.05353-0.15661 0.06876-0.24367v-0.0015c0.01612-0.08256 0.02974-0.16251 0.03887-0.23919a0.10993 0.10993 0 0 0 0-0.0015c0.0088-0.07531 0.01558-0.14152 0.02093-0.20181v-0.0031c9.19e-4 -0.0079 0.0021-0.0077 3e-3 -0.01493 0.04579 0.0061 0.09327 0.0083 0.13454 0.02388a0.10993 0.10993 0 0 0 3e-3 0c0.07077 0.02465 0.13556 0.05985 0.19584 0.10315a0.10993 0.10993 0 0 0 3e-3 0.0015c0.06257 0.04225 0.12026 0.09303 0.17491 0.15248a0.10993 0.10993 0 0 0 0.0015 0c0.05659 0.05993 0.1077 0.12231 0.15547 0.18986a0.10993 0.10993 0 0 0 0 0.0015c0.0485 0.0669 0.09456 0.13766 0.13454 0.20929a0.10993 0.10993 0 0 0 0.0015 0.0031c0.04264 0.07164 0.08087 0.14104 0.11511 0.2078a0.10993 0.10993 0 0 0 0.0015 0.0046c0.03336 0.05718 0.08323 0.10579 0.145 0.12856a0.10993 0.10993 0 0 0 0.0045 0.0015c0.04502 0.01424 0.09406 0.02243 0.1465 0.02243 0.09675 0 0.19178-0.03368 0.25264-0.10614 0.0558-0.06644 0.08222-0.15269 0.08222-0.24218v-0.09418a0.10993 0.10993 0 0 0-0.01196-0.04929c-0.06481-0.12961-0.13206-0.24917-0.2033-0.35878-0.07148-0.10996-0.15137-0.21262-0.2377-0.30646l-0.0015-0.0015c-0.08494-0.09398-0.18126-0.1813-0.28553-0.26012l-0.0015-0.0015c-0.06951-0.05358-0.15297-0.10013-0.23321-0.148 9e-3 -0.0088 0.01065-0.01133 0.02093-0.0209a0.10993 0.10993 0 0 0 0.0015-0.0015c0.05425-0.05258 0.11784-0.10991 0.18986-0.1749 0.07179-0.06483 0.14826-0.13312 0.22723-0.20331 0.07923-0.07042 0.15192-0.1367 0.21975-0.19584 0.06997-0.06123 0.13014-0.113 0.1794-0.15697l0.0015-0.0015c0.04938-0.04256 0.08041-0.07034 0.09567-0.08371a0.10993 0.10993 0 0 0 0.01346-0.01347c0.02854-0.03513 0.05299-0.0672 0.06279-0.12109a0.10993 0.10993 0 0 0 0.0015-0.0015c0.0055-0.03314 6e-3 -0.06445 6e-3 -0.10165 0-0.09803-0.03275-0.19424-0.10763-0.25414-0.06834-0.05465-0.15593-0.07773-0.24816-0.07773h-0.08222c-0.06657 0-0.13313 0.04501-0.16594 0.09567l0.01644-0.01944c-0.03607 0.03429-0.07785 0.07509-0.12856 0.12408-0.05005 0.04661-0.10569 0.09727-0.16743 0.15548-0.06153 0.05626-0.12627 0.11531-0.19434 0.1764a0.10993 0.10993 0 0 0-0.0015 0.0015c-0.06549 0.06031-0.13192 0.11976-0.20032 0.1794-0.06636 0.0561-0.13389 0.10866-0.19883 0.15995 0.0014-0.10576 9.95e-4 -0.21196 6e-3 -0.31842 7e-3 -0.15065 0.01515-0.3006 0.02392-0.45146 0.0088-0.15154 0.01686-0.30428 0.02392-0.45595 0.0071-0.15291 0.01196-0.3046 0.01196-0.45745v-0.56362a0.10993 0.10993 0 0 0-0.0045-0.03138c-0.02452-0.08339-0.08713-0.15724-0.16892-0.18537-0.05689-0.02151-0.1177-0.03437-0.18238-0.03437zm-4.1021 0.13754c-0.08081 0-0.16116 0.02763-0.22125 0.08222-0.05473 0.04975-0.09447 0.11496-0.11511 0.18836a0.10993 0.10993 0 0 0-0.0045 0.02993c0 0.02886 2.19e-4 0.07386-0.0015 0.13904a0.10993 0.10993 0 0 0 0 0.0031c0 0.06223-9.95e-4 0.13715-0.0045 0.22275a0.10993 0.10993 0 0 0-0.0015 0.0015c-0.0018 0.08386-0.0042 0.17504-6e-3 0.27058-0.0018 0.09277-0.0025 0.18119-6e-3 0.26609a0.10993 0.10993 0 0 0-0.0015 0.0015c-0.0018 0.08488-0.0028 0.16002-0.0045 0.22573-0.0018 0.06368-0.0028 0.10919-0.0045 0.13603a0.10993 0.10993 0 0 0 0 0.0015c-0.0034 0.06544-0.0092 0.14882-0.01794 0.24966a0.10993 0.10993 0 0 0 0 0.0015c-7e-3 0.10069-0.0164 0.20876-0.02691 0.3244a0.10993 0.10993 0 0 0 0 0.0015c-0.0088 0.11418-0.01792 0.23098-0.0284 0.34981-0.01052 0.11922-0.02095 0.22816-0.0314 0.32739a0.10993 0.10993 0 0 0 0 0.0015c-0.0087 0.09799-0.01692 0.18262-0.02392 0.25264-0.0069 0.0669-0.01176 0.11027-0.01346 0.12557l-0.15697 0.88052a0.10993 0.10993 0 0 0-3e-3 0.01944v0.02993c0 0.09075 0.03602 0.1803 0.10165 0.24069a0.10993 0.10993 0 0 0 0.0015 0.0015c0.0638 0.05641 0.14875 0.0897 0.2362 0.0897 0.07048 0 0.14001-0.01868 0.19584-0.05978 0.04554-0.0336 0.08385-0.0777 0.11062-0.13006v-0.0015c0.02654-0.04899 0.04464-0.10148 0.05532-0.15697 0.01061-0.04807 0.01973-0.0944 0.02541-0.13903v-0.0031l0.15547-1.0405a0.10993 0.10993 0 0 0 0-9e-3l0.11062-1.5772a0.10993 0.10993 0 0 0 0.0015-0.0077v-1.0703c0-0.04722-0.01943-0.0937-0.04784-0.13006-0.02099-0.02985-0.04764-0.05603-0.07773-0.07478l-3e-3 -0.0015c-0.02816-0.01837-0.05888-0.03238-0.0897-0.04187-4.51e-4 -1.6e-4 -0.0011 1.61e-4 -0.0015 0-0.03199-0.01133-0.06517-0.02089-0.10165-0.02089zm-10.465 0.145c-0.07476 0-0.14711 0.02709-0.20779 0.06873-0.06708 0.04508-0.1173 0.12018-0.13006 0.20181a0.10993 0.10993 0 0 0 0 0.0015c-0.0137 0.09933-0.0304 0.19559-0.04933 0.28852-0.01841 0.09038-0.04217 0.17669-0.07325 0.26012-0.03066 0.0823-0.07126 0.1651-0.12109 0.24815-0.04907 0.08179-0.11142 0.16696-0.18686 0.25414l0.00299-0.0015c-0.040337 0.04439-0.055935 0.12073-0.037375 0.1764a0.10993 0.10993 0 0 0 0.00299 0.0061c0.016831 0.0421 0.043115 0.08048 0.076242 0.11362a0.10993 0.10993 0 0 0 0.00299 0.0031c0.035576 0.03322 0.075461 0.05939 0.1181 0.08073 0.04796 0.02396 0.10086 0.03888 0.15547 0.03888 0.09427 0 0.1865-0.03092 0.2646-0.0867 0.07323-0.05228 0.13618-0.12001 0.19135-0.19883 0.05534-0.07824 0.10351-0.16281 0.14501-0.25713a0.10993 0.10993 0 0 0 0.0015-0.0015c0.04047-0.09383 0.07407-0.18726 0.10165-0.28105a0.10993 0.10993 0 0 0 0-0.0015c0.02745-0.09517 0.04812-0.18553 0.06129-0.27208l-0.0015 0.0015c0.01479-0.08693 0.02392-0.16203 0.02392-0.22872v-0.15547a0.10993 0.10993 0 0 0-9e-3 -0.04034c-0.02764-0.06912-0.07277-0.13005-0.13604-0.16743-0.05806-0.03513-0.12556-0.05082-0.19584-0.05082zm17.217 0.37971c-0.06967 0-0.13951 0.02089-0.20032 0.05832-0.0544 0.03276-0.10245 0.076-0.145 0.12706a0.10993 0.10993 0 0 0-0.0015 0c-0.04052 0.04906-0.07352 0.10515-0.09867 0.16594-0.02536 0.05962-0.04036 0.12024-0.04036 0.18089 0 0.06437 0.01978 0.1266 0.05232 0.18238a0.10993 0.10993 0 0 0 3e-3 0.0046c0.03203 0.04914 0.072 0.09473 0.1181 0.13454a0.10993 0.10993 0 0 0 0.0045 0.0031c0.04722 0.03697 0.09815 0.06789 0.15398 0.09269a0.10993 0.10993 0 0 0 3e-3 0.0015c0.05877 0.02396 0.11845 0.03735 0.1764 0.03735 0.06053 0 0.11941-0.01883 0.17341-0.04929 0.05104-0.02786 0.09799-0.06292 0.13903-0.10614a0.10993 0.10993 0 0 0 3e-3 -0.0031c0.04084-0.04516 0.07202-0.0941 0.09717-0.1465 0.02742-0.0571 0.04335-0.11782 0.04335-0.17789 0-0.05962-0.01523-0.12165-0.04484-0.18089-0.02739-0.0548-0.06439-0.1036-0.10614-0.148-0.04205-0.04837-0.09008-0.08987-0.145-0.12109-0.05757-0.0346-0.12147-0.05534-0.18537-0.05534zm-22.473 0.93884c-0.091412 0-0.17127 9e-3 -0.24218 0.0284-0.065855 0.01661-0.12628 0.04225-0.17939 0.07923-0.049483 0.03284-0.091925 0.07317-0.12707 0.1166-0.030011 0.03704-0.064102 0.0786-0.098668 0.12408-0.030203 0.04026-0.064921 0.08464-0.10315 0.13156-0.00735 9e-3 -0.020168 0.01921-0.028404 0.0284-0.058308-0.11746-0.1283-0.22454-0.22424-0.30497-0.13831-0.11928-0.31483-0.17939-0.51276-0.17939-0.09729 0-0.18529 0.01309-0.2646 0.04485-0.073609 0.02763-0.13971 0.0672-0.19733 0.1166-0.036601 0.03138-0.071971 0.07195-0.10763 0.11062v-0.01646c0-0.05603-0.028358-0.10908-0.062786-0.14351-0.028182-0.02817-0.064056-0.05251-0.10465-0.07026-0.033861-0.01554-0.069368-0.02748-0.10763-0.03437h-0.00153c-0.035759-0.0069-0.068075-9e-3 -0.098668-0.0061a0.10993 0.10993 0 0 0-0.00597 0c-0.045625 0.0069-0.08039 0.03544-0.10165 0.06131-0.021263 0.02587-0.034098 0.0522-0.046345 0.08222a0.10993 0.10993 0 0 0-0.00153 0.0031c-0.020176 0.0545-0.03987 0.12295-0.059801 0.2063a0.10993 0.10993 0 0 0 0 0.0015c-0.01791 0.0824-0.035783 0.17724-0.055315 0.28553a0.10993 0.10993 0 0 0-0.00153 0.0015c-0.017512 0.10506-0.035729 0.21817-0.056808 0.33935a0.10993 0.10993 0 0 0-0.00153 0.0015c-0.019166 0.12022-0.039862 0.24465-0.064278 0.37373a0.10993 0.10993 0 0 0 0 0.0015c-0.022472 0.12617-0.049843 0.25098-0.079234 0.37373a0.10993 0.10993 0 0 0 0 0.0015c-0.027677 0.12283-0.056999 0.24145-0.09119 0.3543a0.10993 0.10993 0 0 0-0.00153 0c-0.032055 0.10965-0.067991 0.2071-0.10763 0.293a0.10993 0.10993 0 0 0-0.010463 0.04631v0.08521c0 0.04309 0.00719 0.0868 0.022426 0.13006 0.014305 0.04057 0.034206 0.07913 0.061293 0.11362a0.10993 0.10993 0 0 0 0.00597 0.0077c0.031121 0.03368 0.067493 0.05993 0.10614 0.07923 0.045281 0.02266 0.095958 0.03291 0.14651 0.03291 0.032499 0 0.06708-0.0038 0.10315-0.01049a0.10993 0.10993 0 0 0 0.00452 0c0.039923-0.0089 0.076946-0.02166 0.11062-0.03735a0.10993 0.10993 0 0 0 0.00597-0.0031c0.03716-0.01982 0.068894-0.04554 0.095675-0.0747 0.033371-0.03613 0.058147-0.08284 0.067271-0.13455v0.0061c0.00459-0.01982 0.012698-0.05396 0.025411-0.09718l0.00153-0.0031c0.01553-0.04669 0.031841-0.10047 0.04933-0.16145l0.00153-0.0031c0.019028-0.06062 0.038186-0.12308 0.058301-0.18686v-0.0031c0.022357-0.06537 0.044485-0.12836 0.064278-0.19135 0.019426-0.06177 0.037076-0.11721 0.052323-0.16295 0.015583-0.04677 0.026529-0.0792 0.034382-0.10465v-0.0015c0.014474-0.04347 0.03158-0.09704 0.052323-0.16444v-0.0015c0.022189-0.06651 0.048641-0.13697 0.077734-0.21228h-0.00153c0.030448-0.07608 0.065472-0.15314 0.10315-0.23022 0.035966-0.07356 0.075078-0.13698 0.1181-0.19434 0.043115-0.05695 0.088633-0.10151 0.13603-0.13454 0.041791-0.02916 0.080803-0.04034 0.12707-0.04034 0.030233 0 0.039066 0.0038 0.052323 0.01646 0.019671 0.0186 0.037788 0.04539 0.052323 0.08372a0.10993 0.10993 0 0 0 0.00153 0.0046c0.016793 0.03919 0.029751 0.08418 0.037374 0.13753 0.00832 0.05825 0.013341 0.11567 0.014948 0.17042a0.10993 0.10993 0 0 0 0.00153 0.0031c0.00329 0.05549 0.00314 0.10685 0.00153 0.15547-0.00184 0.05159-0.00299 0.09216-0.00299 0.11959 0 0.11386-0.00222 0.21353-0.00897 0.2975-0.00666 0.08196-0.017688 0.16317-0.031397 0.24367a0.10993 0.10993 0 0 0-0.00153 0.0015c-0.01207 0.08104-0.026154 0.16449-0.044845 0.25114a0.10993 0.10993 0 0 0 0 0.0031c-0.017681 0.09017-0.037091 0.19401-0.058301 0.31244a0.10993 0.10993 0 0 0-0.00299 0.01944v0.03437c0 0.10047 0.033272 0.19619 0.095675 0.27058a0.10993 0.10993 0 0 0 0 0.0015c0.066023 0.07616 0.16693 0.1181 0.27058 0.1181 0.03729 0 0.072629-9e-3 0.10614-0.0209a0.10993 0.10993 0 0 0 0.00597-0.0015c0.02969-0.01271 0.059426-0.02962 0.088197-0.05082l0.00299-0.0015c0.02796-0.01959 0.053264-0.0424 0.076242-0.07026 0.02695-0.03238 0.045916-0.06751 0.056808-0.10016a0.10993 0.10993 0 0 0 0.00452-0.01791c0.013999-0.09273 0.031504-0.20836 0.05083-0.34532v-0.0015c0.020727-0.1363 0.046552-0.2798 0.077734-0.43054 0.031091-0.15199 0.067723-0.30328 0.11062-0.45446v-0.0015c0.044003-0.14865 0.095935-0.28155 0.15398-0.39765 0.058829-0.11602 0.12383-0.20613 0.19584-0.27506 0.065587-0.06422 0.13326-0.09404 0.21228-0.09867h0.077734c0.064271 0.04256 0.11583 0.08937 0.14651 0.14949 0.038538 0.07554 0.063605 0.15718 0.077734 0.24667a0.10993 0.10993 0 0 0 0.00153 0.0031c0.016311 0.09134 0.022572 0.18575 0.020926 0.28254a0.10993 0.10993 0 0 0 0 0.0015v0.28553c0 0.14905-0.00697 0.29879-0.022426 0.44997-0.016188 0.15828-0.025411 0.31558-0.025411 0.47239 0 0.10138 0.035606 0.20005 0.10614 0.27058 0.070539 0.07057 0.16921 0.10614 0.27058 0.10614 0.095797 0 0.19123-0.03827 0.25414-0.11062 0.056502-0.0633 0.096387-0.14085 0.12109-0.22872v-0.0015c0.025342-0.08623 0.039441-0.18056 0.043352-0.28105v-0.0015c0.00543-0.09678 0.00513-0.18938 0.00153-0.27955l0.00153 0.0031c-0.00176-0.08987-0.00612-0.17216-0.013456-0.24816v-0.0031c-0.00505-0.06973-0.0075-0.12321-0.0075-0.148 0-0.11083-0.0049-0.22715-0.011963-0.34982v-0.0015c-0.00551-0.12518-0.018408-0.24964-0.040359-0.37224l0.00153 0.0015c-0.020599-0.12551-0.054973-0.24437-0.10016-0.35734-0.044508-0.1174-0.10638-0.22309-0.18537-0.31394-0.078951-0.092827-0.17901-0.16661-0.296-0.21975-0.12219-0.05802-0.26497-0.0852-0.42456-0.0852zm3.2051 0.05679c-0.049215 0.0015-0.083995 0.0015-0.098668 0.0015-0.25733 0-0.49628 0.02794-0.71607 0.08521-0.21956 0.05771-0.41311 0.14926-0.57704 0.27506-0.16592 0.12733-0.29472 0.29283-0.38569 0.49183-0.092598 0.20062-0.13753 0.43807-0.13753 0.70859 0 0.1801 0.019449 0.35485 0.0583 0.52322 0.039579 0.1715 0.10517 0.3254 0.19584 0.46044a0.10993 0.10993 0 0 0 0 0.0015c0.094159 0.13731 0.21969 0.24879 0.36924 0.33038 0.15665 0.08435 0.34375 0.12408 0.55761 0.12408 0.1172 0 0.22941-0.01538 0.33486-0.04638 0.10506-0.02863 0.20334-0.06896 0.296-0.11809 0.093119-0.04845 0.18269-0.10439 0.26759-0.17042v0.0015c0.045052-0.03429 0.087516-0.07187 0.13156-0.10763 0.00199 0.0061 0.00559 0.01033 0.0075 0.01646 0.019089 0.06299 0.041293 0.12179 0.065779 0.1764a0.10993 0.10993 0 0 0 0.00153 0.0031c0.030516 0.06322 0.072368 0.11797 0.12408 0.16295 0.064944 0.05649 0.15132 0.08222 0.24367 0.08222 0.10365 0 0.20331-0.04248 0.26759-0.11959 0.062173-0.07233 0.095675-0.16565 0.095675-0.26311 0-0.08282-0.01318-0.16528-0.034382-0.24816-0.017765-0.07795-0.036418-0.15708-0.059801-0.23619-0.022243-0.07532-0.045013-0.15114-0.065778-0.22723v-0.0031c-0.017036-0.070482-0.025356-0.14088-0.026909-0.2092a0.10993 0.10993 0 0 0-0.00153-0.0015l-0.055315-1.344c-0.00283-0.07547-0.039977-0.14982-0.098668-0.19734-0.050784-0.04279-0.1108-0.07218-0.1764-0.09268-0.063145-0.02151-0.13085-0.03705-0.20481-0.04485-0.070845-0.0077-0.13997-0.01163-0.20481-0.01347l0.00299 0.0015c-0.063804-0.0038-0.12243-0.0046-0.1764-0.0031zm5.0483 0c-0.04922 0.0015-0.08399 0.0015-0.09867 0.0015-0.25733 0-0.49628 0.02794-0.71607 0.08521-0.21956 0.05771-0.41311 0.14926-0.57704 0.27506-0.16592 0.12733-0.29472 0.29283-0.38569 0.49183-0.0926 0.20062-0.13754 0.43807-0.13754 0.70859 0 0.1801 0.01945 0.35485 0.0583 0.52322 0.03958 0.1715 0.10517 0.3254 0.19584 0.46044a0.10993 0.10993 0 0 0 0 0.0015c0.09416 0.13731 0.21969 0.24879 0.36924 0.33038 0.15665 0.08435 0.34375 0.12408 0.55761 0.12408 0.1172 0 0.2294-0.01538 0.33486-0.04638 0.10506-0.02863 0.20334-0.06896 0.296-0.11809 0.09312-0.04845 0.18269-0.10439 0.26759-0.17042v0.0015c0.04505-0.03429 0.08752-0.07187 0.13156-0.10763 2e-3 0.0061 0.0056 0.01033 0.0075 0.01646 0.01909 0.06299 0.04129 0.12179 0.06578 0.1764a0.10993 0.10993 0 0 0 0.0015 0.0031c0.03052 0.06322 0.07237 0.11797 0.12408 0.16295 0.06494 0.05649 0.15132 0.08222 0.24367 0.08222 0.10365 0 0.2033-0.04248 0.26759-0.11959 0.06217-0.07233 0.09567-0.16565 0.09567-0.26311 0-0.08129-0.01135-0.16396-0.03289-0.24816-0.01809-0.07921-0.03828-0.15831-0.06129-0.23619-0.02224-0.07532-0.04501-0.15114-0.06578-0.22723v-0.0031c-0.01704-0.07057-0.02536-0.14096-0.02691-0.20929a0.10993 0.10993 0 0 0-0.0015-0.0015l-0.05532-1.344c-0.0028-0.07547-0.03998-0.14982-0.09867-0.19734-0.05078-0.04279-0.1108-0.07218-0.1764-0.09268-0.06315-0.02151-0.13084-0.03705-0.2048-0.04485-0.07085-0.0077-0.13997-0.01163-0.20481-0.01347l3e-3 0.0015c-0.0638-0.0038-0.12243-0.0046-0.1764-0.0031zm5.733 0.06728c-0.11409 0-0.24709-2.83e-4 -0.39914 0.0015-0.15479 0.0015-0.31439 0.01538-0.47688 0.03888-0.16471 0.02403-0.32515 0.0669-0.48286 0.12557-0.16186 0.05924-0.30873 0.14826-0.43652 0.26461-0.12927 0.11947-0.23124 0.27406-0.30497 0.45744-0.07621 0.18955-0.10748 0.41528-0.10016 0.6787 0.0038 0.17695 0.04014 0.3361 0.11511 0.47389a0.10993 0.10993 0 0 0 0.0015 0.0015c0.07186 0.13013 0.16614 0.24217 0.27955 0.33636a0.10993 0.10993 0 0 0 0.0015 0c0.11353 0.09082 0.24145 0.16735 0.3827 0.22573 0.1389 0.05664 0.28156 0.10286 0.42754 0.13754a0.10993 0.10993 0 0 0 0.0015 0c0.14474 0.03253 0.28806 0.05549 0.43054 0.07172a0.10993 0.10993 0 0 0 0.0015 0c0.10183 0.01033 0.18986 0.01691 0.27956 0.02388-5.91e-4 0.03368 0.0033 0.07669-3e-3 0.09866-0.01407 0.05067-0.03196 0.08325-0.05382 0.10614a0.10993 0.10993 0 0 0-0.0015 0.0015c-0.0252 0.02763-0.05395 0.04761-0.09119 0.06131a0.10993 0.10993 0 0 0-3e-3 0.0015c-0.04472 0.01791-0.09218 0.02977-0.14052 0.03735a0.10993 0.10993 0 0 0-0.0045 0.0015c-0.05075 0.0095-0.09844 0.01347-0.145 0.01347a0.10993 0.10993 0 0 0-3e-3 0.0015c-0.054 0.0015-0.10311 0.0015-0.145 0.0015a0.10993 0.10993 0 0 0-0.0015 0c-0.12822 0.0015-0.22621-0.0095-0.2945-0.0284a0.10993 0.10993 0 0 0-0.0015 0c-0.0724-0.01891-0.12638-0.04332-0.15995-0.06728-0.04022-0.0287-0.07029-0.05909-0.0897-0.0882a0.10993 0.10993 0 0 0-0.0015-0.0015c-0.02956-0.04248-0.05868-0.08119-0.0882-0.1181-0.03658-0.04569-0.08109-0.0844-0.13156-0.11511a0.10993 0.10993 0 0 0-0.0015 0c-0.06416-0.03789-0.13744-0.05082-0.22125-0.05082-0.0697 0-0.13693 0.02373-0.19882 0.06131a0.10993 0.10993 0 0 0-0.0015 0.0015c-0.06329 0.03988-0.11639 0.09833-0.13903 0.17192a0.10993 0.10993 0 0 0-6e-3 0.03291v0.14351a0.10993 0.10993 0 0 0 0.0015 0.01347c0.0151 0.11648 0.06489 0.22712 0.14351 0.32589a0.10993 0.10993 0 0 0 0.0015 0c0.0792 0.09899 0.17841 0.18457 0.29749 0.25564a0.10993 0.10993 0 0 0 0.0015 0c0.12008 0.07049 0.25384 0.12656 0.40064 0.16743 0.14866 0.04141 0.30422 0.06276 0.46492 0.06276 0.09124 0 0.18532-0.0084 0.28105-0.0209 0.10093-0.01125 0.20023-0.03077 0.29749-0.06131 0.09629-0.02847 0.18722-0.06682 0.27357-0.11362 0.09135-0.04768 0.17131-0.10887 0.23919-0.18238 0.07058-0.07264 0.12576-0.15791 0.16594-0.25564 0.04406-0.10069 0.06578-0.21344 0.06578-0.33636l-0.0015 0.0031 0.0867-2.6924a0.10993 0.10993 0 0 0 0.0015-0.0031c0-0.04539-0.02083-0.09352-0.04933-0.12557-0.01678-0.01891-0.03982-0.03973-0.06727-0.05832l-3e-3 -0.0015c-0.0258-0.01845-0.05285-0.03475-0.08073-0.04631-0.01628-0.0082-0.03116-0.01592-0.03738-0.01944a0.10993 0.10993 0 0 0-0.05382-0.01493zm3.8988 0.0015c-0.20331 0-0.39852 0.03773-0.58451 0.10913-0.18306 0.06912-0.3466 0.16375-0.48884 0.28702-0.14267 0.12364-0.25723 0.27187-0.34084 0.441-0.08519 0.17037-0.12707 0.35678-0.12707 0.55312 0 0.19413 0.02553 0.38125 0.07773 0.5621a0.10993 0.10993 0 0 0 0.0015 0.0015c0.05453 0.1805 0.1365 0.34329 0.24516 0.48436 0.10987 0.14072 0.24935 0.25506 0.4141 0.33934a0.10993 0.10993 0 0 0 0 0.0015c0.16901 0.0845 0.36313 0.12408 0.57854 0.12408 0.05959 0 0.13187-0.0054 0.21378-0.01646 0.08337-0.0093 0.16889-0.02319 0.25862-0.04332a0.10993 0.10993 0 0 0 0.0015-0.0015c0.09031-0.02212 0.18077-0.04922 0.27058-0.08222 0.09474-0.03414 0.18083-0.07516 0.25713-0.12408a0.10993 0.10993 0 0 0 0.0015-0.0015c0.07793-0.05197 0.14256-0.11234 0.19284-0.17939 0.05696-0.07516 0.0882-0.16586 0.0882-0.26011 0-0.10056-0.04003-0.19993-0.1166-0.26161-0.06954-0.05756-0.15959-0.0897-0.25414-0.0897-0.09129 0-0.18145 0.02112-0.2661 0.05832-0.07325 0.03299-0.14746 0.06957-0.22125 0.10913-0.06902 0.03529-0.13985 0.06843-0.21378 0.09867-0.06076 0.02541-0.12767 0.03735-0.20331 0.03735-0.06238 0-0.12738-0.0069-0.19584-0.02388h-0.0015c-0.06582-0.01814-0.12548-0.04631-0.18089-0.08223-0.05418-0.03513-0.09672-0.07554-0.13006-0.12557-0.01273-0.01906-0.01209-0.04983-0.01943-0.07325l0.82074-0.04638c0.07323-0.0038 0.14976-0.0111 0.23022-0.02388 0.08316-0.01324 0.16408-0.03421 0.24367-0.05832 0.08028-0.02426 0.15851-0.05335 0.23321-0.0897a0.10993 0.10993 0 0 0 3e-3 -0.0015c0.07769-0.03988 0.14504-0.08774 0.20481-0.14351 0.06159-0.05748 0.11322-0.12568 0.15099-0.20331 0.03975-0.0817 0.0598-0.17359 0.0598-0.27058 0-0.18015-0.03766-0.33896-0.11362-0.4724-0.07082-0.12787-0.16592-0.23385-0.28403-0.31394-0.11475-0.07779-0.24546-0.13313-0.38719-0.16593-0.13822-0.0336-0.27773-0.05235-0.41858-0.05235zm4.5475 0.04034c-0.07788 0-0.1545 0.01891-0.21228 0.07026a0.10993 0.10993 0 0 0-0.0015 0.0015c-0.05067 0.04768-0.08096 0.11137-0.10016 0.18388a0.10993 0.10993 0 0 0-0.0045 0.02686c-0.0018 0.10618-0.0038 0.22018-9e-3 0.34234a0.10993 0.10993 0 0 0-0.0015 0.0015c-0.0034 0.12009-0.0078 0.2441-0.01644 0.37074-0.0087 0.12664-0.0206 0.25432-0.03289 0.38419-0.01216 0.12856-0.0275 0.2563-0.04484 0.38121-0.01739 0.12346-0.03591 0.24189-0.0583 0.35728-0.02239 0.11366-0.04756 0.21855-0.07475 0.31543-0.01394 0.05013-0.01383 0.11089 0.01046 0.16295 0.01912 0.04095 0.04799 0.07851 0.08372 0.10913a0.10993 0.10993 0 0 0 0.0075 0.0046c0.03522 0.02579 0.07428 0.04715 0.1166 0.06131a0.10993 0.10993 0 0 0 0.0015 0c0.04448 0.01401 0.08788 0.02089 0.12856 0.02089 0.08385 0 0.1658-0.03972 0.22275-0.10165a0.10993 0.10993 0 0 0 0.0015-0.0015c0.05038-0.05695 0.09207-0.12686 0.12557-0.20929v-0.0015c0.03453-0.08082 0.06305-0.17091 0.08521-0.27208v-0.0015c0.02357-0.09992 0.04237-0.20292 0.05681-0.30945 0.01434-0.10579 0.02421-0.2114 0.0314-0.31692v-0.0015c0.0089-0.1049 0.01438-0.20231 0.01794-0.293 0.0035-0.08902 0.0074-0.16732 0.0075-0.2362v-0.0031c0.0017-0.06475 3e-3 -0.11277 3e-3 -0.145v-0.65926a0.10993 0.10993 0 0 0-6e-3 -0.03291c-0.02455-0.07857-0.08129-0.14961-0.15846-0.17789h-0.0015c-0.05558-0.02067-0.11578-0.03138-0.17789-0.03138zm-19.163 0.65181c0.00482-1.91e-4 0.010065 0.0031 0.014948 0.0031v0.05679c0 0.05825 2.075e-4 0.10843-0.00153 0.15099-0.00168 0.04294-0.00429 0.08138-0.0075 0.11511a0.10993 0.10993 0 0 0 0 0.0061c-0.00161 0.03299-0.00543 0.06544-0.00897 0.09866-0.0036 0.03253-0.00689 0.0669-0.010463 0.10615-0.00337 0.03574-0.0082 0.07823-0.013456 0.12557-0.00582 0.05212-0.00843 0.10973-0.011963 0.17491v-0.01194c-0.012989 0.07792-0.044309 0.15531-0.095675 0.2347-0.052575 0.08125-0.11447 0.15366-0.18686 0.21676-0.072445 0.06138-0.15189 0.10994-0.24068 0.148a0.10993 0.10993 0 0 0 0 0.0015c-0.084408 0.03682-0.16465 0.05235-0.24367 0.05235-0.096854 0-0.16291-0.02013-0.20779-0.05235-0.054795-0.03934-0.094956-0.08537-0.12408-0.14501-0.031052-0.0636-0.051818-0.13675-0.062786-0.21825-0.011642-0.08651-0.016441-0.1698-0.016441-0.25115 0-0.17444 0.026927-0.3105 0.074749-0.4096v-0.0015c0.051879-0.10333 0.12073-0.18013 0.20929-0.23769 0.090891-0.05909 0.20086-0.09998 0.33486-0.12259a0.10993 0.10993 0 0 0 0.00153-0.0015c0.13877-0.0251 0.29229-0.03735 0.46043-0.03735h0.13156a0.10993 0.10993 0 0 0 0.00452-0.0015zm5.0483 0c0.0048-1.91e-4 0.01006 0.0031 0.01495 0.0031v0.05679c0 0.05825 2.07e-4 0.10843-0.0015 0.15099-0.0017 0.04294-0.0043 0.08138-0.0075 0.11511a0.10993 0.10993 0 0 0 0 0.0061c-0.0016 0.03299-0.0054 0.06544-9e-3 0.09866-0.0036 0.03253-0.0069 0.0669-0.01046 0.10615-0.0034 0.03574-0.0082 0.07822-0.01346 0.12557-0.0058 0.05212-0.0084 0.10973-0.01196 0.17491v-0.01194c-0.01317 0.07903-0.04328 0.15604-0.09418 0.2347-0.05212 0.08054-0.11544 0.15323-0.18836 0.21676-0.07245 0.06138-0.15189 0.10994-0.24068 0.148a0.10993 0.10993 0 0 0 0 0.0015c-0.08441 0.03682-0.16465 0.05235-0.24367 0.05235-0.09685 0-0.16291-0.02013-0.20779-0.05235-0.05418-0.03888-0.09294-0.08432-0.12259-0.14501-0.03157-0.06468-0.05347-0.13792-0.06428-0.21825-0.01164-0.08651-0.01644-0.1698-0.01644-0.25115 0-0.17444 0.02693-0.3105 0.07475-0.4096v-0.0015c0.05188-0.10333 0.12074-0.18013 0.20929-0.23769 0.09089-0.05909 0.20086-0.09998 0.33486-0.12259a0.10993 0.10993 0 0 0 0.0015-0.0015c0.13877-0.0251 0.29229-0.03735 0.46043-0.03735h0.13156a0.10993 0.10993 0 0 0 0.0045-0.0015zm9.5736 0.04631c0.03836 0 0.08948 0.0054 0.15099 0.01492 0.05447 0.0088 0.10504 0.02411 0.15398 0.04784a0.10993 0.10993 0 0 0 0.0015 0.0015c0.04717 0.0222 0.08284 0.0496 0.11212 0.0852a0.10993 0.10993 0 0 0 0.0015 0.0015c0.0159 0.01852 0.01845 0.04853 0.02392 0.07623-0.0034 0.0015-0.0021 0.0015-6e-3 0.0031-0.05872 0.01745-0.13812 0.03414-0.23619 0.04937-0.09697 0.01355-0.2034 0.02549-0.32141 0.0359-0.11877 0.0087-0.23408 0.01691-0.34383 0.02388-0.10829 0.0054-0.20363 0.01-0.28702 0.01347l0.0015-0.0015c-0.01148 2.37e-4 -0.01197-2.22e-4 -0.02243 0 2.39e-4 -4.37e-4 -2.4e-4 -7.66e-4 0-0.0015 0.02414-0.04256 0.05393-0.07916 0.09268-0.11361a0.10993 0.10993 0 0 0 0.0015-0.0015c0.03949-0.03659 0.08588-0.06835 0.14052-0.09567a0.10993 0.10993 0 0 0 0.0015-0.0015c0.0577-0.03046 0.11771-0.05572 0.17789-0.07478a0.10993 0.10993 0 0 0 3e-3 0c0.06041-0.02067 0.11979-0.03521 0.18089-0.04485a0.10993 0.10993 0 0 0 3e-3 -0.0015c0.06424-0.01156 0.12141-0.01646 0.17042-0.01646zm-4.3024 0.01944c0.04563-2.22e-4 0.46062 0.02166 0.145 0.0046-1.79e-4 0.0176 5.1e-4 0.0199 0 0.04187a0.10993 0.10993 0 0 0 0 0.0031c0 0.07287 4.71e-4 0.15846-3e-3 0.25712-0.0035 0.09868-7e-3 0.20461-0.01046 0.31543-0.0034 0.10969-0.0084 0.21312-0.01196 0.31244-0.0035 0.09909-0.0072 0.18582-9e-3 0.26161a0.10993 0.10993 0 0 0 0 0.0031c0 0.04883 0.0021 0.07325 3e-3 0.10314-0.03498-0.0015-0.06281-4.74e-4 -0.10465-0.0031-0.08293-0.0054-0.1735-0.0163-0.27058-0.02993h-3e-3c-0.09326-0.01508-0.18716-0.03605-0.28254-0.06276-0.09322-0.02618-0.17715-0.05794-0.25114-0.09717l-0.0015-0.0015c-0.0699-0.0398-0.12707-0.08551-0.17192-0.13903-0.03946-0.04891-0.0603-0.10354-0.06578-0.17342-0.0131-0.16379 4e-3 -0.29088 0.04186-0.3827v-0.0015c0.04325-0.09994 0.09933-0.17332 0.16743-0.22722 0.07198-0.05702 0.15433-0.09797 0.24816-0.12259 0.10314-0.02824 0.20386-0.04715 0.30197-0.05534 0.10156-0.0085 0.19508-0.01087 0.27805-0.0061z" stroke-width=".7654"/>
<g transform="translate(92.037,-159.04)" stroke-width=".26458" aria-label="We are happy">
<path d="m-87.016 175.69q0-0.0982 0.06459-0.16019 0.0646-0.0646 0.1602-0.0646 0.02326 0 0.05168 3e-3 0.03101 3e-3 0.05684 0.0103 0.02842 8e-3 0.04909 0.0232 0.02326 0.0129 0.02842 0.0362l0.36949 1.3642 0.65887 1.3798 0.17828 0.37465q0.0052 0.0129 0.01033 0.0155 0.0078 0 0.01292 0 0.01292 0 0.0155-8e-3 0.0026-0.0103 0.0078-0.0232 0.04909-0.13178 0.08268-0.23513 0.03617-0.10335 0.0646-0.20929 0.03101-0.10594 0.06201-0.22996 0.03101-0.12402 0.07493-0.29972 0.01809-0.0543 0.03876-0.10594 0.02067-0.0543 0.05168-0.0956 0.03101-0.0439 0.07493-0.0698 0.04393-0.0284 0.1111-0.0284 0.0801 0 0.14728 0.062 0.06718 0.0594 0.12402 0.1602 0.05684 0.10077 0.10594 0.22996 0.04909 0.12661 0.0956 0.26097 0.04909 0.13177 0.0956 0.26096 0.04651 0.12661 0.09819 0.22738 0.05426 0.10077 0.11369 0.16278 0.06201 0.0594 0.13436 0.0594h0.0078q0.12919-0.23513 0.23254-0.46767 0.10335-0.23513 0.17312-0.47284 0.07235-0.2403 0.1111-0.48835 0.03876-0.25063 0.03876-0.51934 0-0.23255-0.0078-0.45992-0.0078-0.22996-0.0078-0.45992v-0.0233q0-0.0181 0.0026-0.0568 0.0026-0.0413 0.0052-0.0853 0.0026-0.0465 0.0052-0.0853 0.0026-0.0414 0.0026-0.0568 0.02067-0.0749 0.07752-0.1111 0.05684-0.0388 0.13178-0.0388 0.08268 0 0.13177 0.0465 0.04909 0.0439 0.07752 0.11627 0.0052 0.18862 0.0078 0.33331 0.0052 0.14211 0.0052 0.27389 0.0026 0.12919 0.0026 0.26355 0 0.13177 0 0.29972v0.40308q-0.02584 0.28939-0.09302 0.5581-0.06718 0.26872-0.16795 0.52452t-0.22996 0.50384q-0.12661 0.24805-0.27388 0.49868-0.03876 0.0439-0.08268 0.0672-0.04134 0.0233-0.09819 0.0233-0.10077 0-0.19895-0.062-0.0956-0.062-0.18862-0.16019-0.09043-0.0982-0.17312-0.21963-0.0801-0.12402-0.14986-0.24804-0.06976-0.12403-0.12661-0.23513-0.05426-0.11111-0.09043-0.18604l-0.0155-0.0129q-0.01292 0.0543-0.03876 0.1602-0.02325 0.10335-0.05943 0.22738-0.03359 0.12402-0.08268 0.25579-0.04909 0.13178-0.1111 0.23772-0.06201 0.10593-0.13953 0.1757-0.07751 0.0672-0.16795 0.0672-0.08527 0-0.13694-0.0491-0.04909-0.0491-0.08785-0.11627-0.031-0.0568-0.0801-0.14728-0.04909-0.093-0.09819-0.18086-0.04651-0.0878-0.08268-0.15503-0.03617-0.0672-0.03876-0.0724l-0.76998-1.6588q-0.0026-8e-3 -0.03101-0.10336-0.02842-0.0982-0.06718-0.24029-0.03876-0.1447-0.08527-0.31006-0.04393-0.16537-0.08268-0.30748-0.03617-0.14469-0.06201-0.24029-0.02584-0.0982-0.02584-0.10594z"/>
<path d="m-82.874 178.04q0-0.26614 0.11369-0.49351 0.11369-0.22996 0.30748-0.39791t0.447-0.26355q0.2558-0.0982 0.53485-0.0982 0.19379 0 0.38499 0.0465 0.1912 0.0439 0.34365 0.14728 0.15244 0.10335 0.24546 0.2713 0.0956 0.16795 0.0956 0.41083 0 0.12144-0.04651 0.21704t-0.12402 0.16795q-0.07752 0.0724-0.17828 0.12402-0.10077 0.0491-0.21187 0.0827t-0.22479 0.0517-0.21446 0.0233l-0.93018 0.0517v0.0103q0 0.12919 0.06201 0.22221 0.06201 0.093 0.15761 0.15503 0.0956 0.062 0.20929 0.093 0.11369 0.0284 0.21962 0.0284 0.12919 0 0.2403-0.0465 0.11369-0.0465 0.21962-0.10077 0.10594-0.0568 0.20929-0.10336 0.10594-0.0465 0.21704-0.0465 0.10594 0 0.18087 0.062 0.07493 0.0594 0.07493 0.17311 0 0.10594-0.0646 0.19121-0.06201 0.0827-0.16278 0.14986-0.10077 0.0646-0.22996 0.1111-0.12661 0.0465-0.25321 0.0775-0.12661 0.0284-0.24288 0.0413-0.11627 0.0155-0.19637 0.0155-0.29714 0-0.51935-0.1111-0.22221-0.11369-0.36949-0.30231-0.14728-0.1912-0.22221-0.43925-0.07235-0.25063-0.07235-0.52193zm1.4082-0.74673q-0.08527 0-0.18604 0.0181-0.09819 0.0155-0.19637 0.0491-0.09819 0.031-0.1912 0.0801-0.09302 0.0465-0.16278 0.11111-0.06976 0.062-0.11369 0.13952-0.04134 0.0749-0.04134 0.16537 0.03876 0 0.1602-3e-3 0.12402-5e-3 0.28422-0.0129 0.16278-0.0103 0.33848-0.0232 0.1757-0.0155 0.32298-0.0362 0.14986-0.0233 0.24546-0.0517t0.0956-0.0672q0-0.1111-0.06201-0.18345-0.05943-0.0724-0.14728-0.11369-0.08527-0.0413-0.18087-0.0568t-0.16536-0.0155z"/>
<path d="m-78.505 178.14q0-0.37982 0.12402-0.64854 0.12402-0.2713 0.34623-0.44184 0.22221-0.17053 0.5271-0.25063 0.30748-0.0801 0.67438-0.0801 0.02842 0 0.10077-3e-3t0.16278 3e-3q0.09302 3e-3 0.1912 0.0129 0.09819 0.0103 0.18087 0.0388 0.08268 0.0258 0.13694 0.0724 0.05426 0.0439 0.05684 0.11369l0.05426 1.3178q0.0026 0.11368 0.03101 0.22996 0.03101 0.11368 0.0646 0.22737t0.05943 0.22738q0.02842 0.1111 0.02842 0.21704 0 0.1111-0.06718 0.18862-0.0646 0.0775-0.18087 0.0775-0.10852 0-0.16795-0.0517t-0.0956-0.12661q-0.03359-0.0749-0.05943-0.1602t-0.06976-0.15503q-0.11627 0.0982-0.23513 0.18862-0.11627 0.0904-0.24546 0.15762-0.12661 0.0672-0.26872 0.10593-0.13953 0.0413-0.29972 0.0413-0.29456 0-0.49609-0.10852-0.19895-0.10852-0.32298-0.28939-0.12144-0.18086-0.1757-0.41599t-0.05426-0.48834zm0.52968 0.0103q0 0.12661 0.01809 0.26097t0.07235 0.24546q0.05426 0.11111 0.15503 0.18345 0.10077 0.0724 0.26613 0.0724 0.13953 0 0.28164-0.062 0.14469-0.062 0.26355-0.16278 0.11886-0.10336 0.20412-0.23513 0.08527-0.13178 0.10852-0.2713 0.0052-0.0956 0.01292-0.16537 0.0078-0.0698 0.01292-0.12402 0.0052-0.0568 0.01033-0.10335 0.0052-0.0491 0.0078-0.10336 0.0052-0.0543 0.0078-0.11885 0.0026-0.0646 0.0026-0.15245v-0.14727q-0.06201-0.0207-0.12661-0.0181-0.06201 0-0.12919 0-0.2558 0-0.47026 0.0388-0.21446 0.0362-0.36949 0.13694-0.15503 0.10077-0.24288 0.27647-0.08527 0.1757-0.08527 0.44958z"/>
<path d="m-75.505 179.09q0.0078-0.031 0.02325-0.0982 0.01809-0.0698 0.03617-0.15761 0.02067-0.0879 0.04134-0.18345 0.02325-0.0956 0.04134-0.18345 0.01809-0.0879 0.031-0.15503 0.0155-0.0698 0.02067-0.10335 0.0052-0.0258 0.0078-0.0982 0.0052-0.0749 0.01034-0.1757 0.0052-0.10077 0.01292-0.22221 0.0078-0.12144 0.02067-0.24288 0.01292-0.12144 0.03101-0.23512 0.01809-0.11369 0.04393-0.19896 0.02842-0.0879 0.0646-0.13952 0.03617-0.0517 0.08268-0.0491 0.02325 0 0.05943 0.0103 0.03876 8e-3 0.07235 0.0233 0.03617 0.0155 0.05943 0.0388 0.02584 0.0232 0.02584 0.0568v0.38499q0.0956-0.0956 0.19379-0.18086 0.09819-0.0879 0.2067-0.15245 0.10852-0.0646 0.22738-0.10077 0.12144-0.0388 0.26355-0.0388 0.07751 0 0.18345 0.0129 0.10594 0.0103 0.20412 0.0439 0.09819 0.0336 0.16536 0.0982 0.06976 0.0646 0.06976 0.16795 0 0.0982-0.05426 0.15761-0.05168 0.0568-0.14986 0.0568-0.05168 0-0.10077-0.0129t-0.10077-0.0284q-0.04909-0.0181-0.10077-0.031-0.04909-0.0129-0.10594-0.0129-0.18345 0-0.32556 0.0904-0.13953 0.0879-0.25063 0.23512-0.10852 0.1447-0.1912 0.33073-0.0801 0.18604-0.14469 0.37983-0.0646 0.1912-0.11886 0.37465-0.05168 0.18345-0.10335 0.32556-0.05168 0.13953-0.10594 0.22221-0.05168 0.0827-0.11886 0.0724-0.10335-0.0129-0.16536-0.0594-0.06201-0.0491-0.06201-0.15761z"/>
<path d="m-73.066 178.04q0-0.26614 0.11369-0.49351 0.11369-0.22996 0.30748-0.39791t0.447-0.26355q0.2558-0.0982 0.53485-0.0982 0.19379 0 0.38499 0.0465 0.1912 0.0439 0.34365 0.14728 0.15245 0.10335 0.24546 0.2713 0.0956 0.16795 0.0956 0.41083 0 0.12144-0.04651 0.21704t-0.12402 0.16795q-0.07751 0.0724-0.17828 0.12402-0.10077 0.0491-0.21187 0.0827t-0.22479 0.0517-0.21446 0.0233l-0.93018 0.0517v0.0103q0 0.12919 0.06201 0.22221 0.06201 0.093 0.15761 0.15503 0.0956 0.062 0.20929 0.093 0.11369 0.0284 0.21962 0.0284 0.12919 0 0.2403-0.0465 0.11369-0.0465 0.21962-0.10077 0.10594-0.0568 0.20929-0.10336 0.10594-0.0465 0.21704-0.0465 0.10594 0 0.18087 0.062 0.07493 0.0594 0.07493 0.17311 0 0.10594-0.06459 0.19121-0.06201 0.0827-0.16278 0.14986-0.10077 0.0646-0.22996 0.1111-0.12661 0.0465-0.25322 0.0775-0.12661 0.0284-0.24288 0.0413-0.11627 0.0155-0.19637 0.0155-0.29714 0-0.51935-0.1111-0.22221-0.11369-0.36949-0.30231-0.14728-0.1912-0.22221-0.43925-0.07235-0.25063-0.07235-0.52193zm1.4082-0.74673q-0.08527 0-0.18604 0.0181-0.09818 0.0155-0.19637 0.0491-0.09819 0.031-0.1912 0.0801-0.09302 0.0465-0.16278 0.11111-0.06976 0.062-0.11369 0.13952-0.04134 0.0749-0.04134 0.16537 0.03876 0 0.1602-3e-3 0.12402-5e-3 0.28422-0.0129 0.16278-0.0103 0.33848-0.0232 0.1757-0.0155 0.32298-0.0362 0.14986-0.0233 0.24546-0.0517t0.0956-0.0672q0-0.1111-0.06201-0.18345-0.05943-0.0724-0.14728-0.11369-0.08527-0.0413-0.18087-0.0568t-0.16536-0.0155z"/>
<path d="m-68.531 179.09 0.18087-1.1446 0.13953-2.5373q0.0078-0.0956 0.07235-0.13953 0.06718-0.0439 0.14469-0.0439t0.14469 0.0258q0.06976 0.0258 0.09302 0.11111v0.46767q0 0.18345-0.0078 0.34623-0.0052 0.16278-0.01292 0.3204-0.0078 0.15503-0.0155 0.31781-0.0052 0.16278-0.0052 0.34623v0.0672q0.06459-0.0594 0.13953-0.13436 0.07493-0.0749 0.1602-0.13953 0.08527-0.0672 0.17828-0.1111 0.0956-0.0439 0.19379-0.0439 0.17828 0 0.30231 0.0879 0.12402 0.0879 0.20671 0.22996 0.08268 0.13953 0.12919 0.31781 0.04909 0.17829 0.07235 0.36174 0.02325 0.18087 0.02842 0.3514 0.0078 0.16795 0.0078 0.28939 0 0.0517 0.0078 0.14727 0.0078 0.093 0.01033 0.20413 0.0026 0.1111-0.0052 0.22479t-0.03617 0.20929q-0.02842 0.093-0.08785 0.15244-0.05684 0.0594-0.15244 0.0594-0.11369 0-0.17828-0.0749-0.0646-0.0749-0.0646-0.18862 0-0.17053 0.01033-0.34106 0.01292-0.17053 0.01292-0.34623 0-0.0698 0.0026-0.16795 0.0026-0.10077 0-0.21188-0.0026-0.1111-0.01292-0.22479-0.01034-0.11627-0.03617-0.21962-0.02584-0.10336-0.06976-0.18862-0.04393-0.0853-0.1111-0.13694-0.1602 0.0439-0.28939 0.16536-0.12661 0.12144-0.22738 0.29197-0.10077 0.16795-0.17828 0.36949-0.07751 0.19895-0.13436 0.39791-0.05426 0.19895-0.09302 0.37982t-0.06459 0.31264q-0.02325 0.0775-0.08785 0.13178-0.0646 0.0517-0.14986 0.0517-0.11369 0-0.16536-0.0672-0.05168-0.0698-0.05168-0.17311z"/>
<path d="m-66.206 178.14q0-0.37982 0.12402-0.64854 0.12402-0.2713 0.34623-0.44184 0.22221-0.17053 0.5271-0.25063 0.30747-0.0801 0.67438-0.0801 0.02842 0 0.10077-3e-3t0.16278 3e-3q0.09302 3e-3 0.1912 0.0129 0.09819 0.0103 0.18087 0.0388 0.08268 0.0258 0.13694 0.0724 0.05426 0.0439 0.05684 0.11369l0.05426 1.3178q0.0026 0.11368 0.03101 0.22996 0.03101 0.11368 0.0646 0.22737t0.05943 0.22738q0.02842 0.1111 0.02842 0.21704 0 0.1111-0.06718 0.18862-0.0646 0.0775-0.18087 0.0775-0.10852 0-0.16795-0.0517t-0.0956-0.12661q-0.03359-0.0749-0.05943-0.1602t-0.06976-0.15503q-0.11627 0.0982-0.23513 0.18862-0.11627 0.0904-0.24546 0.15762-0.12661 0.0672-0.26872 0.10593-0.13953 0.0413-0.29972 0.0413-0.29456 0-0.49609-0.10852-0.19895-0.10852-0.32298-0.28939-0.12144-0.18086-0.1757-0.41599t-0.05426-0.48834zm0.52968 0.0103q0 0.12661 0.01809 0.26097t0.07235 0.24546q0.05426 0.11111 0.15503 0.18345 0.10077 0.0724 0.26613 0.0724 0.13953 0 0.28164-0.062 0.14469-0.062 0.26355-0.16278 0.11886-0.10336 0.20412-0.23513 0.08527-0.13178 0.10852-0.2713 0.0052-0.0956 0.01292-0.16537 0.0078-0.0698 0.01292-0.12402 0.0052-0.0568 0.01034-0.10335 0.0052-0.0491 0.0078-0.10336 0.0052-0.0543 0.0078-0.11885 0.0026-0.0646 0.0026-0.15245v-0.14727q-0.06201-0.0207-0.12661-0.0181-0.06201 0-0.12919 0-0.2558 0-0.47026 0.0388-0.21446 0.0362-0.36949 0.13694-0.15503 0.10077-0.24288 0.27647-0.08527 0.1757-0.08527 0.44958z"/>
<path d="m-63.139 176.93q0.02067-0.10594 0.09818-0.15503 0.0801-0.0491 0.17828-0.0336 0.0956 0.0181 0.13953 0.0517t0.06201 0.0827q0.02067 0.0491 0.02584 0.10852 0.0052 0.0594 0.02067 0.12919 0.34623-0.10852 0.7028-0.11369 0.35915-8e-3 0.72864 0.0568 0.20412 0.0362 0.36174 0.14727 0.15761 0.10852 0.2558 0.26872 0.09819 0.15761 0.13436 0.35398 0.03617 0.19379 0 0.39791-0.04651 0.26872-0.20412 0.47801t-0.37982 0.34623q-0.21962 0.13436-0.48059 0.18862-0.26097 0.0517-0.51935 5e-3l-0.73897-0.10077q-0.02325 0.12661-0.03617 0.1912-0.01034 0.0646-0.0155 0.0982-0.0052 0.0336-0.0078 0.0517-0.0026 0.0207-0.0078 0.0543t-0.01809 0.0982q-0.01034 0.0646-0.03359 0.1912-0.0052 0.0284-0.01809 0.0982-0.01034 0.0724-0.02584 0.14986-0.01292 0.0801-0.02584 0.14986-0.01033 0.0724-0.0155 0.0982-0.03876 0.0723-0.10852 0.10593-0.06718 0.0336-0.13953 0.0207-0.09302-0.0181-0.14469-0.0827-0.05168-0.0646-0.05943-0.15503 0.01292-0.0672 0.02842-0.14469 0.01809-0.0749 0.03359-0.15503 0.01809-0.0775 0.03359-0.15503 0.0155-0.0775 0.02326-0.14728 0.01033-0.10335 0.02584-0.26096 0.0155-0.1602 0.03101-0.34107 0.01809-0.18345 0.03359-0.36949 0.01809-0.18861 0.03101-0.34623 0.01292-0.15761 0.02067-0.26613 0.0078-0.11111 0.01034-0.13694l-0.0052-0.92501q0-5e-3 0.0026-0.0129 0-5e-3 0-0.0103 0.0026-5e-3 0.0026-0.0103zm0.51935 0.78031q-0.0026 0.0129-0.0078 0.0336-0.0026 0.0181-0.0026 0.0233-0.0026 0.0181-0.0078 0.0853-0.0052 0.0646-0.0155 0.15503-0.0078 0.0879-0.02067 0.19121-0.01033 0.10076-0.01809 0.1912-0.0078 0.0879-0.0155 0.15503-0.0078 0.0646-0.0078 0.0827 0.0801 0.0258 0.13953 0.0388 0.05943 0.0129 0.1111 0.0207 0.05426 5e-3 0.10852 0.0129 0.05684 5e-3 0.13178 0.0181 0.12144 0.0207 0.25838 0.031 0.13694 8e-3 0.2713-5e-3 0.13436-0.0129 0.26097-0.0491 0.12919-0.0388 0.23254-0.10852 0.10335-0.0724 0.1757-0.18087 0.07493-0.10852 0.10077-0.26097 0.02067-0.11368 0.0078-0.21704-0.01292-0.10335-0.05684-0.18603-0.04393-0.0853-0.12144-0.13953-0.07751-0.0568-0.18862-0.0775-0.06201-0.0103-0.18087-0.0181-0.11886-0.0103-0.26613-0.0103-0.14469 0-0.29714 0.0103-0.15244 0.0103-0.28164 0.0336-0.12661 0.0233-0.21446 0.0672-0.08527 0.0413-0.0956 0.10335z"/>
<path d="m-59.997 176.93q0.02067-0.10594 0.09818-0.15503 0.0801-0.0491 0.17828-0.0336 0.0956 0.0181 0.13953 0.0517t0.06201 0.0827q0.02067 0.0491 0.02584 0.10852 0.0052 0.0594 0.02067 0.12919 0.34623-0.10852 0.7028-0.11369 0.35915-8e-3 0.72864 0.0568 0.20412 0.0362 0.36174 0.14727 0.15761 0.10852 0.2558 0.26872 0.09819 0.15761 0.13436 0.35398 0.03617 0.19379 0 0.39791-0.04651 0.26872-0.20412 0.47801t-0.37982 0.34623q-0.21962 0.13436-0.48059 0.18862-0.26097 0.0517-0.51935 5e-3l-0.73897-0.10077q-0.02325 0.12661-0.03617 0.1912-0.01034 0.0646-0.0155 0.0982-0.0052 0.0336-0.0078 0.0517-0.0026 0.0207-0.0078 0.0543t-0.01809 0.0982q-0.01033 0.0646-0.03359 0.1912-0.0052 0.0284-0.01809 0.0982-0.01034 0.0724-0.02584 0.14986-0.01292 0.0801-0.02584 0.14986-0.01033 0.0724-0.0155 0.0982-0.03876 0.0723-0.10852 0.10593-0.06718 0.0336-0.13953 0.0207-0.09302-0.0181-0.14469-0.0827-0.05168-0.0646-0.05943-0.15503 0.01292-0.0672 0.02842-0.14469 0.01809-0.0749 0.03359-0.15503 0.01809-0.0775 0.03359-0.15503 0.0155-0.0775 0.02325-0.14728 0.01034-0.10335 0.02584-0.26096 0.0155-0.1602 0.03101-0.34107 0.01809-0.18345 0.03359-0.36949 0.01809-0.18861 0.03101-0.34623 0.01292-0.15761 0.02067-0.26613 0.0078-0.11111 0.01034-0.13694l-0.0052-0.92501q0-5e-3 0.0026-0.0129 0-5e-3 0-0.0103 0.0026-5e-3 0.0026-0.0103zm0.51935 0.78031q-0.0026 0.0129-0.0078 0.0336-0.0026 0.0181-0.0026 0.0233-0.0026 0.0181-0.0078 0.0853-0.0052 0.0646-0.0155 0.15503-0.0078 0.0879-0.02067 0.19121-0.01034 0.10076-0.01809 0.1912-0.0078 0.0879-0.0155 0.15503-0.0078 0.0646-0.0078 0.0827 0.0801 0.0258 0.13953 0.0388 0.05943 0.0129 0.1111 0.0207 0.05426 5e-3 0.10852 0.0129 0.05684 5e-3 0.13178 0.0181 0.12144 0.0207 0.25838 0.031 0.13694 8e-3 0.2713-5e-3 0.13436-0.0129 0.26097-0.0491 0.12919-0.0388 0.23254-0.10852 0.10335-0.0724 0.1757-0.18087 0.07493-0.10852 0.10077-0.26097 0.02067-0.11368 0.0078-0.21704-0.01292-0.10335-0.05684-0.18603-0.04393-0.0853-0.12144-0.13953-0.07751-0.0568-0.18862-0.0775-0.06201-0.0103-0.18087-0.0181-0.11886-0.0103-0.26613-0.0103-0.14469 0-0.29714 0.0103t-0.28164 0.0336q-0.12661 0.0233-0.21446 0.0672-0.08527 0.0413-0.0956 0.10335z"/>
<path d="m-56.23 180.51q0-0.19637 0.02842-0.38499 0.03101-0.18604 0.07751-0.36949 0.04651-0.18087 0.10335-0.36432 0.05684-0.18087 0.1111-0.36949v-0.0568q-0.23254 0-0.40049-0.0853t-0.28422-0.22737q-0.11627-0.14211-0.18862-0.32815-0.07235-0.18862-0.11369-0.39274-0.03876-0.20412-0.05168-0.41341t-0.01292-0.39532q0-0.0594 0.0078-0.11886 0.01034-0.062 0.03617-0.1111 0.02584-0.0491 0.07235-0.0801t0.12144-0.031q0.06976 0 0.13436 0.0465 0.06718 0.0439 0.08268 0.11369 0.0026 0.0232 0.0078 0.10335 0.0052 0.0775 0.01292 0.19379 0.01034 0.11369 0.02584 0.25063t0.03876 0.27905q0.02325 0.13953 0.05426 0.2713 0.03359 0.13178 0.07751 0.23513 0.04393 0.10077 0.10077 0.16278 0.05943 0.062 0.13178 0.062 0.13953 0 0.23513-0.0672 0.09819-0.0698 0.16795-0.18345 0.07235-0.11369 0.12144-0.2558 0.05168-0.14469 0.0956-0.29455 0.04393-0.15245 0.09043-0.29456 0.04651-0.14469 0.10594-0.25838 0.06201-0.11369 0.14469-0.18087 0.08268-0.0698 0.20412-0.0698 0.1111 0 0.16278 0.0749 0.05426 0.0724 0.05426 0.17828v0.0672l-0.75448 1.8991q-0.15503 0.39791-0.25063 0.80874-0.09302 0.41341-0.09302 0.83716-0.0078 0.0853-0.0801 0.12144-0.06976 0.0387-0.14728 0.0387-0.03876 0-0.0801-0.0103t-0.07493-0.0336q-0.03101-0.0233-0.05426-0.0594-0.02067-0.0336-0.02067-0.0801z"/>
</g>
<path d="m31.154 2.04c-0.07596 0-0.15089 0.0251-0.20703 0.0762-0.05186 0.0471-0.08795 0.10852-0.10742 0.17774a0.093556 0.093556 0 0 0-0.0039 0.0254c0 0.027-2.54e-4 0.0722-2e-3 0.13672a0.093556 0.093556 0 0 0 0 2e-3c0 0.0614-0.0024 0.1348-0.0059 0.21875a0.093556 0.093556 0 0 0 0 2e-3c-0.0017 0.0822-0.0041 0.17013-0.0059 0.26368-0.0017 0.0906-0.0044 0.17801-0.0078 0.26171a0.093556 0.093556 0 0 0 0 2e-3c-0.0017 0.0835-0.0022 0.15862-0.0039 0.22265-0.0017 0.0626-0.0042 0.1062-0.0059 0.13282-0.0034 0.0643-0.0091 0.14717-0.01758 0.24609a0.093556 0.093556 0 0 0 0 2e-3c-0.0069 0.0994-0.01513 0.20551-0.02539 0.31836-0.0085 0.11112-0.01895 0.2265-0.0293 0.34375-0.01028 0.11654-0.02096 0.22256-0.03125 0.32031a0.093556 0.093556 0 0 0 0 2e-3c-0.0086 0.0961-0.01658 0.17749-0.02344 0.24609-7e-3 0.0683-0.01069 0.11579-0.01172 0.125l-0.1543 0.86328a0.093556 0.093556 0 0 0-2e-3 0.0156v0.0293c0 0.0858 0.03333 0.16917 0.0957 0.22656a0.093556 0.093556 0 0 0 0 2e-3c0.0613 0.0542 0.14157 0.082 0.22266 0.082 0.065 0 0.12872-0.0137 0.18164-0.0527 0.04377-0.0323 0.08039-0.0763 0.10547-0.125v-2e-3c0.02555-0.0473 0.0428-0.0975 0.05273-0.14843v-2e-3c0.01058-0.0478 0.01983-0.0922 0.02539-0.13672l-2e-3 2e-3 0.15234-1.0234a0.093556 0.093556 0 0 0 2e-3 -8e-3l0.10938-1.5449a0.093556 0.093556 0 0 0 0-6e-3v-1.0488c0-0.0445-0.01772-0.0878-0.04492-0.1211-0.02182-0.0302-0.04917-0.0534-0.07813-0.0703-0.02446-0.0157-0.05221-0.0299-0.08203-0.0391-0.03389-0.0121-0.06652-0.0176-0.0957-0.0176zm15.896 0c-0.07596 0-0.15166 0.0241-0.20898 0.0762-0.05186 0.0471-0.08796 0.10852-0.10742 0.17774a0.093556 0.093556 0 0 0-0.0039 0.0254c0 0.027-2.54e-4 0.0722-2e-3 0.13672a0.093556 0.093556 0 0 0 0 2e-3c0 0.0633-5.39e-4 0.13624-0.0039 0.21875a0.093556 0.093556 0 0 0 0 2e-3c-0.0017 0.0822-0.0041 0.17013-0.0059 0.26368-0.0017 0.0906-0.0044 0.17801-0.0078 0.26171a0.093556 0.093556 0 0 0 0 2e-3c-0.0017 0.082-0.0041 0.15676-0.0059 0.22265-0.0017 0.0645-0.0025 0.11059-0.0039 0.13282-0.0033 0.0625-0.0109 0.14597-0.01953 0.24609a0.093556 0.093556 0 0 0 0 2e-3c-0.0069 0.0994-0.01513 0.2055-0.02539 0.31836-0.0086 0.1122-0.01709 0.22753-0.02734 0.34375-0.01028 0.11654-0.02096 0.22256-0.03125 0.32031a0.093556 0.093556 0 0 0 0 2e-3c-0.0086 0.0961-0.01658 0.17749-0.02344 0.24609-0.0068 0.0665-0.01179 0.10806-0.01367 0.125l-0.15234 0.86328a0.093556 0.093556 0 0 0-2e-3 0.0156v0.0293c0 0.0858 0.03333 0.16917 0.0957 0.22656a0.093556 0.093556 0 0 0 0 2e-3c0.0613 0.0542 0.14157 0.082 0.22266 0.082 0.065 0 0.12872-0.0137 0.18164-0.0527 0.04515-0.0333 0.07961-0.0783 0.10352-0.125v-2e-3c0.02448-0.0453 0.04422-0.0951 0.05469-0.14843v-2e-3c0.01058-0.0478 0.01983-0.0922 0.02539-0.13672l-2e-3 2e-3 0.15234-1.0234a0.093556 0.093556 0 0 0 2e-3 -8e-3l0.10742-1.5449a0.093556 0.093556 0 0 0 0-6e-3v-1.0488c0-0.0445-0.01771-0.0878-0.04492-0.1211-0.01978-0.0278-0.0452-0.0522-0.07617-0.0703-0.02446-0.0157-0.05221-0.0299-0.08203-0.0391-0.03389-0.0121-0.06652-0.0176-0.0957-0.0176zm1.0879 0.51367c-0.06564 0-0.13104 0.0187-0.18945 0.0547-0.05379 0.0323-0.09905 0.0735-0.13867 0.12109-0.03811 0.0461-0.0695 0.0996-0.09375 0.15821-0.02401 0.0566-0.03906 0.11412-0.03906 0.17187 0 0.058 0.01697 0.11727 0.04883 0.17188a0.093556 0.093556 0 0 0 2e-3 4e-3c0.03056 0.0469 0.06867 0.0904 0.11328 0.12891a0.093556 0.093556 0 0 0 2e-3 4e-3c0.04652 0.0364 0.09827 0.0647 0.15039 0.0879a0.093556 0.093556 0 0 0 2e-3 0c0.055 0.0224 0.11102 0.0371 0.16797 0.0371 0.05506 0 0.11008-0.0169 0.16016-0.0449 0.05048-0.0273 0.09573-0.0624 0.13477-0.10352a0.093556 0.093556 0 0 0 2e-3 -2e-3c0.03871-0.0428 0.06925-0.0896 0.09375-0.14063 0.02568-0.0535 0.04102-0.11067 0.04102-0.16797 0-0.0576-0.0153-0.11459-0.04297-0.16992-0.0263-0.0526-0.06122-0.0998-0.10156-0.14258-0.04048-0.0465-0.08762-0.0861-0.13867-0.11523-0.05322-0.0319-0.11253-0.0527-0.17383-0.0527zm-5.5234 0.88868c-0.08847 0-0.1734 0.0312-0.23633 0.0918a0.093556 0.093556 0 0 0-2e-3 2e-3c-0.06194 0.0619-0.0957 0.14879-0.0957 0.24023 0 0.0814 0.0047 0.16071 0.01172 0.23828 7e-3 0.0767 0.01479 0.15263 0.02344 0.23047a0.093556 0.093556 0 0 0 2e-3 2e-3c0.01008 0.0739 0.01663 0.14977 0.02344 0.22461 0.0066 0.0724 0.0098 0.14745 0.0098 0.22266 0 0.0614-0.0024 0.13261-0.0059 0.21484-0.0033 0.0792-0.01022 0.16182-0.02344 0.2461-0.01318 0.084-0.03223 0.1644-0.05664 0.24414-0.0236 0.0771-0.05483 0.14473-0.09375 0.20312-0.0371 0.0557-0.08286 0.10033-0.13672 0.13477-0.04876 0.0295-0.10722 0.0449-0.18555 0.0449-0.09067 0-0.16189-0.0198-0.2207-0.0586-0.06263-0.0441-0.11536-0.10067-0.16016-0.17383-0.04607-0.0753-0.08408-0.16604-0.11328-0.27149-0.02982-0.10766-0.05147-0.21977-0.06641-0.33593-0.01511-0.11918-0.02617-0.23875-0.03125-0.35938v-2e-3c-0.0034-0.12455-0.0059-0.24134-0.0059-0.34961 0.0017-0.10809 0.0045-0.20722 0.0078-0.29492v-2e-3c0.0051-0.0879 0.0099-0.15674 0.01172-0.21093a0.093556 0.093556 0 0 0-2e-3 -0.0254c-0.0085-0.0369-0.02699-0.0705-0.04883-0.0996-0.02133-0.0284-0.04802-0.0553-0.08203-0.0762-0.02872-0.0177-0.05882-0.0306-0.08984-0.041h-2e-3c-0.03104-0.0109-0.0638-0.0195-0.09961-0.0195-0.08274 0-0.16276 0.0328-0.2168 0.0937-0.04613 0.0505-0.08081 0.11118-0.10156 0.17968a0.093556 0.093556 0 0 0-0.0039 0.0274v0.44922c0 0.12983 0.0048 0.2743 0.01172 0.43164 7e-3 0.15859 0.02425 0.31893 0.04883 0.48047a0.093556 0.093556 0 0 0 0 2e-3c0.02648 0.16242 0.0615 0.31979 0.11133 0.47461 0.05094 0.15826 0.12256 0.30057 0.21094 0.42578 0.09186 0.1256 0.20656 0.22962 0.3418 0.30664a0.093556 0.093556 0 0 0 2e-3 0c0.14165 0.0796 0.30928 0.11914 0.49805 0.11914 0.1559 0 0.29507-0.0283 0.41797-0.082a0.093556 0.093556 0 0 0 2e-3 0c0.11934-0.0541 0.22604-0.12649 0.31445-0.21875 0.08797-0.0917 0.15923-0.19816 0.21484-0.31641v-2e-3c0.05567-0.11519 0.10039-0.23538 0.13281-0.36328 0.03418-0.12774 0.0578-0.25627 0.07031-0.38672 0.01407-0.13014 0.02148-0.25572 0.02148-0.37695 0-0.0354 5.47e-4 -0.0876 0.0039-0.15821 0.0035-0.0735 0.0059-0.15431 0.0059-0.24218 0-0.0908-0.0049-0.18218-0.01367-0.27344v-2e-3c-0.0074-0.0963-0.02457-0.1846-0.05078-0.26563v-2e-3c-0.02497-0.0838-0.06399-0.15625-0.11719-0.21485-0.05841-0.0681-0.14568-0.10546-0.23633-0.10546zm-3.332 0.0312c-0.08866 0-0.16668 9e-3 -0.23438 0.0273-0.06194 0.0156-0.11855 0.0385-0.16992 0.0742-0.04711 0.0311-0.08849 0.0686-0.12305 0.11133-0.02966 0.0366-0.0622 0.077-0.0957 0.12109-0.03077 0.041-0.06293 0.0839-0.09961 0.12891-0.01084 0.0133-0.03118 0.0287-0.04492 0.043-0.05685-0.12069-0.1278-0.2291-0.22461-0.31054-0.13323-0.11534-0.30277-0.17188-0.49414-0.17188-0.09412 0-0.1788 0.0129-0.25391 0.043-0.069 0.0259-0.13306 0.063-0.18945 0.11133-0.04583 0.0393-0.08747 0.0859-0.12891 0.13477v-0.0547c0-0.0509-0.02485-0.0991-0.05664-0.13086-0.02752-0.0275-0.06144-0.0472-0.0957-0.0625-0.03132-0.0146-0.06673-0.0281-0.10547-0.0352h-2e-3c-0.03438-6e-3 -0.06578-8e-3 -0.0918-6e-3a0.093556 0.093556 0 0 0-0.0039 2e-3c-0.03943 6e-3 -0.06986 0.0292-0.08984 0.0527-0.01999 0.0235-0.033 0.0489-0.04492 0.0781a0.093556 0.093556 0 0 0-2e-3 2e-3c-0.01931 0.0521-0.03908 0.11957-0.05859 0.20117a0.093556 0.093556 0 0 0 0 2e-3c-0.01774 0.0816-0.03377 0.17414-0.05273 0.2793-0.01703 0.10215-0.03781 0.21449-0.05859 0.33399-0.0188 0.11794-0.0405 0.24057-0.06445 0.36718a0.093556 0.093556 0 0 0 0 2e-3c-0.02218 0.12452-0.04745 0.24526-0.07617 0.36523-0.02705 0.12003-0.058 0.23807-0.0918 0.34961a0.093556 0.093556 0 0 0 0 2e-3c-0.03162 0.10819-0.0664 0.20442-0.10547 0.28907a0.093556 0.093556 0 0 0-0.0098 0.0391v0.082c0 0.0428 0.0079 0.0844 0.02148 0.12305 0.01426 0.0404 0.03438 0.0766 0.05859 0.10742a0.093556 0.093556 0 0 0 0.0059 4e-3c0.02776 0.0301 0.06153 0.0571 0.09961 0.0762 0.04096 0.0205 0.08725 0.0312 0.13672 0.0312 0.03223 0 0.0641-4e-3 0.09766-0.01a0.093556 0.093556 0 0 0 0.0039 0c0.03827-9e-3 0.07385-0.0224 0.10547-0.0371a0.093556 0.093556 0 0 0 0.0059-2e-3c0.0338-0.018 0.06352-0.0416 0.08984-0.0703 0.03209-0.0348 0.05426-0.0783 0.0625-0.125v6e-3c0.0049-0.0213 0.01226-0.0533 0.02539-0.0976l-2e-3 2e-3c0.01524-0.0457 0.03495-0.10008 0.05273-0.16211v-2e-3c0.01847-0.0588 0.03682-0.11881 0.05664-0.18164l2e-3 -4e-3c0.02204-0.0645 0.04364-0.12945 0.0625-0.18945 0.01907-0.0607 0.03388-0.11336 0.04883-0.1582 0.01543-0.0463 0.02617-0.0807 0.0332-0.10352l2e-3 -2e-3c0.01335-0.04 0.03034-0.0939 0.05078-0.16016l2e-3 -2e-3c0.02134-0.0639 0.04599-0.13389 0.07422-0.20703l2e-3 -2e-3c0.03028-0.0756 0.06162-0.15089 0.09766-0.22461 0.03545-0.0725 0.07436-0.13624 0.11719-0.19336 0.04331-0.0572 0.08949-0.1038 0.13672-0.13671 0.04237-0.0295 0.08325-0.041 0.13281-0.041 0.03252 0 0.04759 7e-3 0.0625 0.0215 0.02173 0.0206 0.04008 0.0474 0.05469 0.0859a0.093556 0.093556 0 0 0 2e-3 4e-3c0.01668 0.0389 0.02936 0.0844 0.03711 0.13867 0.0081 0.0569 0.01206 0.11312 0.01367 0.16797a0.093556 0.093556 0 0 0 0 4e-3c0.0033 0.0555 0.0036 0.10498 2e-3 0.15235-0.0018 0.0497-2e-3 0.0891-2e-3 0.11719 0 0.1121-0.0032 0.21057-0.0098 0.29296-0.0067 0.0816-0.01596 0.16186-0.0293 0.24024a0.093556 0.093556 0 0 0 0 2e-3c-0.01167 0.0784-0.02822 0.15962-0.04687 0.2461a0.093556 0.093556 0 0 0 0 2e-3c-0.01738 0.0886-0.03592 0.19093-0.05664 0.30664a0.093556 0.093556 0 0 0-2e-3 0.0156v0.0352c0 0.0949 0.02884 0.18545 0.08789 0.25586a0.093556 0.093556 0 0 0 2e-3 0c0.06211 0.0717 0.15511 0.11133 0.25391 0.11133 0.03594 0 0.06824-8e-3 0.09961-0.0195a0.093556 0.093556 0 0 0 0.0059-2e-3c0.03065-0.0131 0.05758-0.0308 0.08203-0.0488l0.0039-2e-3c0.02632-0.0186 0.05096-0.0403 0.07227-0.0664 0.02206-0.0267 0.04093-0.0564 0.05273-0.0918a0.093556 0.093556 0 0 0 0.0039-0.0156c0.01386-0.0918 0.02986-0.20341 0.04883-0.3379 0.02036-0.13403 0.04738-0.27524 0.07813-0.42382 0.03039-0.14858 0.06715-0.29846 0.10938-0.44727v-2e-3c0.04328-0.14619 0.09378-0.27713 0.15039-0.39063v-2e-3c0.05784-0.11369 0.12346-0.2027 0.19531-0.27148a0.093556 0.093556 0 0 0 2e-3 -2e-3c0.06618-0.0648 0.13203-0.0948 0.21289-0.0996h0.08398c0.0667 0.0434 0.1185 0.0937 0.15039 0.15625 0.03853 0.0755 0.06602 0.15513 0.08008 0.24414a0.093556 0.093556 0 0 0 0 2e-3c0.01594 0.0893 0.02117 0.18236 0.01953 0.27929a0.093556 0.093556 0 0 0 0 2e-3v0.27929c0 0.14737-0.0064 0.29563-0.02148 0.44336-0.01581 0.15457-0.02344 0.30778-0.02344 0.46094 0 0.0968 0.03324 0.18949 0.09961 0.25586 0.06547 0.0655 0.15705 0.0996 0.25391 0.0996 0.09185 0 0.17977-0.0372 0.23828-0.10547 0.053-0.0598 0.09157-0.13287 0.11524-0.2168v-2e-3c0.02444-0.0833 0.03917-0.1748 0.04297-0.27148v-2e-3c0.0052-0.0932 0.0054-0.18386 2e-3 -0.27148-0.0017-0.0876-0.0047-0.16671-0.01172-0.24024v-4e-3c-0.0048-0.0669-0.0078-0.11951-0.0078-0.14649 0-0.10785-0.0029-0.2218-0.0098-0.34179v-2e-3c-0.0054-0.12243-0.01974-0.24254-0.04102-0.36133-0.0201-0.12244-0.05395-0.23838-0.09766-0.34765-0.04293-0.11305-0.10138-0.21493-0.17774-0.30274-0.0762-0.0895-0.17273-0.15995-0.28516-0.21093-0.11713-0.0556-0.2551-0.082-0.41016-0.082zm10.314 0.041c-0.12766 0-0.24828 0.0148-0.36133 0.0469-0.1124 0.0324-0.21319 0.0842-0.29883 0.15234-0.08563 0.0697-0.15279 0.15918-0.20117 0.26367-0.05011 0.10823-0.07422 0.23353-0.07422 0.37305 0 0.14477 0.01914 0.27019 0.06641 0.375a0.093556 0.093556 0 0 0 2e-3 2e-3c0.0465 0.0969 0.10836 0.17733 0.1875 0.24024 0.07654 0.0608 0.16388 0.108 0.25781 0.13867 0.08886 0.0284 0.18048 0.0526 0.27344 0.0723a0.093556 0.093556 0 0 0 2e-3 0c0.08968 0.0172 0.17423 0.0337 0.25781 0.0508a0.093556 0.093556 0 0 0 2e-3 0c0.08009 0.016 0.14884 0.0381 0.20703 0.0664a0.093556 0.093556 0 0 0 2e-3 0c0.05321 0.0246 0.09266 0.0593 0.12305 0.10156a0.093556 0.093556 0 0 0 2e-3 2e-3c0.02618 0.0349 0.04297 0.0871 0.04297 0.16797 0 0.0357-0.0079 0.0573-0.02344 0.0801-0.01888 0.0259-0.0401 0.048-0.06836 0.0645-0.03144 0.0167-0.06984 0.0286-0.11328 0.0391-0.04373 9e-3 -0.08424 0.0137-0.12305 0.0137-0.05874 0-0.123-9e-3 -0.19336-0.0273h-2e-3c-0.07025-0.0192-0.14259-0.044-0.21289-0.0742l-2e-3 -2e-3c-0.07005-0.0327-0.13558-0.0681-0.20117-0.10743-0.0655-0.0403-0.12302-0.0777-0.16992-0.11523a0.093556 0.093556 0 0 0-0.04297-0.0195l2e-3 2e-3c-0.0021-8.4e-4 -0.0055-1e-3 -0.0078-2e-3 0.0028 2.5e-4 5e-3 -1.7e-4 0.0059 0a0.093556 0.093556 0 0 0-0.0078-2e-3c-0.0011-3.8e-4 -0.0028 3.9e-4 -0.0039 0-0.0013-4.3e-4 -0.0026-2e-3 -0.0039-2e-3 -5e-3 -2e-3 -0.01013-3e-3 -0.01562-4e-3l-0.01367-4e-3c-0.0032-9.2e-4 -0.0067-1e-3 -0.0098-2e-3l-0.01172-4e-3c-0.0018-4e-4 -0.0041-2e-3 -0.0059-2e-3 -0.0031-8.6e-4 -0.0068-3e-3 -0.0098-4e-3 -0.0082-2e-3 -0.02258-2e-3 -0.02344-2e-3h-0.0098c-0.04072 0-0.08197 7e-3 -0.12109 0.0234-0.03879 0.0145-0.07387 0.0372-0.10547 0.0664-0.02898 0.0266-0.05411 0.0594-0.07227 0.0957a0.093556 0.093556 0 0 0 0 2e-3c-0.01881 0.0403-0.02734 0.0829-0.02734 0.125 0 0.0298 0.0044 0.0581 0.01367 0.0859a0.093556 0.093556 0 0 0 0.0039 0.0117c8.43e-4 2e-3 0.0053 0.016 0.0098 0.0352a0.093556 0.093556 0 0 0 0.01953 0.0371c0.06646 0.0835 0.1478 0.15792 0.24414 0.22461a0.093556 0.093556 0 0 0 2e-3 2e-3c0.09598 0.0634 0.19839 0.1191 0.30664 0.16602a0.093556 0.093556 0 0 0 2e-3 0c0.10863 0.0453 0.2186 0.0803 0.33203 0.10547 0.1154 0.0252 0.2256 0.0391 0.33203 0.0391 0.05866 0 0.11909-9e-3 0.18359-0.0215 0.06726-0.0112 0.13692-0.0288 0.20703-0.0527 0.06952-0.0238 0.13636-0.0526 0.20312-0.0879a0.093556 0.093556 0 0 0 2e-3 0c0.06785-0.0377 0.12994-0.081 0.18359-0.12891 0.0564-0.0506 0.10359-0.10791 0.13867-0.17187a0.093556 0.093556 0 0 0 0-2e-3c0.03656-0.0688 0.05469-0.14358 0.05469-0.22071v-0.32812c0-0.11916-0.02432-0.22589-0.07617-0.31446-0.04623-0.0816-0.1099-0.15135-0.1875-0.20507-0.07435-0.0532-0.15711-0.095-0.25-0.125-0.08826-0.0306-0.17933-0.0569-0.27148-0.0781l2e-3 2e-3c-0.08802-0.0224-0.17689-0.0453-0.26367-0.0645h-2e-3c-0.07955-0.0196-0.14833-0.0419-0.20898-0.0684-0.05585-0.0261-0.09795-0.0549-0.12891-0.0879-0.02405-0.0282-0.03711-0.0648-0.03711-0.11914 0-0.0494 0.0098-0.0805 0.01953-0.0977 0.01323-0.0232 0.02521-0.036 0.04492-0.0469 0.02491-0.0128 0.05495-0.0215 0.08984-0.0254a0.093556 0.093556 0 0 0 0.0039-2e-3c0.04271-6e-3 0.08876-8e-3 0.14062-8e-3 0.05811 0 0.11573 7e-3 0.17383 0.0195 0.06547 0.0138 0.13116 0.0267 0.19141 0.043a0.093556 0.093556 0 0 0 2e-3 2e-3c0.06507 0.0154 0.12996 0.0308 0.19531 0.0449 0.07109 0.015 0.14441 0.0234 0.21875 0.0234 0.0854 0 0.16624-0.0321 0.2207-0.0918a0.093556 0.093556 0 0 0 2e-3 0c0.05203-0.0595 0.07813-0.13956 0.07813-0.22266 0-0.0785-0.02888-0.15491-0.08203-0.21289-0.04865-0.0531-0.10972-0.0916-0.17773-0.12109-0.06587-0.031-0.13759-0.0556-0.2168-0.0723h-2e-3c-0.0756-0.0175-0.15329-0.0317-0.23047-0.0391h-0.0039c-0.07487-9e-3 -0.14732-0.0138-0.21484-0.0156-0.06658-2e-3 -0.12066-2e-3 -0.16406-2e-3zm-16.221 0.0137c-0.04703 2e-3 -0.07751 2e-3 -0.0957 2e-3 -0.2514 0-0.48535 0.0283-0.69922 0.084-0.21359 0.0561-0.39982 0.14378-0.55859 0.26563-0.16016 0.12291-0.28838 0.2828-0.37695 0.47656h2e-3c-0.08982 0.19461-0.13281 0.42434-0.13281 0.6875 0 0.17565 0.01885 0.34601 0.05664 0.50976 0.03844 0.16656 0.10164 0.31649 0.18945 0.44727 0.09058 0.13208 0.21019 0.24106 0.35547 0.32031 0.15146 0.0816 0.33351 0.11914 0.54102 0.11914 0.11398 0 0.22234-0.0149 0.32422-0.0449 0.10077-0.0275 0.19603-0.065 0.28711-0.11328 0.09131-0.0475 0.1779-0.10234 0.25977-0.16602 0.04804-0.0365 0.09525-0.0751 0.14258-0.11328 0.0044 0.0117 0.01186 0.0208 0.01563 0.0332 0.01804 0.0596 0.03801 0.11723 0.0625 0.17187a0.093556 0.093556 0 0 0 2e-3 2e-3c0.02915 0.0604 0.06954 0.11313 0.11914 0.15625 0.06151 0.0535 0.14209 0.0742 0.22852 0.0742 0.09667 0 0.19033-0.0363 0.25195-0.10937 0.05994-0.0692 0.08984-0.15773 0.08984-0.25 0-0.078-0.01033-0.15847-0.03125-0.24024l2e-3 2e-3c-0.01782-0.0784-0.03972-0.15728-0.0625-0.23438-0.02182-0.0739-0.04237-0.14701-0.0625-0.2207-0.01745-0.0714-0.02774-0.14239-0.0293-0.21094a0.093556 0.093556 0 0 0 0-2e-3l-0.05469-1.3164c-0.0025-0.0687-0.03533-0.13641-0.08984-0.18164-0.04634-0.0397-0.10299-0.0696-0.16602-0.0898-0.06191-0.0213-0.12916-0.0373-0.20117-0.0449-0.06752-7e-3 -0.13309-0.01-0.19531-0.0117-0.06332-4e-3 -0.12274-4e-3 -0.17383-2e-3zm10.332 0.0274c-0.08391-0.0132-0.16854 9.7e-4 -0.24023 0.0449a0.093556 0.093556 0 0 0-2e-3 2e-3c-0.07026 0.0445-0.1134 0.11929-0.13281 0.20313a0.093556 0.093556 0 0 0-0.0039 8e-3c-3.03e-4 1e-3 -0.0017 2e-3 -2e-3 4e-3a0.093556 0.093556 0 0 0 0 4e-3 0.093556 0.093556 0 0 0-2e-3 6e-3 0.093556 0.093556 0 0 0 0 4e-3c9.9e-5 2.4e-4 0 4e-3 0 4e-3a0.093556 0.093556 0 0 0-2e-3 6e-3c-5.56e-4 2e-3 -0.0014 3e-3 -2e-3 6e-3 -0.0012 5e-3 -2e-3 0.0226-2e-3 0.0234l0.0059 0.92383c-0.0022 0.0241-5e-3 0.0621-0.0098 0.13086-0.0051 0.0713-0.01286 0.16036-0.02148 0.26562-0.0086 0.10439-0.01921 0.21822-0.03125 0.34375a0.093556 0.093556 0 0 0 0 2e-3c-0.01031 0.12373-0.02121 0.24554-0.0332 0.36718a0.093556 0.093556 0 0 0 0 2e-3c-0.0103 0.12018-0.02094 0.23332-0.03125 0.33984-0.01035 0.10523-0.01854 0.19123-0.02539 0.25977-0.0048 0.0434-0.01163 0.0914-0.02148 0.14062-0.01019 0.051-0.02142 0.0999-0.0332 0.15039a0.093556 0.093556 0 0 0 0 4e-3c-0.01013 0.0523-0.02156 0.10215-0.0332 0.15039a0.093556 0.093556 0 0 0 0 4e-3c-0.01017 0.0508-0.0204 0.0983-0.0293 0.14454a0.093556 0.093556 0 0 0-2e-3 0.0254c0.0064 0.0751 0.03275 0.14787 0.08008 0.20703 0.04909 0.0614 0.12049 0.0999 0.19922 0.11523a0.093556 0.093556 0 0 0 2e-3 0c0.06582 0.0118 0.13449 4e-3 0.19727-0.0273 0.06604-0.0318 0.11531-0.0847 0.14844-0.14649a0.093556 0.093556 0 0 0 0.0098-0.0273c0.0041-0.0204 9e-3 -0.0516 0.01563-0.0977v-4e-3c0.0082-0.0441 0.01868-0.093 0.02734-0.14649v-2e-3c0.01023-0.0514 0.01848-0.0985 0.02539-0.14648v-4e-3c0.0082-0.0448 0.01464-0.0796 0.01758-0.0957 0.01547-0.0842 0.02618-0.14756 0.0332-0.19141v-2e-3c0.0081-0.0405 0.01513-0.071 0.01953-0.0996 0.0035-0.0229 0.0079-0.0414 0.0098-0.0566l-2e-3 2e-3c0.0015-0.0105 0.0043-0.028 0.0078-0.0508 4e-3 -0.0262 0.0075-0.0545 0.01367-0.0937v-2e-3c0.0047-0.0233 0.01251-0.0676 0.01953-0.10352l0.64844 0.0879c0.18318 0.033 0.3673 0.0328 0.55274-4e-3a0.093556 0.093556 0 0 0 2e-3 0c0.18421-0.0383 0.3543-0.10605 0.50977-0.20117 0.15755-0.0971 0.29412-0.22024 0.40625-0.36914 0.11422-0.15168 0.18743-0.32727 0.2207-0.51953 0.02594-0.14641 0.02624-0.29105 0-0.43164-0.02608-0.14159-0.07469-0.26952-0.14648-0.38477-0.07193-0.11735-0.16589-0.21548-0.28125-0.29492-0.11638-0.0817-0.25238-0.13784-0.40039-0.16406-0.25206-0.0441-0.50042-0.0639-0.74609-0.0586-0.21063 3e-3 -0.41761 0.0367-0.62305 0.0918-7.34e-4 -7e-3 -0.0033-0.0148-0.0039-0.0215-4e-3 -0.0461-0.01431-0.0914-0.03125-0.13281l-2e-3 -2e-3c-0.01834-0.0482-0.04972-0.0909-0.0918-0.12304-0.05072-0.0388-0.10916-0.055-0.17969-0.0684a0.093556 0.093556 0 0 0-0.0039 0zm4.3906 0.0801c-0.07421 0-0.14561 0.0168-0.19922 0.0645a0.093556 0.093556 0 0 0-2e-3 2e-3c-0.04622 0.0435-0.07513 0.10348-0.09375 0.17383a0.093556 0.093556 0 0 0-0.0039 0.0215c-0.0017 0.10448-0.0046 0.21836-0.0098 0.33789a0.093556 0.093556 0 0 0 0 2e-3c-0.0034 0.11783-0.0091 0.23895-0.01758 0.36328-0.0085 0.12477-0.01925 0.24817-0.03125 0.375-0.01189 0.12565-0.02586 0.24989-0.04297 0.37305-0.01708 0.12125-0.03662 0.24028-0.05859 0.35351-0.02182 0.11077-0.04716 0.21217-0.07422 0.3086-0.01386 0.0499-0.0097 0.1045 0.01172 0.15039 0.01826 0.0391 0.04502 0.0732 0.07813 0.10156a0.093556 0.093556 0 0 0 0.0059 6e-3c0.03551 0.026 0.07346 0.0421 0.11133 0.0547a0.093556 0.093556 0 0 0 2e-3 2e-3c0.03954 0.0125 0.07859 0.0195 0.11914 0.0195 0.07838 0 0.15454-0.0365 0.20898-0.0957a0.093556 0.093556 0 0 0 2e-3 0c0.04821-0.0545 0.08697-0.12211 0.11914-0.20118v-2e-3c0.03361-0.0788 0.06073-0.16645 0.08203-0.26367v-2e-3c0.02289-0.0971 0.04058-0.19868 0.05469-0.30274 0.01395-0.10288 0.02616-0.20536 0.0332-0.30859v-2e-3c0.0086-0.10242 0.01411-0.1986 0.01758-0.2871 0.0034-0.0875 0.0058-0.16314 0.0059-0.23047v-2e-3c0.0017-0.0651 2e-3 -0.11321 2e-3 -0.14257v-0.64649a0.093556 0.093556 0 0 0-0.0039-0.0273c-0.0228-0.073-0.07504-0.13962-0.14648-0.16602h-2e-3c-0.05211-0.0193-0.10877-0.0293-0.16797-0.0293zm-14.793 0.61132h0.12891a0.093556 0.093556 0 0 0 0.0039 0c0.01021-4e-4 0.01941 3e-3 0.0293 4e-3v0.0684c0 0.0583-3.35e-4 0.10797-2e-3 0.14844-0.0017 0.0416-0.0046 0.0791-0.0078 0.11328a0.093556 0.093556 0 0 0 0 6e-3c-0.0016 0.0345-0.0046 0.0668-0.0078 0.0976-0.0032 0.0286-8e-3 0.0626-0.01172 0.10352-0.0035 0.0373-0.0069 0.0793-0.01172 0.12305-0.0052 0.0464-0.01013 0.10112-0.01367 0.16406-0.01369 0.0787-0.04222 0.1558-0.0918 0.23242-0.05147 0.0796-0.1147 0.14942-0.1875 0.21289-0.0719 0.061-0.15174 0.1105-0.24023 0.14844-0.08479 0.037-0.16531 0.0547-0.24414 0.0547-0.09664 0-0.1633-0.0205-0.21094-0.0547-0.05558-0.0399-0.09763-0.0884-0.12695-0.14844-0.03133-0.0641-0.05358-0.13599-0.06445-0.2168-0.01151-0.0855-0.01563-0.16772-0.01563-0.24804 0-0.17266 0.0275-0.30793 0.07617-0.40821 0.05214-0.10428 0.12016-0.1825 0.20898-0.24023 0.09112-0.0592 0.20135-0.10068 0.33398-0.12305a0.093556 0.093556 0 0 0 2e-3 0c0.13666-0.0247 0.28743-0.0371 0.45312-0.0371zm11.521 0.24805c0.09636 0 0.1823 3e-3 0.25781 0.01a0.093556 0.093556 0 0 0 2e-3 0c0.07564 5e-3 0.13244 0.0114 0.16992 0.0176 0.06367 0.0118 0.11188 0.0323 0.15039 0.0605a0.093556 0.093556 0 0 0 2e-3 0c0.03872 0.0271 0.06676 0.0626 0.08984 0.10742a0.093556 0.093556 0 0 0 2e-3 0c0.02432 0.0458 0.0397 0.0969 0.04687 0.1543 0.0073 0.0586 0.0064 0.11991-0.0059 0.1875a0.093556 0.093556 0 0 0 0 2e-3c-0.01528 0.0902-0.04467 0.16485-0.08594 0.22461a0.093556 0.093556 0 0 0-2e-3 0c-0.04159 0.0624-0.09099 0.11252-0.15039 0.1543-0.06106 0.0412-0.12969 0.0745-0.20703 0.0977-0.07797 0.0221-0.16047 0.0369-0.24414 0.0449-0.0846 8e-3 -0.16839 0.0106-0.25391 6e-3 -0.0885-7e-3 -0.17198-0.016-0.25-0.0293-0.05223-9e-3 -0.09815-0.0159-0.13867-0.0195l0.0059 2e-3c-0.03656-5e-3 -0.07449-0.0119-0.11328-0.0156-0.0299-5e-3 -0.06404-0.0114-0.10156-0.0195-0.01522-3e-3 -0.03816-0.0105-0.05664-0.0156 1.35e-4 -1e-3 -1.39e-4 -7.9e-4 0-2e-3a0.093556 0.093556 0 0 0 0-2e-3c0.0053-0.0456 0.01038-0.0968 0.01563-0.15625 0.0051-0.0596 0.01088-0.122 0.01758-0.1875v-2e-3c0.0085-0.0677 0.01618-0.13178 0.02148-0.19141v-2e-3c0.0068-0.0599 0.01208-0.11004 0.01563-0.1543 0.0036-0.0469 0.0047-0.0854 0.0039-0.0801a0.093556 0.093556 0 0 0 0-2e-3 0.093556 0.093556 0 0 0 2e-3 -2e-3c2.21e-4 -1e-3 -3.14e-4 -4e-3 0-6e-3a0.093556 0.093556 0 0 0 0-4e-3l2e-3 -6e-3c2.51e-4 -2e-3 -2.45e-4 -2e-3 0-4e-3 0.0024-0.01 6e-3 -0.0203 0.0078-0.0293a0.093556 0.093556 0 0 0 0-2e-3c5.67e-4 -3e-3 0.0034-0.015 0.04492-0.0352 0.04721-0.0236 0.11197-0.0442 0.18945-0.0586 0.08332-0.015 0.17377-0.0266 0.27148-0.0332 0.0993-7e-3 0.19642-0.01 0.29102-0.01z" fill="#fff"/>
</svg>