<?xml version="1.0" encoding="UTF-8"?>
<svg width="25mm" height="25mm" version="1.1" viewBox="0 0 25 25" xmlns="http://www.w3.org/2000/svg" xmlns:cc="http://creativecommons.org/ns#" xmlns:dc="http://purl.org/dc/elements/1.1/" xmlns:rdf="http://www.w3.org/1999/02/22-rdf-syntax-ns#">
<defs>
<clipPath id="a">
<rect x="-90.086" y="136.11" width="25.6" height="25.6" style="paint-order:stroke fill markers"/>
</clipPath>
</defs>
<metadata>
<rdf:RDF>
<cc:Work rdf:about="">
<dc:format>image/svg+xml</dc:format>
<dc:type rdf:resource="http://purl.org/dc/dcmitype/StillImage"/>
<dc:title/>
</cc:Work>
</rdf:RDF>
</metadata>
<g transform="translate(91.482 -136.89)">
<g transform="matrix(.97656 0 0 .97656 -3.5082 3.9653)" clip-path="url(#a)" stroke-width=".087586">
<path d="m-72.714 161.47c-5e-3 -0.62157-0.69898-1.5237-1.2891-1.6757-0.18112-0.0466-1.7285-0.16428-3.4386-0.26141-2.8378-0.16117-3.1743-0.1969-3.8538-0.40919-1.9529-0.61014-3.4117-1.866-3.6833-3.171-0.12456-0.59846-0.06124-1.655 0.13193-2.2012 0.16323-0.46158 0.17735-1.2375 0.02605-1.4318-0.06021-0.0774-0.33315-0.18561-0.60652-0.24055-0.48626-0.0977-0.50003-0.10867-0.635-0.50479-0.07588-0.22269-0.13774-0.46685-0.13747-0.54257 0.0013-0.3792 0.2238-0.83419 0.61956-1.2672 0.38145-0.41737 0.50236-0.4932 0.927-0.58135 0.67225-0.13956 1.1938-0.0461 1.566 0.28072l0.30286 0.26591v-0.52387c0-0.95379 0.48736-0.94508 0.96803 0.0173 0.37958 0.75998 0.82111 1.1891 1.2235 1.1891 0.38292 0 1.2243-0.23883 1.2243-0.34752 0-0.0429-0.22663-0.12381-0.50362-0.17981-0.89709-0.18137-1.5972-0.74264-1.5981-1.2812-4.38e-4 -0.22915 1.0456-1.3707 1.7587-1.9195 1.5887-1.2224 3.7219-1.8988 6.0362-1.9137 1.1549-7e-3 1.1934-2e-3 1.6538 0.25346 0.64534 0.35742 1.2795 0.97356 1.4892 1.4468 0.09604 0.21678 0.31716 0.53209 0.49138 0.70069 0.8058 0.7798 1.194 1.7466 1.2133 3.0217l0.01329 0.87586-0.49941 0.89739c-0.56847 1.0215-0.87366 1.8096-1.0713 2.7665-0.12753 0.61741-0.1264 0.69244 0.01616 1.0764 0.08429 0.22701 0.19764 0.42754 0.2519 0.44563 0.16801 0.056 0.23063-0.24275 0.2746-1.3102 0.03897-0.94604 0.05614-1.0291 0.21253-1.0291 0.47723 0 0.72846 0.40549 0.82046 1.3242 0.10636 1.0622-0.38 3.9816-0.7692 4.6172-0.15588 0.25456-0.17313 0.39235-0.13433 1.0729l0.04452 0.78086h-3.0435l-0.0019-0.24086zm5.2275 0.17517c-0.11725-0.1929-0.14785-1.5527-0.06356-2.8246 0.18235-2.7518 0.19138-2.8219 0.36948-2.8685 0.1141-0.0298 0.1616-0.12367 0.1616-0.31924 0-0.28237-0.47885-5.9306-0.57527-6.7855l-0.05303-0.47018-0.32454 0.3169c-0.1785 0.1743-0.35244 0.31691-0.38654 0.31691-0.0341 0-0.062-0.28317-0.062-0.62927 0-0.53806-0.0603-0.7886-0.41603-1.7284-0.37297-0.98535-0.4664-1.1495-0.90262-1.5853-0.56564-0.56518-1.463-1.0423-2.4964-1.3275-0.60737-0.16759-0.92337-0.19258-2.4911-0.19701-1.589-4e-3 -1.8858 0.0178-2.5803 0.19393-1.4401 0.36521-1.8495 0.62765-3.3639 2.1564-0.74022 0.74726-1.3708 1.3555-1.4014 1.3517-0.17989-0.0226-0.27597 0.0516-0.49934 0.386-0.13677 0.20473-0.32935 0.44034-0.42795 0.52357-0.32718 0.27619-0.74858 0.14885-0.74858-0.22621 0-0.16539-0.0059-0.16585-0.17428-0.0135-0.42368 0.38343-1.6382 0.20588-2.2468-0.32844-0.78308-0.68755-0.76081-1.0681 0.18895-3.2291 0.79445-1.8076 0.82947-1.9876 0.45397-2.3344-0.2979-0.27507-0.71867-0.34455-1.8233-0.30106-0.66763 0.0263-1.1346 3e-3 -1.3576-0.0673-0.85827-0.27098-1.3537-0.87118-1.3783-1.6697-0.011-0.35756 0.10495-0.65549 0.86316-2.218 0.75967-1.5655 0.8991-1.7994 1.051-1.7633 0.09634 0.0229 5.4862 0.0422 11.977 0.0428l11.802 1e-3v25.663h-1.5276c-0.84017 0-1.5456-0.0296-1.5675-0.0657z" fill="#bdbdbd"/>
<path d="m-72.712 161.49c0-0.28963-0.21237-0.79045-0.48896-1.1531-0.42102-0.55198-0.48871-0.56521-3.9962-0.78098-3.3823-0.20806-3.9288-0.29288-5.0329-0.78117-1.1557-0.51109-2.3409-1.6048-2.6262-2.4236-0.21775-0.62483-0.21533-1.8647 0.0049-2.5095 0.18022-0.52768 0.20907-1.2089 0.06278-1.4822-0.0671-0.12538-0.24776-0.21324-0.58049-0.28232-0.40691-0.0845-0.50604-0.14415-0.62878-0.3785-0.48676-0.92948 0.27908-2.2753 1.4308-2.5144 0.69-0.14324 1.3533 0.042 1.6458 0.45962 0.1297 0.18517 0.1367 0.16518 0.1367-0.39056 0-0.48874 0.02795-0.60068 0.16883-0.67607 0.23265-0.12451 0.6404 0.2265 0.83504 0.71886 0.08101 0.20491 0.31033 0.54008 0.5096 0.74481 0.31038 0.31889 0.41395 0.37224 0.72261 0.37224 0.39345 0 1.1798-0.23506 1.1798-0.35267 0-0.0826-0.12201-0.12597-0.72627-0.25841-0.80941-0.17741-1.457-0.80509-1.3345-1.2934 0.09275-0.36954 1.6641-1.8479 2.4809-2.334 1.5226-0.90623 3.3087-1.3799 5.2763-1.3992l1.1857-0.0116 0.51165 0.30655c0.69574 0.41685 1.2528 0.97312 1.4718 1.4697 0.10026 0.22735 0.25873 0.46737 0.35216 0.53337 0.09343 0.066 0.34399 0.3565 0.55678 0.64557 0.50899 0.69141 0.76622 1.5292 0.77337 2.5189l0.0054 0.74448-0.54068 1.0072c-0.54911 1.0229-0.89986 1.9765-1.0832 2.9446-0.09131 0.4823-0.08351 0.57663 0.07792 0.94155 0.09867 0.22306 0.21917 0.40556 0.26779 0.40556 0.15676 0 0.27081-0.63511 0.27131-1.5109 4.38e-4 -0.82789 0.0065-0.85388 0.19756-0.85118 0.42774 6e-3 0.70062 0.45199 0.80219 1.311 0.11479 0.97081-0.29554 3.5741-0.70408 4.4669-0.22289 0.4871-0.29082 1.2582-0.1576 1.789 0.03485 0.13887 0.01994 0.22545-0.03883 0.22545-0.13374 0-0.22134-0.3903-0.22609-1.0072-3e-3 -0.38567 0.05803-0.66536 0.22922-1.051 0.40451-0.91132 0.63806-2.2743 0.64048-3.7377 0.0019-1.1632-0.01502-1.3083-0.17838-1.5272-0.3325-0.44561-0.38881-0.37475-0.38881 0.48924 0 1.6848-0.41535 2.1946-0.86524 1.062l-0.20582-0.51818 0.19372-0.90574c0.22401-1.0474 0.63978-2.1321 1.1398-2.9738 0.32986-0.55523 0.35049-0.63077 0.34848-1.2756-0.0038-1.2297-0.34429-2.1196-1.1013-2.8786-0.24558-0.24624-0.47355-0.55542-0.50659-0.68707-0.08383-0.33402-0.70175-0.98299-1.3158-1.382l-0.5172-0.33602-1.1031 2.6e-4c-3.0243 7.9e-4 -5.553 1.0703-7.3095 3.0915l-0.44147 0.50802 0.15168 0.28026c0.1935 0.35752 0.63937 0.64766 1.1726 0.76305 0.645 0.13957 0.91182 0.26873 0.88264 0.42727-0.0411 0.22329-0.67642 0.48123-1.2821 0.52051l-0.55542 0.036-0.42499-0.4186c-0.23374-0.23023-0.4735-0.54051-0.5328-0.68951-0.16032-0.40285-0.42285-0.75261-0.56492-0.75261-0.10047 0-0.12542 0.17422-0.12542 0.87586 0 0.48172-0.03406 0.87586-0.07569 0.87586s-0.1447-0.1807-0.22904-0.40155c-0.21948-0.57469-0.54071-0.75443-1.2825-0.71761-0.70156 0.0348-1.1911 0.32753-1.5381 0.91972-0.18857 0.32176-0.21752 0.45976-0.18324 0.87323 0.04776 0.5759 0.15887 0.68752 0.76774 0.77126 0.36579 0.0503 0.43862 0.0948 0.5345 0.32624 0.16461 0.39741 0.14512 1.0083-0.05109 1.6008-0.22649 0.68395-0.23333 1.7536-0.01524 2.3841 0.27519 0.79555 1.4039 1.8404 2.5224 2.3351 1.0949 0.48421 1.619 0.56577 4.8493 0.75462 1.686 0.0986 3.214 0.21957 3.3954 0.26889 0.44808 0.12181 0.88282 0.52381 1.1532 1.0663 0.22501 0.45154 0.3021 1.0299 0.13727 1.0299-0.04817 0-0.08759-0.0998-0.08759-0.22178zm5.2029 0.0247c-0.09309-0.28646-0.06689-2.4482 0.04751-3.9195 0.12566-1.6162 0.14265-1.6943 0.35614-1.6385 0.15068 0.0394 0.16378 6e-3 0.12513-0.31927-0.02374-0.19981-0.16047-1.7428-0.30384-3.4288-0.14337-1.686-0.28454-3.2568-0.31372-3.4905l-0.05306-0.425-0.76937 0.75509v-0.6737c0-0.60228-0.04668-0.79223-0.44037-1.7919-0.39522-1.0035-0.48928-1.1647-0.9174-1.5721-0.55565-0.52873-1.4622-0.99909-2.4522-1.2724-0.62364-0.17213-0.90777-0.19319-2.5838-0.19146-1.6691 2e-3 -1.9627 0.0239-2.5838 0.19547-1.3757 0.37996-1.7046 0.59357-3.1994 2.0778-0.74908 0.74381-1.4281 1.3524-1.509 1.3524-0.08089 0-0.30634 0.21559-0.50099 0.47908-0.52744 0.71397-0.90598 0.8573-1.0758 0.40733l-0.0952-0.25221-0.26943 0.1643c-0.71452 0.43571-2.2123-0.1162-2.5576-0.94241-0.22825-0.54628-0.15149-0.87161 0.62579-2.6525 0.40847-0.93586 0.74267-1.7704 0.74267-1.8545 0-0.24193-0.4215-0.67911-0.73938-0.76689-0.15961-0.0441-0.72556-0.0595-1.2577-0.0343-0.61303 0.0291-1.1224 7e-3 -1.3902-0.0591-0.90931-0.22581-1.43-0.86052-1.43-1.7432 0-0.4013 0.10371-0.66212 0.87995-2.2131 0.73109-1.4608 0.90096-1.7408 1.0041-1.6552 0.07222 0.0599 0.35453 0.0954 0.67471 0.0848 0.30279-0.01 5.6251-0.0137 11.827-8e-3l11.277 0.0101v25.575h-1.5269c-1.506 0-1.5277-3e-3 -1.5909-0.19707z" fill="#b1b1b1"/>
<path d="m-72.712 161.44c0-0.35767-0.36707-1.0605-0.70033-1.3409-0.14906-0.12542-0.41704-0.26717-0.59551-0.31499-0.17848-0.0478-1.7099-0.16685-3.4031-0.26451l-3.0786-0.17756-0.97396-0.31699c-1.5776-0.51344-2.8213-1.4606-3.2989-2.5122-0.21528-0.47405-0.24715-0.65111-0.24771-1.3761-4.82e-4 -0.62675 0.04829-0.98336 0.19762-1.4452 0.18689-0.57794 0.19694-0.86738 0.04781-1.376-0.03012-0.10272-0.20889-0.18227-0.5687-0.25306-0.44544-0.0876-0.54528-0.1429-0.66041-0.36554-0.48279-0.9336 0.30655-2.2978 1.4556-2.5157 0.69484-0.13177 1.4858 0.11208 1.6489 0.50836 0.03508 0.0852 0.07959-0.11228 0.10478-0.46493 0.04003-0.56046 0.06134-0.61559 0.24808-0.64204 0.26519-0.0376 0.48361 0.1671 0.71755 0.67237 0.1038 0.22418 0.35104 0.57511 0.54943 0.77984 0.30753 0.31736 0.41291 0.37217 0.71472 0.37175 0.38052-5.2e-4 0.88582-0.12131 1.0985-0.26258 0.11575-0.0769 0.11597-0.0972 0.0018-0.17056-0.07127-0.0458-0.28805-0.10907-0.48172-0.14058-0.81385-0.13245-1.6205-0.82454-1.5032-1.2897 0.02697-0.1069 0.30617-0.4759 0.62046-0.81999 1.712-1.8744 4.2328-2.9146 7.1433-2.9477 0.91477-0.0104 1.1508 0.0149 1.4355 0.15397 0.78382 0.38294 1.6549 1.2121 1.7747 1.6893 0.0292 0.11634 0.24203 0.40047 0.47295 0.63139 0.55034 0.55034 0.94804 1.3536 1.1057 2.2331 0.18162 1.0133 0.1102 1.3606-0.53567 2.605-0.58057 1.1186-0.85193 1.871-1.0173 2.8208-0.0881 0.50589-0.07916 0.59753 0.09858 1.0107 0.17913 0.4164 0.20717 0.44266 0.33555 0.31432 0.10957-0.10954 0.14682-0.37785 0.17099-1.2318 0.03002-1.0606 0.03646-1.0918 0.22559-1.0918 0.17858 0 0.45574 0.22895 0.61343 0.50673 0.15256 0.26875 0.21243 1.2426 0.1302 2.1177-0.10669 1.1354-0.47431 2.8162-0.719 3.2873-0.19062 0.36699-0.23539 0.9553-0.11833 1.555 0.03891 0.19935 0.03045 0.32845-0.02154 0.32845-0.13471 0-0.20366-0.32214-0.21398-0.99967-0.0075-0.49093 0.02988-0.69076 0.17373-0.92957 0.5211-0.86507 0.92624-4.1524 0.63916-5.1861-0.07572-0.27266-0.2882-0.50466-0.46219-0.50466-0.02205 0-0.05423 0.44518-0.0715 0.98928-0.02443 0.76962-0.06666 1.0431-0.19021 1.2316-0.08734 0.1333-0.20556 0.22832-0.2627 0.21115-0.05715-0.0172-0.2139-0.24624-0.34834-0.50906-0.27822-0.54389-0.27406-0.65058 0.0781-2.0055 0.21714-0.83546 0.81936-2.2232 1.1907-2.7438 0.17342-0.24313 0.20047-0.38283 0.19225-0.99299-0.01624-1.2062-0.47672-2.351-1.2017-2.9875-0.15448-0.13564-0.39255-0.47486-0.52903-0.75383-0.25902-0.52943-0.79436-1.0301-1.4943-1.3977-0.3096-0.16257-0.49446-0.18615-1.4074-0.17951-2.1259 0.0154-4.0056 0.5658-5.6557 1.6559-0.63465 0.41927-2.0081 1.7932-2.0081 2.0089 0 0.42534 0.67158 0.91024 1.5041 1.086 0.86281 0.18217 0.8825 0.5036 0.04607 0.75199-0.24383 0.0724-0.62488 0.13166-0.84676 0.13166-0.36603 0-0.44099-0.0386-0.8086-0.41604-0.22284-0.22882-0.4692-0.57225-0.54746-0.76317-0.16565-0.40413-0.37635-0.6601-0.54333-0.6601-0.09041 0-0.1178 0.19345-0.1178 0.83206 0 0.85995-0.09031 1.048-0.25851 0.5384-0.2051-0.62147-0.81005-0.90353-1.6117-0.75149-0.71766 0.1361-1.4247 0.83268-1.4609 1.4393-0.0493 0.82599 0.09911 1.0434 0.77564 1.1365 0.39118 0.0538 0.45213 0.0913 0.53505 0.32915 0.13772 0.39506 0.11395 1.1296-0.05071 1.567-0.09636 0.25596-0.14657 0.67415-0.15115 1.2591-0.0091 1.1595 0.16725 1.5686 1.0282 2.3853 0.71626 0.67948 1.5184 1.1308 2.5956 1.4602 0.67117 0.20529 1.0507 0.24519 3.8538 0.40518 1.7101 0.0976 3.2594 0.218 3.4428 0.26754 0.41378 0.11176 0.92596 0.61293 1.1811 1.1557 0.20062 0.4268 0.25831 0.93881 0.10579 0.93881-0.04817 0-0.08759-0.11955-0.08759-0.26567zm5.2208 0.12713c-0.08516-0.22193-0.06137-2.6801 0.03889-4.0189 0.1189-1.5876 0.13352-1.6534 0.35415-1.5957 0.16 0.0418 0.17128 0.0136 0.12771-0.31927-0.02629-0.20085-0.16738-1.8038-0.31354-3.5621-0.14616-1.7583-0.28705-3.3304-0.31309-3.4937l-0.04735-0.29677-0.77579 0.76139v-0.66856c0-0.59489-0.04891-0.79436-0.44396-1.8105-0.41009-1.0548-0.48118-1.1759-0.93187-1.5878-1.1284-1.0313-2.674-1.4943-4.983-1.4927-1.6337 1e-3 -2.8138 0.20984-3.8098 0.67377-0.59036 0.27499-0.81778 0.46248-2.0134 1.66-0.74134 0.7425-1.4143 1.35-1.4956 1.35-0.08122 0-0.23935 0.12247-0.3514 0.27215-0.6621 0.88443-1.0568 1.0831-1.2317 0.61984l-0.09309-0.24663-0.31196 0.15905c-0.38573 0.19665-0.73781 0.20106-1.3096 0.0164-0.82659-0.26696-1.3301-0.86048-1.3301-1.5678 0-0.20247 0.26557-0.92468 0.74448-2.0246 0.40946-0.94042 0.74448-1.7893 0.74448-1.8865 0-0.23702-0.54424-0.76932-0.80141-0.78384-0.1132-6e-3 -0.75762-0.0162-1.432-0.0219-1.1671-0.01-1.2473-0.022-1.6641-0.25328-0.59109-0.32798-0.85607-0.73274-0.90282-1.379-0.03618-0.50013-0.01807-0.54914 0.8625-2.3347 0.4947-1.0031 0.91521-1.7588 0.93447-1.6792 0.01926 0.0796-0.34155 0.89699-0.80181 1.8165-0.90311 1.8043-0.99494 2.1649-0.69773 2.7396l0.1391 0.269 0.25142-0.30501c0.13828-0.16776 0.3681-0.35335 0.51071-0.41242 0.23227-0.0962 0.27467-0.17735 0.40679-0.7785 0.16243-0.73905 0.58868-1.8369 1.07-2.7556 0.48855-0.93268 0.50587-0.55653 0.01941 0.42158-0.50619 1.0178-0.95994 2.3542-0.95994 2.8272 0 0.30821-0.02416 0.33863-0.36431 0.45878-0.44858 0.15845-0.76894 0.54649-0.63308 0.76684 0.20398 0.3308 0.86892 0.45835 2.1897 0.42004 1.1896-0.0345 1.2934-0.0531 2.759-0.49426l1.5229-0.45842 0.74434 0.19482c0.40938 0.10714 1.1046 0.32974 1.5449 0.49465 0.4621 0.17308 0.96204 0.29987 1.1826 0.29991 0.21011 4e-5 0.65792 0.0571 0.99512 0.12672 1.0725 0.22156 5.3698 0.61328 8.671 0.79042 1.3444 0.0721 1.7472 0.12958 1.6426 0.23424-0.15437 0.15436-8.4066-0.47095-10.051-0.7616-0.38538-0.0681-0.88036-0.12459-1.1-0.12548-0.2256-9.1e-4 -0.72086-0.11982-1.1386-0.27337-0.40664-0.14947-1.1138-0.38604-1.5714-0.52572l-0.83207-0.25395-1.4014 0.40865c-0.77076 0.22476-1.4182 0.42233-1.4388 0.43905-0.02057 0.0167 0.06741 0.13978 0.19551 0.2735 0.44454 0.464 0.41796 0.63301-0.38454 2.4451-0.59932 1.3533-0.72948 1.726-0.73288 2.0989-0.0066 0.72306 0.48914 1.2341 1.3933 1.4365 0.90462 0.20245 1.2297-0.0454 1.5309-1.1673 0.1132-0.42151 0.23962-0.76638 0.28095-0.76638 0.11629 0 0.09093 0.2736-0.11005 1.1874-0.18886 0.85873-0.15887 1.0858 0.12881 0.97535 0.07182-0.0276 0.2903-0.26632 0.48552-0.53058 0.19522-0.26426 0.43081-0.50455 0.52354-0.53398 0.11758-0.0373 0.20506-0.20295 0.28915-0.54748 0.14926-0.61157 0.36784-0.75613 0.28213-0.1866l-0.05724 0.38032 1.2179-1.1998c0.97662-0.96211 1.3302-1.2524 1.7847-1.4651 1.2656-0.59222 3.1949-0.86705 4.9866-0.71033 1.782 0.15586 3.1766 0.67672 4.0993 1.5309 0.47863 0.44313 0.53968 0.54726 0.96644 1.6485 0.34615 0.89321 0.45554 1.2882 0.45554 1.645v0.46951l0.34874-0.34053c0.19181-0.18729 0.36777-0.3215 0.39104-0.29823 0.03831 0.0383 0.74919 7.8787 0.74919 8.2629 0 0.15424-0.0086 0.15485-0.16648 0.012-0.09156-0.0829-0.18521-0.11853-0.20811-0.0793-0.0944 0.16188-0.25748 3.3082-0.22727 4.385 0.03041 1.0842-5e-3 1.356-0.13325 1.0219z" fill="#8f8f8f"/>
<path d="m-72.712 161.43c0-0.64455-0.75824-1.5934-1.3499-1.6892-0.14872-0.0241-1.6378-0.12493-3.3091-0.22409-2.6629-0.15799-3.1341-0.20786-3.81-0.40319-1.0386-0.30017-2.0037-0.81661-2.6742-1.4309-0.69054-0.63275-1-1.188-1.1304-2.028-0.10311-0.66427-0.09583-0.72449 0.28525-2.3583 0.06676-0.28621 0.06533-0.50091-0.0051-0.76242-0.09644-0.35815-0.10662-0.36571-0.63128-0.46893-0.48099-0.0946-0.54516-0.13338-0.65458-0.39528-0.06673-0.1597-0.12132-0.48098-0.12132-0.71396 0-0.85062 0.80681-1.6787 1.7084-1.7535 0.67487-0.056 1.0493 0.0379 1.3496 0.33814l0.2621 0.2621 0.02596-0.59388c0.0238-0.54437 0.04279-0.59627 0.22785-0.6225 0.26935-0.0382 0.42519 0.10556 0.68974 0.63622 0.12159 0.24389 0.38291 0.61094 0.58071 0.81567 0.32157 0.33283 0.4027 0.37224 0.76627 0.37224 0.44592 0 0.93437-0.13516 1.123-0.31077 0.10074-0.0938 0.06413-0.12836-0.21897-0.20697-0.18696-0.0519-0.41047-0.0946-0.4967-0.0949-0.41526-1e-3 -1.2025-0.61346-1.3296-1.034-0.11051-0.36541 0.93767-1.5352 2.0557-2.2943 1.6161-1.0972 3.5788-1.6646 5.758-1.6646 1.0589 0 1.1092 9e-3 1.6126 0.27692 0.6045 0.32219 1.434 1.1732 1.5185 1.5579 0.032 0.14568 0.1706 0.34493 0.30801 0.44277 0.37195 0.26486 0.93767 1.1667 1.1373 1.8132 0.12062 0.39053 0.17598 0.81601 0.17598 1.3525 0 0.77012-0.0064 0.79356-0.39575 1.4578-0.68677 1.1716-1.3503 3.2216-1.2328 3.809 0.06646 0.33231 0.31535 0.85135 0.40824 0.85135 0.14497 0 0.25593-0.67273 0.25641-1.5546 4.38e-4 -0.81756 0.01508-0.89776 0.16385-0.89776 0.26523 0 0.61216 0.3341 0.709 0.68278 0.28231 1.0165-0.12972 4.3488-0.64117 5.1855-0.19637 0.32124-0.25554 1.1714-0.11735 1.686 0.03816 0.14213 0.02972 0.24086-0.02061 0.24086-0.24193 0-0.23453-1.71 0.0086-1.9862 0.29317-0.33298 0.71615-2.6635 0.7205-3.9697 0.0033-0.97967-0.17556-1.59-0.48245-1.6465-0.12168-0.0224-0.14745 0.10834-0.18126 0.91965-0.04065 0.97571-0.18298 1.4713-0.42256 1.4713-0.19546 0-0.56248-0.80908-0.54668-1.2052 0.03569-0.8951 0.66345-2.7165 1.3019-3.7776 0.37936-0.63041 0.44855-1.0817 0.30047-1.9596-0.13624-0.80771-0.50994-1.581-1.0377-2.1473-0.23436-0.25146-0.51467-0.64397-0.62292-0.87225-0.38476-0.81139-1.4791-1.5464-2.4139-1.6213-0.71286-0.0571-2.2446 0.11689-3.2307 0.36705-1.8677 0.47378-3.4421 1.4246-4.5443 2.7445-0.46632 0.55844-0.49507 0.68383-0.23313 1.0168 0.23867 0.30342 0.60598 0.48891 1.3061 0.65956 0.46321 0.11291 0.57433 0.17398 0.59623 0.32767 0.02242 0.15736-0.05489 0.2195-0.46311 0.37224-0.26952 0.10084-0.65741 0.18335-0.86198 0.18335-0.33341 0-0.41838-0.0477-0.82004-0.45983-0.24645-0.25291-0.54873-0.66183-0.67174-0.90873-0.2112-0.42391-0.41228-0.61139-0.52976-0.49392-0.02879 0.0288-0.05235 0.42022-0.05235 0.86983s-0.03058 0.81747-0.06796 0.81747-0.14576-0.1656-0.24086-0.36801c-0.2586-0.55041-0.55722-0.72826-1.2085-0.71974-0.63852 8e-3 -0.95954 0.1552-1.3964 0.63871-0.41592 0.46037-0.55086 0.90647-0.42056 1.3904 0.1157 0.42969 0.17346 0.47544 0.74862 0.59298 0.32608 0.0666 0.46387 0.14398 0.54612 0.30655 0.14887 0.29423 0.13455 1.1022-0.02714 1.5312-0.35388 0.93896-0.22198 2.3485 0.29253 3.126 0.323 0.48808 1.2243 1.2107 1.972 1.581 1.2084 0.59845 1.7042 0.68316 5.2325 0.89403 3.4661 0.20716 3.4702 0.20794 4.0021 0.76348 0.46112 0.48161 0.84319 1.5621 0.55237 1.5621-0.04817 0-0.08759-0.1255-0.08759-0.2789zm5.2228 0.0818c-0.12873-0.48035-0.0219-3.7366 0.17125-5.2198 0.04301-0.33026 0.07332-0.37452 0.22868-0.33389 0.16641 0.0435 0.17555 0.0177 0.12904-0.36376-0.02753-0.22583-0.17246-1.8689-0.32206-3.6513-0.1496-1.7824-0.29174-3.3354-0.31586-3.4511-0.04278-0.20521-0.05343-0.20099-0.43298 0.17152l-0.38913 0.3819v-0.70297c0-0.64121-0.03865-0.79855-0.43994-1.7909-0.35678-0.88228-0.51755-1.1667-0.85051-1.5048-0.49186-0.49936-1.4928-1.0388-2.3906-1.2884-1.4416-0.40071-3.8312-0.40185-5.3923-3e-3 -1.251 0.31995-1.6515 0.58539-3.1143 2.0638-0.72986 0.73767-1.4078 1.353-1.5064 1.3675-0.09868 0.0144-0.33962 0.23626-0.53543 0.49293s-0.42523 0.50541-0.50983 0.55276c-0.21844 0.12224-0.49147 0.011-0.55053-0.22433l-0.05031-0.20047-0.32213 0.1686c-0.23869 0.12493-0.42987 0.15675-0.73808 0.12286-0.48448-0.0533-1.1616-0.33364-1.442-0.59702-0.27608-0.25936-0.4963-0.88279-0.43823-1.2406 0.02644-0.16294 0.36668-1.0255 0.75607-1.9168 0.3894-0.89126 0.708-1.7012 0.708-1.7999 0-0.27283-0.41084-0.70265-0.76514-0.80048-0.17999-0.0497-0.7152-0.0644-1.2438-0.0341-0.728 0.0417-1.0359 0.0217-1.4298-0.0928-0.5695-0.16556-1.0846-0.57061-1.2602-0.99103-0.25981-0.62181-0.17695-0.93261 0.76851-2.8827 0.48776-1.0061 0.90244-1.7873 0.9215-1.7361 0.01906 0.0512-0.3444 0.87891-0.80769 1.8393-0.80468 1.6681-0.8408 1.7679-0.80773 2.2318 0.01904 0.26706 0.09674 0.57426 0.17267 0.68267l0.13806 0.1971 0.17706-0.3001c0.10712-0.18155 0.31903-0.36273 0.53645-0.45866 0.31954-0.14098 0.35939-0.19168 0.35939-0.45723 0-0.16427 0.1167-0.64701 0.25934-1.0728 0.28707-0.85684 1.0978-2.5362 1.2244-2.5362 0.04443 0-0.14923 0.48282-0.43034 1.0729-0.57531 1.2077-0.87824 2.1099-0.87824 2.6156 0 0.31731-0.02524 0.35193-0.35198 0.48266-0.37555 0.15027-0.69905 0.48772-0.69905 0.7292 0 0.0815 0.14651 0.22275 0.32845 0.31664 0.28134 0.14518 0.52316 0.1704 1.686 0.17582l1.3576 6e-3 1.5766-0.46898c1.8194-0.54123 1.6337-0.54739 3.5569 0.118 0.60745 0.21017 1.2652 0.38213 1.4616 0.38213s0.60596 0.0571 0.91003 0.12699c0.93083 0.21382 4.1122 0.51323 8.3801 0.78868 1.8169 0.11727 2.1214 0.15698 2.0155 0.26286-0.02195 0.022-0.90548-0.0166-1.9634-0.0858-4.7791-0.31229-7.8518-0.6086-8.6322-0.8324-0.16336-0.0469-0.47786-0.0852-0.69891-0.0852-0.24583 0-0.77783-0.1341-1.37-0.34534-0.53245-0.18993-1.2144-0.40916-1.5154-0.48716l-0.54734-0.14183-1.3677 0.41122c-0.75225 0.22617-1.4002 0.4298-1.4399 0.45252-0.03967 0.0227 0.0098 0.0987 0.10998 0.16884 0.20163 0.14123 0.44386 0.55999 0.44386 0.76733 0 0.0735-0.33502 0.90068-0.74448 1.8382-0.79924 1.83-0.86803 2.1448-0.58435 2.6737 0.22222 0.41436 0.9257 0.79739 1.5722 0.856 0.4532 0.0411 0.53518 0.022 0.7763-0.18089 0.21885-0.18415 0.30796-0.37568 0.47347-1.0177 0.11214-0.43496 0.23591-0.79083 0.27505-0.79083 0.10674 0 0.08909 0.1719-0.11701 1.1398-0.2006 0.94208-0.1681 1.1191 0.18488 1.0071 0.10423-0.0331 0.3042-0.24654 0.44437-0.47436 0.14017-0.22781 0.35479-0.46768 0.47692-0.53304 0.14619-0.0782 0.25352-0.24083 0.31414-0.4759 0.15678-0.60791 0.17865-0.66361 0.26055-0.66361 0.0702 0 0.04154 0.37166-0.05234 0.67879-0.0799 0.26141 0.18125 0.0372 1.2843-1.1024 1.3196-1.3634 1.7028-1.605 3.1099-1.9601 0.67899-0.17138 1.0071-0.19665 2.5737-0.19824 1.457-1e-3 1.9194 0.0288 2.4524 0.16034 0.99711 0.24613 2.1846 0.8497 2.7397 1.3926 0.42112 0.4118 0.51741 0.58143 0.92348 1.6268 0.35428 0.91208 0.45333 1.2749 0.45333 1.6605v0.49338l0.39414-0.38682c0.31815-0.31224 0.39416-0.35375 0.39428-0.2153 7.6e-5 0.0943 0.15767 1.9648 0.35021 4.1567 0.19254 2.1918 0.35013 4.0208 0.35021 4.0644 7.5e-5 0.0436-0.07893 8e-3 -0.17557-0.0797-0.09664-0.0875-0.18986-0.14283-0.20715-0.12306-0.01729 0.0198-0.08066 0.65918-0.14082 1.4209-0.1238 1.5676-0.15323 3.6843-0.05533 3.9797 0.0371 0.11198 0.02934 0.19707-0.01797 0.19707-0.0458 0-0.10704-0.0887-0.13609-0.19707z" fill="#6f6f6f"/>
<path d="m-72.712 161.44c0-0.57129-0.56718-1.4027-1.1123-1.6305-0.15562-0.065-0.66862-0.13841-1.14-0.16308-4.0352-0.21118-5.4496-0.32682-6.0684-0.49616-1.8333-0.50168-3.3285-1.6014-3.7723-2.7746-0.25856-0.68361-0.2612-1.7678-0.0063-2.584 0.20953-0.67087 0.23136-0.9808 0.09446-1.3409-0.11753-0.30912-0.1944-0.35464-0.7213-0.42711-0.38103-0.0524-0.44226-0.0916-0.5516-0.35332-0.15644-0.37441-0.15733-0.92413-0.0021-1.2956 0.15126-0.36201 0.70866-0.91611 1.0806-1.0742 0.63691-0.27071 1.7314-0.0761 1.9765 0.35145 0.09301 0.16221 0.11198 0.10825 0.15025-0.42745 0.04003-0.56046 0.06134-0.61559 0.24808-0.64204 0.26254-0.0372 0.47563 0.15942 0.67495 0.62274 0.08746 0.2033 0.33778 0.55686 0.55625 0.78568 0.36158 0.3787 0.43346 0.41603 0.80096 0.41603 0.43228 0 1.2232-0.22967 1.2232-0.3552 0-0.0418-0.16751-0.11738-0.37224-0.16799-0.85273-0.21078-1.0341-0.28058-1.2911-0.49681-0.25276-0.21269-0.52632-0.62782-0.52632-0.79871 0-0.18092 1.086-1.3424 1.676-1.7926 1.743-1.3297 3.8254-1.9942 6.2492-1.9942 1.0621 0 1.0629 1.7e-4 1.583 0.31189 0.6746 0.40435 1.2067 0.92855 1.4043 1.3834 0.08669 0.19962 0.36176 0.58148 0.61126 0.84857 0.77273 0.82725 1.0886 1.6825 1.0886 2.9473 0 0.6519-0.0264 0.76767-0.26259 1.1515-0.68435 1.1122-1.4051 3.12-1.3996 3.8991 0.0022 0.3109 0.29629 1.0195 0.42316 1.0195 0.16957 0 0.27561-0.57791 0.27561-1.502 0-0.8829 0.01209-0.95038 0.17029-0.95038 0.27329 0 0.62042 0.36499 0.70807 0.74448 0.2624 1.1362-0.1088 3.9614-0.68328 5.2006-0.1847 0.39841-0.2106 0.55372-0.16815 1.0083 0.0276 0.29555 0.07646 0.60585 0.10858 0.68956 0.03212 0.0837 0.0197 0.15219-0.02761 0.15219-0.11685 0-0.19556-0.43713-0.19516-1.0839 2.62e-4 -0.38649 0.0506-0.61892 0.18016-0.83143 0.23655-0.38801 0.57459-1.907 0.70693-3.1766 0.11866-1.1384 0.02404-2.0717-0.23955-2.363-0.29565-0.32669-0.35818-0.20756-0.40745 0.77637-0.05434 1.085-0.15377 1.4233-0.41834 1.4233-0.23548 0-0.55516-0.6943-0.53669-1.1656 0.0347-0.88571 0.58096-2.4787 1.2631-3.6835l0.43959-0.77639-0.05103-0.75636c-0.0798-1.1827-0.45078-2.06-1.1532-2.727-0.17754-0.16861-0.4203-0.5116-0.53945-0.76221-0.25867-0.54404-0.90684-1.1528-1.5759-1.4802-0.47103-0.23046-0.50832-0.2346-1.6372-0.18211-2.4656 0.11465-4.3022 0.75247-5.96 2.0699-0.73178 0.58152-1.4575 1.4214-1.4575 1.6867 0 0.28481 0.61008 0.8275 1.0542 0.93775 0.95578 0.23727 1.0479 0.27587 1.0479 0.4393 0 0.2088-0.57624 0.44695-1.2262 0.50676l-0.48172 0.0443-0.50362-0.5288c-0.27699-0.29084-0.50362-0.5817-0.50362-0.64635 0-0.1889-0.43227-0.77132-0.57247-0.77132-0.10402 0-0.12822 0.16529-0.12822 0.87586 0 0.48173-0.02956 0.87443-0.06569 0.87269-0.03613-2e-3 -0.14452-0.1672-0.24086-0.36769-0.21474-0.44684-0.51945-0.67841-0.97271-0.7392-1.0968-0.14711-2.2826 0.96128-2.0955 1.9586 0.1032 0.55013 0.17781 0.62231 0.71222 0.68908 0.4512 0.0564 0.50115 0.0852 0.61342 0.35387 0.17188 0.41137 0.15219 0.91672-0.06337 1.6264-0.26318 0.86645-0.2103 1.945 0.12938 2.6393 0.45981 0.93981 1.7334 1.8725 3.2093 2.3504 0.80075 0.25928 0.94909 0.27607 3.9414 0.44619 1.7101 0.0972 3.2593 0.21342 3.4427 0.25822 0.44019 0.10752 0.96078 0.58933 1.2381 1.1459 0.22661 0.45474 0.29706 0.94058 0.13639 0.94058-0.04817 0-0.08759-0.1195-0.08759-0.26557zm5.2223-8e-3c-0.13697-0.68484 0.06656-5.1197 0.24847-5.414 0.03567-0.0577 0.12516-0.0818 0.19887-0.0535 0.11427 0.0438 0.12625-0.023 0.08132-0.45386-0.02898-0.2779-0.17559-1.9636-0.32578-3.746-0.1502-1.7824-0.29064-3.2967-0.31211-3.3651-0.02795-0.0891-0.13245-0.0331-0.3682 0.19707-0.18105 0.17679-0.35708 0.32144-0.39118 0.32144-0.0341 0-0.062-0.28915-0.062-0.64255 0-0.55698-0.05432-0.78149-0.40791-1.686-0.46639-1.1931-0.59616-1.3877-1.2564-1.8838-0.64186-0.48228-0.98849-0.6498-1.8778-0.90751-1.7-0.49265-4.0096-0.49087-5.7187 4e-3 -1.1811 0.34226-1.4964 0.55944-2.9418 2.026-0.72414 0.73478-1.3346 1.318-1.3565 1.2961-0.08968-0.0897-0.38577 0.16181-0.71463 0.60696-0.19198 0.25988-0.43165 0.49872-0.5326 0.53076-0.23168 0.0735-0.54869-0.19377-0.49108-0.41407 0.03833-0.14658 0.02555-0.14586-0.19464 0.0109-0.36056 0.25674-0.80591 0.30633-1.3446 0.14973-0.65666-0.19089-1.0402-0.47041-1.2775-0.93104-0.28895-0.56083-0.22439-0.85643 0.59369-2.7181 0.38711-0.88095 0.70296-1.7036 0.70189-1.8282-0.0011-0.12455-0.07004-0.31052-0.15328-0.41327-0.29796-0.36784-0.52628-0.41884-1.9031-0.42508-1.7142-8e-3 -2.2029-0.20603-2.5934-1.0522-0.30895-0.6694-0.2472-0.91457 0.72873-2.8935 0.49185-0.99732 0.90738-1.774 0.9234-1.7259 0.01602 0.0481-0.36975 0.88995-0.85726 1.8708-0.83961 1.6893-0.88328 1.8042-0.82734 2.1772 0.05484 0.36568 0.25825 0.87783 0.34865 0.87783 0.02161 0 0.10113-0.11958 0.17671-0.26573 0.08048-0.15563 0.29471-0.34216 0.51702-0.45017 0.35183-0.17093 0.38316-0.21449 0.42828-0.59549 0.02678-0.22609 0.1327-0.66399 0.23538-0.97311 0.25284-0.76117 1.1063-2.5327 1.2202-2.5327 0.05047 0-0.10418 0.3899-0.34368 0.86643-0.4761 0.94732-0.91654 2.1819-1.0111 2.8341-0.04709 0.32482-0.09588 0.41603-0.2225 0.41603-0.2446 0-0.78138 0.51081-0.78138 0.74358 0 0.1436 0.09253 0.2459 0.32845 0.36317 0.27347 0.13593 0.5557 0.1655 1.686 0.1767l1.3576 0.0134 3.2081-0.95254 0.67318 0.18789c0.37025 0.10335 1.0825 0.34118 1.5828 0.52852 0.56702 0.21233 1.0619 0.34123 1.3138 0.34224 0.22229 8.8e-4 0.72755 0.0588 1.1228 0.12874 0.94117 0.16648 3.871 0.43424 7.2509 0.66269 1.4929 0.1009 2.7312 0.20022 2.7517 0.22072 0.0921 0.0921-0.10774 0.0968-1.1743 0.0276-4.7017-0.30517-8.0804-0.61111-9.1016-0.82415-0.34127-0.0712-0.79786-0.12967-1.0146-0.12995-0.2342-2.9e-4 -0.72837-0.12495-1.2178-0.3072-0.45301-0.16869-1.1328-0.39144-1.5107-0.495l-0.68708-0.1883-1.4234 0.42353c-0.78287 0.23293-1.4344 0.43076-1.4479 0.43961-0.01346 9e-3 0.09203 0.14081 0.23442 0.29324 0.45581 0.48794 0.44026 0.58778-0.38242 2.4559-0.83789 1.9027-0.91111 2.277-0.55012 2.8127 0.38338 0.56886 1.5582 0.94943 2.1606 0.6999 0.29546-0.12239 0.45765-0.42281 0.6636-1.2292 0.07997-0.31312 0.18176-0.60676 0.2262-0.65252 0.11404-0.11744 0.10648-0.0451-0.10746 1.0291-0.2002 1.0052-0.16997 1.1823 0.18272 1.0703 0.103-0.0327 0.28158-0.20883 0.39685-0.39143 0.11527-0.18259 0.34683-0.44551 0.51459-0.58426 0.21689-0.17938 0.32312-0.35349 0.36768-0.60261 0.10405-0.58172 0.23263-0.67519 0.18073-0.13138l-0.04597 0.48172 1.2174-1.2439c1.5402-1.5738 2.0629-1.8618 3.9525-2.1778 1.2026-0.20108 3.3908-0.1371 4.4138 0.12905 1.0125 0.2634 2.0348 0.79363 2.5971 1.347 0.42467 0.41794 0.51912 0.58525 0.93038 1.6482 0.34944 0.90316 0.45773 1.295 0.45773 1.6562v0.47318l0.75191-0.73794 0.35975 4.1388c0.19786 2.2764 0.34494 4.1543 0.32685 4.1732-0.01809 0.0189-0.09392-0.0163-0.16851-0.0782s-0.14974-0.0971-0.16702-0.0782c-0.04618 0.0505-0.21313 2.1374-0.27603 3.4502-0.03 0.62624-0.01753 1.3652 0.02771 1.6422 0.08474 0.51874-0.0015 0.71856-0.09923 0.22992z" fill="#4f4f4f"/>
<path d="m-72.616 161.53c-0.03084-0.55882-0.63003-1.4356-1.1767-1.7218-0.13686-0.0717-0.531-0.1454-0.87586-0.16387-5.7155-0.30623-5.6514-0.30033-6.6705-0.61437-1.1452-0.35289-1.8748-0.76639-2.6167-1.4829-0.75044-0.7248-0.95174-1.1783-0.99999-2.2528-0.03104-0.69105-0.0037-0.96266 0.14703-1.4588 0.20674-0.68065 0.22954-1.0236 0.0921-1.3851-0.11707-0.30793-0.19504-0.35473-0.70858-0.42536-0.39372-0.0541-0.42374-0.0778-0.56311-0.44269-0.29093-0.76178-0.04962-1.413 0.76914-2.0757 0.24186-0.19575 0.4337-0.26453 0.84082-0.30145 0.6688-0.0606 0.90384 2.6e-4 1.2818 0.33215l0.30403 0.26694 0.02602-0.59666c0.02504-0.57403 0.0349-0.59768 0.26021-0.62372 0.18756-0.0217 0.27912 0.0391 0.45983 0.30498 0.1241 0.18263 0.22564 0.38439 0.22564 0.44835 0 0.064 0.20279 0.33071 0.45064 0.59277 0.43605 0.46106 0.46576 0.47648 0.91788 0.47648 0.46071 0 1.1715-0.21421 1.1715-0.35306 0-0.0804-0.41177-0.21894-0.88742-0.29849-0.43432-0.0726-1.0256-0.51999-1.182-0.89433-0.12888-0.30846-0.12857-0.30939 0.27294-0.80474 1.6883-2.0829 4.4245-3.2549 7.5991-3.2549 0.98542 0 1.0009 3e-3 1.516 0.31203 0.67175 0.40282 1.1153 0.83788 1.3686 1.3424 0.11152 0.2221 0.40251 0.62059 0.64666 0.88554 0.74985 0.81373 1.0889 1.7585 1.0889 3.0344 0 0.50987-0.03819 0.71459-0.16706 0.89558-0.34678 0.48701-0.97389 1.8558-1.1936 2.6052-0.33251 1.1342-0.36346 1.5808-0.14394 2.0771 0.33728 0.76248 0.53076 0.42429 0.60525-1.058 0.05336-1.0618 0.08944-1.1216 0.48756-0.80842 0.32371 0.25464 0.44713 0.94622 0.38263 2.1441-0.06275 1.1654-0.42288 2.9648-0.7184 3.5895-0.22665 0.4791-0.26997 0.97684-0.13544 1.5562 0.04195 0.18065 0.04617 0.32845 0.0094 0.32845-0.08779 0-0.17523-0.54424-0.17644-1.0982-6.13e-4 -0.27549 0.06655-0.57168 0.17872-0.78828 0.34662-0.66932 0.7792-2.8812 0.7822-3.9994 0.0023-0.86548-0.14262-1.4342-0.42155-1.6542l-0.23377-0.18432-0.0524 0.90834c-0.06154 1.0667-0.19654 1.5608-0.42647 1.5608-0.21018 0-0.52837-0.67933-0.52837-1.1281 0-0.85266 0.69354-2.8151 1.4015-3.9657 0.22407-0.36416 0.2624-0.51329 0.2613-1.0166-0.0026-1.1984-0.39624-2.2349-1.1358-2.9909-0.21616-0.22096-0.4765-0.57911-0.57853-0.79589-0.22733-0.48299-0.91156-1.1343-1.5105-1.4378-0.39545-0.20039-0.55141-0.22634-1.3605-0.22634-2.0541 0-4.1697 0.59883-5.6609 1.6023-1.0819 0.72803-2.2136 1.9221-2.1288 2.2462 0.07267 0.27788 0.67952 0.77362 1.0724 0.87601 0.19568 0.051 0.51589 0.13446 0.71157 0.18546 0.72644 0.18934 0.20732 0.618-0.82365 0.68012l-0.59925 0.0361-0.39188-0.38258c-0.21553-0.21042-0.47175-0.56699-0.56936-0.79237-0.21175-0.4889-0.45007-0.7274-0.65014-0.65063-0.12459 0.0478-0.13991 0.17276-0.1087 0.88648 0.03574 0.81715-0.03349 1.0846-0.14699 0.56779-0.07898-0.3596-0.51118-0.76916-0.88585-0.83945-1.3825-0.25936-2.6881 1.0814-2.1972 2.2563 0.11975 0.28659 0.17263 0.32199 0.56082 0.37538 0.5269 0.0725 0.60378 0.11799 0.7213 0.42711 0.13991 0.36799 0.11283 0.84937-0.08211 1.4596-0.24374 0.76299-0.23828 1.8377 0.01279 2.5148 0.26009 0.70144 1.1753 1.6022 2.1331 2.0994 1.2892 0.66924 1.8971 0.78134 5.1238 0.94489 3.5394 0.17941 3.6687 0.20205 4.1957 0.73452 0.41361 0.4179 0.76186 1.1704 0.68274 1.4754-0.02936 0.11318-0.04429 0.0959-0.05297-0.0614zm5.128-0.15328c-0.12263-0.74188 0.08043-5.0897 0.25056-5.365 0.02705-0.0438 0.10704-0.0574 0.17776-0.0302 0.07071 0.0271 0.12943 0.0156 0.13048-0.0257 0.0054-0.21341-0.6469-7.6132-0.67398-7.6456-0.0175-0.021-0.18876 0.11513-0.38056 0.30243l-0.34874 0.34053v-0.55826c0-0.46403-0.07761-0.75899-0.45983-1.7476-0.41107-1.0632-0.50842-1.2368-0.91811-1.6364-0.52009-0.50734-1.4493-1.0093-2.3296-1.2584-1.987-0.56234-4.966-0.3907-6.588 0.37956-0.56205 0.26691-0.80109 0.46903-1.9714 1.6669-0.7325 0.74973-1.3693 1.34-1.4151 1.3117-0.10454-0.0646-0.56897 0.37047-0.73524 0.68877-0.06877 0.13166-0.24195 0.29984-0.38484 0.37372-0.24177 0.12503-0.27191 0.12223-0.43446-0.0403-0.09635-0.0964-0.15172-0.23446-0.12349-0.30803 0.06571-0.17124-0.0884-0.17299-0.2298-3e-3 -0.46972 0.56598-2.176 0.12351-2.596-0.67317-0.29682-0.56309-0.2037-1.0131 0.57269-2.7676 0.38992-0.88111 0.70895-1.7226 0.70895-1.8698 0-0.33958-0.37835-0.70886-0.84412-0.82388-0.21092-0.0521-0.57907-0.0532-0.97776-3e-3 -0.88095 0.11098-1.7736-0.0327-2.24-0.36053-0.44959-0.31599-0.65993-0.67905-0.72842-1.2574-0.05325-0.44962-0.03509-0.49819 0.85355-2.2819 0.49938-1.0024 0.92209-1.8084 0.93937-1.7911 0.01727 0.0173-0.36542 0.84941-0.85042 1.8492-0.54543 1.1243-0.8811 1.9212-0.87991 2.0888 0.0023 0.31797 0.2988 1.0155 0.43172 1.0155 0.05053 0 0.09187-0.0517 0.09187-0.11499 0-0.15554 0.42856-0.55448 0.70971-0.66065 0.18606-0.0703 0.23817-0.16034 0.28332-0.48977 0.03043-0.22201 0.15692-0.70801 0.28108-1.08 0.25093-0.75173 1.0663-2.4718 1.1717-2.4718 0.03714 0-0.14427 0.42249-0.40312 0.93887-0.49418 0.98584-0.84441 1.9731-0.94976 2.6772-0.05484 0.36658-0.09893 0.43435-0.35117 0.53974-0.6598 0.27568-0.86641 0.80989-0.40543 1.0483 0.44184 0.22849 1.3123 0.33153 2.0388 0.24133 0.36695-0.0456 0.763-0.0645 0.8801-0.0421 0.1171 0.0224 0.93423-0.17674 1.8158-0.4425l1.6029-0.4832 0.71843 0.2082c0.39514 0.1145 1.0514 0.33281 1.4584 0.48513s1.0355 0.30893 1.3968 0.34802c0.36129 0.0391 1.0904 0.13281 1.6203 0.20828 1.3397 0.19079 3.3038 0.36564 6.4814 0.57697 2.9491 0.19614 3.3413 0.23505 2.54 0.25202-1.1347 0.024-7.6528-0.50424-9.1966-0.74534-0.48172-0.0752-1.1123-0.15629-1.4014-0.18011-0.29806-0.0246-1.1376-0.24791-1.9397-0.51602-0.77779-0.25998-1.51-0.4727-1.6272-0.4727-0.18868 0-2.8647 0.76052-2.9471 0.83756-0.01791 0.0167 0.08551 0.14852 0.22983 0.29284 0.45197 0.45197 0.43193 0.5807-0.38004 2.4409-0.82858 1.8982-0.90218 2.2844-0.53972 2.8315 0.45856 0.69218 1.8671 1.0342 2.3637 0.57397 0.20166-0.18689 0.42116-0.75651 0.56105-1.4559 0.02922-0.14608 0.08836-0.2656 0.13142-0.2656 0.04307 0 0.05773 0.0887 0.03258 0.19707-0.15431 0.66502-0.30795 1.5091-0.30795 1.6918 0 0.16834 0.04552 0.21324 0.2162 0.21324 0.16079 0 0.3083-0.12467 0.57557-0.48645 0.19765-0.26755 0.45508-0.53006 0.57207-0.58337 0.12157-0.0554 0.21559-0.17533 0.21944-0.27993 0.0037-0.10065 0.06194-0.34066 0.12941-0.53335l0.12268-0.35035-0.0443 0.48173-0.0443 0.48172 1.2373-1.249c1.0514-1.0613 1.3314-1.2939 1.8637-1.5483 1.1867-0.56709 2.6467-0.80015 4.524-0.72219 2.1483 0.0892 3.6383 0.63342 4.6839 1.7108 0.4744 0.4888 1.2615 2.452 1.2677 3.1621l0.0042 0.4776 0.34874-0.34053c0.19181-0.1873 0.36221-0.32339 0.37868-0.30243 0.01647 0.0209 0.17643 1.792 0.35547 3.9357 0.17904 2.1437 0.34482 3.988 0.3684 4.0984 0.04127 0.19327 0.035 0.19564-0.1671 0.0632l-0.20998-0.13758-0.05275 0.50609c-0.15475 1.4847-0.25152 3.4952-0.2065 4.2901 0.05328 0.94093 0.03406 1.1308-0.05807 0.57338z" fill="#2f2f2f"/>
<path d="m-72.913 160.73c-0.25671-0.52803-0.56902-0.8122-1.1019-1.0026-0.21872-0.0782-0.25874-0.11434-0.12945-0.11699 0.33176-7e-3 1.0058 0.5323 1.2803 1.024 0.14078 0.25219 0.24263 0.49055 0.22634 0.52968-0.01629 0.0391-0.14016-0.1562-0.27525-0.43407zm5.4034-0.64174c1.75e-4 -0.62624 0.0141-0.87094 0.031-0.54377 0.0169 0.32716 0.01677 0.83954-2.62e-4 1.1386-0.01705 0.29907-0.03088 0.0314-0.03072-0.59485zm-8.3786-0.54494c0.15549-0.0194 0.43138-0.0197 0.6131-7e-4 0.18172 0.019 0.0545 0.0348-0.2827 0.0352-0.33721 3.5e-4 -0.48589-0.0151-0.3304-0.0345zm-1.4432-0.0882c0.18065-0.0189 0.47625-0.0189 0.6569 0 0.18065 0.0189 0.03284 0.0344-0.32845 0.0344-0.36129 0-0.5091-0.0155-0.32845-0.0344zm-1.4471-0.087c0.15549-0.0194 0.43138-0.0197 0.6131-7e-4 0.18172 0.019 0.05451 0.0348-0.2827 0.0352-0.33721 3.5e-4 -0.48589-0.0151-0.3304-0.0345zm-1.3994-0.0877c0.15656-0.0194 0.41275-0.0194 0.56931 0 0.15656 0.0194 0.02847 0.0353-0.28466 0.0353-0.31312 0-0.44122-0.0159-0.28466-0.0353zm-1.8174-0.46646c-0.36129-0.14322-0.75543-0.34268-0.87586-0.44325-0.21299-0.17787-0.2101-0.17771 0.10576 6e-3 0.1786 0.10377 0.63186 0.30282 1.0072 0.44233 0.37538 0.13951 0.62339 0.25407 0.55113 0.25458-0.07226 5.3e-4 -0.42698-0.11625-0.78828-0.25947zm-1.6759-1.0248c-0.59168-0.52528-0.74795-0.70182-0.91093-1.0291-0.07196-0.14451-0.08134-0.18393-0.02084-0.0876 0.0605 0.0963 0.4161 0.48063 0.79021 0.85396 0.37411 0.37334 0.66445 0.67879 0.6452 0.67879-0.01925 0-0.24589-0.18721-0.50363-0.41603zm14.757-1.9926c-2.63e-4 -0.43355 0.01454-0.62195 0.03291-0.41867s0.01859 0.558 5.26e-4 0.78827c-0.0181 0.23028-0.03313 0.064-0.0334-0.3696zm-1.4334 0.37225c-0.09546-0.15656-0.17196-0.32407-0.17002-0.37225 2e-3 -0.0482 0.08157 0.0602 0.17694 0.24087 0.19866 0.3763 0.31631 0.41231 0.42924 0.13138 0.04859-0.12089 0.08136-0.14459 0.08476-0.0613 0.0059 0.14342-0.15572 0.34596-0.27601 0.34596-0.03925 0-0.14946-0.12809-0.24491-0.28465zm3.3292-0.0657c-0.07917-0.0512-0.08988-0.0854-0.02693-0.0863 0.05893-7.9e-4 0.11906-0.16358 0.13797-0.37358 0.03205-0.35588 0.0342-0.35203 0.04883 0.0876 0.0084 0.25291 0.0054 0.45923-0.0066 0.45849-0.01204-7e-4 -0.08102-0.0396-0.15328-0.0862zm-2.0026-1.2977c-0.01441-0.24511-0.16587-0.5442-0.35468-0.70043-0.11474-0.0949-0.1162-0.10898-0.0084-0.0806 0.19248 0.0508 0.45752 0.55349 0.41332 0.78399l-0.03832 0.19983-0.01193-0.20283zm-1.3213-0.77794c-0.01033-0.24771 0.56001-1.6298 0.9357-2.2675 0.37395-0.63471 0.41303-0.75592 0.46353-1.4376l0.05515-0.74449 0.0151 0.68924c0.01404 0.64059-0.0058 0.72403-0.28105 1.1824-0.4433 0.73822-0.58136 1.0299-0.89663 1.8946-0.15809 0.43355-0.2894 0.74107-0.2918 0.68337zm-15.682-3.4998c0-0.31559 0.98343-1.2627 1.2987-1.2508 0.09976 4e-3 0.08069 0.0319-0.05978 0.0882-0.384 0.1538-0.73322 0.45696-0.98658 0.85646-0.13879 0.21885-0.25234 0.35661-0.25234 0.30613zm4.6692-0.40234c-0.19781-0.20473-0.45913-0.57179-0.58072-0.81568-0.26178-0.52508-0.43924-0.69232-0.64965-0.61221-0.1167 0.0444-0.12982 0.034-0.05373-0.0427 0.19221-0.19376 0.44971 9e-3 0.75988 0.59767 0.17041 0.32354 0.44729 0.72098 0.61529 0.88319 0.29792 0.28767 0.32022 0.29394 0.90378 0.25432 0.32908-0.0223 0.67715-0.067 0.77349-0.0992 0.09634-0.0322 0.05693-6.1e-4 -0.08759 0.0702-0.14452 0.0708-0.50089 0.13053-0.79194 0.1327-0.50979 4e-3 -0.54236-0.01-0.88882-0.36829zm-1.4154 0.17082c-0.02425-0.29124-0.28215-0.68083-0.56479-0.85316-0.15422-0.094-0.22804-0.17112-0.16404-0.1713 0.064-1.8e-4 0.27386 0.15406 0.46635 0.34275 0.28117 0.27561 0.34267 0.39186 0.3128 0.5912-0.02045 0.13648-0.04309 0.1772-0.05031 0.0905zm13.708-1.1124c-0.10447-0.55215-0.56786-1.394-1.0114-1.8376-0.239-0.239-0.46266-0.52436-0.49704-0.63415-0.12674-0.40476-0.56582-0.92371-1.0617-1.2548-0.66631-0.44489-0.77764-0.55337-0.30077-0.29304 0.5896 0.32186 1.0851 0.80046 1.3164 1.2714 0.11534 0.23493 0.39672 0.62747 0.62527 0.87231 0.55112 0.5904 1.1292 1.7612 1.0239 2.0737-0.02014 0.0598-0.06273-0.0292-0.09463-0.19783zm0.73026-0.80667c0-0.31921-0.02343-0.65258-0.05205-0.74083-0.04329-0.13343-0.03615-0.13832 0.04245-0.0291 0.05198 0.0723 0.09511 0.34631 0.09585 0.60899l0.0013 0.4776 0.35034-0.3421c0.19269-0.18816 0.35034-0.3029 0.35034-0.25498 0 0.0479-0.17736 0.26119-0.39414 0.47394l-0.39414 0.38682zm-12.814-0.20058c0.55878-0.72333 1.6919-1.6981 2.3912-2.0572 0.33437-0.17166 0.1958-0.0615-0.54214 0.43093-0.37044 0.2472-0.99892 0.79306-1.3966 1.213-0.39771 0.41996-0.60132 0.60591-0.45246 0.41322zm-2.053-0.0512c0.08473-0.0493 0.31042-0.30137 0.50153-0.56008 0.19112-0.2587 0.42052-0.49355 0.50978-0.52188 0.11127-0.0353 0.20698-0.22325 0.30444-0.59778l0.14215-0.54626-0.04838 0.48173-0.04838 0.48172 1.2581-1.2426c1.082-1.0686 1.3499-1.2857 1.9138-1.5505 0.3606-0.16934 0.77388-0.32994 0.9184-0.3569 0.14452-0.027 0.0563 0.0277-0.19605 0.12155-1.0359 0.38508-1.4579 0.69018-2.6785 1.9365-0.67674 0.69097-1.3243 1.2737-1.4944 1.3448-0.19615 0.082-0.38224 0.26545-0.53699 0.52952-0.13025 0.22225-0.30878 0.44261-0.39674 0.48968-0.21258 0.11377-0.34583 0.10531-0.14877-9e-3zm-2.4404-0.29001c-0.41919-0.19519-0.91052-0.61679-0.91052-0.78129 0-0.0403 0.10349 0.0497 0.22998 0.20001 0.25819 0.30684 0.74277 0.57972 1.2357 0.69586 0.24702 0.0582 0.27484 0.0797 0.11084 0.0856-0.12043 4e-3 -0.42014-0.0857-0.66603-0.20022zm1.33 0.11571c0.39996-0.11613 0.54966-0.33467 0.75299-1.0992 0.26781-1.007 0.33889-0.97099 0.13192 0.0669-0.09867 0.49477-0.19542 0.85154-0.215 0.79281-0.0236-0.0708-0.12378-0.0326-0.29734 0.11347-0.14396 0.12113-0.34741 0.21669-0.4521 0.21235-0.14571-6e-3 -0.12706-0.0263 0.07953-0.0863zm15.328-1.7876c-0.27122-0.68525-0.40223-0.8966-0.74914-1.2085-0.45439-0.40854-1.2217-0.84894-1.9525-1.1206-0.25234-0.0938-0.34056-0.14873-0.19605-0.12205 0.51848 0.0957 1.667 0.71621 2.1588 1.1663 0.4212 0.38546 0.54213 0.57126 0.81417 1.251 0.17572 0.43904 0.30462 0.81314 0.28644 0.83132-0.01818 0.0182-0.18098-0.34065-0.36176-0.79742zm-17.535-0.39546c0.07166-0.26114 0.51782-1.2298 0.55112-1.1965 0.01876 0.0188-0.10567 0.32521-0.27653 0.68099-0.17085 0.35578-0.29442 0.58775-0.27459 0.51549zm12.473-0.94079c0.30296-0.0172 0.77593-0.017 1.051 3.5e-4 0.2751 0.0173 0.02722 0.0314-0.55085 0.0312-0.57807-1.7e-4 -0.80315-0.0144-0.50019-0.0315zm-1.1826-1.4888c0.27875-0.0174 0.7123-0.0173 0.96345 3.6e-4 0.25115 0.0176 0.02308 0.0319-0.50682 0.0317-0.5299-2e-4 -0.73538-0.0146-0.45663-0.032zm6.2573-0.69909c0.15549-0.0194 0.43138-0.0197 0.6131-7.1e-4 0.18172 0.019 0.0545 0.0348-0.2827 0.0352-0.33721 3.9e-4 -0.48589-0.0151-0.3304-0.0345zm-1.4014-0.0876c0.15549-0.0194 0.43138-0.0197 0.6131-7.1e-4 0.18172 0.019 0.05451 0.0348-0.2827 0.0352-0.33721 3.8e-4 -0.48589-0.0151-0.3304-0.0345zm-14.866-0.14394c0-0.2502-0.36865-0.58321-0.75266-0.67991-0.54807-0.138-0.53535-0.20701 0.03915-0.21241 0.272-3e-3 0.42557 0.0102 0.34127 0.0283-0.20134 0.0433-0.20207 0.0414 0.15328 0.39675 0.26185 0.26185 0.40736 0.58683 0.26276 0.58683-0.02409 0-0.04379-0.0538-0.04379-0.11957zm13.642 0.0562c0.15656-0.0194 0.41275-0.0194 0.56931 0 0.15656 0.0194 0.02846 0.0353-0.28466 0.0353-0.31312 0-0.44122-0.0159-0.28466-0.0353zm-1.3138-0.0876c0.15656-0.0194 0.41275-0.0194 0.56931 0 0.15656 0.0194 0.02846 0.0353-0.28466 0.0353-0.31312 0-0.44122-0.0159-0.28466-0.0353zm-6.343-0.6296c-0.3454-0.0283-0.64934-0.073-0.67543-0.0992-0.0689-0.0693 1.0812 6e-3 1.391 0.0911 0.29487 0.081 0.18742 0.0822-0.71558 8e-3zm-9.8081-0.30712c-0.44649-0.20789-0.90645-0.72192-0.90629-1.0128 3.8e-5 -0.0731 0.07864 0.0247 0.17467 0.2174 0.20622 0.41378 0.64081 0.73159 1.21 0.88482 0.26723 0.0719 0.33428 0.11237 0.19185 0.11566-0.12043 3e-3 -0.42202-0.0895-0.67019-0.20504zm-0.38052-0.53509c-8.91e-4 -0.24478 0.70999-0.84923 0.84269-0.71653 0.02115 0.0212-0.08571 0.0899-0.23746 0.15276-0.15176 0.0629-0.34994 0.23567-0.44041 0.38403-0.09047 0.14835-0.16463 0.22924-0.16481 0.17974zm-0.59806-0.96104c-0.0045-0.1944 0.06667-0.48679 0.1598-0.65689 0.09231-0.16861 0.16948-0.2744 0.1715-0.23511 2e-3 0.0393-0.04379 0.15754-0.10179 0.26276-0.05801 0.10522-0.13157 0.36867-0.16347 0.58545l-0.05801 0.39414zm1.9633-1.5328c0.06515-0.27072 1.0162-2.2895 1.0586-2.2471 0.01691 0.0169-0.18071 0.48015-0.43914 1.0294-0.25844 0.54928-0.5154 1.0972-0.57102 1.2177l-0.10113 0.21897zm-1.278-0.20571c0-0.0954 1.0478-2.1591 1.0962-2.1591 0.03918 0-0.97981 2.0933-1.0624 2.1824-0.0186 0.0201-0.03382 0.01-0.03382-0.0232z" fill="#070707"/>
</g>
</g>
</svg>
