<?xml version="1.0" encoding="UTF-8" standalone="no"?>
<!-- Created with Inkscape (http://www.inkscape.org/) -->

<svg
   xmlns:dc="http://purl.org/dc/elements/1.1/"
   xmlns:cc="http://creativecommons.org/ns#"
   xmlns:rdf="http://www.w3.org/1999/02/22-rdf-syntax-ns#"
   xmlns:svg="http://www.w3.org/2000/svg"
   xmlns="http://www.w3.org/2000/svg"
   xmlns:sodipodi="http://sodipodi.sourceforge.net/DTD/sodipodi-0.dtd"
   xmlns:inkscape="http://www.inkscape.org/namespaces/inkscape"
   width="25mm"
   height="25mm"
   viewBox="0 0 24.999999 24.999999"
   version="1.1"
   id="svg224"
   inkscape:version="0.92.1 r15371"
   sodipodi:docname="taplasance.svg">
  <defs
     id="defs218">
    <clipPath
       clipPathUnits="userSpaceOnUse"
       id="clipPath301">
      <rect
         style="fill:#000000;fill-opacity:1;stroke:none;stroke-width:4.86922407;stroke-linecap:round;stroke-linejoin:round;stroke-miterlimit:4;stroke-dasharray:none;stroke-opacity:1;paint-order:stroke fill markers"
         id="rect303"
         width="25.6"
         height="25.6"
         x="-90.085518"
         y="136.11401" />
    </clipPath>
  </defs>
  <sodipodi:namedview
     id="base"
     pagecolor="#ffffff"
     bordercolor="#666666"
     borderopacity="1.0"
     inkscape:pageopacity="0.0"
     inkscape:pageshadow="2"
     inkscape:zoom="3.959798"
     inkscape:cx="54.318213"
     inkscape:cy="47.247324"
     inkscape:document-units="mm"
     inkscape:current-layer="layer1"
     showgrid="false"
     fit-margin-top="0"
     fit-margin-left="0"
     fit-margin-right="0"
     fit-margin-bottom="0"
     inkscape:window-width="1206"
     inkscape:window-height="777"
     inkscape:window-x="66"
     inkscape:window-y="-8"
     inkscape:window-maximized="1" />
  <metadata
     id="metadata221">
    <rdf:RDF>
      <cc:Work
         rdf:about="">
        <dc:format>image/svg+xml</dc:format>
        <dc:type
           rdf:resource="http://purl.org/dc/dcmitype/StillImage" />
        <dc:title></dc:title>
      </cc:Work>
    </rdf:RDF>
  </metadata>
  <g
     inkscape:label="Layer 1"
     inkscape:groupmode="layer"
     id="layer1"
     transform="translate(91.482375,-136.8892)">
    <g
       id="g273"
       transform="matrix(0.97656261,0,0,0.97656261,-3.5082294,3.9653483)"
       clip-path="url(#clipPath301)">
      <path
         style="fill:#bdbdbd;stroke-width:0.0875862"
         d="m -72.713591,161.46764 c -0.005,-0.62157 -0.698985,-1.52372 -1.289122,-1.67572 -0.181115,-0.0466 -1.728489,-0.16428 -3.43861,-0.26141 -2.837831,-0.16117 -3.174312,-0.1969 -3.853793,-0.40919 -1.952899,-0.61014 -3.411698,-1.86605 -3.68332,-3.17103 -0.124564,-0.59846 -0.06124,-1.655 0.131927,-2.20125 0.163231,-0.46158 0.177346,-1.23747 0.02605,-1.43185 -0.06021,-0.0774 -0.33315,-0.18561 -0.60652,-0.24055 -0.486264,-0.0977 -0.500028,-0.10867 -0.635,-0.50479 -0.07588,-0.22269 -0.137743,-0.46685 -0.137474,-0.54257 0.0013,-0.3792 0.223795,-0.83419 0.619564,-1.26722 0.381454,-0.41737 0.502356,-0.4932 0.926995,-0.58135 0.672249,-0.13956 1.193767,-0.0461 1.565959,0.28072 l 0.302855,0.26591 v -0.52387 c 0,-0.95379 0.48736,-0.94508 0.968029,0.0173 0.379575,0.75998 0.821112,1.1891 1.223505,1.1891 0.382925,0 1.224329,-0.23883 1.224329,-0.34752 0,-0.0429 -0.22663,-0.12381 -0.503621,-0.17981 -0.89709,-0.18137 -1.597184,-0.74264 -1.598121,-1.28121 -4.38e-4,-0.22915 1.045562,-1.37074 1.758672,-1.91947 1.588654,-1.22244 3.721909,-1.89876 6.036173,-1.91367 1.154907,-0.007 1.19338,-0.002 1.653832,0.25346 0.645343,0.35742 1.279521,0.97356 1.48919,1.44684 0.09604,0.21678 0.317157,0.53209 0.491381,0.70069 0.805798,0.7798 1.193998,1.74658 1.213344,3.02173 l 0.01329,0.87586 -0.499411,0.89739 c -0.568466,1.02147 -0.873659,1.80958 -1.071309,2.76646 -0.12753,0.61741 -0.126403,0.69244 0.01616,1.07642 0.08429,0.22701 0.197644,0.42754 0.251904,0.44563 0.168012,0.056 0.230626,-0.24275 0.274603,-1.31021 0.03897,-0.94604 0.05614,-1.02914 0.212533,-1.02914 0.477231,0 0.728463,0.40549 0.820455,1.32423 0.106355,1.06219 -0.380002,3.98159 -0.769195,4.61715 -0.155883,0.25456 -0.173134,0.39235 -0.134329,1.07293 l 0.04452,0.78086 h -1.521763 -1.521762 l -0.0019,-0.24086 z m 5.227506,0.17517 c -0.117252,-0.1929 -0.147848,-1.55266 -0.06356,-2.82465 0.182353,-2.75184 0.191383,-2.82194 0.369477,-2.86852 0.114101,-0.0298 0.1616,-0.12367 0.1616,-0.31924 0,-0.28237 -0.478848,-5.93056 -0.57527,-6.78553 l -0.05303,-0.47018 -0.324545,0.3169 c -0.1785,0.1743 -0.352443,0.31691 -0.386542,0.31691 -0.0341,0 -0.062,-0.28317 -0.062,-0.62927 0,-0.53806 -0.0603,-0.7886 -0.416034,-1.72841 -0.372969,-0.98535 -0.466403,-1.14946 -0.902619,-1.58532 -0.565644,-0.56518 -1.462976,-1.04234 -2.496428,-1.32749 -0.607369,-0.16759 -0.923374,-0.19258 -2.491125,-0.19701 -1.589017,-0.004 -1.885769,0.0178 -2.580252,0.19393 -1.440117,0.36521 -1.849508,0.62765 -3.363887,2.15642 -0.740224,0.74726 -1.370845,1.35551 -1.401379,1.35167 -0.179893,-0.0226 -0.275968,0.0516 -0.499336,0.386 -0.136772,0.20473 -0.329348,0.44034 -0.427946,0.52357 -0.327182,0.27619 -0.74858,0.14885 -0.74858,-0.22621 0,-0.16539 -0.0059,-0.16585 -0.174285,-0.0135 -0.423678,0.38343 -1.638248,0.20588 -2.246803,-0.32844 -0.783079,-0.68755 -0.76081,-1.06812 0.188951,-3.22906 0.794453,-1.80758 0.82947,-1.98764 0.453973,-2.33437 -0.297895,-0.27507 -0.718672,-0.34455 -1.823285,-0.30106 -0.667634,0.0263 -1.134574,0.003 -1.357586,-0.0673 -0.858269,-0.27098 -1.353699,-0.87118 -1.378261,-1.66974 -0.011,-0.35756 0.104949,-0.65549 0.863158,-2.21796 0.759674,-1.56549 0.8991,-1.7994 1.051035,-1.76328 0.09634,0.0229 5.486181,0.0422 11.977414,0.0428 l 11.802241,0.001 v 12.83137 12.83138 h -1.527589 c -0.840174,0 -1.545557,-0.0296 -1.567518,-0.0657 z"
         id="path287"
         inkscape:connector-curvature="0" />
      <path
         style="fill:#b1b1b1;stroke-width:0.0875862"
         d="m -72.711668,161.48672 c 0,-0.28963 -0.212371,-0.79045 -0.488961,-1.15308 -0.421019,-0.55198 -0.488714,-0.56521 -3.996178,-0.78098 -3.382308,-0.20806 -3.928761,-0.29288 -5.032873,-0.78117 -1.155665,-0.51109 -2.340861,-1.60485 -2.626183,-2.42357 -0.217751,-0.62483 -0.215332,-1.86469 0.0049,-2.50951 0.180218,-0.52768 0.209071,-1.20889 0.06278,-1.48224 -0.0671,-0.12538 -0.247755,-0.21324 -0.580494,-0.28232 -0.406911,-0.0845 -0.506045,-0.14415 -0.628776,-0.3785 -0.486761,-0.92948 0.279081,-2.27526 1.430848,-2.51437 0.689998,-0.14324 1.353319,0.042 1.645831,0.45962 0.129699,0.18517 0.136696,0.16518 0.136696,-0.39056 0,-0.48874 0.02795,-0.60068 0.168827,-0.67607 0.232651,-0.12451 0.640396,0.2265 0.835044,0.71886 0.08101,0.20491 0.31033,0.54008 0.509601,0.74481 0.310381,0.31889 0.413953,0.37224 0.72261,0.37224 0.393448,0 1.179781,-0.23506 1.179781,-0.35267 0,-0.0826 -0.122013,-0.12597 -0.726274,-0.25841 -0.809409,-0.17741 -1.457021,-0.80509 -1.334466,-1.29339 0.09275,-0.36954 1.664126,-1.84791 2.480853,-2.33401 1.522618,-0.90623 3.308734,-1.37988 5.276281,-1.39919 l 1.185704,-0.0116 0.511653,0.30655 c 0.695737,0.41685 1.252778,0.97312 1.471776,1.46974 0.100257,0.22735 0.25873,0.46737 0.352162,0.53337 0.09343,0.066 0.343986,0.3565 0.556785,0.64557 0.508986,0.69141 0.766219,1.52923 0.773372,2.51891 l 0.0054,0.74448 -0.540682,1.00724 c -0.549107,1.02294 -0.899856,1.97647 -1.083158,2.94462 -0.09131,0.4823 -0.08351,0.57663 0.07792,0.94155 0.09867,0.22306 0.219174,0.40556 0.267791,0.40556 0.156762,0 0.270811,-0.63511 0.271312,-1.51086 4.38e-4,-0.82789 0.0065,-0.85388 0.197557,-0.85118 0.427744,0.006 0.700615,0.45199 0.802186,1.311 0.11479,0.97081 -0.295545,3.5741 -0.70408,4.4669 -0.222891,0.4871 -0.290821,1.25823 -0.157598,1.78903 0.03485,0.13887 0.01994,0.22545 -0.03883,0.22545 -0.133735,0 -0.221344,-0.3903 -0.226088,-1.00724 -0.003,-0.38567 0.05803,-0.66536 0.229221,-1.05103 0.404509,-0.91132 0.638055,-2.27427 0.640475,-3.73774 0.0019,-1.16324 -0.01502,-1.30831 -0.178377,-1.52724 -0.332501,-0.44561 -0.388812,-0.37475 -0.388812,0.48924 0,1.68482 -0.41535,2.1946 -0.865237,1.06195 l -0.205823,-0.51818 0.193724,-0.90574 c 0.224014,-1.04735 0.63978,-2.13208 1.13982,-2.97377 0.329856,-0.55523 0.350492,-0.63077 0.348478,-1.27556 -0.0038,-1.22969 -0.344294,-2.1196 -1.101268,-2.87861 -0.245582,-0.24624 -0.473547,-0.55542 -0.506589,-0.68707 -0.08383,-0.33402 -0.701751,-0.98299 -1.315823,-1.38195 l -0.517199,-0.33602 -1.103146,2.6e-4 c -3.024316,7.9e-4 -5.553038,1.07028 -7.309533,3.09153 l -0.441472,0.50802 0.151683,0.28026 c 0.193497,0.35752 0.639367,0.64766 1.172589,0.76305 0.644998,0.13957 0.911823,0.26873 0.882641,0.42727 -0.0411,0.22329 -0.67642,0.48123 -1.282063,0.52051 l -0.555425,0.036 -0.424988,-0.4186 c -0.233743,-0.23023 -0.473503,-0.54051 -0.532798,-0.68951 -0.160325,-0.40285 -0.422853,-0.75261 -0.564915,-0.75261 -0.100468,0 -0.125415,0.17422 -0.125415,0.87586 0,0.48172 -0.03406,0.87586 -0.07569,0.87586 -0.04163,0 -0.144696,-0.1807 -0.229041,-0.40155 -0.219476,-0.57469 -0.540709,-0.75443 -1.282532,-0.71761 -0.701559,0.0348 -1.191079,0.32753 -1.538121,0.91972 -0.188568,0.32176 -0.217525,0.45976 -0.183237,0.87323 0.04776,0.5759 0.158866,0.68752 0.767735,0.77126 0.365794,0.0503 0.438623,0.0948 0.534504,0.32624 0.164613,0.39741 0.145115,1.00828 -0.05109,1.60078 -0.226494,0.68395 -0.23333,1.75363 -0.01524,2.38412 0.275194,0.79555 1.403867,1.84041 2.522383,2.33507 1.094866,0.48421 1.618999,0.56577 4.849291,0.75462 1.686035,0.0986 3.213973,0.21957 3.395418,0.26889 0.448085,0.12181 0.882825,0.52381 1.153175,1.06633 0.225014,0.45154 0.302102,1.02993 0.13727,1.02993 -0.04817,0 -0.08759,-0.0998 -0.08759,-0.22178 z m 5.202937,0.0247 c -0.09309,-0.28646 -0.06689,-2.44821 0.04751,-3.91948 0.125664,-1.61618 0.142646,-1.69431 0.356139,-1.63848 0.150676,0.0394 0.163778,0.006 0.125128,-0.31927 -0.02374,-0.19981 -0.16047,-1.74277 -0.303838,-3.4288 -0.143369,-1.68603 -0.284545,-3.25676 -0.313724,-3.49051 l -0.05306,-0.425 -0.384686,0.37754 -0.384687,0.37755 v -0.6737 c 0,-0.60228 -0.04668,-0.79223 -0.440367,-1.79186 -0.395215,-1.00351 -0.48928,-1.1647 -0.917403,-1.57209 -0.555648,-0.52873 -1.462173,-0.99909 -2.45223,-1.27235 -0.623635,-0.17213 -0.907771,-0.19319 -2.583793,-0.19146 -1.669076,0.002 -1.962741,0.0239 -2.583793,0.19547 -1.37571,0.37996 -1.704624,0.59357 -3.199393,2.07782 -0.749076,0.74381 -1.428143,1.35238 -1.509036,1.35238 -0.08089,0 -0.30634,0.21559 -0.500992,0.47908 -0.527445,0.71397 -0.90598,0.8573 -1.075823,0.40733 l -0.0952,-0.25221 -0.269433,0.1643 c -0.714525,0.43571 -2.212344,-0.1162 -2.557556,-0.94241 -0.228249,-0.54628 -0.151493,-0.87161 0.625794,-2.65247 0.40847,-0.93586 0.742674,-1.77038 0.742674,-1.85449 0,-0.24193 -0.421501,-0.67911 -0.739384,-0.76689 -0.159606,-0.0441 -0.725557,-0.0595 -1.257667,-0.0343 -0.613026,0.0291 -1.12235,0.007 -1.390212,-0.0591 -0.909309,-0.22581 -1.429979,-0.86052 -1.429979,-1.74319 0,-0.4013 0.103706,-0.66212 0.879949,-2.21313 0.731087,-1.46078 0.900956,-1.74079 1.004123,-1.65517 0.07222,0.0599 0.354528,0.0954 0.674706,0.0848 0.302793,-0.01 5.625058,-0.0137 11.827257,-0.008 l 11.276724,0.0101 v 12.78759 12.78758 h -1.526856 c -1.506042,0 -1.52773,-0.003 -1.590897,-0.19707 z"
         id="path285"
         inkscape:connector-curvature="0" />
      <path
         style="fill:#8f8f8f;stroke-width:0.0875862"
         d="m -72.711668,161.44283 c 0,-0.35767 -0.367072,-1.06051 -0.70033,-1.34093 -0.149057,-0.12542 -0.417038,-0.26717 -0.595514,-0.31499 -0.178475,-0.0478 -1.709854,-0.16685 -3.403065,-0.26451 l -3.078565,-0.17756 -0.973963,-0.31699 c -1.577573,-0.51344 -2.821297,-1.46057 -3.298864,-2.51219 -0.215278,-0.47405 -0.24715,-0.65111 -0.247706,-1.37612 -4.82e-4,-0.62675 0.04829,-0.98336 0.197623,-1.44517 0.186889,-0.57794 0.196945,-0.86738 0.04781,-1.37602 -0.03012,-0.10272 -0.208894,-0.18227 -0.568697,-0.25306 -0.445437,-0.0876 -0.545276,-0.1429 -0.66041,-0.36554 -0.482786,-0.9336 0.306554,-2.29779 1.455628,-2.51571 0.694844,-0.13177 1.485769,0.11208 1.648866,0.50836 0.03508,0.0852 0.07959,-0.11228 0.104775,-0.46493 0.04003,-0.56046 0.06134,-0.61559 0.248085,-0.64204 0.265194,-0.0376 0.483607,0.1671 0.717553,0.67237 0.103798,0.22418 0.351043,0.57511 0.549434,0.77984 0.307526,0.31736 0.412908,0.37217 0.714717,0.37175 0.380518,-5.2e-4 0.885817,-0.12131 1.098487,-0.26258 0.115754,-0.0769 0.115967,-0.0972 0.0018,-0.17056 -0.07127,-0.0458 -0.288049,-0.10907 -0.481724,-0.14058 -0.813853,-0.13245 -1.620496,-0.82454 -1.503151,-1.2897 0.02697,-0.1069 0.306174,-0.4759 0.62046,-0.81999 1.712028,-1.87441 4.232816,-2.91462 7.143313,-2.94772 0.914767,-0.0104 1.150848,0.0149 1.435453,0.15397 0.78382,0.38294 1.654943,1.21214 1.774701,1.6893 0.0292,0.11634 0.242028,0.40047 0.472948,0.63139 0.550339,0.55034 0.948042,1.35357 1.105675,2.23309 0.181615,1.01333 0.110199,1.36064 -0.53567,2.60505 -0.580568,1.11859 -0.851929,1.87101 -1.017325,2.82079 -0.0881,0.50589 -0.07916,0.59753 0.09858,1.0107 0.17913,0.4164 0.207166,0.44266 0.335551,0.31432 0.109574,-0.10954 0.14682,-0.37785 0.170992,-1.23179 0.03002,-1.06058 0.03646,-1.09175 0.225594,-1.09175 0.178583,0 0.455744,0.22895 0.613427,0.50673 0.152556,0.26875 0.212426,1.24259 0.130195,2.11773 -0.10669,1.13545 -0.474307,2.81621 -0.719001,3.28731 -0.190621,0.36699 -0.235391,0.9553 -0.118332,1.55495 0.03891,0.19935 0.03045,0.32845 -0.02154,0.32845 -0.13471,0 -0.203662,-0.32214 -0.213976,-0.99967 -0.0075,-0.49093 0.02988,-0.69076 0.17373,-0.92957 0.521104,-0.86507 0.926245,-4.15237 0.639158,-5.1861 -0.07572,-0.27266 -0.288197,-0.50466 -0.462193,-0.50466 -0.02205,0 -0.05423,0.44518 -0.0715,0.98928 -0.02443,0.76962 -0.06666,1.0431 -0.190208,1.23165 -0.08734,0.1333 -0.205559,0.22832 -0.262703,0.21115 -0.05715,-0.0172 -0.213897,-0.24624 -0.348338,-0.50906 -0.278218,-0.54389 -0.274064,-0.65058 0.0781,-2.00554 0.217137,-0.83546 0.819362,-2.22318 1.190737,-2.74385 0.17342,-0.24313 0.200467,-0.38283 0.192252,-0.99299 -0.01624,-1.20616 -0.476722,-2.35095 -1.201696,-2.98748 -0.154482,-0.13564 -0.392547,-0.47486 -0.529034,-0.75383 -0.259025,-0.52943 -0.794359,-1.03014 -1.494333,-1.39768 -0.309601,-0.16257 -0.494455,-0.18615 -1.407446,-0.17951 -2.125868,0.0154 -4.005632,0.5658 -5.655691,1.65588 -0.634647,0.41927 -2.008106,1.79325 -2.008106,2.00887 0,0.42534 0.671577,0.91024 1.504093,1.08602 0.862806,0.18217 0.882496,0.5036 0.04607,0.75199 -0.243833,0.0724 -0.624876,0.13166 -0.846762,0.13166 -0.366029,0 -0.440993,-0.0386 -0.808598,-0.41604 -0.222841,-0.22882 -0.469199,-0.57225 -0.547461,-0.76317 -0.165654,-0.40413 -0.376346,-0.6601 -0.543327,-0.6601 -0.09041,0 -0.117804,0.19345 -0.117804,0.83206 0,0.85995 -0.09031,1.04804 -0.258508,0.5384 -0.205103,-0.62147 -0.81005,-0.90353 -1.611741,-0.75149 -0.717664,0.1361 -1.4247,0.83268 -1.460906,1.4393 -0.0493,0.82599 0.09911,1.04344 0.775635,1.13649 0.391176,0.0538 0.452131,0.0913 0.535047,0.32915 0.137719,0.39506 0.113948,1.12961 -0.05071,1.56697 -0.09636,0.25596 -0.146566,0.67415 -0.15115,1.25911 -0.0091,1.1595 0.167246,1.56858 1.02816,2.38529 0.716264,0.67948 1.518424,1.13077 2.595551,1.46024 0.671174,0.20529 1.050655,0.24519 3.853793,0.40518 1.710121,0.0976 3.259371,0.218 3.442779,0.26754 0.413784,0.11176 0.925956,0.61293 1.181089,1.1557 0.200618,0.4268 0.258313,0.93881 0.105788,0.93881 -0.04817,0 -0.08759,-0.11955 -0.08759,-0.26567 z m 5.22075,0.12713 c -0.08516,-0.22193 -0.06137,-2.68011 0.03889,-4.01886 0.118903,-1.58759 0.133518,-1.65344 0.354151,-1.59574 0.160003,0.0418 0.171285,0.0136 0.127708,-0.31927 -0.02629,-0.20085 -0.167381,-1.80378 -0.313538,-3.56207 -0.146156,-1.75829 -0.287048,-3.33044 -0.313093,-3.49366 l -0.04735,-0.29677 -0.387896,0.38069 -0.387898,0.3807 v -0.66856 c 0,-0.59489 -0.04891,-0.79436 -0.443961,-1.81047 -0.410094,-1.05482 -0.481182,-1.17594 -0.931874,-1.58785 -1.128386,-1.03128 -2.673951,-1.49426 -4.982962,-1.49267 -1.633655,0.001 -2.813833,0.20984 -3.80984,0.67377 -0.590365,0.27499 -0.817776,0.46248 -2.013423,1.66 -0.741339,0.7425 -1.414342,1.34999 -1.495563,1.34999 -0.08122,0 -0.239353,0.12247 -0.351405,0.27215 -0.662105,0.88443 -1.05684,1.08308 -1.231694,0.61984 l -0.09309,-0.24663 -0.311957,0.15905 c -0.385726,0.19665 -0.737813,0.20106 -1.309622,0.0164 -0.826587,-0.26696 -1.330123,-0.86048 -1.330123,-1.56782 0,-0.20247 0.265572,-0.92468 0.744483,-2.0246 0.409465,-0.94042 0.744483,-1.78934 0.744483,-1.88649 0,-0.23702 -0.544235,-0.76932 -0.801414,-0.78384 -0.113205,-0.006 -0.757621,-0.0162 -1.432035,-0.0219 -1.167141,-0.01 -1.247301,-0.022 -1.664138,-0.25328 -0.591091,-0.32798 -0.85607,-0.73274 -0.90282,-1.37905 -0.03618,-0.50013 -0.01807,-0.54914 0.862501,-2.33474 0.494699,-1.00314 0.915212,-1.7588 0.934473,-1.67925 0.01926,0.0796 -0.341552,0.89699 -0.801808,1.81654 -0.903114,1.80432 -0.994938,2.16487 -0.697726,2.73961 l 0.139103,0.269 0.251418,-0.30501 c 0.13828,-0.16776 0.368101,-0.35335 0.510713,-0.41242 0.23227,-0.0962 0.274669,-0.17735 0.40679,-0.7785 0.162427,-0.73905 0.588685,-1.83687 1.069953,-2.75565 0.488551,-0.93268 0.50587,-0.55653 0.01941,0.42158 -0.506192,1.01778 -0.959938,2.35416 -0.959938,2.82723 0,0.30821 -0.02416,0.33863 -0.364307,0.45878 -0.448584,0.15845 -0.768943,0.54649 -0.633076,0.76684 0.203977,0.3308 0.86892,0.45835 2.189686,0.42004 1.189559,-0.0345 1.293431,-0.0531 2.758966,-0.49426 l 1.522869,-0.45842 0.744336,0.19482 c 0.409385,0.10714 1.104579,0.32974 1.544878,0.49465 0.462103,0.17308 0.962045,0.29987 1.182561,0.29991 0.21011,4e-5 0.657915,0.0571 0.995122,0.12672 1.072491,0.22156 5.369775,0.61328 8.671034,0.79042 1.344422,0.0721 1.747212,0.12958 1.642551,0.23424 -0.154366,0.15436 -8.406624,-0.47095 -10.050826,-0.7616 -0.38538,-0.0681 -0.880362,-0.12459 -1.099961,-0.12548 -0.225602,-9.1e-4 -0.72086,-0.11982 -1.13862,-0.27337 -0.406643,-0.14947 -1.113782,-0.38604 -1.571419,-0.52572 l -0.832069,-0.25395 -1.40138,0.40865 c -0.770758,0.22476 -1.418213,0.42233 -1.438787,0.43905 -0.02057,0.0167 0.06741,0.13978 0.195513,0.2735 0.444541,0.464 0.417959,0.63301 -0.384543,2.44506 -0.599321,1.35326 -0.729483,1.72604 -0.73288,2.09891 -0.0066,0.72306 0.489136,1.23413 1.393329,1.43648 0.904616,0.20245 1.229656,-0.0454 1.53094,-1.16729 0.113195,-0.42151 0.23962,-0.76638 0.280946,-0.76638 0.116287,0 0.09093,0.2736 -0.110047,1.18745 -0.188857,0.85873 -0.158874,1.08575 0.128814,0.97535 0.07182,-0.0276 0.290303,-0.26632 0.485525,-0.53058 0.195221,-0.26426 0.430812,-0.50455 0.523535,-0.53398 0.117584,-0.0373 0.205061,-0.20295 0.289149,-0.54748 0.149262,-0.61157 0.367844,-0.75613 0.282128,-0.1866 l -0.05724,0.38032 1.21793,-1.19984 c 0.97662,-0.96211 1.330232,-1.25238 1.784738,-1.46506 1.265619,-0.59222 3.194946,-0.86705 4.986608,-0.71033 1.781958,0.15586 3.176641,0.67672 4.099262,1.53091 0.47863,0.44313 0.539681,0.54726 0.966439,1.64848 0.346148,0.89321 0.455535,1.28822 0.455535,1.64498 v 0.46951 l 0.348737,-0.34053 c 0.191806,-0.18729 0.367771,-0.3215 0.391035,-0.29823 0.03831,0.0383 0.749193,7.87866 0.749193,8.26292 0,0.15424 -0.0086,0.15485 -0.166476,0.012 -0.09156,-0.0829 -0.185213,-0.11853 -0.208111,-0.0793 -0.0944,0.16188 -0.257476,3.30825 -0.227273,4.38505 0.03041,1.08416 -0.005,1.35604 -0.133252,1.02194 z"
         id="path283"
         inkscape:connector-curvature="0" />
      <path
         style="fill:#6f6f6f;stroke-width:0.0875862"
         d="m -72.711668,161.4296 c 0,-0.64455 -0.758241,-1.59335 -1.349941,-1.68921 -0.148723,-0.0241 -1.63783,-0.12493 -3.30913,-0.22409 -2.66289,-0.15799 -3.134119,-0.20786 -3.81,-0.40319 -1.038588,-0.30017 -2.003729,-0.81661 -2.674162,-1.43094 -0.69054,-0.63275 -1.00004,-1.18799 -1.130422,-2.02795 -0.103111,-0.66427 -0.09583,-0.72449 0.285246,-2.35827 0.06676,-0.28621 0.06533,-0.50091 -0.0051,-0.76242 -0.09644,-0.35815 -0.106619,-0.36571 -0.631282,-0.46893 -0.480987,-0.0946 -0.545157,-0.13338 -0.654585,-0.39528 -0.06673,-0.1597 -0.121322,-0.48098 -0.121322,-0.71396 0,-0.85062 0.80681,-1.6787 1.708426,-1.75347 0.674874,-0.056 1.04934,0.0379 1.34962,0.33814 l 0.262104,0.2621 0.02596,-0.59388 c 0.0238,-0.54437 0.04279,-0.59627 0.227849,-0.6225 0.269348,-0.0382 0.425187,0.10556 0.68974,0.63622 0.121587,0.24389 0.382908,0.61094 0.580714,0.81567 0.321571,0.33283 0.402695,0.37224 0.766271,0.37224 0.445921,0 0.93437,-0.13516 1.12304,-0.31077 0.100739,-0.0938 0.06413,-0.12836 -0.218966,-0.20697 -0.186961,-0.0519 -0.410474,-0.0946 -0.496695,-0.0949 -0.415262,-10e-4 -1.202463,-0.61346 -1.329647,-1.03399 -0.110514,-0.36541 0.937667,-1.53524 2.055723,-2.2943 1.616145,-1.09721 3.578815,-1.66461 5.758005,-1.66461 1.058915,0 1.10919,0.009 1.612552,0.27692 0.604497,0.32219 1.433962,1.1732 1.518453,1.55788 0.032,0.14568 0.170603,0.34493 0.308014,0.44277 0.371954,0.26486 0.937674,1.16674 1.137336,1.81317 0.120621,0.39053 0.175984,0.81601 0.175984,1.35248 0,0.77012 -0.0064,0.79356 -0.395752,1.45785 -0.686768,1.1716 -1.350294,3.22163 -1.232828,3.80895 0.06646,0.33231 0.31535,0.85135 0.408237,0.85135 0.144974,0 0.255926,-0.67273 0.256406,-1.55465 4.38e-4,-0.81756 0.01508,-0.89776 0.16385,-0.89776 0.265226,0 0.612157,0.3341 0.708996,0.68278 0.282314,1.01649 -0.12972,4.34882 -0.641171,5.1855 -0.196374,0.32124 -0.255544,1.17137 -0.117351,1.68603 0.03816,0.14213 0.02972,0.24086 -0.02061,0.24086 -0.241932,0 -0.234532,-1.71 0.0086,-1.98615 0.293169,-0.33298 0.716153,-2.66348 0.720502,-3.96971 0.0033,-0.97967 -0.175565,-1.58996 -0.482447,-1.64646 -0.121685,-0.0224 -0.147454,0.10834 -0.181257,0.91965 -0.04065,0.97571 -0.182985,1.47129 -0.422555,1.47129 -0.195462,0 -0.562477,-0.80908 -0.546682,-1.20515 0.03569,-0.8951 0.663447,-2.71654 1.301926,-3.77757 0.379355,-0.63041 0.448551,-1.08171 0.300467,-1.95965 -0.136238,-0.80771 -0.509945,-1.58099 -1.037745,-2.14732 -0.234357,-0.25146 -0.514671,-0.64397 -0.622919,-0.87225 -0.384758,-0.81139 -1.47907,-1.54639 -2.413884,-1.6213 -0.712861,-0.0571 -2.244554,0.11689 -3.230716,0.36705 -1.867709,0.47378 -3.442142,1.42465 -4.544267,2.74447 -0.466324,0.55844 -0.495072,0.68383 -0.233128,1.01684 0.238671,0.30342 0.605975,0.48891 1.306059,0.65956 0.463214,0.11291 0.574326,0.17398 0.596227,0.32767 0.02242,0.15736 -0.05489,0.2195 -0.463113,0.37224 -0.269517,0.10084 -0.657407,0.18335 -0.861978,0.18335 -0.333407,0 -0.418379,-0.0477 -0.820043,-0.45983 -0.246452,-0.25291 -0.548734,-0.66183 -0.671738,-0.90873 -0.211196,-0.42391 -0.412281,-0.61139 -0.529758,-0.49392 -0.02879,0.0288 -0.05235,0.42022 -0.05235,0.86983 0,0.44961 -0.03058,0.81747 -0.06796,0.81747 -0.03738,0 -0.145764,-0.1656 -0.240862,-0.36801 -0.2586,-0.55041 -0.557218,-0.72826 -1.208492,-0.71974 -0.63852,0.008 -0.959544,0.1552 -1.396366,0.63871 -0.415922,0.46037 -0.550857,0.90647 -0.420559,1.39036 0.115704,0.42969 0.173459,0.47544 0.748624,0.59298 0.326083,0.0666 0.463868,0.14398 0.546123,0.30655 0.148872,0.29423 0.134552,1.10221 -0.02714,1.53122 -0.353881,0.93896 -0.221975,2.3485 0.29253,3.12597 0.322996,0.48808 1.224343,1.21069 1.971987,1.58095 1.20843,0.59845 1.704178,0.68316 5.232454,0.89403 3.466088,0.20716 3.470217,0.20794 4.002113,0.76348 0.461122,0.48161 0.843193,1.56212 0.55237,1.56212 -0.04817,0 -0.08759,-0.1255 -0.08759,-0.2789 z m 5.222791,0.0818 c -0.12873,-0.48035 -0.0219,-3.73664 0.171251,-5.21985 0.04301,-0.33026 0.07332,-0.37452 0.228677,-0.33389 0.166406,0.0435 0.175549,0.0177 0.129038,-0.36376 -0.02753,-0.22583 -0.172459,-1.86891 -0.322062,-3.65129 -0.149601,-1.78238 -0.291739,-3.33536 -0.31586,-3.45108 -0.04278,-0.20521 -0.05343,-0.20099 -0.432984,0.17152 l -0.389127,0.3819 v -0.70297 c 0,-0.64121 -0.03865,-0.79855 -0.439941,-1.79089 -0.356784,-0.88228 -0.517546,-1.16671 -0.850508,-1.50476 -0.491856,-0.49936 -1.492831,-1.03882 -2.390568,-1.28836 -1.441577,-0.40071 -3.831192,-0.40185 -5.392313,-0.003 -1.25098,0.31995 -1.651538,0.58539 -3.114348,2.06384 -0.72986,0.73767 -1.407757,1.35303 -1.506438,1.36747 -0.09868,0.0144 -0.339624,0.23626 -0.535429,0.49293 -0.195805,0.25667 -0.425227,0.50541 -0.509827,0.55276 -0.218442,0.12224 -0.491472,0.011 -0.550534,-0.22433 l -0.05031,-0.20047 -0.322131,0.1686 c -0.238692,0.12493 -0.429871,0.15675 -0.738079,0.12286 -0.484476,-0.0533 -1.161614,-0.33364 -1.441964,-0.59702 -0.276076,-0.25936 -0.496295,-0.88279 -0.438229,-1.24061 0.02644,-0.16294 0.366675,-1.02548 0.756074,-1.91675 0.389399,-0.89126 0.707998,-1.70122 0.707998,-1.7999 0,-0.27283 -0.410844,-0.70265 -0.765141,-0.80048 -0.179992,-0.0497 -0.715205,-0.0644 -1.24377,-0.0341 -0.728003,0.0417 -1.035918,0.0217 -1.429754,-0.0928 -0.569501,-0.16556 -1.084578,-0.57061 -1.260244,-0.99103 -0.259806,-0.62181 -0.176948,-0.93261 0.76851,-2.88273 0.487763,-1.00607 0.902438,-1.78731 0.921498,-1.7361 0.01906,0.0512 -0.344399,0.87891 -0.80769,1.83931 -0.804677,1.66811 -0.840798,1.76791 -0.807733,2.23176 0.01904,0.26706 0.09674,0.57426 0.172669,0.68267 l 0.138057,0.1971 0.177061,-0.3001 c 0.10712,-0.18155 0.319027,-0.36273 0.536454,-0.45866 0.319539,-0.14098 0.359393,-0.19168 0.359393,-0.45723 0,-0.16427 0.116703,-0.64701 0.259339,-1.07275 0.287069,-0.85684 1.097827,-2.53625 1.224413,-2.53625 0.04443,0 -0.149227,0.48282 -0.430341,1.07293 -0.575314,1.2077 -0.878239,2.10989 -0.878239,2.61563 0,0.31731 -0.02524,0.35193 -0.351984,0.48266 -0.375549,0.15027 -0.69905,0.48772 -0.69905,0.7292 0,0.0815 0.146514,0.22275 0.328448,0.31664 0.281341,0.14518 0.523159,0.1704 1.686035,0.17582 l 1.357586,0.006 1.576552,-0.46898 c 1.819398,-0.54123 1.633722,-0.54739 3.556869,0.118 0.60745,0.21017 1.265186,0.38213 1.461634,0.38213 0.196448,0 0.605961,0.0571 0.910027,0.12699 0.930829,0.21382 4.112163,0.51323 8.380054,0.78868 1.816915,0.11727 2.121404,0.15698 2.015526,0.26286 -0.02195,0.022 -0.905476,-0.0166 -1.96339,-0.0858 -4.779135,-0.31229 -7.851849,-0.6086 -8.63221,-0.8324 -0.163355,-0.0469 -0.477864,-0.0852 -0.698909,-0.0852 -0.245833,0 -0.777831,-0.1341 -1.369991,-0.34534 -0.53245,-0.18993 -1.214392,-0.40916 -1.515426,-0.48716 l -0.547335,-0.14183 -1.367735,0.41122 c -0.752254,0.22617 -1.40019,0.4298 -1.439857,0.45252 -0.03967,0.0227 0.0098,0.0987 0.109983,0.16884 0.201628,0.14123 0.443863,0.55999 0.443863,0.76733 0,0.0735 -0.335017,0.90068 -0.744483,1.83822 -0.799236,1.82998 -0.868032,2.14477 -0.584346,2.67373 0.222223,0.41436 0.9257,0.79739 1.572158,0.856 0.453196,0.0411 0.535185,0.022 0.776297,-0.18089 0.218848,-0.18415 0.307957,-0.37568 0.47347,-1.01767 0.112137,-0.43496 0.23591,-0.79083 0.27505,-0.79083 0.106738,0 0.08909,0.1719 -0.117008,1.1398 -0.200601,0.94208 -0.168099,1.11914 0.184875,1.00711 0.104229,-0.0331 0.304196,-0.24654 0.444371,-0.47436 0.140174,-0.22781 0.354787,-0.46768 0.476917,-0.53304 0.146187,-0.0782 0.253517,-0.24083 0.314141,-0.4759 0.156782,-0.60791 0.178654,-0.66361 0.260547,-0.66361 0.0702,0 0.04154,0.37166 -0.05234,0.67879 -0.0799,0.26141 0.181253,0.0372 1.284288,-1.10243 1.319596,-1.36342 1.702826,-1.60496 3.10994,-1.9601 0.678989,-0.17138 1.007073,-0.19665 2.573706,-0.19824 1.457026,-10e-4 1.919356,0.0288 2.452414,0.16034 0.997112,0.24613 2.18456,0.8497 2.739746,1.39259 0.421119,0.4118 0.517414,0.58143 0.923475,1.62683 0.354275,0.91208 0.453331,1.27491 0.453331,1.66048 v 0.49338 l 0.394138,-0.38682 c 0.318151,-0.31224 0.394164,-0.35375 0.394275,-0.2153 7.6e-5,0.0943 0.157669,1.96484 0.350208,4.15668 0.192538,2.19185 0.350131,4.02084 0.350207,4.06444 7.5e-5,0.0436 -0.07893,0.008 -0.175572,-0.0797 -0.09664,-0.0875 -0.189859,-0.14283 -0.207154,-0.12306 -0.01729,0.0198 -0.08066,0.65918 -0.140816,1.42091 -0.123797,1.56758 -0.153229,3.68428 -0.05533,3.9797 0.0371,0.11198 0.02934,0.19707 -0.01797,0.19707 -0.0458,0 -0.10704,-0.0887 -0.136086,-0.19707 z"
         id="path281"
         inkscape:connector-curvature="0" />
      <path
         style="fill:#4f4f4f;stroke-width:0.0875862"
         d="m -72.711668,161.44293 c 0,-0.57129 -0.567185,-1.40271 -1.112282,-1.63047 -0.155624,-0.065 -0.668619,-0.13841 -1.13999,-0.16308 -4.035207,-0.21118 -5.44956,-0.32682 -6.068417,-0.49616 -1.833346,-0.50168 -3.328544,-1.60144 -3.772271,-2.77459 -0.258564,-0.68361 -0.261204,-1.76782 -0.0063,-2.58401 0.209528,-0.67087 0.231362,-0.9808 0.09446,-1.34087 -0.117527,-0.30912 -0.194403,-0.35464 -0.721303,-0.42711 -0.381034,-0.0524 -0.442261,-0.0916 -0.551603,-0.35332 -0.156438,-0.37441 -0.15733,-0.92413 -0.0021,-1.29564 0.151257,-0.36201 0.70866,-0.91611 1.080603,-1.07421 0.636906,-0.27071 1.731368,-0.0761 1.976532,0.35145 0.09301,0.16221 0.111983,0.10825 0.150247,-0.42745 0.04003,-0.56046 0.06134,-0.61559 0.248085,-0.64204 0.262539,-0.0372 0.475631,0.15942 0.67495,0.62274 0.08746,0.2033 0.337776,0.55686 0.556253,0.78568 0.361582,0.3787 0.433461,0.41603 0.800955,0.41603 0.432278,0 1.223205,-0.22967 1.223205,-0.3552 0,-0.0418 -0.167508,-0.11738 -0.372241,-0.16799 -0.85273,-0.21078 -1.034111,-0.28058 -1.291095,-0.49681 -0.252759,-0.21269 -0.526319,-0.62782 -0.526319,-0.79871 0,-0.18092 1.085998,-1.34245 1.675998,-1.79256 1.742969,-1.32971 3.825367,-1.99424 6.249243,-1.99424 1.062116,0 1.062911,1.7e-4 1.583015,0.31189 0.674604,0.40435 1.206697,0.92855 1.404253,1.38344 0.08669,0.19962 0.361761,0.58148 0.611256,0.84857 0.772734,0.82725 1.088648,1.68253 1.088648,2.94732 0,0.6519 -0.0264,0.76767 -0.26259,1.15153 -0.684353,1.11222 -1.405072,3.11999 -1.399624,3.89908 0.0022,0.3109 0.296291,1.01954 0.423157,1.01954 0.169568,0 0.275609,-0.57791 0.275609,-1.50203 0,-0.8829 0.01209,-0.95038 0.170289,-0.95038 0.273291,0 0.620425,0.36499 0.708069,0.74448 0.262395,1.13617 -0.108797,3.96138 -0.683282,5.20062 -0.1847,0.39841 -0.210599,0.55372 -0.168148,1.00832 0.0276,0.29555 0.07646,0.60585 0.108583,0.68956 0.03212,0.0837 0.0197,0.15219 -0.02761,0.15219 -0.116847,0 -0.195559,-0.43713 -0.195163,-1.08388 2.62e-4,-0.38649 0.0506,-0.61892 0.180157,-0.83143 0.236551,-0.38801 0.574589,-1.90697 0.706929,-3.17655 0.11866,-1.13836 0.02404,-2.07168 -0.23955,-2.36295 -0.295654,-0.32669 -0.358176,-0.20756 -0.407453,0.77637 -0.05434,1.085 -0.153766,1.42327 -0.418341,1.42327 -0.235483,0 -0.555159,-0.6943 -0.536689,-1.16564 0.0347,-0.88571 0.580961,-2.47872 1.263108,-3.68352 l 0.43959,-0.77639 -0.05103,-0.75636 c -0.0798,-1.18273 -0.450778,-2.06003 -1.153166,-2.72705 -0.177543,-0.16861 -0.420296,-0.5116 -0.539454,-0.76221 -0.258674,-0.54404 -0.906836,-1.15284 -1.575872,-1.48017 -0.471031,-0.23046 -0.508316,-0.2346 -1.637178,-0.18211 -2.465648,0.11465 -4.302165,0.75247 -5.960042,2.06992 -0.731778,0.58152 -1.457542,1.42139 -1.457542,1.68669 0,0.28481 0.610084,0.8275 1.054209,0.93775 0.955778,0.23727 1.04786,0.27587 1.04786,0.4393 0,0.2088 -0.576242,0.44695 -1.226207,0.50676 l -0.481724,0.0443 -0.503621,-0.5288 c -0.276991,-0.29084 -0.50362,-0.5817 -0.50362,-0.64635 0,-0.1889 -0.432271,-0.77132 -0.572468,-0.77132 -0.104024,0 -0.128222,0.16529 -0.128222,0.87586 0,0.48173 -0.02956,0.87443 -0.06569,0.87269 -0.03613,-0.002 -0.144517,-0.1672 -0.240862,-0.36769 -0.214736,-0.44684 -0.519454,-0.67841 -0.972708,-0.7392 -1.096762,-0.14711 -2.282596,0.96128 -2.095491,1.95864 0.103204,0.55013 0.177809,0.62231 0.712224,0.68908 0.451203,0.0564 0.501152,0.0852 0.613415,0.35387 0.171883,0.41137 0.152192,0.91672 -0.06337,1.62643 -0.263176,0.86645 -0.210305,1.94504 0.129377,2.63933 0.459809,0.93981 1.733356,1.87253 3.209316,2.35043 0.800754,0.25928 0.949086,0.27607 3.941379,0.44619 1.710121,0.0972 3.259346,0.21342 3.442722,0.25822 0.440187,0.10752 0.960775,0.58933 1.238129,1.14591 0.226607,0.45474 0.297058,0.94058 0.136391,0.94058 -0.04817,0 -0.08759,-0.1195 -0.08759,-0.26557 z m 5.222328,-0.008 c -0.136969,-0.68484 0.06656,-5.11966 0.248474,-5.41399 0.03567,-0.0577 0.125158,-0.0818 0.19887,-0.0535 0.114272,0.0438 0.126254,-0.023 0.08132,-0.45386 -0.02898,-0.2779 -0.175588,-1.96359 -0.325784,-3.74597 -0.150195,-1.78238 -0.290642,-3.29666 -0.312106,-3.36506 -0.02795,-0.0891 -0.132451,-0.0331 -0.368203,0.19707 -0.181048,0.17679 -0.357077,0.32144 -0.391176,0.32144 -0.0341,0 -0.062,-0.28915 -0.062,-0.64255 0,-0.55698 -0.05432,-0.78149 -0.407907,-1.68603 -0.466389,-1.19309 -0.596162,-1.38767 -1.256379,-1.88375 -0.641865,-0.48228 -0.988488,-0.6498 -1.877776,-0.90751 -1.700047,-0.49265 -4.009559,-0.49087 -5.718679,0.004 -1.18106,0.34226 -1.496403,0.55944 -2.941803,2.02605 -0.724144,0.73478 -1.334565,1.31802 -1.356489,1.29609 -0.08968,-0.0897 -0.385772,0.16181 -0.714627,0.60696 -0.191985,0.25988 -0.431654,0.49872 -0.532599,0.53076 -0.231675,0.0735 -0.548693,-0.19377 -0.491083,-0.41407 0.03833,-0.14658 0.02555,-0.14586 -0.194636,0.0109 -0.360559,0.25674 -0.805906,0.30633 -1.344587,0.14973 -0.656657,-0.19089 -1.040191,-0.47041 -1.277517,-0.93104 -0.288952,-0.56083 -0.224388,-0.85643 0.593691,-2.71812 0.387112,-0.88095 0.702963,-1.70363 0.701892,-1.82817 -0.0011,-0.12455 -0.07004,-0.31052 -0.153276,-0.41327 -0.297962,-0.36784 -0.526275,-0.41884 -1.903052,-0.42508 -1.714249,-0.008 -2.202874,-0.20603 -2.593424,-1.05224 -0.308949,-0.6694 -0.2472,-0.91457 0.728732,-2.89346 0.491851,-0.99732 0.907383,-1.77398 0.923404,-1.72592 0.01602,0.0481 -0.369748,0.88995 -0.857264,1.87085 -0.839613,1.68933 -0.883278,1.80424 -0.827341,2.17725 0.05484,0.36568 0.258252,0.87783 0.348651,0.87783 0.02161,0 0.101133,-0.11958 0.176714,-0.26573 0.08048,-0.15563 0.294711,-0.34216 0.517015,-0.45017 0.351827,-0.17093 0.383157,-0.21449 0.428281,-0.59549 0.02678,-0.22609 0.132698,-0.66399 0.235379,-0.97311 0.252837,-0.76117 1.106349,-2.53274 1.220231,-2.53274 0.05047,0 -0.104182,0.3899 -0.343677,0.86643 -0.476098,0.94732 -0.916539,2.18187 -1.0111,2.83409 -0.04709,0.32482 -0.09588,0.41603 -0.222498,0.41603 -0.244604,0 -0.781379,0.51081 -0.781379,0.74358 0,0.1436 0.09253,0.2459 0.328448,0.36317 0.273469,0.13593 0.555698,0.1655 1.686035,0.1767 l 1.357586,0.0134 1.604065,-0.47627 1.604064,-0.47627 0.673177,0.18789 c 0.370248,0.10335 1.082513,0.34118 1.582813,0.52852 0.567023,0.21233 1.061861,0.34123 1.313793,0.34224 0.222286,8.8e-4 0.727554,0.0588 1.122818,0.12874 0.941173,0.16648 3.870954,0.43424 7.250911,0.66269 1.492919,0.1009 2.731169,0.20022 2.751666,0.22072 0.0921,0.0921 -0.107739,0.0968 -1.174342,0.0276 -4.701712,-0.30517 -8.080436,-0.61111 -9.101575,-0.82415 -0.341271,-0.0712 -0.797856,-0.12967 -1.014631,-0.12995 -0.234201,-2.9e-4 -0.728371,-0.12495 -1.217795,-0.3072 -0.45301,-0.16869 -1.132841,-0.39144 -1.510734,-0.495 l -0.687078,-0.1883 -1.423404,0.42353 c -0.782872,0.23293 -1.434416,0.43076 -1.447877,0.43961 -0.01346,0.009 0.09203,0.14081 0.234424,0.29324 0.455808,0.48794 0.440263,0.58778 -0.382416,2.45592 -0.837893,1.90269 -0.911107,2.27702 -0.55012,2.81266 0.383377,0.56886 1.558186,0.94943 2.160599,0.6999 0.295464,-0.12239 0.457654,-0.42281 0.663605,-1.22917 0.07997,-0.31312 0.181764,-0.60676 0.226203,-0.65252 0.11404,-0.11744 0.106483,-0.0451 -0.107457,1.02912 -0.200199,1.0052 -0.169971,1.18227 0.182725,1.07032 0.103001,-0.0327 0.281585,-0.20883 0.396853,-0.39143 0.115268,-0.18259 0.346833,-0.44551 0.514589,-0.58426 0.216886,-0.17938 0.323116,-0.35349 0.367677,-0.60261 0.104054,-0.58172 0.232629,-0.67519 0.180731,-0.13138 l -0.04597,0.48172 1.217354,-1.24391 c 1.54023,-1.57382 2.062873,-1.86179 3.95253,-2.17776 1.202556,-0.20108 3.390752,-0.1371 4.41384,0.12905 1.012465,0.2634 2.034759,0.79363 2.597061,1.34702 0.424674,0.41794 0.51912,0.58525 0.930383,1.6482 0.349441,0.90316 0.457729,1.29498 0.457729,1.65621 v 0.47318 l 0.375955,-0.36897 0.375955,-0.36897 0.35975,4.13884 c 0.197862,2.27636 0.344945,4.15431 0.32685,4.17321 -0.01809,0.0189 -0.09392,-0.0163 -0.16851,-0.0782 -0.07459,-0.0619 -0.149745,-0.0971 -0.167019,-0.0782 -0.04618,0.0505 -0.213127,2.13736 -0.27603,3.45024 -0.03,0.62624 -0.01753,1.36525 0.02771,1.64224 0.08474,0.51874 -0.0015,0.71856 -0.09923,0.22992 z"
         id="path279"
         inkscape:connector-curvature="0" />
      <path
         style="fill:#2f2f2f;stroke-width:0.0875862"
         d="m -72.615845,161.53333 c -0.03084,-0.55882 -0.630028,-1.43555 -1.17673,-1.72178 -0.136862,-0.0717 -0.530999,-0.1454 -0.875862,-0.16387 -5.715456,-0.30623 -5.651384,-0.30033 -6.670472,-0.61437 -1.145185,-0.35289 -1.874828,-0.76639 -2.616687,-1.4829 -0.750442,-0.7248 -0.951738,-1.17828 -0.999993,-2.25278 -0.03104,-0.69105 -0.0037,-0.96266 0.147031,-1.45877 0.206741,-0.68065 0.229545,-1.02361 0.0921,-1.38511 -0.117072,-0.30793 -0.195043,-0.35473 -0.708585,-0.42536 -0.393724,-0.0541 -0.423737,-0.0778 -0.563109,-0.44269 -0.290927,-0.76178 -0.04962,-1.41298 0.769135,-2.07566 0.241862,-0.19575 0.4337,-0.26453 0.840815,-0.30145 0.6688,-0.0606 0.903837,2.6e-4 1.281836,0.33215 l 0.304032,0.26694 0.02602,-0.59666 c 0.02504,-0.57403 0.0349,-0.59768 0.260211,-0.62372 0.187557,-0.0217 0.279119,0.0391 0.459828,0.30498 0.124101,0.18263 0.225639,0.38439 0.225639,0.44835 0,0.064 0.202786,0.33071 0.450636,0.59277 0.436049,0.46106 0.465761,0.47648 0.917882,0.47648 0.460707,0 1.171482,-0.21421 1.171482,-0.35306 0,-0.0804 -0.411767,-0.21894 -0.887418,-0.29849 -0.434325,-0.0726 -1.025579,-0.51999 -1.181988,-0.89433 -0.128882,-0.30846 -0.128566,-0.30939 0.272939,-0.80474 1.688274,-2.08288 4.424533,-3.25489 7.599086,-3.25489 0.985416,0 1.000949,0.003 1.515982,0.31203 0.671747,0.40282 1.115304,0.83788 1.368642,1.34243 0.111516,0.2221 0.402513,0.62059 0.64666,0.88554 0.74985,0.81373 1.088855,1.75847 1.088855,3.03441 0,0.50987 -0.03819,0.71459 -0.167064,0.89558 -0.346783,0.48701 -0.973886,1.85575 -1.193601,2.6052 -0.332506,1.13418 -0.363458,1.58083 -0.143936,2.0771 0.337283,0.76248 0.530758,0.42429 0.605251,-1.05798 0.05336,-1.06176 0.08944,-1.12158 0.487556,-0.80842 0.323714,0.25464 0.447134,0.94622 0.382633,2.14411 -0.06275,1.16545 -0.422878,2.96483 -0.718396,3.58951 -0.226652,0.4791 -0.269972,0.97684 -0.135439,1.55617 0.04195,0.18065 0.04617,0.32845 0.0094,0.32845 -0.08779,0 -0.175234,-0.54424 -0.176444,-1.0982 -6.13e-4,-0.27549 0.06655,-0.57168 0.178716,-0.78828 0.346615,-0.66932 0.779204,-2.88115 0.782197,-3.99938 0.0023,-0.86548 -0.142621,-1.43421 -0.421554,-1.65415 l -0.233771,-0.18432 -0.0524,0.90834 c -0.06154,1.06674 -0.196539,1.56082 -0.426471,1.56082 -0.210182,0 -0.52837,-0.67933 -0.52837,-1.12808 0,-0.85266 0.693543,-2.81506 1.401548,-3.96572 0.224071,-0.36416 0.2624,-0.51329 0.261296,-1.01665 -0.0026,-1.19842 -0.396243,-2.23491 -1.135808,-2.9909 -0.216164,-0.22096 -0.476502,-0.57911 -0.57853,-0.79589 -0.227326,-0.48299 -0.911558,-1.13429 -1.510516,-1.4378 -0.395447,-0.20039 -0.55141,-0.22634 -1.360512,-0.22634 -2.054101,0 -4.169739,0.59883 -5.660926,1.60232 -1.081867,0.72803 -2.213574,1.92212 -2.128833,2.24618 0.07267,0.27788 0.679521,0.77362 1.072353,0.87601 0.195684,0.051 0.51589,0.13446 0.711567,0.18546 0.726444,0.18934 0.207319,0.618 -0.823652,0.68012 l -0.599253,0.0361 -0.391879,-0.38258 c -0.215534,-0.21042 -0.471747,-0.56699 -0.569363,-0.79237 -0.211746,-0.4889 -0.450071,-0.7274 -0.65014,-0.65063 -0.124592,0.0478 -0.139913,0.17276 -0.108697,0.88648 0.03574,0.81715 -0.03349,1.08456 -0.146993,0.56779 -0.07898,-0.3596 -0.511177,-0.76916 -0.885853,-0.83945 -1.382488,-0.25936 -2.688115,1.08137 -2.197208,2.25628 0.119747,0.28659 0.172634,0.32199 0.560823,0.37538 0.526901,0.0725 0.603777,0.11799 0.721304,0.42711 0.139911,0.36799 0.112832,0.84937 -0.08211,1.45958 -0.243745,0.76299 -0.23828,1.83772 0.01279,2.51482 0.260094,0.70144 1.175315,1.6022 2.133074,2.09938 1.28924,0.66924 1.897076,0.78134 5.123793,0.94489 3.53937,0.17941 3.668695,0.20205 4.195707,0.73452 0.413613,0.4179 0.761855,1.17043 0.682738,1.47537 -0.02936,0.11318 -0.04429,0.0959 -0.05297,-0.0614 z m 5.127981,-0.15328 c -0.122627,-0.74188 0.08043,-5.08973 0.250555,-5.36501 0.02705,-0.0438 0.107041,-0.0574 0.177757,-0.0302 0.07071,0.0271 0.129431,0.0156 0.130477,-0.0257 0.0054,-0.21341 -0.6469,-7.61315 -0.673984,-7.64557 -0.0175,-0.021 -0.188756,0.11513 -0.380562,0.30243 l -0.348736,0.34053 v -0.55826 c 0,-0.46403 -0.07761,-0.75899 -0.459828,-1.7476 -0.411074,-1.06324 -0.508417,-1.23675 -0.918107,-1.63639 -0.520093,-0.50734 -1.449279,-1.00927 -2.329585,-1.2584 -1.986985,-0.56234 -4.966015,-0.3907 -6.587959,0.37956 -0.562047,0.26691 -0.801092,0.46903 -1.971423,1.66688 -0.732502,0.74973 -1.369295,1.33998 -1.415095,1.31168 -0.104536,-0.0646 -0.568971,0.37047 -0.735236,0.68877 -0.06877,0.13166 -0.24195,0.29984 -0.384836,0.37372 -0.241773,0.12503 -0.27191,0.12223 -0.434462,-0.0403 -0.09635,-0.0964 -0.151723,-0.23446 -0.123491,-0.30803 0.06571,-0.17124 -0.0884,-0.17299 -0.229802,-0.003 -0.46972,0.56598 -2.175998,0.12351 -2.595955,-0.67317 -0.296823,-0.56309 -0.203697,-1.01312 0.57269,-2.76755 0.389923,-0.88111 0.708951,-1.72255 0.708951,-1.86985 0,-0.33958 -0.378349,-0.70886 -0.844117,-0.82388 -0.210921,-0.0521 -0.579069,-0.0532 -0.977762,-0.003 -0.880954,0.11098 -1.773552,-0.0327 -2.240021,-0.36053 -0.449594,-0.31599 -0.659926,-0.67905 -0.728416,-1.25735 -0.05325,-0.44962 -0.03509,-0.49819 0.853551,-2.28193 0.499378,-1.00239 0.922094,-1.8084 0.939367,-1.79113 0.01727,0.0173 -0.365418,0.84941 -0.850425,1.84918 -0.545432,1.12432 -0.881099,1.92115 -0.879909,2.0888 0.0023,0.31797 0.2988,1.01551 0.431725,1.01551 0.05053,0 0.09187,-0.0517 0.09187,-0.11499 0,-0.15554 0.428565,-0.55448 0.709713,-0.66065 0.186055,-0.0703 0.238166,-0.16034 0.283318,-0.48977 0.03043,-0.22201 0.156919,-0.70801 0.281085,-1.07999 0.250926,-0.75173 1.06627,-2.47184 1.171668,-2.47184 0.03714,0 -0.144267,0.42249 -0.403116,0.93887 -0.494182,0.98584 -0.844412,1.9731 -0.949759,2.67724 -0.05484,0.36658 -0.09893,0.43435 -0.351171,0.53974 -0.659799,0.27568 -0.866408,0.80989 -0.405426,1.04827 0.441843,0.22849 1.312321,0.33153 2.038805,0.24133 0.366953,-0.0456 0.762998,-0.0645 0.880099,-0.0421 0.117102,0.0224 0.934227,-0.17674 1.815832,-0.4425 l 1.602919,-0.4832 0.718429,0.2082 c 0.395135,0.1145 1.051398,0.33281 1.458361,0.48513 0.406963,0.15232 1.035536,0.30893 1.396829,0.34802 0.361293,0.0391 1.090448,0.13281 1.620345,0.20828 1.339673,0.19079 3.303766,0.36564 6.481379,0.57697 2.949089,0.19614 3.341309,0.23505 2.54,0.25202 -1.134698,0.024 -7.652792,-0.50424 -9.196552,-0.74534 -0.481724,-0.0752 -1.112344,-0.15629 -1.401379,-0.18011 -0.298064,-0.0246 -1.137592,-0.24791 -1.93968,-0.51602 -0.777789,-0.25998 -1.51001,-0.4727 -1.627157,-0.4727 -0.188679,0 -2.864688,0.76052 -2.947106,0.83756 -0.01791,0.0167 0.08551,0.14852 0.22983,0.29284 0.451969,0.45197 0.431926,0.5807 -0.380038,2.44087 -0.828581,1.89825 -0.902179,2.28435 -0.539723,2.83147 0.458561,0.69218 1.867064,1.03421 2.363672,0.57397 0.201659,-0.18689 0.421161,-0.75651 0.561049,-1.45594 0.02922,-0.14608 0.08836,-0.2656 0.131425,-0.2656 0.04307,0 0.05773,0.0887 0.03258,0.19707 -0.154309,0.66502 -0.307954,1.50907 -0.307954,1.69176 0,0.16834 0.04552,0.21324 0.216202,0.21324 0.160792,0 0.308304,-0.12467 0.575566,-0.48645 0.19765,-0.26755 0.455083,-0.53006 0.572073,-0.58337 0.121571,-0.0554 0.215594,-0.17533 0.219441,-0.27993 0.0037,-0.10065 0.06194,-0.34066 0.129414,-0.53335 l 0.122682,-0.35035 -0.0443,0.48173 -0.0443,0.48172 1.23729,-1.24895 c 1.051385,-1.0613 1.331406,-1.29393 1.863679,-1.54828 1.186728,-0.56709 2.646655,-0.80015 4.523975,-0.72219 2.148292,0.0892 3.638305,0.63342 4.68391,1.71078 0.474396,0.4888 1.261481,2.45201 1.267742,3.16211 l 0.0042,0.4776 0.348736,-0.34053 c 0.191806,-0.1873 0.362214,-0.32339 0.378684,-0.30243 0.01647,0.0209 0.176432,1.79201 0.35547,3.93568 0.179038,2.14368 0.34482,3.98795 0.368403,4.09838 0.04127,0.19327 0.035,0.19564 -0.167097,0.0632 l -0.209975,-0.13758 -0.05275,0.50609 c -0.15475,1.48474 -0.25152,3.49516 -0.206501,4.29013 0.05328,0.94093 0.03406,1.13075 -0.05807,0.57338 z"
         id="path277"
         inkscape:connector-curvature="0" />
      <path
         style="fill:#070707;stroke-width:0.0875862"
         d="m -72.913497,160.7299 c -0.256714,-0.52803 -0.569023,-0.8122 -1.101898,-1.00263 -0.218715,-0.0782 -0.258742,-0.11434 -0.129447,-0.11699 0.331761,-0.007 1.005785,0.5323 1.280257,1.02401 0.140777,0.25219 0.242627,0.49055 0.226335,0.52968 -0.01629,0.0391 -0.140155,-0.1562 -0.275247,-0.43407 z m 5.403446,-0.64174 c 1.75e-4,-0.62624 0.0141,-0.87094 0.031,-0.54377 0.0169,0.32716 0.01677,0.83954 -2.62e-4,1.13862 -0.01705,0.29907 -0.03088,0.0314 -0.03072,-0.59485 z m -8.37857,-0.54494 c 0.155486,-0.0194 0.431382,-0.0197 0.613104,-7e-4 0.18172,0.019 0.0545,0.0348 -0.282702,0.0352 -0.337207,3.5e-4 -0.485888,-0.0151 -0.330402,-0.0345 z m -1.443219,-0.0882 c 0.180646,-0.0189 0.47625,-0.0189 0.656896,0 0.180647,0.0189 0.03284,0.0344 -0.328448,0.0344 -0.361293,0 -0.509095,-0.0155 -0.328448,-0.0344 z m -1.447126,-0.087 c 0.155486,-0.0194 0.431382,-0.0197 0.613104,-7e-4 0.18172,0.019 0.05451,0.0348 -0.282702,0.0352 -0.337207,3.5e-4 -0.485888,-0.0151 -0.330402,-0.0345 z m -1.399426,-0.0877 c 0.15656,-0.0194 0.41275,-0.0194 0.56931,0 0.156561,0.0194 0.02847,0.0353 -0.284655,0.0353 -0.31312,0 -0.441215,-0.0159 -0.284655,-0.0353 z m -1.817414,-0.46646 c -0.361293,-0.14322 -0.755431,-0.34268 -0.875862,-0.44325 -0.212989,-0.17787 -0.210103,-0.17771 0.105764,0.006 0.178601,0.10377 0.63186,0.30282 1.007241,0.44233 0.375382,0.13951 0.623392,0.25407 0.551133,0.25458 -0.07226,5.3e-4 -0.426983,-0.11625 -0.788276,-0.25947 z m -1.675888,-1.02484 c -0.591685,-0.52528 -0.747947,-0.70182 -0.910934,-1.02914 -0.07196,-0.14451 -0.08134,-0.18393 -0.02084,-0.0876 0.0605,0.0963 0.416096,0.48063 0.790207,0.85396 0.374111,0.37334 0.664449,0.67879 0.645196,0.67879 -0.01925,0 -0.245888,-0.18721 -0.503633,-0.41603 z m 14.757323,-1.99259 c -2.63e-4,-0.43355 0.01454,-0.62195 0.03291,-0.41867 0.01837,0.20328 0.01859,0.558 5.26e-4,0.78827 -0.0181,0.23028 -0.03313,0.064 -0.0334,-0.3696 z m -1.433429,0.37225 c -0.09546,-0.15656 -0.171963,-0.32407 -0.170015,-0.37225 0.002,-0.0482 0.08157,0.0602 0.176939,0.24087 0.198658,0.3763 0.316314,0.41231 0.429238,0.13138 0.04859,-0.12089 0.08136,-0.14459 0.08476,-0.0613 0.0059,0.14342 -0.155723,0.34596 -0.276011,0.34596 -0.03925,0 -0.149457,-0.12809 -0.244914,-0.28465 z m 3.329236,-0.0657 c -0.07917,-0.0512 -0.08988,-0.0854 -0.02693,-0.0863 0.05893,-7.9e-4 0.119059,-0.16358 0.137974,-0.37358 0.03205,-0.35588 0.0342,-0.35203 0.04883,0.0876 0.0084,0.25291 0.0054,0.45923 -0.0066,0.45849 -0.01204,-7e-4 -0.08102,-0.0396 -0.153276,-0.0862 z m -2.002556,-1.29766 c -0.01441,-0.24511 -0.165867,-0.5442 -0.354682,-0.70043 -0.114736,-0.0949 -0.116199,-0.10898 -0.0084,-0.0806 0.19248,0.0508 0.457523,0.55349 0.413322,0.78399 l -0.03832,0.19983 -0.01193,-0.20283 z m -1.321347,-0.77794 c -0.01033,-0.24771 0.560012,-1.6298 0.9357,-2.26746 0.373948,-0.63471 0.413028,-0.75592 0.463531,-1.43763 l 0.05515,-0.74449 0.0151,0.68924 c 0.01404,0.64059 -0.0058,0.72403 -0.281052,1.18241 -0.443303,0.73822 -0.581364,1.02993 -0.896633,1.89456 -0.158086,0.43355 -0.289397,0.74107 -0.291802,0.68337 z m -15.682304,-3.49982 c 0,-0.31559 0.983428,-1.26271 1.298705,-1.25076 0.09976,0.004 0.08069,0.0319 -0.05978,0.0882 -0.383998,0.1538 -0.733221,0.45696 -0.986577,0.85646 -0.138789,0.21885 -0.252344,0.35661 -0.252344,0.30613 z m 4.66924,-0.40234 c -0.197806,-0.20473 -0.459127,-0.57179 -0.580715,-0.81568 -0.261775,-0.52508 -0.439237,-0.69232 -0.649651,-0.61221 -0.116701,0.0444 -0.129817,0.034 -0.05373,-0.0427 0.192209,-0.19376 0.449713,0.009 0.75988,0.59767 0.170407,0.32354 0.447286,0.72098 0.615286,0.88319 0.297916,0.28767 0.320224,0.29394 0.903777,0.25432 0.329077,-0.0223 0.677149,-0.067 0.773494,-0.0992 0.09634,-0.0322 0.05693,-6.1e-4 -0.08759,0.0702 -0.144517,0.0708 -0.500889,0.13053 -0.791936,0.1327 -0.509788,0.004 -0.542356,-0.01 -0.888824,-0.36829 z m -1.415427,0.17082 c -0.02425,-0.29124 -0.282151,-0.68083 -0.56479,-0.85316 -0.154221,-0.094 -0.22804,-0.17112 -0.164042,-0.1713 0.064,-1.8e-4 0.273855,0.15406 0.466347,0.34275 0.281169,0.27561 0.342674,0.39186 0.312797,0.5912 -0.02045,0.13648 -0.04309,0.1772 -0.05031,0.0905 z m 13.708336,-1.11237 c -0.10447,-0.55215 -0.567856,-1.39405 -1.011438,-1.83763 -0.238996,-0.239 -0.462663,-0.52436 -0.497038,-0.63415 -0.126736,-0.40476 -0.565822,-0.92371 -1.061688,-1.25479 -0.666308,-0.44489 -0.777645,-0.55337 -0.300768,-0.29304 0.589604,0.32186 1.085122,0.80046 1.316358,1.27143 0.115344,0.23493 0.396716,0.62747 0.625272,0.87231 0.551116,0.5904 1.129209,1.76117 1.023928,2.0737 -0.02014,0.0598 -0.06273,-0.0292 -0.09463,-0.19783 z m 0.730265,-0.80667 c 0,-0.31921 -0.02343,-0.65258 -0.05205,-0.74083 -0.04329,-0.13343 -0.03615,-0.13832 0.04245,-0.0291 0.05198,0.0723 0.09511,0.34631 0.09585,0.60899 l 0.0013,0.4776 0.350345,-0.3421 c 0.192689,-0.18816 0.350345,-0.3029 0.350345,-0.25498 0,0.0479 -0.177363,0.26119 -0.394138,0.47394 l -0.394138,0.38682 z m -12.813999,-0.20058 c 0.558778,-0.72333 1.691875,-1.69813 2.39124,-2.05717 0.334368,-0.17166 0.195797,-0.0615 -0.542145,0.43093 -0.370438,0.2472 -0.998922,0.79306 -1.39663,1.21302 -0.397709,0.41996 -0.601318,0.60591 -0.452465,0.41322 z m -2.052989,-0.0512 c 0.08473,-0.0493 0.310416,-0.30137 0.501534,-0.56008 0.191118,-0.2587 0.42052,-0.49355 0.509783,-0.52188 0.111273,-0.0353 0.206984,-0.22325 0.304442,-0.59778 l 0.142146,-0.54626 -0.04838,0.48173 -0.04838,0.48172 1.258143,-1.24262 c 1.081986,-1.06863 1.349941,-1.28572 1.913784,-1.5505 0.360603,-0.16934 0.773884,-0.32994 0.918401,-0.3569 0.144518,-0.027 0.0563,0.0277 -0.196046,0.12155 -1.035862,0.38508 -1.457867,0.69018 -2.6785,1.93648 -0.676735,0.69097 -1.32433,1.27372 -1.494426,1.34479 -0.196154,0.082 -0.382239,0.26545 -0.536992,0.52952 -0.13025,0.22225 -0.308782,0.44261 -0.396738,0.48968 -0.212578,0.11377 -0.345827,0.10531 -0.148768,-0.009 z m -2.44042,-0.29001 c -0.41919,-0.19519 -0.910523,-0.61679 -0.910523,-0.78129 0,-0.0403 0.103492,0.0497 0.229983,0.20001 0.25819,0.30684 0.742774,0.57972 1.235725,0.69586 0.247018,0.0582 0.274843,0.0797 0.110843,0.0856 -0.120431,0.004 -0.420144,-0.0857 -0.666028,-0.20022 z m 1.330049,0.11571 c 0.399959,-0.11613 0.549663,-0.33467 0.75299,-1.09922 0.267808,-1.00702 0.33889,-0.97099 0.131917,0.0669 -0.09867,0.49477 -0.195418,0.85154 -0.214995,0.79281 -0.0236,-0.0708 -0.123781,-0.0326 -0.297345,0.11347 -0.143964,0.12113 -0.347409,0.21669 -0.452101,0.21235 -0.145707,-0.006 -0.127055,-0.0263 0.07953,-0.0863 z m 15.327774,-1.78762 c -0.271216,-0.68525 -0.402232,-0.8966 -0.749145,-1.20851 -0.454394,-0.40854 -1.221731,-0.84894 -1.952466,-1.12059 -0.252343,-0.0938 -0.340563,-0.14873 -0.196046,-0.12205 0.51848,0.0957 1.666989,0.71621 2.158811,1.16629 0.421199,0.38546 0.54213,0.57126 0.814173,1.25096 0.175724,0.43904 0.304621,0.81314 0.286436,0.83132 -0.01818,0.0182 -0.180977,-0.34065 -0.361763,-0.79742 z m -17.535027,-0.39546 c 0.07166,-0.26114 0.517823,-1.22977 0.551116,-1.19648 0.01876,0.0188 -0.105673,0.32521 -0.276526,0.68099 -0.170852,0.35578 -0.294418,0.58775 -0.27459,0.51549 z m 12.473044,-0.94079 c 0.302965,-0.0172 0.775931,-0.017 1.051035,3.5e-4 0.275103,0.0173 0.02722,0.0314 -0.550847,0.0312 -0.578069,-1.7e-4 -0.803154,-0.0144 -0.500188,-0.0315 z m -1.182648,-1.48885 c 0.27875,-0.0174 0.712301,-0.0173 0.963448,3.6e-4 0.251146,0.0176 0.02308,0.0319 -0.506819,0.0317 -0.529896,-2e-4 -0.735379,-0.0146 -0.456629,-0.032 z m 6.257262,-0.69909 c 0.155486,-0.0194 0.431383,-0.0197 0.613104,-7.1e-4 0.18172,0.019 0.0545,0.0348 -0.282702,0.0352 -0.337207,3.9e-4 -0.485888,-0.0151 -0.330402,-0.0345 z m -1.401379,-0.0876 c 0.155486,-0.0194 0.431382,-0.0197 0.613104,-7.1e-4 0.18172,0.019 0.05451,0.0348 -0.282702,0.0352 -0.337207,3.8e-4 -0.485888,-0.0151 -0.330402,-0.0345 z m -14.865805,-0.14394 c 0,-0.2502 -0.368651,-0.58321 -0.752662,-0.67991 -0.548072,-0.138 -0.535354,-0.20701 0.03915,-0.21241 0.272001,-0.003 0.425574,0.0102 0.341272,0.0283 -0.201335,0.0433 -0.202072,0.0414 0.153276,0.39675 0.26185,0.26185 0.407363,0.58683 0.262759,0.58683 -0.02409,0 -0.04379,-0.0538 -0.04379,-0.11957 z m 13.641551,0.0562 c 0.156561,-0.0194 0.41275,-0.0194 0.569311,0 0.15656,0.0194 0.02846,0.0353 -0.284655,0.0353 -0.313121,0 -0.441216,-0.0159 -0.284656,-0.0353 z m -1.313793,-0.0876 c 0.156561,-0.0194 0.41275,-0.0194 0.569311,0 0.15656,0.0194 0.02846,0.0353 -0.284655,0.0353 -0.313121,0 -0.441216,-0.0159 -0.284656,-0.0353 z m -6.342991,-0.6296 c -0.345395,-0.0283 -0.649339,-0.073 -0.675431,-0.0992 -0.0689,-0.0693 1.081161,0.006 1.391009,0.0911 0.294867,0.081 0.187423,0.0822 -0.715578,0.008 z m -9.808059,-0.30712 c -0.446488,-0.20789 -0.906446,-0.72192 -0.906294,-1.01284 3.8e-5,-0.0731 0.07864,0.0247 0.174673,0.2174 0.206217,0.41378 0.640811,0.73159 1.209957,0.88482 0.267229,0.0719 0.334285,0.11237 0.191852,0.11566 -0.120431,0.003 -0.422016,-0.0895 -0.670188,-0.20504 z m -0.380519,-0.53509 c -8.91e-4,-0.24478 0.709988,-0.84923 0.84269,-0.71653 0.02115,0.0212 -0.08571,0.0899 -0.237464,0.15276 -0.151759,0.0629 -0.349945,0.23567 -0.440412,0.38403 -0.09047,0.14835 -0.164634,0.22924 -0.164814,0.17974 z m -0.598057,-0.96104 c -0.0045,-0.1944 0.06667,-0.48679 0.159799,-0.65689 0.09231,-0.16861 0.169482,-0.2744 0.171501,-0.23511 0.002,0.0393 -0.04379,0.15754 -0.101793,0.26276 -0.05801,0.10522 -0.131567,0.36867 -0.16347,0.58545 l -0.05801,0.39414 z m 1.963296,-1.53276 c 0.06515,-0.27072 1.016188,-2.28951 1.058593,-2.2471 0.01691,0.0169 -0.180708,0.48015 -0.439145,1.02944 -0.258438,0.54928 -0.515395,1.09723 -0.571016,1.21766 l -0.101128,0.21897 z m -1.27798,-0.20571 c 0,-0.0954 1.047753,-2.15911 1.096178,-2.15911 0.03918,0 -0.979814,2.09327 -1.062361,2.18235 -0.0186,0.0201 -0.03382,0.01 -0.03382,-0.0232 z"
         id="path275"
         inkscape:connector-curvature="0" />
    </g>
  </g>
</svg>
