<?xml version="1.0" encoding="UTF-8" standalone="no"?>
<svg
   xmlns:dc="http://purl.org/dc/elements/1.1/"
   xmlns:cc="http://creativecommons.org/ns#"
   xmlns:rdf="http://www.w3.org/1999/02/22-rdf-syntax-ns#"
   xmlns:svg="http://www.w3.org/2000/svg"
   xmlns="http://www.w3.org/2000/svg"
   xmlns:sodipodi="http://sodipodi.sourceforge.net/DTD/sodipodi-0.dtd"
   xmlns:inkscape="http://www.inkscape.org/namespaces/inkscape"
   version="1.0"
   width="587.01495pt"
   height="587.01495pt"
   viewBox="0 0 587.01495 587.01495"
   preserveAspectRatio="xMidYMid meet"
   id="svg2"
   inkscape:version="0.91 r13725"
   sodipodi:docname="Toki_pona.svg">
  <defs
     id="defs22" />
  <sodipodi:namedview
     pagecolor="#ffffff"
     bordercolor="#666666"
     borderopacity="1"
     objecttolerance="10"
     gridtolerance="10"
     guidetolerance="10"
     inkscape:pageopacity="0"
     inkscape:pageshadow="2"
     inkscape:window-width="1213"
     inkscape:window-height="778"
     id="namedview20"
     showgrid="false"
     fit-margin-top="0"
     fit-margin-left="0"
     fit-margin-right="0"
     fit-margin-bottom="0"
     inkscape:zoom="0.30599676"
     inkscape:cx="180.9627"
     inkscape:cy="363.61635"
     inkscape:window-x="59"
     inkscape:window-y="-8"
     inkscape:window-maximized="1"
     inkscape:current-layer="svg2" />
  <metadata
     id="metadata4">
Created by potrace 1.5, written by Peter Selinger 2001-2004
<rdf:RDF>
  <cc:Work
     rdf:about="">
    <dc:format>image/svg+xml</dc:format>
    <dc:type
       rdf:resource="http://purl.org/dc/dcmitype/StillImage" />
    <dc:title></dc:title>
  </cc:Work>
</rdf:RDF>
</metadata>
  <g
     transform="matrix(0.709091,0,0,-0.709091,58.926657,602.18597)"
     id="g6"
     style="fill:#000099;stroke:none">
    <path
       d="m 302,838 c -14,-14 -16,-126 -3,-147 5,-8 16,-11 25,-8 12,5 16,21 16,71 0,89 -10,112 -38,84 z"
       id="path8"
       inkscape:connector-curvature="0"
       style="fill:#000099;stroke:none" />
    <path
       d="m 521,775 c -27,-57 -32,-108 -10,-113 18,-3 84,122 75,144 -11,30 -44,15 -65,-31 z"
       id="path10"
       inkscape:connector-curvature="0"
       style="fill:#000099;stroke:none" />
    <path
       d="M 34,797 C 26,775 93,639 110,643 148,650 99,810 59,810 48,810 37,804 34,797 Z"
       id="path12"
       inkscape:connector-curvature="0"
       style="fill:#000099;stroke:none" />
    <path
       d="M 254,590 C 204,583 126,538 79,490 -19,390 14,144 136,67 199,27 243,17 336,23 c 125,7 212,62 275,172 53,92 32,220 -51,317 -62,71 -170,99 -306,78 z"
       id="path14"
       inkscape:connector-curvature="0"
       style="fill:#000099;stroke:none" />
    <path
       d="M 443,539 C 490,526 555,469 581,419 605,371 607,272 584,229 562,186 502,121 467,104 330,33 190,49 116,145 77,197 65,237 65,320 c 1,77 19,113 82,161 80,63 198,86 296,58 z"
       id="path16"
       inkscape:connector-curvature="0"
       style="fill:#ffff63;stroke:none" />
    <path
       d="m 462,367 c -5,-7 -15,-28 -21,-48 -21,-67 -100,-120 -144,-98 -30,15 -65,56 -88,102 -21,40 -51,48 -57,14 -5,-26 53,-111 96,-141 89,-62 204,-7 252,119 15,40 -15,81 -38,52 z"
       id="path18"
       inkscape:connector-curvature="0"
       style="fill:#000099;stroke:none" />
  </g>
</svg>
