<?xml version="1.0" standalone="no"?>
<!DOCTYPE svg PUBLIC "-//W3C//DTD SVG 1.1//EN" "http://www.w3.org/Graphics/SVG/1.1/DTD/svg11.dtd" >
<!--
2003-08-29: Created.
2004-07-25: v(1.0) release candidate
2005-12-28: v(1.1.0) stable
2006-01-01: v(2.0.0) stable
2006-09-05: v(2.2.0) stable
2006-12-04: v(2.3.0) stable
2007-03-11: v(2.4.0) stable
2007-12-00: v(2.7.0) stable
2008-06-00: v(2.8.14) stable

-->
<svg>
<metadata>
Created by FontForge 20120601 at Mon Jul  2 00:09:41 2012
 By Gillian Tiefenlicht
Linux Libertine by Philipp H. Poll,
Open Font under Terms of following Free Software Licenses:
GPL (General Public License) with font-exception and OFL (Open Font License).
Created with FontForge (http://fontforge.sf.net)
Sept 2003, 2004, 2005, 2006, 2007, 2008, 2009, 2010, 2011,2012
</metadata>
<defs>
<font id="LinLibertineIO" horiz-adv-x="1000" >
  <font-face 
    font-family="Linux Libertine Initials O"
    font-weight="400"
    font-stretch="normal"
    units-per-em="1000"
    panose-1="2 0 5 3 0 0 0 0 0 0"
    ascent="754"
    descent="-246"
    cap-height="681.1"
    bbox="-1082 -257 6171 894"
    underline-thickness="40"
    underline-position="-98"
    stemh="29"
    stemv="79"
    unicode-range="U+0020-FFFD"
  />
<missing-glyph horiz-adv-x="500" 
d="M50 603v-508l170 254zM80 50h340l-170 254zM280 349l170 -254v508zM250 394l170 253h-340zM0 0v698h500v-698h-500z" />
    <glyph glyph-name="Q_u.sc" unicode="Q&#xe065;" horiz-adv-x="1429" 
d="M628.5 310c0 -154.8 -72 -273 -180 -273c-106 0 -217 107 -217 290c0 201.9 104 284 178 284c116.2 0 219 -108.6 219 -301zM409.5 603c-68 0 -170 -76.7 -170 -276c0 -179.8 108.6 -282 209 -282c103.2 0 172 114.6 172 265c0 189.1 -100.3 293 -211 293zM1151.7 406.6
c13.7001 -0.899994 24.6001 -1.5 32.9 -2.60001c18.4 -2.39999 21.5 -4.5 24.2001 -22.2c1.29993 -8.69998 1.79993 -14.3 2.19995 -43.8v-127c0 -92.4 -2.40002 -165 -109 -165c-77.6 0 -97 49.7 -97 156v136c0 19.4 0.700012 33.9 2.20001 43.6
c2.70001 17.7 6.09998 19.4 24.4 22c6.70007 0.899994 10.3 1.39999 32.7001 3.19998c13.7 13.9 17.2 21.2 17.2 38.7c0 17.9 -10.2 31.4 -18.2 39.7c-44.5001 -1.10001 -75.1 -2.20001 -121.3 -2.20001c-44.6 0 -63.9 0.899994 -120.3 2.20001
c-11 -10.8 -17 -14.6 -18.2 -39.9c0 -0.699982 -0.0999756 -1.39999 -0.0999756 -2.29999c0 -6.79999 1.5 -19.9 17.5 -36.4c13.6 -0.899994 24.4 -1.5 32.7 -2.60001c18.4 -2.39999 21.5 -4.5 24.2 -22.2c1.29999 -8.69998 1.79999 -14.3 2.20001 -43.8v-157
c0 -162.1 106.8 -214 205 -214c175.2 0 219 106.7 219 257v114c0 19.4 0.699951 33.9 2.19995 43.6c2.70007 17.7 6.1001 19.4 24.4 22c6.70007 0.899994 10.3 1.39999 32.7001 3.19998c11.5 11.7 17.2 20.8 17.2 38.7c0 17.2 -10.3 31.5 -18.3 39.8
c-33.2999 -1.09998 -72.1 -2.29999 -105.2 -2.29999s-70.9 1.20001 -104.2 2.29999c-11.9 -12.1 -18.3 -23.1 -18.3 -39.8c0 -7.79999 0.0999756 -23.7 17.2 -38.9zM1126.5 445.5c0 19.7 8.69995 33.5 21.9 46.7l1.19995 1.19998h1.70007
c33.7 -1.10001 72.2 -2.39999 105.7 -2.39999c33.4 0 73.1 1.29999 106.7 2.39999h1.70007l1.19995 -1.19998c20.6 -20.6 21.9 -39.8 21.9 -46.7c0 -20.5 -8 -32.8 -20.6 -45.4l-1 -1.10001l-1.5 -0.100006c-23.8 -2 -27.1 -2.29999 -33.7001 -3.19998
c-15.5 -2.20001 -15.6 -2.20001 -17.6 -15.3c-1.40002 -9 -2.09998 -23.2 -2.09998 -42.4v-114c0 -152.6 -45.4 -265 -227 -265c-103.2 0 -213 55.7 -213 222v157c-0.400024 29.5 -0.799988 34.3 -2.09998 42.6c-2 13.2 -2.10004 13.4 -17.3 15.4
c-8.09998 1.10001 -19.4 1.79999 -33.8 2.70001l-1.5 0.0999756l-1 1.10001c-11.3 11.3 -20.9 25.8 -20.9 43.1c0 1 0.0999756 2 0.0999756 2.70001c1.29999 27.3 7.5 32.2 21.7 46.4l1.29999 1.19998h1.70001c57.8 -1.29999 76.9 -2.29999 121.8 -2.29999
c46.7 0 77.3 1.20001 122.8 2.29999h1.69995l1.19995 -1.19998c8.70007 -8.70001 21.8 -24.5 21.8 -46.6c0 -22.4 -8.19995 -33 -20.6 -45.4l-1 -1.10001l-1.5 -0.100006c-23.8 -2 -27.1 -2.29999 -33.7001 -3.19998c-15.4999 -2.20001 -15.6 -2.20001 -17.6 -15.3
c-1.39996 -9 -2.09998 -23.2 -2.09998 -42.4v-136c0 -106.8 19.5 -148 89 -148c98.4 0 101 64.1 101 157v127c-0.400024 29.5 -0.800049 34.3 -2.09998 42.6c-2 13.2 -2.09998 13.4 -17.3 15.4c-8.09998 1.10001 -19.4 1.79999 -33.7999 2.70001l-1.30005 0.0999756
l-1 0.900024c-17.7 15.1 -21 31.8 -21 45.8zM899.8 -85l21.1 11.9l55 -58.2l-22.7 -21.3c-70.3 -65.8 -179.7 -104.4 -289.2 -104.4c-87.8 0 -164.5 16.5 -242.7 48.3c-117.3 47.7 -170.2 64.7 -232.1 64.7h-1.2c-0.699997 -0.100006 -0.899994 0.100006 -0.899994 0.100006
c-0.400009 -0.200012 -0.800003 -0.400009 -1 -0.400009c-0.5 -0.0999908 -1.40001 -0.300003 -1.8 -0.399994c-5.40001 -1.3 -34.4 -9.7 -47.9 -40.7l-13 -30l-101.9 51l21.4 29.6c31.2 43.1 73.4 84.9 122.8 120.9c15.3 11.1 35.5 24.3 59.5 36.5
c-83.4 60.2 -137.7 160.1 -137.7 287.4c0 92.4 23.6 177.6 72.2 244.3c63.1 86.6 157.7 134.7 262.8 134.7c193.5 0 350 -133 350 -360c0 -88.9 -21.3 -167.9 -65.4 -230.8c-60.4 -86.2 -157.2 -139.2 -278.6 -139.2c-25.8 0 -51.1 2.6 -75.5 7.7l-4.10001 -0.900002
c-8.60001 -2 -19.7 -5.4 -32.6 -10.5c51.8 -5.9 121.2 -19 196.9 -48.4c89.5 -34.8 133.9 -46.9 205.8 -46.9c41.7 0 115.7 18.5 180.8 55zM719 -148c-72.9 0 -119.1 12.6 -208.7 47.4c-82.7 32.2 -158 44.7 -210.4 49.5l-15.2 1.5l13.9 6.2c19.5 8.7 36.2 14.2 48.5 17
l5.79999 1.3l0.899994 -0.199999c24.1 -5.1 49.1 -7.7 74.7 -7.7c114.7 0 210.6 48.2 272 135.8c43 61.3 64 138.6 64 226.2c0 221.9 -152.2 352 -342 352c-102.5 0 -194.8 -47.1 -256.3 -131.5c-47.4 -65 -70.7 -148.4 -70.7 -239.5c0 -127.7 55.4 -226.5 139.8 -284.7
l5.59999 -3.9l-6.09999 -3c-26.1 -12.7 -48.1 -27 -64.3 -38.8c-48.7 -35.5 -90.5 -76.8 -121.1 -119.1l-15.9 -21.9l85.9 -43l9.7 22.2c15 34.6 47.4 43.9 53.4 45.3c0.399994 0.0999908 1 0.299988 2 0.5c0.800003 0.199997 1.8 0.299988 3.5 0.399994h1.2
c63.6 0 117.8 -17.6 235.1 -65.3c77.4 -31.5 152.9 -47.7 239.7 -47.7c107.7 0 215.3 38.1 283.7 102.2l16.9 15.8l-45.2 47.8l-15.6 -8.7c-66.4 -37.2 -141 -56.1 -184.8 -56.1zM409.5 634c-91 0 -201 -97 -201 -307c0 -192 118 -313 240 -313c114 0 203 117 203 296
c0 202 -110 324 -242 324zM1234 338c0 83 -11 87 -72 91c-6 6 -6 27 0 33c30 -1 65 -2 95 -2s66 1 96 2c6 -6 6 -27 0 -33c-61 -5 -72 -8 -72 -91v-114c0 -146 -41 -234 -196 -234c-85 0 -182 41 -182 191v157c0 83 -11 87 -72 91c-6 6 -6 27 0 33c43 -1 68 -2 111 -2
c44 0 70 1 112 2c6 -6 6 -27 0 -33c-61 -5 -72 -8 -72 -91v-136c0 -93 13 -179 120 -179c132 0 132 102 132 188v127zM502 -122c90 -35 141 -49 217 -49c50 0 130 22 196 59l17 -18c-63 -59 -164 -96 -268 -96c-84 0 -155.8 15.4 -231 46c-118 48 -176 67 -245 67
c-15 0 -60 -14 -80 -60l-40 20c29 40 69.1 79.8 116 114c34 24.8 72.9 45.2 111.5 56.7c-104.3 46.7 -177 150.3 -177 292.3c0 87.2 22.4 165.7 66.3 226c54.8 75.2 138.4 122 237.7 122c179 0 319 -122 319 -329c0 -84 -20 -156.3 -59.8 -213
c-54.9 -78.3 -142.4 -126 -253.2 -126c-23.2 0 -45.9 2.2 -67.7 6.8c-6.19998 1.3 -12.5 0.9 -18.8 -0.8c-35 -8 -83.9 -30.2 -129 -62l-9.7 -7.1c9.59999 1.3 19.9 2.1 30.7 2.1c30 0 139.9 -1.2 268 -51z" />
    <glyph glyph-name="one" unicode="1" horiz-adv-x="618" 
d="M361.9 109c0 -83 17 -88 87 -91c6 -6 6 -17 0 -23c-50 1 -72.5 5 -119 5c-49.2 0 -77 -4 -126 -5c-6 6 -6 17 0 23c70 3 87 8 87 91v341c0 34 -3.5 58 -20 58c-19 0 -41.5 -6 -87 -25c-9 6.10001 -13.4 15.6 -15 27c88 41 134.7 65.7 190 100c3.5 0 6 -0.200012 6 -5
c-1.69998 -13 -3 -74 -3 -134v-362zM392.9 129c0 -78.2 0.800018 -77.6 67.9 -80.5h1.5l1.10001 -1.1c30.9 -30.9 21 -60.8 -0.699982 -82.5l-1.20001 -1.2h-1.70001c-57.5 1.2 -86.8 5.3 -129.9 5.3c-53.3 0 -85.5 -4.3 -136.9 -5.3h-1.7l-1.2 1.2
c-30.2 30.2 -23.1 60.1 -0.700012 82.5l1.10001 1.1h2.2c71.1 3.1 67.2 7.5 67.2 80.5v321c0 9.89999 -1.19998 14.5 -2.39999 17.7c-7.7 19.8 -37.8 -3.40002 -75.2 -19l-2 -0.800018l-1.7 1.20001c-30.8 21 -38 39.7 -43.2 76.4l-0.399994 2.90002l2.7 1.29999
c95 44.3 154.6 75.4 211.4 110.7l1 0.599976h8.79999c20.6 0 37 -22.6 37 -36c0 -13.6 -3 -77.5 -3 -134v-342zM384.9 129v342c0 56.6 3 121 3 134c0 8.90002 -13.9 28 -29 28h-6.5c-56.2 -34.8 -114.1 -65.2 -208.6 -109.3c4.89999 -32.4 10.7 -48 37.5 -66.7
c28.9 12.5 70.9 43.9 83.3 14.3c1.79999 -4.39999 3.29999 -10.3 3.29999 -21.3v-321c0 -73.3 -0.399994 -85.1 -73.9 -88.4c-18.2 -19 -25.1 -41.9 0.600006 -68.8c49 1.1 82.2 5.2 135.3 5.2c43.5 0 70.9 -3.9 128.3 -5.2c17.7 18.3 26.8 41.3 0.599976 68.8
c-67.7 3 -73.9 9.1 -73.9 88.4z" />
    <glyph glyph-name="two" unicode="2" horiz-adv-x="618" 
d="M133.3 468c0 60 59 142 170 142c81 0 179 -44 179 -152c0 -76 -43 -120 -100 -175l-101 -97c-5 -5 -74 -83 -74 -131h188c36 0 53 35 70 106c10 2 13 0 19 -5c-1 -30 -11 -105 -24 -158c0 0 -46 2 -78 2h-175c-32 0 -73 -2 -73 -2c0 59 16 107 114 207l74 73
c59 60 72 112 72 176c0 96 -61 131 -97 131c-73 0 -94 -46 -94 -71c0 -8 6 -17 8 -24s4 -12 4 -20c0 -19 -25 -34 -42 -34c-21 0 -40 11 -40 32zM102.3 468c0 73.1 61.8 152.2 159.4 169.4c17.2 3 30.7 3.59998 41.6 3.59998c93.2 0 210 -54.2 210 -183
c0 -93.1 -56 -145.7 -109.5 -197.3l-100.7 -96.7c-12.1 -11.6 -41.2 -50.3 -54.9 -78h147.1c10.8 0 28 33 43.8 99l0.600006 2.5l2.5 0.5c38.4 7.7 56.3 -3.5 72 -16.6l1.5 -1.29999v-1.90001c-1.60004 -47.2 -10.5 -117.4 -25.3 -177.6l-6.10001 -24.7l-3.29999 0.199997
c-28.2 1.2 -49.6 2.9 -98.7 2.9h-175c-52.9 0 -67.1 -1.7 -99.9 -3.3l-4.1 -0.200001v32.5c0 70.3 24.4 131.6 123 228.9l74 73c55.6 56.6 63 97.9 63 154.1c0 85 -51.1 100 -66 100c-10.5 0 -12.4 -0.5 -15.2 -0.900024c-43.2 -5.39996 -47.1 -30 -47.8 -37.6
c2.3 -5.89999 5.5 -12.3 6.8 -17c2.29999 -8.10001 5.2 -20.1 5.2 -28.5c0 -50.7 -51.9 -65 -73 -65c-35.2 0 -71 22.8 -71 63zM110.3 468c0 -34.5 30.7 -55 63 -55c19.7 0 65 13.4 65 57c0 7.10001 -2.60001 18.3 -4.90001 26.3c-1.29999 4.5 -5 11.8 -6.89999 17.4
l-0.300003 0.700012l0.100006 0.799988c0.5 9.79999 6.39999 39.7 54.8 45.8c2.89999 0.400024 5.29999 1 16.2 1c19.3 0 74 -18.9 74 -108c0 -57.3 -8.19998 -101.6 -65.3 -159.7l-74.1 -73.1c-98 -96.6 -120.6 -155.3 -120.6 -223.2v-24.1c29.3 1.5 45.1 3.1 96 3.1h175
c46.9 0 68.1 -1.5 95.8 -2.8l4.5 18.3c14.4 58.7 23.2 126.7 25 174c-13.6 10.9 -27.7 20.2 -61.3 14.1c-14.8 -60.7 -30.5 -102.6 -51 -102.6h-159.7l2.59999 5.7c14.6 32 45.2 72.5 59.3 86.1l100.7 96.6c53.7 51.8 107.1 102.2 107.1 191.6c0 122.5 -111 175 -202 175
c-10.5 0 -23.6 -0.5 -40.2 -3.40002c-94.1 -16.6 -152.8 -92.8 -152.8 -161.6z" />
    <glyph glyph-name="three" unicode="3" horiz-adv-x="465" 
d="M219 585c-26 0 -95 -22 -95 -86c0 -19 -10 -52 -39 -52c-24 0 -34 20 -34 34c0 33 42 129 189 129c102 0 140 -64 140 -106c0 -34 -5 -80 -100 -140l1 -2c59 -10 136 -51 136 -160c0 -132 -106 -213 -225 -213c-60 0 -144 27 -144 67c0 16 21 35 42 35
c20 0 33 -12 43 -26c12 -18 21 -51 72 -51c35 0 130 41 130 174c0 113 -75 131 -132 131c-13 0 -26 0 -43 -2l-5 22c90 14 154 101 154 150c0 62 -46 96 -90 96zM219 554c-22.2 0 -64 -21.1 -64 -55c0 -27.6 -16.3 -83 -70 -83c-51.3 0 -65 45 -65 65
c0 47.7 46.2 131.6 157.6 154.1c23.1 4.70001 44.1 5.90002 62.4 5.90002c121.8 0 171 -80.6 171 -137c0 -35.7 -11.1 -82.8 -65.3 -130.4c57.2 -28.2 102.3 -84.5 102.3 -171.6c0 -131.8 -92.6 -215.8 -196.5 -237.8c-22.9 -4.9 -42.2 -6.2 -59.5 -6.2
c-61 0 -175 22.6 -175 98c0 44.3 43.7 66 73 66c39 0 58.4 -25.3 68.5 -39.4c19.7 -29.6 14.5 -37.6 46.5 -37.6c3.39999 0 12 2 16.7 3.6c34.3 11.9 82.3 50.4 82.3 139.4c0 94.1 -53.3 100 -101 100c-16.1 0 -27.5 -0.399994 -39.4 -1.79999l-27.7 -3.20001l-18.5 81.5
l32.8 5.10001c41.6 6.5 74.5 31.1 96.3 56.2c24.2 27.9 31.5 52.8 31.5 63.2c0 47.6 -33.6 65 -59 65zM219 562c28.9 0 67 -20.5 67 -73c0 -13.3 -8.29999 -39.3 -33.5 -68.4c-22.6 -26.1 -56.9 -52 -101 -58.9l-24.4 -3.80002l15.1 -66.2l20.5 2.5
c12.3 1.5 24.1 1.79999 40.3 1.79999c48.8 0 109 -8.29999 109 -108c0 -92.3 -50.5 -134.1 -87.7 -147c-5.40001 -1.9 -14 -4 -19.3 -4c-36.1 0 -35 13.9 -53.1 41.1c-9.59999 13.5 -27 35.9 -61.9 35.9c-26.7 0 -65 -20 -65 -58c0 -66.1 104.9 -90 167 -90
c16.8 0 35.6 1.3 57.8 6c100.9 21.4 190.2 102.5 190.2 230c0 87.1 -46.5 141.3 -103.3 167l-5.80002 2.60001l4.89999 4.10001c56.9 47.5 67.2 93.8 67.2 128.3c0 51.9 -45.3 129 -163 129c-17.9 0 -38.4 -1.29999 -60.8 -5.79999c-108 -21.8 -151.2 -102.8 -151.2 -146.2
c0 -17.8 12 -57 57 -57c46.6 0 62 48.6 62 75c0 40.7 47.3 63 72 63z" />
    <glyph glyph-name="four" unicode="4" horiz-adv-x="465" 
d="M430 199c11 0 15 -6 15 -16c0 -12 -15 -21 -29 -21h-71v-95c0 -47 18 -43 67 -47c6 -6 6 -19 0 -25c-32 1 -61.6 5 -101 5c-43.7 0 -80 -4 -112 -5c-6 6 -6 19 0 25c43 3 81 1 81 47v95h-213c-30 0 -30 27 -33 42c0 1 1 2 2 3l278 392c3 5 8 11 15 11h17c6 0 9 -7 6 -12
c-75 -109 -190 -287 -266 -399h194v176c0 7 0 16 10 21c12 8 25 18 41 18c14 0 14 -12 14 -33v-182h85zM430 222h-62v159c0 6.70001 6.5 56 -37 56c-20.7 0 -38.4 -11.6 -52.6 -21.1l-0.100006 -0.100006h-0.0999756c-4.10001 -2.29999 -8.80002 -6.29999 -12.9 -13
c-5.19998 -8.39999 -8.29999 -21 -8.29999 -27.8v-153h-128l242.5 363.8l0.200012 0.400024c3.79999 6.39996 9 32.7 -8.30002 42.8c-3.19998 1.79999 -7.69998 4 -17.4 4h-17c-14.1 0 -27.1 -10 -34.2 -21.3v-0.100037l-276.5 -389.9l-0.199999 -0.0999908
c-1.7 -1.90001 -7.1 -7.20001 -7.1 -17.6v-2.3l0.4 -2.2c0.3 -1.7 0.1 -60.5 55.6 -60.5h190v-62c0 -22.1 -15.4 -30.9 -68.2 -34.7c-19.3 -20.1 -24.6 -43.8 1 -70.5c35.3 1.2 70.2 5.2 121.2 5.2c37.8 0 69.2 -3.8 110.2 -5.2c18 18.7 27.8 42.4 1.09998 70.4
c-13.2 1.1 -43 2.9 -50 5l-2.09998 0.599998l-0.600006 2.1c-6 21.2 -1.60001 58.8 -1.60001 85.1v4h48c13.9 0 52 6.39999 52 44c0 11.3 -7.79999 39 -38 39zM251.8 391.9l-107.9 -161.9h105.1v145c0 5.20001 1.39999 12 2.8 16.9zM273.9 422.6
c13.9 9.39999 33.7 22.4 57.1 22.4c53.1 0 45 -60.9 45 -64v-151h54c36.8 0 46 -33.9 46 -47c0 -45.2 -45.5 -52 -60 -52h-40c-0.5 -28 -3.5 -57.8 0.700012 -76.5c10.6 -1.7 35.3 -3.4 47.7 -4.4l1.5 -0.199997l1 -1c31.4 -31.4 20.7 -62.2 -1.19998 -84.1l-1.30002 -1.2
l-1.69998 0.100002c-41.7 1.3 -73.9 5.3 -111.7 5.3c-51.4 0 -84.8 -4.1 -122.7 -5.3l-1.7 -0.100002l-1.3 1.2c-29.9 29.9 -24.8 60.6 -1.10001 84.3l1.10001 1l1.5 0.100002c54.9 3.8 62.2 11.6 62.2 26.8v54h-182c-62.7 0 -63.3 66.3 -63.4 67.1l-0.6 2.79999v3.10001
c0 13.9 7.1 20.7 9.1 22.9c0.0999994 -0.0999908 55.1 77.7 276 389.2c8.10001 12.8 23.2 24.9 40.9 24.9h17c11.2 0 17.3 -2.59998 21.5 -5.09998c23.7 -13.8 15.8 -45.9 11.1 -53.8l-0.399994 -0.699951l-106.7 -160.1z" />
    <glyph glyph-name="five" unicode="5" horiz-adv-x="465" 
d="M325 189c0 109 -57 162 -122 162c-36 0 -74 -4 -127 -24l34 278c35 -3 71 -5 108 -5c53 0 107 5 164 11l7 -4l-16 -58c-41 -4 -75 -6 -105 -6c-48 0 -90 5 -127 9l-20 -177c18 7 65 16 108 16c112 0 179 -87 179 -184c0 -126 -88 -218 -212 -218c-57 0 -142 34 -142 75
c0 20 19 31 38 31c21 0 38 -15 51 -32c15 -20 28 -49 66 -49c60 0 116 80 116 175zM294 189c0 101.7 -49.3 131 -91 131c-35.9 0 -70.1 -4.60001 -116.1 -22l-47.9 -18.1l43.9 358.5l3.8 -0.300049c44.1 -3.79999 90.6 -7.09998 131.3 -7.09998
c56.8 0 114 5.90002 169.4 11.7l1.30002 0.200012l36.6 -20.9l-28.1 -101.8l-2.70001 -0.299988c-45.6 -4.40002 -95.3 -7.90002 -126.5 -7.90002c-40.8 0 -74.7 3.29999 -99.7 5.90002l-11.5 -102.3c27.3 4.60001 49.7 6.39999 72.2 6.39999c135.1 0 210 -108.1 210 -215
c0 -126.9 -80.2 -221.8 -190.8 -243.9c-20.3 -4.1 -37.5 -5.1 -52.2 -5.1c-61.7 0 -173 31.9 -173 106c0 49.5 47.1 62 69 62c40.9 0 63.5 -28.4 75.7 -44.3c22.4 -29.9 23.5 -36.7 41.3 -36.7c6.89999 0 11.1 1.5 14.1 2.6c34.2 12.4 70.9 72.1 70.9 141.4zM302 189
c0 -71.4 -37 -134.7 -76.2 -148.9c-3.5 -1.3 -8.40001 -3.1 -16.8 -3.1c-22.3 0 -26.5 11.6 -47.7 39.9c-12 15.6 -32.7 41.1 -69.3 41.1c-20.5 0 -61 -11.4 -61 -54c0 -65.3 103.1 -98 165 -98c14.3 0 31 1 50.6 4.9c106.8 21.4 184.4 112.7 184.4 236.1
c0 103.4 -72 207 -202 207c-23.7 0 -49 -2.29999 -76.1 -7.20001l-5.29999 -1l13.7 120.9l3.89999 -0.5c26.9 -2.79999 60.6 -6.20001 102.8 -6.20001c30.2 0 77.4 3.20001 123 7.59998l24.9 90.5l-28.9 16.5c-54.4 -5.69995 -112.2 -11.6 -169 -11.6
c-39.9 0 -84.8 3.09998 -128.1 6.79999l-41.3 -337.7l35.5 13.4c46.8 17.6 82.3 22.5 118.9 22.5c46.6 0 99 -34.2 99 -139z" />
    <glyph glyph-name="six" unicode="6" horiz-adv-x="465" 
d="M129.9 310.4c-6.39999 -30 -8.89999 -58 -8.89999 -81.4c0 -171 71 -215 134 -215c49 0 96 59 96 169c0 50 -25 162 -123 162c-20.1 0 -60.4 -1.89999 -98.1 -34.6zM137 339c30.3 19.4 80.6 31 112 31c136 0 179 -82 179 -168s-53 -213 -184 -213c-77 0 -200 40 -200 243
c0 79 31 170 93 242c56 65 118 107 219 137c8 -5 6 -14 6 -26c-135.1 -50.6 -198.7 -154 -225 -246zM158.1 293.3c-5.60001 -31.4 -6.10001 -46.6 -6.10001 -64.3c0 -166.1 62.9 -184 103 -184c22.8 0 65 36.9 65 138c0 52.6 -27.5 131 -92 131
c-19.4 0 -45.4 -3.5 -69.9 -20.7zM150.5 296.3l0.300003 1.60001l1.3 0.899994c26.9 19.7 55.6 23.2 75.9 23.2c72.3 0 100 -85.7 100 -139c0 -102 -42.5 -146 -73 -146c-45 0 -111 23.4 -111 192c0 18.1 0.800003 36.2 6.5 67.3zM191 393.4
c26 6.20001 42.3 7.60001 58 7.60001c158.1 0 210 -104.7 210 -199c0 -98.1 -62.5 -244 -215 -244c-92.7 0 -231 57.2 -231 274c0 90.2 35.9 187.2 100.5 262.2c64.5 74.8 138.2 118.2 245.3 150l1.80002 0.5l1.5 -1c40.4 -25.3 30.9 -50.2 30.9 -73.4v-2.79999l-2.60001 -1
c-105 -39.3 -164.8 -103.8 -199.4 -173.1zM184.7 383.5l-8.3 -2.20001l3.70001 7.80002c34.5 73.7 94.9 141.9 204.9 184c0.600006 23.3 8.60001 40.4 -25.6 62.9c-104.3 -31.3 -176.7 -73.8 -239.8 -147c-63.3 -73.5 -98.6 -168.8 -98.6 -257c0 -212.2 133.6 -266 223 -266
c146 0 207 140 207 236c0 91.2 -48.8 191 -202 191c-16.6 0 -36.8 -2.10001 -64.3 -9.5z" />
    <glyph glyph-name="seven" unicode="7" horiz-adv-x="465" 
d="M160 545c-32 0 -65 -17 -87 -97c-11 -1.29999 -11.1 -0.100006 -22 3c8 52 19 112 20 160c0 3 1 3 4 3c18 -4 16 -14 50 -14h206c38 0 60 6 77 11l16 -12c-112 -273 -172 -439 -229 -609l-60 -3l-8 7c68 152 157 357 235 551h-202zM160 514
c-21.8 0 -43.2 -23.7 -61.9 -91.7l-0.699997 -2.59998l-2.7 -0.300018c-36.1 -4.39999 -55.2 2.70001 -74.7 8.20001l-3.8 1.10001l0.599998 3.89999c9.3 60.5 22.2 132.3 23.2 178.7c0 23.9 18.2 33.7 38 33.7h0.400002l0.400002 -0.0999756
c42.5 -9.5 29.8 -13.9 56.2 -13.9h196c48.3 0 56.2 6.20001 81.2 13.6l2 0.5l47.6 -35.7l-9.09998 -22.1l-117.7 -296.8c-45.4 -119.6 -78.6 -215.1 -110.6 -310.4l-6.7 -20l-93.7 -4.7l-34.7 30.4l9.39999 20.8l156.2 359.7l61.1 147.7h-156zM160 522h168l-65.8 -158.8
l-156.2 -359.8l-6.9 -15.5l27.8 -24.3l84.9 4.2l5 14.9c32 95.4 65.3 190.9 110.8 310.7l117.7 296.9l6.70001 16.4l-39.4 29.6c-22.6 -6.79999 -33.7 -13.3 -81.6 -13.3h-196c-27.7 0 -19.4 14 -57 14c-17.4 0 -30 -7.29999 -30 -25.8c-1 -46.8 -13.5 -117.1 -22.8 -176.8
c18.5 -5.29999 32.8 -10.7 65.9 -7.39999c18.2 64.6 40.4 95 68.9 95z" />
    <glyph glyph-name="nine" unicode="9" horiz-adv-x="465" 
d="M341.1 288.6c6.39999 30 8.89999 58 8.89999 81.4c0 171 -71 215 -134 215c-49 0 -96 -59 -96 -169c0 -50 25 -162 123 -162c20.1 0 60.4 1.89999 98.1 34.6zM334 260c-30.3 -19.4 -80.6 -31 -112 -31c-136 0 -179 82 -179 168s53 213 184 213c77 0 200 -40 200 -243
c0 -79 -31 -170 -93 -242c-56 -65 -118 -107 -219 -137c-8 5 -6 14 -6 26c135.1 50.6 198.7 154 225 246zM312.9 305.7c5.60001 31.4 6.10001 46.6 6.10001 64.3c0 166.1 -62.9 184 -103 184c-22.8 0 -65 -36.9 -65 -138c0 -52.6 27.5 -131 92 -131
c19.4 0 45.4 3.5 69.9 20.7zM320.5 302.7l-0.299988 -1.60001l-1.30002 -0.899994c-26.9 -19.7 -55.6 -23.2 -75.9 -23.2c-72.3 0 -100 85.7 -100 139c0 102 42.5 146 73 146c45 0 111 -23.4 111 -192c0 -18.1 -0.799988 -36.2 -6.5 -67.3zM280 205.6
c-26 -6.20001 -42.3 -7.60001 -58 -7.60001c-158.1 0 -210 104.7 -210 199c0 98.1 62.5 244 215 244c92.7 0 231 -57.2 231 -274c0 -90.2 -35.9 -187.2 -100.5 -262.2c-64.5 -74.8 -138.2 -118.2 -245.3 -150l-1.8 -0.5l-1.5 1c-40.4 25.3 -30.9 50.2 -30.9 73.4v2.8l2.6 1
c105 39.3 164.8 103.8 199.4 173.1zM286.3 215.5l8.30002 2.2l-3.70001 -7.8c-34.5 -73.7 -94.9 -141.9 -204.9 -184c-0.599998 -23.3 -8.6 -40.4 25.6 -62.9c104.3 31.3 176.7 73.8 239.8 147c63.3 73.5 98.6 168.8 98.6 257c0 212.2 -133.6 266 -223 266
c-146 0 -207 -140 -207 -236c0 -91.2 48.8 -191 202 -191c16.6 0 36.8 2.10001 64.3 9.5z" />
    <glyph glyph-name="A" unicode="A" horiz-adv-x="820" 
d="M325.9 278h179l-96 277h-3l-105.2 -258.7c-4.10001 -10.2 3.19998 -18.3 25.2 -18.3zM212.9 69c-16.2 -41.7 31.4 -48.4 69 -51c6 -6 6 -17 0 -23c-37 1 -67 5 -108 5c-39 0 -62 -4 -99 -5c-6 6 -6 17 0 23c43.5 3 74.1 13.3 99.9 74l232.1 546c13 0 24 11 39 20
l209 -582c18 -51 51.2 -54.5 90 -58c6 -6 6 -17 0 -23c-37 1 -67 5 -108 5c-39 0 -94 -4 -131 -5c-6 6 -6 17 0 23c47.6 3.4 88.1 3 74 44l-63.5 184h-208.5c-24 0 -30 -9 -35 -22zM339.3 309h122l-56.1 162zM472.5 301h-145.1l78.3 192.7zM251.9 83.2
c-4 -10.3 -5 -15.4 -5.29999 -19.2c-1.10001 -14.1 12.2 -13.4 47.5 -15.8l1.5 -0.100002l1 -1c31.4 -31.4 19.7 -61.5 -1 -82.2l-1.30002 -1.2h-1.69998c-46.2 1.2 -79.4 5.3 -118.7 5.3c-42.9 0 -69.8 -4.2 -109.2 -5.3h-2.3l-1.3 1.2c-30.3 30.3 -22.8 60.4 -1 82.2l1 1
l2 0.200001c48.4 3.3 61 3.6 83.2 55.8l240 564.9h19.4c11.1 4.5 41.8 26.2 52.4 32.5l4.19998 2.5l221.8 -617.6c14 -39.6 31.7 -34.6 73.3 -38.4l1.39996 -0.0999985l1.10004 -1.1c31 -31 19.7 -60.9 -1.30005 -81.9l-1.29999 -1.2h-2.20001c-47 1.3 -78.8 5.3 -118.2 5.3
c-45.6 0 -102.1 -4.2 -141.8 -5.3h-1.70001l-1.29999 1.2c-29.9 29.9 -23.4 57.7 -1 80.1l1 1.1l1.5 0.100002c17.5 1 27.1 2.7 33.6 4.9c16.5 5.7 15.6 16.2 5.89996 44.3l-38.9 119.6h-186.3c-9.79999 0 -4.89999 0 -5.39999 -0.100006
c-0.100006 -0.399994 -0.399994 -1.29999 -0.700012 -2.09999zM244.5 86.1l49.8 129.6c1.10001 2.8 1.30002 7.3 13.6 7.3h192.1l40.6 -125.1c9.30005 -27 12.9 -46.3 -10.8 -54.4c-7.70001 -2.6 -15.4 -4 -34.1 -5.2c-18.3 -19 -24.6 -40 0.899994 -66.6
c37.3 1.1 95.1 5.3 140.3 5.3c39.5 0 71.4 -4 117.2 -5.3c17.3 17.9 27.4 40.9 1.10004 68.5c-38.6 3.3 -63.3 -0.200001 -78.7 43.5l-218.4 608.4c-12.1 -7.69995 -39.3 -27.1 -50.3 -30.9l-0.699982 -0.200012h-15.5l-237.9 -560c-22.9 -54 -40.7 -57.3 -89 -60.6
c-17.7 -18.5 -24.9 -41.7 0.900002 -68.7c38.1 1.1 65.1 5.3 108.3 5.3c39.5 0 71.4 -4 117.2 -5.3c17.6 18.6 27.2 41.1 0.899994 68.7c-29.3 2 -55.2 0.299999 -53.4 24.2c0.399994 4.9 1.79999 10.8 5.89999 21.5z" />
    <glyph glyph-name="B" unicode="B" horiz-adv-x="744" 
d="M279 361h76c83 0 145 35 145 120c0 102 -76 145 -132 145c-87 0 -86.5 -10 -87 -43c-1.10001 -70.1 -1.79999 -149.1 -2 -222zM238 645c43 0 90 5 125 5c186 0 212 -90 212 -157c0 -54.3 -41.9 -105.6 -92 -131v-2c87 -25 151 -80 151 -176c0 -86 -50 -189 -249 -189
c-89 0 -103 5 -146 5c-50.7 0 -81 -4 -130 -5c-6 6 -6 17 0 23c70 3 85.3 7.3 87 91c1.7 83 2 129 2 212s-0.699997 132 -2 215c-1.3 82.7 -17 88 -87 91c-6 6 -6 17 0 23c50 -1 78.7 -5 129 -5zM281 85c0.700012 -33 13 -67 83 -67c152 0 183 74 183 147
c0 90 -60 172 -197 172h-71v-15.7c0 -83 0.299988 -153.3 2 -236.3zM310.2 392h44.8c78.5 0 114 28.7 114 89c0 86.7 -62.5 114 -101 114c-35.9 0 -49.2 -2 -55.8 -3.40002c-0.300018 -6 -0.200012 -7.19995 -0.200012 -9.09998c-1 -63.4 -1.5 -130.5 -1.79999 -190.5z
M355 384h-52.9v4c0.199982 61.4 0.899994 129.8 1.89999 194.6c0 2.80005 0.200012 10.5 0.700012 15.2c10.6 3.20001 19.5 5.20001 63.3 5.20001c41.9 0 109 -30.2 109 -122c0 -65.5 -41.3 -97 -122 -97zM238 676c44.5 0 90.4 5 125 5c205.7 0 243 -111.4 243 -188
c0 -53.1 -30.1 -96.7 -59.6 -124.2c72.9 -36.4 118.6 -99.1 118.6 -184.8c0 -105.3 -71.1 -220 -280 -220c-96 0 -107.1 5 -146 5c-55.4 0 -89.2 -4.1 -140.9 -5.2l-1.7 -0.0999985l-1.2 1.2c-30.4 30.4 -22.6 60.1 -1 82.1l1.4 1.5h2.2c71.6 3.1 65.1 7.3 67.2 71.2
c2.8 86 2 121.4 2 201.3c0 86.1 -0.399994 124.7 -2 204.5c-1.3 65.3 -8.60001 67.3 -67.9 71l-1.5 0.0999756l-1.1 1c-30.9 30.9 -21 60.8 0.699997 82.5l1.2 1.20001l1.7 -0.0999756c57.9 -1.20001 92.3 -5.20001 139.9 -5.20001zM238 668
c-47.8 0 -80.7 3.90002 -138.3 5.20001c-17.7 -18.3 -26.9 -41.3 -0.599998 -68.8c59.6 -3.80005 72.5 -11.2 73.9 -78.8c1.60001 -79.8 2 -118.5 2 -204.6c0 -79.8 0.899994 -115.4 -2 -201.6c-2.10001 -64.1 0 -75.5 -73.9 -78.8c-18.2 -19 -25.1 -41.9 0.599998 -68.8
c49.4 1.1 84.1 5.2 139.3 5.2c39.9 0 50.3 -5 146 -5c205.2 0 272 111 272 212c0 84.8 -46.7 146 -119.4 180.2l-5.5 2.59998l4.60004 4c31 27.2 61.3 70.2 61.3 122.2c0 73.2 -33.5 180 -235 180c-34 0 -79.9 -5 -125 -5zM312 85.5c0.5 -24.4 0.700012 -36.5 52 -36.5
c140.6 0 152 58.8 152 116c0 76.9 -47.9 141 -166 141h-40c0 -80.6 0.5 -145.5 2 -220.5zM304 85.3c-1.5 76.3 -2 142.8 -2 224.7v4h48c121.8 0 174 -67.8 174 -149c0 -60.1 -15.5 -124 -160 -124c-54.1 0 -59.4 17.2 -60 44.3z" />
    <glyph glyph-name="C" unicode="C" horiz-adv-x="764" 
d="M407 -10c-215 0 -316 164 -316 325c0 104.3 35.6 197.2 102 258c59 54 130 85 215 85c123 0 168 -40 219 -45c9 -55 17 -103 22 -155c-7.20001 -4.79999 -13.8 -5.79999 -23 -5c-26 86 -85 178 -223 178c-52 0 -121.4 -30 -171 -91c-36.5 -44.9 -57 -119.7 -57 -206
c0 -146 76 -313 231 -313c93 0 161 41 232 119c11 0 18 -6 23 -15c-68 -89 -157 -135 -254 -135zM407 -41c-239 0 -347 186.7 -347 356c0 115.1 40.5 215.3 112.1 280.9c64.5 59 135.1 93.1 235.9 93.1c134.6 0 187.3 -41.7 222 -45.1l23.7 -2.40002l0.5 -3
c11.5 -70.2 21.2 -131 27.4 -195.5l0.200012 -2.70001l-2.29999 -1.29999c-20.7 -10.9 -44.8 -21.6 -76.6 -11l-1.90002 0.700012l-4.70001 15.3c-25.2 83.2 -76.3 156 -193.3 156c-57.7 0 -108.6 -32.5 -146.9 -79.6c-31.2 -38.4 -50.1 -108.7 -50.1 -186.4
c0 -144.9 75.5 -282 200 -282c89.7 0 150.2 44.2 217.1 117.7l1.20001 1.3h1.79999c48.4 0 57.2 -25 69.6 -47.4l1.29999 -2.3l-1.59998 -2.10001c-77.6 -101.6 -174.8 -160.2 -288.4 -160.2zM407 -33c109.8 0 203.5 55.5 280.4 155c-11.3 20.6 -17 40.1 -59.6 41
c-66.4 -72.6 -129.4 -119 -221.8 -119c-131.5 0 -208 143.6 -208 290c0 78.8 18.8 150.8 51.8 191.5c39.3 48.3 92.4 82.5 153.2 82.5c121.4 0 175.4 -76.9 201 -161.7l3.40002 -11.3c25.6 -7.79999 45.4 -0.799988 66 9.89999c-6 60.9 -15.5 121.3 -26.6 189.3
l-17.6 1.70001c-39.1 3.79999 -87.8 45.1 -221.2 45.1c-98.9 0 -167.1 -33 -230.5 -91c-69.7 -63.8 -109.5 -161.7 -109.5 -275c0 -166.2 105.3 -348 339 -348z" />
    <glyph glyph-name="D" unicode="D" horiz-adv-x="877" 
d="M287.1 109c2.10001 -61.9 9.89999 -90 117.9 -90c141 0 271 63 271 265c0 154 -80 342 -296 342c-91.7 0 -91.4 -28.1 -92.9 -90c-2.10001 -84 -3 -133 -3 -216s0.199982 -128.5 3 -211zM244.1 645c37.9 0 106 5 173.9 5c192 0 347 -156 347 -342
c0 -246 -188 -313 -329 -313c-103 0 -155 5 -190.9 5c-50.7 0 -81 -4 -130 -5c-6 6 -6 17 0 23c70 3 85 8 87 91s3 129 3 212s-1 132 -3 215s-17 88 -87 91c-6 6 -6 17 0 23c50 -1 78.7 -5 129 -5zM318 110.1c1.89999 -47.6 6.70001 -60.1 87 -60.1c134.4 0 240 55 240 234
c0 150.3 -76.5 312 -265 312c-56.2 0 -60.1 -9.70001 -62 -60.8c-3.20001 -87.2 -2.89999 -135.5 -2.89999 -215.2c0 -86.3 -0.300018 -130.9 2.89999 -209.9zM310.1 109.7c-3.20001 79.1 -3 124 -3 210.3c0 79.7 -0.200012 128.1 3 215.5c1.89999 53.1 10.5 68.5 69.9 68.5
c194.6 0 273 -167.7 273 -320c0 -183.9 -111 -242 -248 -242c-82 0 -92.8 16.8 -94.9 67.7zM244.1 676c37.9 0 109.4 5 173.9 5c213.1 0 378 -173.6 378 -373c0 -272.6 -215 -344 -360 -344c-109.8 0 -158.1 5 -190.9 5c-55.4 0 -89.2 -4.1 -140.9 -5.2l-1.7 -0.0999985
l-1.2 1.2c-30.2 30.2 -23.1 60.1 -0.700005 82.5l1.1 1l1.5 0.0999985c63 3.6 65.9 -2.5 67.9 61.3c2.7 86.2 3 131.6 3 211.2c0 86 -0.600006 129.4 -3 209.2c-2.10001 67.4 -12.1 62 -68 66.3l-1.5 0.0999756l-1 1c-30.9 30.9 -21 60.8 0.700005 82.5l1.2 1.20001
l1.7 -0.0999756c57.9 -1.20001 92.3 -5.20001 139.9 -5.20001zM244.1 668c-47.8 0 -80.8 3.90002 -138.4 5.20001c-17.7 -18.3 -26.8 -41.3 -0.5 -68.9c54.8 -4.20001 71.7 -3.39996 73.9 -73.8c2.39999 -79.8 3 -123.4 3 -209.5c0 -79.6 -0.300003 -125.2 -3 -211.5
c-2 -65.9 -11.1 -65.5 -73.9 -68.9c-18.3 -19 -25.2 -41.9 0.5 -68.8c49.4 1.1 84.2 5.2 139.4 5.2c33.5 0 81.3 -5 190.9 -5c143 0 352 69.4 352 336c0 195 -161.4 365 -370 365c-64.2 0 -135.4 -5 -173.9 -5z" />
    <glyph glyph-name="E" unicode="E" horiz-adv-x="787" 
d="M420.1 357c85 0 88 12 91 67c5.99997 6 17 6 23 0c-1 -30 -5 -52.4 -5 -86c0 -30.5 4 -43 5 -78c-6 -6 -17 -6 -23 0c-3 45 -6 67 -91 67l-116 1s-1 -175.5 2 -259c1 -27 14 -43 36 -43h156c76 0 111 72 131 144c13.1 3.2 14.6 0.899994 25 -5c-8 -51 -23 -120 -37 -170
c0 0 -80 5 -128 5h-225s-81 -4 -130 -5c-6 6 -6 17 0 23c70 3 84.5 8 87 91c2.5 82.5 2 129 2 212s0.5 133.5 -2 215c-2.5 83 -17 88 -87 91c-6 6 -6 17 0 23c50 -1 129 -5 129 -5h295c24 0 32 4 49 7c3 0 4 -1 4 -3c2 -8 17 -107 22 -148
c-9.79999 -4.70001 -10.6 -6.79999 -23 -5c-22 69 -38 122 -113 122h-155c-24 0 -35.1 -20 -36 -44c-3 -82 -2 -218 -2 -218zM640.4 660.3c5.5 -27.5 20.9 -134.5 25.8 -174.8l0.299988 -2.89999l-2.59998 -1.20001c-22.2 -10.6 -43.7 -18.1 -75 -13.7l-2.5 0.299988
l-0.700012 2.39999c-24.9 78.2 -34 116.6 -88.6 116.6h-145c-5.20001 0 -14.6 -1.40002 -15.1 -14.1c-2.20001 -61.2 -2.20001 -145.6 -2.10001 -185.9l85.1 1c74.3 0.899994 56.7 8.70001 60.7 48.2l0.0999756 1.39999l1 1c31.1 31.1 61 20.5 82.5 -1l1.20001 -1.20001
v-1.69998c-1.29999 -38.9 -5.40002 -66.4 -5.40002 -96.7c0 -30.8 4.30005 -52.1 5.30005 -88.7l0.0999756 -1.8l-1.29999 -1.2c-31.2 -31.2 -60.5 -22.7 -82.2 -1l-1.10001 1l-0.100006 1.39999c-3.69998 43 -6.39999 47.6 -60.8 48.3l-85.1 0.899994
c-0.100006 -59.5 0 -159.5 2.10001 -216.8c0.700012 -18.3 15.1 -23.1 25.1 -23.1h136c59.1 0 85.3 64.8 105.3 136.6l0.699951 2.2l2.20001 0.599991c40.4 9.8 61.4 -3.5 79.3 -13.7l2.40002 -1.39999l-0.400024 -2.7c-11.3 -72 -29.4 -151.4 -46.6 -213l-0.900024 -3.1
l-3.19995 0.200001c-26.8 1.7 -83.4 6.3 -147.8 6.3h-224.3c-11.1 -0.5 -101.4 -4.4 -141.6 -5.2l-1.7 -0.0999985l-1.2 1.2c-30.4 30.4 -22.7 60.1 -1.10001 82.1l1.4 1.4l2.1 0.199997c61.5 4.1 65 7.5 67.4 71.4c3.2 85.1 2 120.9 2 201c0 86.6 1.39999 126.2 -2 204
c-3 69.6 -11.5 68.6 -67.2 71.4l-2.3 0.199951l-1 1c-30.9 30.9 -21 60.8 0.700005 82.5l1.2 1.20001l1.7 -0.0999756c50.6 -1 123.6 -5.20001 140.5 -5.20001h294.4c23.4 0 27.8 7 49 7c26.7 0 32.4 -18.6 33.3 -22.7zM632.6 658.7c-1.79999 8.39996 -10.2 16.3 -25.5 16.3
c-19 0 -22.8 -7 -49 -7h-294.4c-17.5 0 -87.7 4.09998 -139 5.20001c-17.7 -18.3 -26.7 -41.3 -0.5 -68.8c56.9 -2.90002 70.8 -7.30005 73.9 -79.1c3.39999 -78 2 -117.8 2 -204.3c0 -80 1.2 -116 -2 -201.3c-2.5 -65.5 -10.7 -74.9 -73.9 -79.1
c-18.3 -19 -25.2 -41.9 0.5 -68.8c38.6 0.800001 129 4.7 139.8 5.2h0.100006h224.5c61.9 0 117.2 -4.3 145.1 -6.1c16.3 58.9 33.9 136.2 45 206.2c-16.6 9.39999 -33.2 19.9 -68.7 12c-19.6 -69.6 -46.6 -140.1 -112.4 -140.1h-136c-12.2 0 -32.2 6.6 -33.1 30.8
c-2.10001 58.8 -2.29999 164.1 -2.10001 221.2v4l93.2 -1c55.5 -0.700012 64.4 -9 68.5 -54.1c18.4 -17.7 41 -25.6 68.7 0.900009c-1.09998 34.2 -5.20001 56.1 -5.20001 87.2c0 30.6 3.90002 56.8 5.30005 95.2c-18.2 17.6 -41.2 27.2 -68.9 0.799988
c-3.39999 -36.8 8.29999 -53 -68.4 -54l-93.2 -1.10001v4.10001c-0.100006 39.1 -0.199982 126.6 2.10001 190.2c0.700012 18.7 16.9 21.8 23.1 21.8h145c60.4 0 71.6 -44.8 95.4 -119.7c26.5 -3 44.1 2.10001 65.4 12.1c-4.90002 39.8 -20.1 145.5 -25.3 171.3z" />
    <glyph glyph-name="F" unicode="F" horiz-adv-x="686" 
d="M306.1 109c2.39999 -83 38.9 -88 108.9 -91c6 -6 6 -17 0 -23c-49 1 -91.5 5 -150 5c-51.1 0 -81.9 -4 -130.9 -5c-6 6 -6 17 0 23c70 3 84.5 8 87 91c2.5 82.5 2 129 2 212s0.5 133.5 -2 215c-2.5 83 -17 88 -87 91c-6 6 -6 17 0 23c50 -1 129 -5 129 -5h255
c24 0 32 4 49 7c3 0 4 -1 4 -3c2 -8 17 -107 22 -148c-9.79999 -4.70001 -10.6 -6.79999 -23 -5c-22 69 -38 122 -113 122h-115c-24 0 -35.1 -20 -36 -44c-3 -82 -2 -228 -2 -228l106 1c85 0 88 12 91 67c6 6 17 6 23 0c-1 -30 -5 -52.4 -5 -86c0 -30.5 4 -43 5 -78
c-6 -6 -17 -6 -23 0c-3 45 -6 67 -91 67l-106 1s-1 -125.5 2 -209zM339 120c2.39999 -63.9 25.8 -67.3 87.3 -71.4l2.10001 -0.199997l1.39999 -1.4c21.6 -22 29.4 -51.7 -1 -82.1l-1.19998 -1.2l-1.70001 0.0999985c-40.2 0.799999 -150.2 5.2 -161.7 5.2
c-11.6 0 -100.8 -4.4 -141 -5.2l-1.7 -0.0999985l-1.2 1.2c-30.4 30.4 -22.7 60.1 -1.10001 82.1l1.4 1.4l2.1 0.199997c61.5 4.1 65 7.5 67.4 71.4c3.2 85.1 2 120.9 2 201c0 86.6 1.39999 126.2 -2 204c-3 69.6 -11.5 68.6 -67.2 71.4l-2.3 0.199951l-1 1
c-30.9 30.9 -21 60.8 0.700005 82.5l1.2 1.20001l1.7 -0.0999756c50.6 -1 123.6 -5.20001 140.5 -5.20001h254.4c23.4 0 27.8 7 49 7c26.7 0 32.4 -18.6 33.3 -22.7c5.5 -27.5 20.9 -134.5 25.8 -174.8l0.299988 -2.89999l-2.59998 -1.20001
c-22.2 -10.6 -43.7 -18.1 -75 -13.7l-2.5 0.299988l-0.700012 2.39999c-24.9 78.2 -34 116.6 -88.6 116.6h-105c-5.20001 0 -14.6 -1.40002 -15.1 -14.1c-2.20001 -61.2 -2.20001 -155.6 -2.10001 -195.9l75.1 1c74.3 0.899994 56.7 8.70001 60.7 48.2l0.0999756 1.39999
l1 1c31.1 31.1 61 20.5 82.5 -1l1.20001 -1.20001v-1.69998c-1.29999 -38.9 -5.40002 -66.4 -5.40002 -96.7c0 -30.8 4.30005 -52.1 5.30005 -88.7l0.0999756 -1.8l-1.29999 -1.2c-31.2 -31.2 -60.5 -22.7 -82.2 -1l-1.10001 1l-0.100006 1.39999
c-3.69998 43 -6.39999 47.6 -60.8 48.3l-75.1 0.899994c-0.100006 -59.5 2 -109.6 4.10001 -166.9zM331 119.7c-2.10001 58.8 -4.29999 114.2 -4.10001 171.3v4l83.2 -1c55.5 -0.700012 64.4 -9 68.5 -54.1c18.4 -17.7 41 -25.6 68.7 0.900009
c-1.09998 34.2 -5.20001 56.1 -5.20001 87.2c0 30.6 3.90002 56.8 5.30005 95.2c-18.2 17.6 -41.2 27.2 -68.9 0.799988c-3.39999 -36.8 8.29999 -53 -68.4 -54l-83.2 -1.10001v4.10001c-0.100006 39.1 -0.199982 136.6 2.10001 200.2c0.700012 18.7 16.9 21.8 23.1 21.8
h105c60.4 0 71.6 -44.8 95.4 -119.7c26.5 -3 44.1 2.10001 65.4 12.1c-4.90002 39.8 -20.1 145.5 -25.3 171.3c-1.79999 8.39996 -10.2 16.3 -25.5 16.3c-19 0 -22.8 -7 -49 -7h-254.4c-17.5 0 -87.7 4.09998 -139 5.20001c-17.7 -18.3 -26.7 -41.3 -0.5 -68.8
c56.9 -2.90002 70.8 -7.30005 73.9 -79.1c3.39999 -78 2 -117.8 2 -204.3c0 -80 1.2 -116 -2 -201.3c-2.5 -65.5 -10.7 -74.9 -73.9 -79.1c-18.3 -19 -25.2 -41.9 0.5 -68.8c38.6 0.800001 129 5.2 139.8 5.2c12.7 0 118.6 -4.3 159.8 -5.2
c25.7 26.9 18.9 49.8 0.600006 68.8c-63.2 4.2 -91.4 13.6 -93.9 79.1z" />
    <glyph glyph-name="G" unicode="G" horiz-adv-x="821" 
d="M433 658c122 0 158 -45 218 -45c7.20001 -36 14.2 -85.5 22 -154c-7.29999 -5.5 -14 -6 -24 -6c-26 86 -85 178 -230 178c-127 0 -243 -129 -243 -304c0 -132 97 -311 275 -311c54 0 114 26 148 58v162c0 40.1 -27.1 43.8 -82 48c-6 6 -6 20 0 26c47 -1 85 -5 124 -5
c40 0 53 4 83 5c6 -6 6 -20 0 -26c-29 -3 -46 -12.8 -46 -48v-125c0 -11 5 -19 16 -28c-68 -58 -148 -93 -266 -93c-201 0 -337 144 -337 317c0 220 170 351 342 351zM568 185c-1.79999 74.8 -8.29999 68.4 -69.3 71l-1.60001 0.100006l-1.10001 1.10001
c-23.4 23.1 -18 62.8 1.70001 82.6l1.19998 1.20001h1.70001c44.8 -1 94.1 -5 139.2 -5c48.5 0 59.2 4 101.4 5h1.70001l1.19995 -1.20001c22.8 -22.9 22.2 -62.4 1.70001 -82.6l-1 -1.10001l-1.5 -0.100006c-38.6 -2.89999 -32.7 2.5 -34.3 -71v-64
c0 -19.1 23.8 -29.8 29.6 -34.5l3.80005 -3l-3.70001 -3.1c-83.3 -71 -170 -121.4 -310.7 -121.4c-221.1 0 -368 161.5 -368 348c0 242.3 189.6 382 373 382c135.7 0 177.6 -45 218 -45h25.4l0.599976 -3.20001c11 -54.6 19.6 -115.2 28.5 -193.6l0.299988 -2.30002
l-1.79999 -1.39999c-28.5 -21.4 -44.1 -21.5 -75 -21.5h-3l-6.70001 22c-25 82.8 -75.7 158 -200.3 158c-116.6 0 -212 -125.7 -212 -275c0 -125.5 93.5 -280 244 -280c43.3 0 89.6 21.1 116 41.3zM576 185l-1 -100.6l-1.5 -1.2c-27.8 -22.1 -76.1 -44.2 -122.5 -44.2
c-156.6 0 -252 159.6 -252 288c0 151.9 97.2 283 220 283c129 0 182.5 -79.3 208 -163.7l4.90002 -16.3c27.4 0.100006 40.2 0 65.4 18.5c-8.39996 73.7 -17 134.8 -27.5 187.5h-18.8c-45.9 0 -83.8 45 -218 45c-179.5 0 -365 -136.5 -365 -374
c0 -182.1 143.1 -340 360 -340c136.3 0 219.8 47.2 301.5 116.1c-7 4.5 -28.5 15.9 -28.5 37.9v64c1.5 70.9 -1.29999 75.8 40.2 78.9c14.8 15.9 17.4 47.9 -1.60004 69.1c-39.7 -1 -51.2 -5 -99.8 -5c-44.8 0 -93.4 3.89999 -137.6 5
c-15.3 -17.1 -19.9 -49.5 -1.60001 -69.1c60.1 -2.5 73.6 -1.5 75.4 -78.9z" />
    <glyph glyph-name="iogonek" unicode="&#x12f;" 
 />
    <glyph glyph-name="afii10057" unicode="&#x408;" horiz-adv-x="384" 
d="M295 523v-298c0 -100 -31.9 -166.3 -80 -201c-32.4 -23.3 -65.3 -31.3 -92.4 -31.3c-25.7 0 -112.6 11.8 -112.6 61.3c0 22 24 36 38 36c31 0 42.3 -13.8 52 -27c7.3 -10 14 -30 28 -30c33 0 82 9 82 170v320c0 83 -17 88 -97 91c-6 6 -6 27 0 33c50 -1 85 -2 139 -2
c47 0 71 1 120 2c6 -6 6 -27 0 -33c-60 -3 -77 -8 -77 -91z" />
    <glyph glyph-name="afii10061" unicode="&#x40c;" horiz-adv-x="606" 
d="M427 820c28.6 -13.3 49.3 -30.7 62 -52l-144 -58c-21 -9 -33 -12 -42 -12s-15 7 -15 15c0 7 2 12 15 21zM18 0v19c0 5 3 8 7 8l27 2c42 3 54 14 54 42v503c0 30 -15 39 -54 42l-26 2c-4 0 -8 3 -8 8v19l2 2c50 -1 80 -2 130 -2s79 1 128 2l2 -2v-19c0 -5 -3 -8 -8 -8
l-26 -2c-40 -3 -55 -14 -55 -42v-208c36 0 81 1 105 15c59 32 73 96 82 152c10 62 38 118 117 118c53 0 71 -29 71 -52c0 -29 -23 -40 -44 -40c-13 0 -27 5 -37 15c-11 11 -19 16 -32 16c-30 0 -37 -33 -42 -62c-11 -62 -32 -148 -108 -176v-5c69 0 108 -43 135 -113
c52 -135 103 -203 138 -206l16 -1c5 0 8 -3 8 -8v-19l-1 -2l-79 1c-78 1 -114 82 -157 192c-39 100 -58 133 -172 133v-253c0 -30 15 -39 55 -42l26 -2c4 0 8 -3 8 -8v-19l-2 -2c-48 2 -77 2 -127 2s-82 0 -131 -2z" />
    <glyph glyph-name="uni040D" unicode="&#x40d;" horiz-adv-x="925" 
d="M369 818l121 -84c11 -8 15 -14 15 -21c0 -8 -7 -15 -15 -15s-22 3 -43 12l-154 63c18.3 17.7 41.8 33.4 76 45zM301.4 167c4.60001 0.300003 10.4 3.7 17.7 11l3 3.7c-0.700012 44.8 -0.600006 79.2 -0.600006 138.3c0 82.9 0.299988 121.7 2.79999 205.4
c1.90002 76.9 15.4 76.1 75.4 78.6c18.3 19.6 13.7 51.9 -1.60001 69c-44.6 -1.09998 -91.8 -5 -136.8 -5c-48.2 0 -100.3 4 -139.6 5c-19 -21.2 -16.3 -53.2 -1.6 -69c64.3 -2.70001 73.6 -5.40002 75.4 -78.6c2 -83 1 -121.7 1 -204.4c0 -82.7 1 -118.1 -1 -201.1
c-1.89999 -77 -16.4 -76 -76.4 -78.5c-18.3 -19.6 -13.7 -51.9 1.6 -69c44.6 1.1 91.8 4.9 136.8 4.9c48.2 0 100.3 -3.9 139.6 -4.9c19 21.2 16.3 53.2 1.60001 69c-62.4 2.6 -73 5.1 -75.2 72.3c-8.10001 -9.7 -15 -19.2 -20 -37.9c5.89999 -51.3 25.8 -55.3 85 -57.8
c6 -6 6 -17 0 -23c-50 1 -78.7 5 -129 5c-50.7 0 -81 -4 -130 -5c-6 6 -6 17 0 23c70 3 85 8 87 91s3 129 3 212s-1 132 -3 215s-17 88 -87 91c-6 6 -6 17 0 23c50 -1 78.7 -5 129 -5c50.7 0 81 4 130 5c6 -6 6 -17 0 -23c-70 -3 -84.5 -8 -87 -91c-2.5 -84 -3 -133 -3 -216
c0 -82.1 0.899994 -127.5 2.89999 -208.4v55.4zM708.5 109c2 -83 17 -88 87 -91c6 -6 6 -17 0 -23c-50 1 -78.7 5 -129 5c-50.7 0 -81 -4 -130 -5c-6 6 -6 17 0 23c70 3 85 8 87 91s3 129 3 212s-1 132 -3 215c0 0.799988 -0.0999756 1.59998 -0.0999756 2.40002v-60.4
c-7.5 -2.5 -12.6 -7 -17.5 -13l-2.30005 -3c0.400024 -45.9 -0.0999756 -82.4 -0.0999756 -141c0 -82.7 1 -118.1 -1 -201.1c-1.90002 -77 -16.4 -76 -76.4 -78.5c-18.3 -19.6 -13.7 -51.9 1.60004 -69c44.6 1.1 91.8 4.9 136.8 4.9c48.2 0 100.3 -3.9 139.6 -4.9
c19 21.2 16.3 53.2 1.60004 69c-64.3 2.7 -73.6 5.3 -75.4 78.5c-2 82.7 -1.79999 117 -1.79999 200.1c0 82.9 0.299988 121.7 2.79999 205.4c1.90002 76.9 15.4 76.1 75.4 78.6c18.3 19.6 13.7 51.9 -1.60004 69c-44.6 -1.09998 -91.8 -5 -136.8 -5
c-48.2 0 -100.3 4 -139.6 5c-19 -21.2 -16.3 -53.2 -1.60004 -69c62.4 -2.59998 73 -5.20001 75.2 -72.2c8 12.6 14.6 26.7 18.9 39.3c-6.20001 49.5 -26.3 53.4 -84.7 55.9c-6 6 -6 17 0 23c50 -1 78.7 -5 129 -5c50.7 0 81 4 130 5c6 -6 6 -17 0 -23
c-70 -3 -84.5 -8 -87 -91c-2.5 -84 -3 -133 -3 -216s1 -128.5 3 -211zM594.5 123.1c2 82.9 1 115.1 1 197.9c0 55.4 0.400024 89.7 0.0999756 131.2l-262.8 -327.2l-1.5 -1.8v-0.0999985c1.70001 -71.7 7.20001 -71.2 71 -73.9c20.5 -20.2 21.1 -61.9 -1.69998 -84.8
c-41.5 1 -94.6 4.9 -143.1 4.9c-45.2 0 -95.2 -3.8 -140.3 -4.8c-19.7 19.8 -25.2 61.6 -1.8 84.7c61 2.6 70.3 -0.600002 72.1 73.9c2 82.9 1 115.1 1 197.9c0 82.8 1 118.4 -1 201.3c-1.7 71.7 -7.3 71.2 -71.1 73.9c-20.5 20.2 -21 62 1.8 84.9
c41.5 -1 94.6 -5.09998 143.1 -5.09998c45.2 0 95.2 4 140.3 5c19.7 -19.8 25.2 -61.9 1.79999 -85c-61 -2.59998 -69.3 0.900024 -71.1 -73.7c-2.5 -83.8 -2.79999 -119.4 -2.79999 -202.3c0 -55.8 -0.200012 -88.2 0.399994 -128.5l264 328.5
c0.199951 0.299988 0.399963 0.5 0.599976 0.799988v1.5c-1.70001 71.7 -7.29999 71.2 -71.1 73.9c-20.5 20.2 -21 62 1.79999 84.9c41.5 -1 94.6 -5.09998 143.1 -5.09998c45.2 0 95.2 4 140.3 5c19.7 -19.8 25.2 -61.9 1.80005 -85
c-61 -2.59998 -69.3 0.900024 -71.1 -73.7c-2.5 -83.8 -2.79999 -119.4 -2.79999 -202.3c0 -83.1 -0.200012 -114.2 1.79999 -196.9c1.70001 -71.7 7.20001 -71.2 71 -73.9c20.5 -20.2 21.1 -61.9 -1.70001 -84.8c-41.5 1 -94.6 4.9 -143.1 4.9
c-45.2 0 -95.2 -3.8 -140.3 -4.8c-19.7 19.8 -25.2 61.6 -1.79999 84.7c61 2.6 70.3 -0.600002 72.1 73.9z" />
    <glyph glyph-name="afii10062" unicode="&#x40e;" horiz-adv-x="580" 
d="M312 728c33 0 56 17 56 34c0 5 -1 11 -1 13c0 15 10 30 33 30c27 0 37 -14 37 -33c0 -52 -59 -75 -125 -75s-125 23 -125 75c0 19 10 33 37 33c23 0 33 -15 33 -30c0 -2 -1 -8 -1 -13c0 -17 23 -34 56 -34zM104.5 523c-32.5 71 -42.5 86 -99.5 91c-6 6 -7 27 -1 33
c47 -1 64 -2 104 -2c39 0 74 1 121 2c6 -6 6 -27 0 -33c-68 -7 -67 -23 -40.6 -80l138.6 -305h2l109 299c20 56 23 81 -51 86c-6 6 -6 27 0 33c47 -1 86 -2 109 -2s48 1 88 2c6 -6 6 -27 0 -33c-66 -8 -82 -45 -100.3 -93l-141.7 -360c-43 -109 -98 -183 -188 -183
c-42 0 -90 23 -90 55c0 28 19 48 49 48c14 0 36 -7 46 -19c7 -9 22 -22 36 -22c32 0 57 21 88 96z" />
    <glyph glyph-name="afii10020" unicode="&#x413;" horiz-adv-x="481" 
d="M141 645h205s81 1 120 2c5.5 -33.8 10.9 -72.7 15 -157c-9.70001 -4.29999 -19.3 -5.20001 -29 -4c-21 69 -34 119 -109 119h-123c-24 0 -36 -10 -36 -34v-449c0 -83 17 -88 87 -91c6 -6 6 -27 0 -33c-50 1 -79 2 -129 2c-51 0 -81 -1 -130 -2c-6 6 -6 27 0 33
c70 3 87 8 87 91v401c0 83 -17 88 -87 91c-6 6 -6 27 0 33c50 -1 129 -2 129 -2z" />
    <glyph glyph-name="afii10021" unicode="&#x414;" horiz-adv-x="659" 
d="M112 47c26.1 26.1 44 98 76 254c22 114 34 217 34 280c0 21 -9 31.4 -35 34l-30 3c-5 0 -8 2 -8 6v21l2 2s70 -2 100 -2h261c30 0 109 2 109 2l2 -2v-19c0 -6 -4 -7.70001 -8 -8l-29 -2c-32.2 -2.20001 -37 -15 -37 -51v-487c0 -37 22.5 -48 40 -51
c21.7 -3.7 29.4 -7 30 -19l7 -148c-27 0 -27 -1 -27 -1c-12 56 -48 141 -128 141h-290c-83 0 -109 -89 -120 -141l-27 1l7 148c0.599998 12 11.1 17.5 21 19c19.5 3 35.5 5.5 50 20zM427 605h-123c-27 0 -37 -14 -39 -39c-8 -101 -24 -205 -36 -273
c-22 -117 -47 -216 -47 -237c0 -12 13 -17 27 -17h219c24 0 36 3 36 40v487c0 31 -6 39 -37 39z" />
    <glyph glyph-name="afii10024" unicode="&#x416;" horiz-adv-x="863" 
d="M6 0v19c0 5 2 8 7 8l15 1c32 3 79 71 127 206c26 70 63 113 129 113v5c-72 28 -93 114 -103 176c-5 29 -11 62 -39 62c-12 0 -20 -5 -30 -16c-9 -10 -22 -15 -34 -15c-20 0 -41 11 -41 40c0 23 17 52 67 52c75 0 101 -56 110 -118c8 -56 22 -120 77 -152
c22 -14 64 -15 98 -15v208c0 30 -15 39 -54 42l-26 2c-4 0 -8 3 -8 8v19l2 2c50 -1 78 -2 128 -2s81 1 130 2l2 -2v-19c0 -5 -3 -8 -8 -8l-26 -2c-40 -3 -55 -14 -55 -42v-208c34 0 76 1 98 15c55 32 69 96 77 152c9 62 35 118 110 118c50 0 67 -29 67 -52
c0 -29 -21 -40 -41 -40c-12 0 -25 5 -34 15c-10 11 -18 16 -30 16c-28 0 -34 -33 -39 -62c-10 -62 -31 -148 -103 -176v-5c66 0 103 -43 129 -113c48 -135 95 -203 127 -206l15 -1c5 0 7 -3 7 -8v-19l-1 -2l-74 1c-74 1 -108 82 -149 192c-36 100 -54 133 -159 133v-253
c0 -30 15 -39 55 -42l26 -2c4 0 8 -3 8 -8v-19l-2 -2c-48 2 -79 2 -129 2s-80 0 -129 -2l-2 2v19c0 5 3 8 7 8l27 2c42 3 54 14 54 42v253c-105 0 -123 -33 -159 -133c-41 -110 -75 -191 -149 -192l-75 -1v2z" />
    <glyph glyph-name="afii10025" unicode="&#x417;" horiz-adv-x="578" 
d="M44 115c0 24 13 40 33 40c28 0 43 -26 56 -52c25 -47 76 -79 154 -79c99 0 158 61 158 152c0 73 -37 147 -158 147c-33 0 -62 -6 -89 -6c-12 0 -29 5 -29 25s17 24 29 24c27 0 63 -6 90 -6c106 0 133 69 133 138c0 70 -39 126 -125 126c-114 0 -172 -72 -198 -160l-30 2
l24 160c71 7 137 32 212 32c139 0 205 -71 205 -153c0 -84 -61 -133 -131 -153v-6c94 -15 159 -84 159 -169c0 -131 -122 -189 -249 -189c-100 0 -168 24 -198 51c-27 24 -46 43 -46 76z" />
    <glyph glyph-name="afii10026" unicode="&#x418;" horiz-adv-x="925" 
d="M301.4 167c4.60001 0.300003 10.4 3.7 17.7 11l3 3.7c-0.700012 44.8 -0.600006 79.2 -0.600006 138.3c0 82.9 0.299988 121.7 2.79999 205.4c1.90002 76.9 15.4 76.1 75.4 78.6c18.3 19.6 13.7 51.9 -1.60001 69c-44.6 -1.09998 -91.8 -5 -136.8 -5
c-48.2 0 -100.3 4 -139.6 5c-19 -21.2 -16.3 -53.2 -1.6 -69c64.3 -2.70001 73.6 -5.40002 75.4 -78.6c2 -83 1 -121.7 1 -204.4c0 -82.7 1 -118.1 -1 -201.1c-1.89999 -77 -16.4 -76 -76.4 -78.5c-18.3 -19.6 -13.7 -51.9 1.6 -69c44.6 1.1 91.8 4.9 136.8 4.9
c48.2 0 100.3 -3.9 139.6 -4.9c19 21.2 16.3 53.2 1.60001 69c-62.4 2.6 -73 5.1 -75.2 72.3c-8.10001 -9.7 -15 -19.2 -20 -37.9c5.89999 -51.3 25.8 -55.3 85 -57.8c6 -6 6 -17 0 -23c-50 1 -78.7 5 -129 5c-50.7 0 -81 -4 -130 -5c-6 6 -6 17 0 23c70 3 85 8 87 91
s3 129 3 212s-1 132 -3 215s-17 88 -87 91c-6 6 -6 17 0 23c50 -1 78.7 -5 129 -5c50.7 0 81 4 130 5c6 -6 6 -17 0 -23c-70 -3 -84.5 -8 -87 -91c-2.5 -84 -3 -133 -3 -216c0 -82.1 0.899994 -127.5 2.89999 -208.4v55.4zM708.5 109c2 -83 17 -88 87 -91c6 -6 6 -17 0 -23
c-50 1 -78.7 5 -129 5c-50.7 0 -81 -4 -130 -5c-6 6 -6 17 0 23c70 3 85 8 87 91s3 129 3 212s-1 132 -3 215c0 0.799988 -0.0999756 1.59998 -0.0999756 2.40002v-60.4c-7.5 -2.5 -12.6 -7 -17.5 -13l-2.30005 -3c0.400024 -45.9 -0.0999756 -82.4 -0.0999756 -141
c0 -82.7 1 -118.1 -1 -201.1c-1.90002 -77 -16.4 -76 -76.4 -78.5c-18.3 -19.6 -13.7 -51.9 1.60004 -69c44.6 1.1 91.8 4.9 136.8 4.9c48.2 0 100.3 -3.9 139.6 -4.9c19 21.2 16.3 53.2 1.60004 69c-64.3 2.7 -73.6 5.3 -75.4 78.5c-2 82.7 -1.79999 117 -1.79999 200.1
c0 82.9 0.299988 121.7 2.79999 205.4c1.90002 76.9 15.4 76.1 75.4 78.6c18.3 19.6 13.7 51.9 -1.60004 69c-44.6 -1.09998 -91.8 -5 -136.8 -5c-48.2 0 -100.3 4 -139.6 5c-19 -21.2 -16.3 -53.2 -1.60004 -69c62.4 -2.59998 73 -5.20001 75.2 -72.2
c8 12.6 14.6 26.7 18.9 39.3c-6.20001 49.5 -26.3 53.4 -84.7 55.9c-6 6 -6 17 0 23c50 -1 78.7 -5 129 -5c50.7 0 81 4 130 5c6 -6 6 -17 0 -23c-70 -3 -84.5 -8 -87 -91c-2.5 -84 -3 -133 -3 -216s1 -128.5 3 -211zM594.5 123.1c2 82.9 1 115.1 1 197.9
c0 55.4 0.400024 89.7 0.0999756 131.2l-262.8 -327.2l-1.5 -1.8v-0.0999985c1.70001 -71.7 7.20001 -71.2 71 -73.9c20.5 -20.2 21.1 -61.9 -1.69998 -84.8c-41.5 1 -94.6 4.9 -143.1 4.9c-45.2 0 -95.2 -3.8 -140.3 -4.8c-19.7 19.8 -25.2 61.6 -1.8 84.7
c61 2.6 70.3 -0.600002 72.1 73.9c2 82.9 1 115.1 1 197.9c0 82.8 1 118.4 -1 201.3c-1.7 71.7 -7.3 71.2 -71.1 73.9c-20.5 20.2 -21 62 1.8 84.9c41.5 -1 94.6 -5.09998 143.1 -5.09998c45.2 0 95.2 4 140.3 5c19.7 -19.8 25.2 -61.9 1.79999 -85
c-61 -2.59998 -69.3 0.900024 -71.1 -73.7c-2.5 -83.8 -2.79999 -119.4 -2.79999 -202.3c0 -55.8 -0.200012 -88.2 0.399994 -128.5l264 328.5c0.199951 0.299988 0.399963 0.5 0.599976 0.799988v1.5c-1.70001 71.7 -7.29999 71.2 -71.1 73.9
c-20.5 20.2 -21 62 1.79999 84.9c41.5 -1 94.6 -5.09998 143.1 -5.09998c45.2 0 95.2 4 140.3 5c19.7 -19.8 25.2 -61.9 1.80005 -85c-61 -2.59998 -69.3 0.900024 -71.1 -73.7c-2.5 -83.8 -2.79999 -119.4 -2.79999 -202.3c0 -83.1 -0.200012 -114.2 1.79999 -196.9
c1.70001 -71.7 7.20001 -71.2 71 -73.9c20.5 -20.2 21.1 -61.9 -1.70001 -84.8c-41.5 1 -94.6 4.9 -143.1 4.9c-45.2 0 -95.2 -3.8 -140.3 -4.8c-19.7 19.8 -25.2 61.6 -1.79999 84.7c61 2.6 70.3 -0.600002 72.1 73.9z" />
    <glyph glyph-name="afii10027" unicode="&#x419;" horiz-adv-x="925" 
d="M461 728c33 0 56 17 56 34c0 5 -1 11 -1 13c0 15 10 30 33 30c27 0 37 -14 37 -33c0 -52 -59 -75 -125 -75s-125 23 -125 75c0 19 10 33 37 33c23 0 33 -15 33 -30c0 -2 -1 -8 -1 -13c0 -17 23 -34 56 -34zM301.4 167c4.60001 0.300003 10.4 3.7 17.7 11l3 3.7
c-0.700012 44.8 -0.600006 79.2 -0.600006 138.3c0 82.9 0.299988 121.7 2.79999 205.4c1.90002 76.9 15.4 76.1 75.4 78.6c18.3 19.6 13.7 51.9 -1.60001 69c-44.6 -1.09998 -91.8 -5 -136.8 -5c-48.2 0 -100.3 4 -139.6 5c-19 -21.2 -16.3 -53.2 -1.6 -69
c64.3 -2.70001 73.6 -5.40002 75.4 -78.6c2 -83 1 -121.7 1 -204.4c0 -82.7 1 -118.1 -1 -201.1c-1.89999 -77 -16.4 -76 -76.4 -78.5c-18.3 -19.6 -13.7 -51.9 1.6 -69c44.6 1.1 91.8 4.9 136.8 4.9c48.2 0 100.3 -3.9 139.6 -4.9c19 21.2 16.3 53.2 1.60001 69
c-62.4 2.6 -73 5.1 -75.2 72.3c-8.10001 -9.7 -15 -19.2 -20 -37.9c5.89999 -51.3 25.8 -55.3 85 -57.8c6 -6 6 -17 0 -23c-50 1 -78.7 5 -129 5c-50.7 0 -81 -4 -130 -5c-6 6 -6 17 0 23c70 3 85 8 87 91s3 129 3 212s-1 132 -3 215s-17 88 -87 91c-6 6 -6 17 0 23
c50 -1 78.7 -5 129 -5c50.7 0 81 4 130 5c6 -6 6 -17 0 -23c-70 -3 -84.5 -8 -87 -91c-2.5 -84 -3 -133 -3 -216c0 -82.1 0.899994 -127.5 2.89999 -208.4v55.4zM708.5 109c2 -83 17 -88 87 -91c6 -6 6 -17 0 -23c-50 1 -78.7 5 -129 5c-50.7 0 -81 -4 -130 -5
c-6 6 -6 17 0 23c70 3 85 8 87 91s3 129 3 212s-1 132 -3 215c0 0.799988 -0.0999756 1.59998 -0.0999756 2.40002v-60.4c-7.5 -2.5 -12.6 -7 -17.5 -13l-2.30005 -3c0.400024 -45.9 -0.0999756 -82.4 -0.0999756 -141c0 -82.7 1 -118.1 -1 -201.1
c-1.90002 -77 -16.4 -76 -76.4 -78.5c-18.3 -19.6 -13.7 -51.9 1.60004 -69c44.6 1.1 91.8 4.9 136.8 4.9c48.2 0 100.3 -3.9 139.6 -4.9c19 21.2 16.3 53.2 1.60004 69c-64.3 2.7 -73.6 5.3 -75.4 78.5c-2 82.7 -1.79999 117 -1.79999 200.1
c0 82.9 0.299988 121.7 2.79999 205.4c1.90002 76.9 15.4 76.1 75.4 78.6c18.3 19.6 13.7 51.9 -1.60004 69c-44.6 -1.09998 -91.8 -5 -136.8 -5c-48.2 0 -100.3 4 -139.6 5c-19 -21.2 -16.3 -53.2 -1.60004 -69c62.4 -2.59998 73 -5.20001 75.2 -72.2
c8 12.6 14.6 26.7 18.9 39.3c-6.20001 49.5 -26.3 53.4 -84.7 55.9c-6 6 -6 17 0 23c50 -1 78.7 -5 129 -5c50.7 0 81 4 130 5c6 -6 6 -17 0 -23c-70 -3 -84.5 -8 -87 -91c-2.5 -84 -3 -133 -3 -216s1 -128.5 3 -211zM594.5 123.1c2 82.9 1 115.1 1 197.9
c0 55.4 0.400024 89.7 0.0999756 131.2l-262.8 -327.2l-1.5 -1.8v-0.0999985c1.70001 -71.7 7.20001 -71.2 71 -73.9c20.5 -20.2 21.1 -61.9 -1.69998 -84.8c-41.5 1 -94.6 4.9 -143.1 4.9c-45.2 0 -95.2 -3.8 -140.3 -4.8c-19.7 19.8 -25.2 61.6 -1.8 84.7
c61 2.6 70.3 -0.600002 72.1 73.9c2 82.9 1 115.1 1 197.9c0 82.8 1 118.4 -1 201.3c-1.7 71.7 -7.3 71.2 -71.1 73.9c-20.5 20.2 -21 62 1.8 84.9c41.5 -1 94.6 -5.09998 143.1 -5.09998c45.2 0 95.2 4 140.3 5c19.7 -19.8 25.2 -61.9 1.79999 -85
c-61 -2.59998 -69.3 0.900024 -71.1 -73.7c-2.5 -83.8 -2.79999 -119.4 -2.79999 -202.3c0 -55.8 -0.200012 -88.2 0.399994 -128.5l264 328.5c0.199951 0.299988 0.399963 0.5 0.599976 0.799988v1.5c-1.70001 71.7 -7.29999 71.2 -71.1 73.9
c-20.5 20.2 -21 62 1.79999 84.9c41.5 -1 94.6 -5.09998 143.1 -5.09998c45.2 0 95.2 4 140.3 5c19.7 -19.8 25.2 -61.9 1.80005 -85c-61 -2.59998 -69.3 0.900024 -71.1 -73.7c-2.5 -83.8 -2.79999 -119.4 -2.79999 -202.3c0 -83.1 -0.200012 -114.2 1.79999 -196.9
c1.70001 -71.7 7.20001 -71.2 71 -73.9c20.5 -20.2 21.1 -61.9 -1.70001 -84.8c-41.5 1 -94.6 4.9 -143.1 4.9c-45.2 0 -95.2 -3.8 -140.3 -4.8c-19.7 19.8 -25.2 61.6 -1.79999 84.7c61 2.6 70.3 -0.600002 72.1 73.9z" />
    <glyph glyph-name="afii10033" unicode="&#x41f;" horiz-adv-x="667" 
d="M521 645c27 0 79 1 129 2c6 -6 6 -27 0 -33c-70 -3 -87 -8 -87 -91v-401c0 -83 17 -88 87 -91c6 -6 6 -27 0 -33c-49 1 -79 2 -130 2c-50 0 -79 -1 -129 -2c-6 6 -6 27 0 33c70 3 87 8 87 91v409c0 62 -22 74 -46 74h-197c-24 0 -46 -12 -46 -74v-409
c0 -83 17 -88 87 -91c6 -6 6 -27 0 -33c-50 1 -79 2 -129 2c-51 0 -81 -1 -130 -2c-6 6 -6 27 0 33c70 3 87 8 87 91v401c0 83 -17 88 -87 91c-6 6 -6 27 0 33c50 -1 106 -2 129 -2h375z" />
    <glyph glyph-name="afii10034" unicode="&#x420;" 
d="M428.5 296.4c0.100006 -72.5 0.700012 -136.8 2 -211.4c1 -57.7 32 -63.5 101 -67c6 -6 6 -17 0 -23c-50 1 -87.2 5 -143 5c-50.7 0 -81 -4 -130 -5c-6 6 -6 17 0 23c70 3 85.3 7.3 87 91c1.70001 83 2 129 2 212s-0.700012 132 -2 215c-1.29999 82.7 -17 88 -87 91
c-6 6 -6 17 0 23c50 -1 78.7 -5 129 -5c40 0 110 10 136 10c185 0 221 -110 221 -169c0 -85 -52 -199 -234 -199c-33.9 0 -60.4 2.79999 -82 9.39999zM430.5 583c-1.29999 -83 -2 -178.7 -2 -261.7v-5.79999c13.5 -2.70001 53.3 -4.5 77 -4.5c97 0 152 49 152 157
c0 127 -72 163 -141 163c-72 0 -84.8 -19.2 -86 -48zM459.7 258.6c0.299988 -62.3 0.799988 -104.8 1.79999 -163.1c0.700012 -38.5 13.6 -43.6 82 -47.1l1.5 -0.100002l1.09998 -1c30.9 -30.9 20.8 -60.8 -0.799988 -82.4l-1.20001 -1.2h-2.29999
c-59.5 1.2 -98.9 5.3 -153.3 5.3c-55.4 0 -89.1 -4.2 -140.8 -5.3h-1.7l-1.2 1.2c-30.4 30.4 -22.7 60.1 -1.10001 82.1l1.40001 1.4l1.39999 0.0999985c62.5 5.6 66.9 6 68 70.4c1.39999 90 2 121 2 202.1c0 86.1 -0.700012 124.7 -2 204.5c-1 59.4 -19.3 67.5 -67.3 70.9
l-2.09999 0.199951l-1.5 1.5c-30.9 31.6 -19.8 60.6 0.799988 81.6l1.60001 1.59998l1.7 -0.0999756c57.9 -1.20001 92.2 -5.20001 139.8 -5.20001c40.4 0 108.1 10 136 10c206.7 0 252 -131 252 -200c0 -102.4 -69.8 -230 -265 -230c-22.4 0 -39.7 1.29999 -50.8 2.60001z
M451.6 263.2v4.5l4.60001 -0.600006c12.5 -1.70001 29.9 -3.10001 54.3 -3.10001c190.8 0 257 123.4 257 222c0 65.5 -41.9 192 -244 192c-26.8 0 -94.6 -10 -136 -10c-47.8 0 -80.7 3.90002 -138.3 5.20001c-17.7 -18.3 -26.8 -41.3 -0.5 -68.8
c49.5 -3.60004 72.7 -16.2 73.8 -78.8c1.29999 -79.8 2 -118.5 2 -204.6c0 -81.1 -0.600006 -112.2 -2 -202.2c-1.20001 -65.9 -10.2 -72.4 -73.8 -78.1c-18.4 -19.1 -25.2 -42 0.5 -68.9c49.4 1.1 84.1 5.2 139.3 5.2c54.3 0 93.9 -3.9 152.3 -5.2
c17.6 18.2 26.9 41.2 0.700012 68.7c-65.1 3.4 -87.2 10.5 -88 54.9c-1 59.6 -1.70001 104.8 -1.89999 167.8zM461.5 582.1c-1.29999 -79.8 -1.79999 -166.3 -1.89999 -238.6c20.5 -1.29999 35.6 -1.5 45.9 -1.5c85.6 0 121 35.8 121 126c0 114 -57.1 132 -110 132
c-56.4 0 -54.7 -11.5 -55 -17.9zM453.5 582.3c0.600006 13.1 6.29999 25.7 63 25.7c55.8 0 118 -21.7 118 -140c0 -93.5 -39.6 -134 -129 -134c-11 0 -29.6 0.399994 -50.2 1.79999l-3.79999 0.200012v3.79999c0.100006 74.9 0.700012 161.1 2 242.5z" />
    <glyph glyph-name="afii10035" unicode="&#x421;" horiz-adv-x="646" 
d="M357 -10c-215 0 -316 164 -316 325c0 104.3 35.6 197.2 102 258c59 54 130 85 215 85c123 0 168 -40 219 -45c9 -55 17 -103 22 -155c-7.20001 -4.79999 -13.8 -5.79999 -23 -5c-26 86 -85 178 -223 178c-52 0 -121.4 -30 -171 -91c-36.5 -44.9 -57 -119.7 -57 -206
c0 -146 76 -313 231 -313c93 0 161 41 232 119c11 0 18 -6 23 -15c-68 -89 -157 -135 -254 -135zM357 -41c-239 0 -347 186.7 -347 356c0 115.1 40.5 215.3 112.1 280.9c64.5 59 135.1 93.1 235.9 93.1c134.6 0 187.3 -41.7 222 -45.1l23.7 -2.40002l0.5 -3
c11.5 -70.2 21.2 -131 27.4 -195.5l0.200012 -2.70001l-2.29999 -1.29999c-20.7 -10.9 -44.8 -21.6 -76.6 -11l-1.90002 0.700012l-4.70001 15.3c-25.2 83.2 -76.3 156 -193.3 156c-57.7 0 -108.6 -32.5 -146.9 -79.6c-31.2 -38.4 -50.1 -108.7 -50.1 -186.4
c0 -144.9 75.5 -282 200 -282c89.7 0 150.2 44.2 217.1 117.7l1.20001 1.3h1.79999c48.4 0 57.2 -25 69.6 -47.4l1.29999 -2.3l-1.59998 -2.10001c-77.6 -101.6 -174.8 -160.2 -288.4 -160.2zM357 -33c109.8 0 203.5 55.5 280.4 155c-11.3 20.6 -17 40.1 -59.6 41
c-66.4 -72.6 -129.4 -119 -221.8 -119c-131.5 0 -208 143.6 -208 290c0 78.8 18.8 150.8 51.8 191.5c39.3 48.3 92.4 82.5 153.2 82.5c121.4 0 175.4 -76.9 201 -161.7l3.40002 -11.3c25.6 -7.79999 45.4 -0.799988 66 9.89999c-6 60.9 -15.5 121.3 -26.6 189.3
l-17.6 1.70001c-39.1 3.79999 -87.8 45.1 -221.2 45.1c-98.9 0 -167.1 -33 -230.5 -91c-69.7 -63.8 -109.5 -161.7 -109.5 -275c0 -166.2 105.3 -348 339 -348z" />
    <glyph glyph-name="afii10036" unicode="&#x422;" horiz-adv-x="597" 
d="M265 536c-1.70001 61 -10 80 -47 80h-59c-66 0 -112 -36 -132 -116c-12 0 -14 1 -24 5c11 48 21 103 25 148c0 1 2 3 4 3c38 -3 156 -11 233 -11h86c79 0 190 8 224 11c1 0 3 -2 3 -3c1 -45 6 -99 13 -145c-9 -4 -13 -5 -24 -5c-17 77 -64 113 -139 113h-32
c-36 0 -44 -16 -46 -80c-2.70001 -84.7 -3 -133 -3 -216s1 -128.5 3 -211c2 -83 27 -88 97 -91c6 -6 6 -17 0 -23c-50 1 -84.8 5 -139 5c-54.6 0 -91 -4 -140 -5c-6 6 -6 17 0 23c70 3 95 8 97 91s3 129 3 212s-0.700012 132.7 -3 215zM234 535.1
c-1.7 49.1 -23.6 49.9 -36 49.9h-39c-54.2 0 -85.2 -25.9 -101.9 -92.5l-5.9 -23.5h-3.1c-39.4 0 -56.5 7.20001 -77.6 15.6l-3.6 1.5l5.9 25.8c11.6 50.4 20.8 104.4 24.3 143.4l0.4 4.40002c2.1 -0.200012 3.8 27.3 35.6 27.3h0.100002h0.200001
c42.8 -3.40002 171.4 -11 231.6 -11h86c67.2 0 190.6 8.20001 222.5 11h0.0999756h0.200012c22.1 0 35.2 -17.5 35.2 -33.7c1.20001 -53.6 8.5 -114 15.7 -161l0.5 -3l-2.79999 -1.29999c-25.4 -11.3 -45.4 -16 -77.1 -16h-3.20001l-5.39996 24.3
c-14.9 67.6 -49.2 88.7 -108.7 88.7c-47.6 0 -45.7 -6.09998 -47 -50c-2.60001 -87.7 -3 -135.1 -3 -215c0 -86.1 0.100006 -130.9 3 -210.2c2 -55.2 9.70001 -58.3 77.1 -61.3h2.29999l1.10001 -1.1c30.9 -30.9 21 -60.8 -0.700012 -82.5l-1.19998 -1.2l-13.2 0.299999
c-55 1.1 -88.9 5 -138.4 5c-60.6 0 -98.1 -4.2 -150.9 -5.3h-1.70001l-1.2 1.2c-30.2 30.2 -23.1 60.1 -0.699997 82.5l1.10001 1.1h1.59999c65.1 2.5 75.7 8 77.8 60.8c3.10001 89.4 3 131.3 3 211.7c0 86.2 -0.300003 135.1 -3 214.1zM242 535.4
c2.7 -79.1 3 -128.2 3 -214.4c0 -80.4 0.100006 -122.5 -3 -212c-2.2 -55.9 -18.1 -65.7 -83.9 -68.4c-18.2 -18.9 -25.1 -41.9 0.599991 -68.8c50.4 1.1 89 5.2 149.3 5.2c49.9 0 83.9 -3.9 138.5 -5l9.79999 -0.200001c17.7 18.3 26.8 41.3 0.600006 68.8
c-68 3.1 -81.8 10.4 -83.9 68.9c-2.89999 79.4 -3 124.5 -3 210.5c0 79.9 0.399994 127.5 3 215.3c1.29999 45 3.89999 57.7 55 57.7c62.3 0 100.9 -24.1 116.5 -95l4 -18c26.7 0.299988 44 3.89999 67.9 14.1c-7 46.5 -14.2 105.7 -15.4 159.2
c0 11.2 -10.1 27.2 -26.8 25.7c-32.2 -2.79999 -155.4 -11 -223.2 -11h-86c-60.7 0 -189.1 7.59998 -232.3 11c-22.7 -0.799988 -25.9 -18.4 -27.7 -24.6c-3.5 -39.1 -12.8 -93.7 -24.4 -144.3l-4.4 -19.1c18.9 -7.5 32.7 -13.5 68.8 -14l4.3 17.4
c17.2 68.9 51.7 98.6 109.7 98.6h39c15.2 0 42.2 -4.40002 44 -57.6z" />
    <glyph glyph-name="afii10037" unicode="&#x423;" horiz-adv-x="580" 
d="M104.5 523c-32.5 71 -42.5 86 -99.5 91c-6 6 -7 27 -1 33c47 -1 64 -2 104 -2c39 0 74 1 121 2c6 -6 6 -27 0 -33c-68 -7 -67 -23 -40.6 -80l138.6 -305h2l109 299c20 56 23 81 -51 86c-6 6 -6 27 0 33c47 -1 86 -2 109 -2s48 1 88 2c6 -6 6 -27 0 -33
c-66 -8 -82 -45 -100.3 -93l-141.7 -360c-43 -109 -98 -183 -188 -183c-42 0 -90 23 -90 55c0 28 19 48 49 48c14 0 36 -7 46 -19c7 -9 22 -22 36 -22c32 0 57 21 88 96z" />
    <glyph glyph-name="afii10039" unicode="&#x425;" 
d="M712.7 102c42.4 -58.3 71 -81 113 -84c6 -6 7 -17 1 -23c-30 1 -63 5 -102 5c-40 0 -74 -4 -114 -5c-6 6 -6 17 0 23c56 3 44.8 26.9 16.5 67.2l-123.5 175.8c-7.30002 10.4 -13 16 -17 16c-3 0 -12.6 -8.60001 -20 -19l-132 -185c-24.2 -34 -10.3 -52 34 -55
c6 -6 6 -17 0 -23c-40 1 -82 5 -105 5c-23 0 -60 -4 -90 -5c-6 6 -6 17 0 23c44.7 4.3 91.7 29.1 126 75l148 198c6.79999 9.10001 8 17 8 23c0 10 -1.70001 12.5 -14 30l-142.3 203c-41.2 58.7 -72.7 77 -114.7 80c-6 6 -7 17 -1 23c30 -1 63 -5 102 -5c40 0 74 4 114 5
c6 -6 6 -17 0 -23c-56 -3 -44.7 -27.2 -16.5 -67.2l110.5 -163.8c7.69998 -11.5 13 -17 16 -17c4 0 10.5 4.39999 20 18l123 175c23.5 33.4 10.3 52 -34 55c-6 6 -6 17 0 23c40 -1 82 -5 105 -5s60 4 90 5c6 -6 6 -17 0 -23c-44.7 -4.29999 -91.3 -30.1 -126 -75l-137 -177
c-11.5 -14.9 -11 -20 -11 -29c0 -7.70001 10.2 -20.6 20 -34zM739.3 118.2c47.8 -65.6 59.6 -67.1 98.3 -69.9l1.90002 -0.200001l1 -1.1c30.4 -30.4 21.9 -60.2 -0.0999756 -82.2l-1.20001 -1.2h-1.79999c-40 1.3 -74.8 5.4 -112.7 5.4c-44.8 0 -82 -4.2 -124.8 -5.3
h-1.70001l-1.20001 1.2c-30 30 -23.3 59.9 -0.900024 82.3l1.10004 1.1l2 0.100002c9.39996 0.899998 10.3 1.8 11.5 2.6c1.39996 1 -0.400024 4.5 -8.79999 16.4l-115.7 164.6l-122.2 -169c-2.89999 -4.1 -2.89999 -5.5 -3 -6.4c-0.5 -4.5 7.70001 -7.5 19.9 -8.3
l1.5 -0.0999985l1.10001 -1.1c31 -31 20.3 -60.9 -1 -82.2l-1.20001 -1.2h-1.79999c-45.3 1.1 -96.9 5.3 -115.8 5.3c-26.1 0 -70.3 -4.4 -100.6 -5.4h-1.8l-1.2 1.2c-29.7 29.7 -24 59.4 -1.40001 82l1 1l1.90001 0.200001c47 4.7 82.7 23 113.3 63.6l144.6 192.3
c5.5 7.30002 1.29999 16 -3.10001 22.3l-142.4 203c-44.4 63.3 -60.6 64.7 -101.5 67.6l-1.5 0.100037l-1.10001 1.09998c-30.3 30.3 -21.7 59.9 -0.0999908 81.9l1.5 1.5h1.8c40 -1.30005 74.7 -5.40002 112.6 -5.40002c44.8 0 82 4.20001 124.8 5.29999h1.79999
l1.20001 -1.20001c30 -30 23.2 -59.9 0.799988 -82.3l-1.09998 -1.20001h-1.70001c-8.79999 0 -10.9 -1.19995 -11.9 -1.79999c-1.20001 -0.799988 0.5 -5.09998 9.19998 -17.4l102.8 -152.4l115.8 164.8c3.59998 5.10004 2.59998 5 2.59998 5.29999
c-2.40002 1.5 -14.7 1 -23.4 1.60004l-1.5 0.0999756l-1.09998 1.10004c-30.9 30.9 -20.4 60.8 1 82.2l1.20001 1.20001h1.70001c45.3 -1.09998 96.9 -5.29999 115.8 -5.29999c26.1 0 70.4 4.40002 100.7 5.40002h1.79999l1.20001 -1.20001c29.7 -29.7 24 -59.4 1.39996 -82
l-1 -1l-1.5 -0.100037c-46.2 -4.39996 -82.5 -23.5 -114 -64.1l-131.9 -169.9c-9.30005 -12 -3.70001 -21.7 4.39996 -32.8zM730.8 116.3l-152.5 209.2c-8.09998 11.2 -17 25.8 -4.20001 42.4l131.8 170c32.2 41.6 69.9 62 118.2 67c18.4 19.2 24.2 41.9 -1.19995 68.4
c-28.1 -1 -73 -5.29999 -99.2 -5.29999c-19.6 0 -68.5 4 -114.2 5.20001c-17.6 -18.2 -27 -41.2 -0.900024 -68.6c6 -0.299988 30.1 3.70001 29.4 -9.89996c-0.0999756 -2.10004 -0.5 -4.40002 -4.09998 -9.5l-122.5 -174.3l-109.2 161.9
c-5.60001 8 -17.8 21.6 -6.90002 28.7c2.80002 1.79999 5.20001 2.79999 14.5 3.09998c18.1 18.9 24.7 41.9 -0.799988 68.6c-40.3 -1.10004 -78.7 -5.20001 -123.3 -5.20001c-37.8 0 -71.7 3.90002 -111.1 5.29999c-18.2 -18.9 -25.8 -41.6 0 -68.6
c40.4 -3 61.3 -7.20001 106 -70.9l142.3 -203c4.5 -6.5 12.2 -19.4 3 -31.7l-144.6 -192.3c-31.6 -42 -69.4 -61.7 -117.9 -66.7c-18.4 -19.2 -24.2 -41.9 1.20001 -68.4c28.1 1 72.9 5.3 99.1 5.3c19.6 0 68.6 -4 114.3 -5.2c17.5 18.2 27.2 41 0.899994 68.6
c-8.10001 0.699997 -27.6 2.4 -25.8 17.2c0.299988 2.1 0.699982 4.8 4.39999 10l128.8 178.2l122.1 -173.8c5.19995 -7.4 17.8 -20.3 6.79999 -27.6c-2.79999 -1.9 -4.40002 -2.7 -14.4 -3.8c-18.3 -19.1 -24.8 -42.1 0.700012 -68.8c40.3 1.1 78.6 5.2 123.2 5.2
c37.8 0 71.8 -3.9 111.2 -5.3c17.9 18.6 25.9 41.4 0 68.6c-39.6 3 -56.8 9.7 -105.1 76z" />
    <glyph glyph-name="afii10040" unicode="&#x426;" horiz-adv-x="674" 
d="M558 523v-401c0 -83 24 -88 48 -91c24.8 -3.1 29 -11 30 -20c4 -48 6 -101 6 -152c-9 -7.10001 -24 -8 -33 -1c-14 71 -62 142 -139 142h-326c-20 0 -81 -1 -130 -2c-6 6 -6 27 0 33c70 3 87 8 87 91v401c0 83 -17 88 -87 91c-6 6 -6 27 0 33c50 -1 79 -2 129 -2
c51 0 81 1 130 2c6 -6 6 -27 0 -33c-70 -3 -87 -8 -87 -91v-434c0 -31 18 -50 47 -50h203c32 -0.299999 37 5 37 83v401c0 83 -17 88 -87 91c-6 6 -6 27 0 33c50 -1 79 -2 129 -2c51 0 81 1 130 2c6 -6 6 -27 0 -33c-70 -3 -87 -8 -87 -91z" />
    <glyph glyph-name="afii10041" unicode="&#x427;" horiz-adv-x="650" 
d="M102 523c0 83 -17 88 -87 91c-6 6 -6 27 0 33c50 -1 79 -2 129 -2c51 0 81 1 130 2c6 -6 6 -27 0 -33c-70 -3 -87 -8 -87 -91v-106c0 -82 40 -109 112 -109c28.5 0 91 3.89999 154 45v170c0 83 -17 88 -87 91c-6 6 -6 27 0 33c50 -1 79 -2 129 -2c51 0 81 1 130 2
c6 -6 6 -27 0 -33c-70 -3 -87 -8 -87 -91v-401c0 -83 17 -88 87 -91c6 -6 6 -27 0 -33c-50 1 -79 2 -129 2c-51 0 -81 -1 -130 -2c-6 6 -6 27 0 33c70 3 87 8 87 91v192.9c-71.9 -49.4 -138.8 -64.9 -196 -64.9c-114 0 -155 79 -155 178v95z" />
    <glyph glyph-name="afii10042" unicode="&#x428;" horiz-adv-x="969" 
d="M820 0h-671s-81 -1 -130 -2c-6 6 -6 27 0 33c70 3 87 8 87 91v401c0 83 -17 88 -87 91c-6 6 -6 27 0 33c50 -1 79 -2 129 -2c51 0 81 1 130 2c6 -6 6 -27 0 -33c-70 -3 -87 -8 -87 -91v-401c0 -82 17 -85 59 -85h139c37 0 51 3 51 85v401c0 83 -17 88 -87 91
c-6 6 -6 27 0 33c50 -1 79 -2 129 -2c51 0 81 1 130 2c6 -6 6 -27 0 -33c-70 -3 -87 -8 -87 -91v-401c0 -82 17 -85 55 -85h129c56 0 69 3 69 85v401c0 83 -17 88 -87 91c-6 6 -6 27 0 33c49 -1 79 -2 130 -2c50 0 79 1 129 2c6 -6 6 -27 0 -33c-70 -3 -87 -8 -87 -91v-401
c0 -83 17 -88 87 -91c6 -6 6 -27 0 -33c-49 1 -82 2 -130 2z" />
    <glyph glyph-name="afii10043" unicode="&#x429;" horiz-adv-x="979" 
d="M775 0h-626s-81 -1 -130 -2c-6 6 -6 27 0 33c70 3 87 8 87 91v401c0 83 -17 88 -87 91c-6 6 -6 27 0 33c50 -1 79 -2 129 -2c51 0 81 1 130 2c6 -6 6 -27 0 -33c-70 -3 -87 -8 -87 -91v-401c0 -82 17 -85 59 -85h139c37 0 51 3 51 85v401c0 83 -17 88 -87 91
c-6 6 -6 27 0 33c50 -1 79 -2 129 -2c51 0 81 1 130 2c6 -6 6 -27 0 -33c-70 -3 -87 -8 -87 -91v-401c0 -82 17 -85 55 -85h129c56 0 69 3 69 85v401c0 83 -17 88 -87 91c-6 6 -6 27 0 33c49 -1 79 -2 130 -2c50 0 79 1 129 2c6 -6 6 -27 0 -33c-70 -3 -87 -8 -87 -91v-401
c0 -83 24 -88 48 -91c24.8 -3.1 29 -11 30 -20c4 -48 6 -101 6 -152c-9 -7.10001 -24 -8 -33 -1c-14 71 -62 142 -139 142z" />
    <glyph glyph-name="afii10044" unicode="&#x42a;" horiz-adv-x="723" 
d="M433 31c152 0 161 90 161 152c0 60 -28 150 -157 150h-87v-235c0 -33 13 -67 83 -67zM454 -2c-89 0 -103 2 -146 2c-51 0 -81 -1 -130 -2c-6 6 -6 27 0 33c70 3 87 8 87 91v401c0 75 -12 82 -59 82h-42c-66 0 -100 -93 -108 -136c-14 -3 -22.3 -0.5 -30 5
c4 56 10 108 16 171h265c50 0 81 1 130 2c6 -6 6 -27 0 -33c-70 -3 -87 -8 -87 -91v-150h60c246 0 277 -101 277 -190c0 -167 -112 -185 -233 -185z" />
    <glyph glyph-name="afii10045" unicode="&#x42b;" horiz-adv-x="796" 
d="M853.1 110c2 -83 17 -88 87 -91c6 -6 6 -17 0 -23c-50 1 -78.7 5 -129 5c-50.7 0 -81 -4 -130 -5c-6 6 -6 17 0 23c70 3 85 8 87 91s3 129 3 212s-1 132 -3 215s-17 88 -87 91c-6 6 -6 17 0 23c50 -1 78.7 -5 129 -5c50.7 0 81 4 130 5c6 -6 6 -17 0 -23
c-70 -3 -84.5 -8 -87 -91c-2.5 -84 -3 -133 -3 -216s1 -128.5 3 -211zM747.1 120.9c-1.89996 -77 -16.4 -76 -76.4 -78.5c-18.3 -19.6 -13.7 -51.9 1.59998 -69c44.6 1.1 91.8 4.9 136.8 4.9c48.2 0 100.3 -3.9 139.6 -4.9c19 21.2 16.3 53.2 1.59998 69
c-64.3 2.7 -73.6 5.3 -75.4 78.5c-2 82.7 -1.80005 117 -1.80005 200.1c0 82.9 0.300049 121.7 2.80005 205.4c1.89996 76.9 15.4 76.1 75.4 78.6c18.3 19.6 13.7 51.9 -1.59998 69c-44.6 -1.09998 -91.8 -5 -136.8 -5c-48.2 0 -100.3 4 -139.6 5
c-19 -21.2 -16.3 -53.2 -1.59998 -69c64.3 -2.70001 73.6 -5.40002 75.4 -78.6c2 -83 1 -121.7 1 -204.4c0 -82.7 1 -118.1 -1 -201.1zM739.1 124.1c2 82.9 1 115.1 1 197.9c0 82.8 1 118.4 -1 201.3c-1.69995 71.7 -7.29999 71.2 -71.1 73.9
c-20.5 20.2 -21 62 1.79999 84.9c41.5 -1 94.6 -5.09998 143.1 -5.09998c45.2 0 95.2 4 140.3 5c19.7 -19.8 25.2 -61.9 1.79999 -85c-61 -2.59998 -69.3 0.900024 -71.1 -73.7c-2.5 -83.8 -2.80005 -119.4 -2.80005 -202.3c0 -83.1 -0.199951 -114.2 1.80005 -196.9
c1.69995 -71.7 7.19995 -71.2 71 -73.9c20.5 -20.2 21.1 -61.9 -1.70001 -84.8c-41.5 1 -94.6 4.9 -143.1 4.9c-45.2 0 -95.2 -3.8 -140.3 -4.8c-19.7 19.8 -25.2 61.6 -1.79999 84.7c61 2.6 70.3 -0.600002 72.1 73.9zM246 31c152 0 183 90 183 152c0 60 -37 150 -165 150
h-75v-235c0 -33 9 -67 57 -67zM104 122v401c0 83 -17 88 -87 91c-6 6 -6 27 0 33c50 -1 79 -2 129 -2c51 0 81 1 130 2c6 -6 6 -27 0 -33c-70 -3 -87 -8 -87 -91v-150h88c219 0 245 -101 245 -190c0 -133.1 -86.5 -185 -278 -185c-36 0 -68 2 -97 2c-51 0 -81 -1 -130 -2
c-6 6 -6 27 0 33c70 3 87 8 87 91z" />
    <glyph glyph-name="afii10046" unicode="&#x42c;" horiz-adv-x="558" 
d="M246 31c152 0 183 90 183 152c0 60 -37 150 -165 150h-75v-235c0 -33 9 -67 57 -67zM104 122v401c0 83 -17 88 -87 91c-6 6 -6 27 0 33c50 -1 79 -2 129 -2c51 0 81 1 130 2c6 -6 6 -27 0 -33c-70 -3 -87 -8 -87 -91v-150h88c219 0 245 -101 245 -190
c0 -133.1 -86.5 -185 -278 -185c-36 0 -68 2 -97 2c-51 0 -81 -1 -130 -2c-6 6 -6 27 0 33c70 3 87 8 87 91z" />
    <glyph glyph-name="afii10047" unicode="&#x42d;" horiz-adv-x="622" 
d="M271 -10c-97 0 -225 60 -225 134c0 20 9 39 34 39c29 0 44 -27 57 -64c14 -40 54 -74 130 -74c148 0 220 118 230 276c-33 15 -62 22 -100 22c-58 0 -87 -32 -154 -32c-59 0 -122 29 -122 54c0 8 5 12 9 12c8 0 24 -16 62 -16c59 0 102 38 165 38c13 0 79 -12 140 -46
l1 1c0 213 -115 287 -194 287c-138 0 -195 -81 -221 -167l-30 4c10 52 18 101 22 155c57 3 97 45 224 45c166 0 286 -124 286 -333c0 -185 -99 -335 -314 -335z" />
    <glyph glyph-name="afii10048" unicode="&#x42e;" horiz-adv-x="1004" 
d="M661 619c-84 0 -184 -82 -184 -292c0 -192 106 -299 214 -299c103 0 181 103 181 282c0 208 -86 309 -211 309zM291.1 109c2 -83 17 -88 87 -91c6 -6 6 -17 0 -23c-50 1 -78.7 5 -129 5c-50.7 0 -81 -4 -130 -5c-6 6 -6 17 0 23c70 3 85 8 87 91s3 129 3 212
s-1 132 -3 215s-17 88 -87 91c-6 6 -6 17 0 23c50 -1 78.7 -5 129 -5c50.7 0 81 4 130 5c6 -6 6 -17 0 -23c-70 -3 -84.5 -8 -87 -91c-2.20001 -75.6 -2.89999 -122.8 -3 -192h23c0.100006 67.2 0.600006 106.2 2.79999 181.4c1.89999 76.9 15.4 76.1 75.4 78.6
c18.3 19.6 13.7 51.9 -1.59998 69c-44.6 -1.09998 -91.8 -5 -136.8 -5c-48.2 0 -100.3 4 -139.6 5c-19 -21.2 -16.3 -53.2 -1.60001 -69c64.3 -2.70001 73.6 -5.40002 75.4 -78.6c2 -83 1 -121.7 1 -204.4c0 -82.7 1 -118.1 -1 -201.1c-1.90001 -77 -16.4 -76 -76.4 -78.5
c-18.3 -19.6 -13.7 -51.9 1.60001 -69c44.6 1.1 91.8 4.9 136.8 4.9c48.2 0 100.3 -3.9 139.6 -4.9c19 21.2 16.3 53.2 1.59998 69c-64.3 2.7 -73.6 5.3 -75.4 78.5c-1.89999 77.6 -1.79999 112.6 -1.79999 185.1h-23c0.100006 -73.8 1.10001 -118.6 3 -196zM177.1 123.1
c2 82.9 1 115.1 1 197.9c0 82.8 1 118.4 -1 201.3c-1.70001 71.7 -7.3 71.2 -71.1 73.9c-20.5 20.2 -21 62 1.8 84.9c41.5 -1 94.6 -5.09998 143.1 -5.09998c45.2 0 95.2 4 140.3 5c19.7 -19.8 25.2 -61.9 1.79999 -85c-61 -2.59998 -69.3 0.900024 -71.1 -73.7
c-2.19998 -75.3 -2.69998 -111.7 -2.79999 -178.3h65.9c13 179 131 314 287 314c168 0 293 -131 293 -329c0 -200 -114 -339 -292 -339c-158 0 -287 121 -289 315h-64.9c0 -72.2 -0.100006 -104.4 1.79999 -181.9c1.70001 -71.7 7.20001 -71.2 71 -73.9
c20.5 -20.2 21.1 -61.9 -1.69998 -84.8c-41.5 1 -94.6 4.9 -143.1 4.9c-45.2 0 -95.2 -3.8 -140.3 -4.8c-19.7 19.8 -25.2 61.6 -1.8 84.7c61 2.6 70.3 -0.600002 72.1 73.9z" />
    <glyph glyph-name="afii10049" unicode="&#x42f;" horiz-adv-x="580" 
d="M169 502c0 -106 62 -140 145 -140h78v213c0 33 -4 36 -91 36c-56 0 -132 -16 -132 -109zM6 0v19c0 5 3 8 7 8l9 1c32 4 81.6 58.4 133 192c25 65 55 90 82 106v3c-68 10 -149 60 -149 162c0 69 34 155 220 155c35 0 94 -1 127 -1c31 0 128 1 128 1v-21c0 -4 -2 -7 -7 -7
l-30 -2c-42 -3 -53 -10 -53 -44v-499c0 -30 13 -41 54 -44l27 -2c4 0 8 -3 8 -8v-19l-2 -2s-87 2 -126 2c-36 0 -129 -2 -129 -2l-2 2v19c0 5 3 8 8 8l26 2c42 3 55 16 55 44v251c-106 0 -126 -29 -168 -135c-43 -108.5 -80 -189 -151 -190l-66 -1z" />
    <glyph glyph-name="space" unicode=" " horiz-adv-x="250" 
 />
    <glyph glyph-name="zero" unicode="0" horiz-adv-x="618" 
d="M310.5 583c-45 0 -112 -54 -112 -300c0 -87 16 -270 109 -270c18 0 73 11 95 93c14 51 17 124 17 216c0 134 -33 220 -64 246c-12 11 -28 15 -45 15zM306.5 -12c-113 0 -189 144 -189 306c0 198 94 316 193 316c45 0 91 -28 122 -69c44 -58 68 -139 68 -238
c0 -235 -117 -315 -194 -315zM310.5 552c-15.2 0 -81 -27.2 -81 -269c0 -105.1 29.1 -239 78 -239c9.20001 0 47.9 5.9 65.1 70.1c12.9 47.1 15.9 121.2 15.9 207.9c0 135.9 -36.1 208.2 -53.4 222.7c-6.60001 6.09998 -14.9 7.29999 -24.6 7.29999zM310.5 560
c10.2 0 21.1 -1.29999 29.8 -9.29999c20.6 -17.3 56.2 -91.7 56.2 -228.7c0 -86.9 -2.79999 -161.3 -16.2 -210c-18.1 -67.6 -60.5 -76 -72.8 -76c-60.1 0 -86 145 -86 247c0 241.4 65.5 277 89 277zM306.5 -43c-146.2 0 -220 176.7 -220 337c0 208.8 100.8 347 224 347
c61.5 0 113.8 -37.8 146.7 -81.3c51 -67.3 74.3 -156.8 74.3 -256.7c0 -249.7 -128.4 -346 -225 -346zM306.5 -35c90.8 0 217 90.9 217 338c0 98.7 -23.1 186.5 -72.7 251.9c-31.9 42.2 -82.3 78.1 -140.3 78.1c-116.2 0 -216 -131.8 -216 -339c0 -159.6 73.6 -329 212 -329
z" />
    <glyph glyph-name="I" unicode="I" horiz-adv-x="518" 
d="M301.1 109c2 -83 17 -88 87 -91c3 -3 4.5 -7.3 4.5 -11.5s-1.5 -8.5 -4.5 -11.5c-50 1 -78.7 5 -129 5c-50.7 0 -81 -4 -130 -5c-3.00001 3 -4.50001 7.3 -4.50001 11.5s1.5 8.5 4.50001 11.5c70 3 85 8 87 91s3 129 3 212s-1 132 -3 215s-17 88 -87 91
c-3.00001 3 -4.50001 7.29999 -4.50001 11.5s1.5 8.5 4.50001 11.5c50 -1 78.7 -5 129 -5c50.7 0 81 4 130 5c3 -3 4.5 -7.29999 4.5 -11.5s-1.5 -8.5 -4.5 -11.5c-70 -3 -84.5 -8 -87 -91c-2.5 -84 -3 -133 -3 -216s1 -128.5 3 -211zM195.1 119.9
c-1.90001 -77 -16.4 -76 -76.4 -78.5c-8.3 -8.9 -11.9 -20.5 -11.9 -32c0 -13.8 5.2 -27.7 13.5 -37c44.6 1.1 91.8 4.9 136.8 4.9c48.2 0 100.3 -3.9 139.6 -4.9c9.29999 10.5 13.4 23.6 13.4 36c0 12.8 -4.30002 25 -11.8 33c-64.3 2.7 -73.6 5.3 -75.4 78.5
c-1.69998 70.9 -1.79999 106.2 -1.79999 167.1v33c0 82.9 0.299988 121.7 2.79999 205.4c1.89999 76.9 15.4 76.1 75.4 78.6c8.30002 8.90002 11.9 20.4 11.9 31.9c0 13.8 -5.20001 27.8 -13.5 37.1c-44.6 -1.09998 -91.8 -5 -136.8 -5c-48.2 0 -100.3 4 -139.6 5
c-9.3 -10.5 -13.5 -23.6 -13.5 -36c0 -12.8 4.39999 -25 11.9 -33c64.3 -2.70001 73.6 -5.40002 75.4 -78.6c1 -41.3 1.2 -71.6 1.2 -101.9c0 -30.5 -0.199997 -61 -0.199997 -102.5s0.199997 -71.1 0.199997 -100.8c0 -29.4 -0.199997 -58.9 -1.2 -100.3zM187.1 123.1
c1 41.3 1.2 70 1.2 98.6c0 28.9 -0.199997 57.7 -0.199997 99.3s0.199997 71.3 0.199997 101c0 29.5 -0.199997 59.1 -1.2 100.3c-1.70001 71.7 -7.3 71.2 -71.1 73.9c-10.1 10 -15.4 25.1 -15.4 40.7c0 16 5.6 32.6 17.2 44.2c41.5 -1 94.6 -5.09998 143.1 -5.09998
c45.2 0 95.2 4 140.3 5c10.7 -10.7 17.2 -27.9 17.2 -45.1c0 -14.6 -4.60001 -29.3 -15.4 -39.9c-61 -2.59998 -69.3 0.900024 -71.1 -73.7c-2.5 -83.8 -2.79999 -119.4 -2.79999 -202.3v-33c0 -60.1 0.100006 -93.2 1.79999 -163.9c1.70001 -71.7 7.20001 -71.2 71 -73.9
c10.1 -10 15.3 -25.2 15.3 -40.8c0 -16 -5.5 -32.4 -17 -44c-41.5 1 -94.6 4.9 -143.1 4.9c-45.2 0 -95.2 -3.8 -140.3 -4.8c-10.7 10.7 -17.2 27.8 -17.2 44.9c0 14.5 4.6 29.2 15.4 39.8c61 2.6 70.3 -0.600002 72.1 73.9z" />
    <glyph glyph-name="J" unicode="J" horiz-adv-x="618" 
d="M307 109c2 83 3 129 3 212s-1 132 -3 215s-17 88 -87 91c-6 6 -6 17 0 23c50 -1 78.7 -5 129 -5c50.7 0 81 4 130 5c6 -6 6 -17 0 -23c-70 -3 -84.5 -8 -87 -91c-2.5 -84 -3 -133 -3 -216c0 -55.1 0.5 -93 1.29999 -137.5c1.40002 -74 -32.6 -122.7 -66.3 -151.5
c-41 -35 -72 -42 -117 -42c-22 0 -71 17 -71 53c0 22 26 33 40 33c31 0 35.3 -20.8 45 -34c7.3 -10 21 -18 35 -18c22.8 0 49.8 22.3 51 86zM276 109.7c2.10001 86.5 3 131.6 3 211.3c0 86.1 -0.100006 134.5 -3 214.2c-2 56.4 -3 58.4 -67.8 61.3h-1.59999
l-1.10001 1.09998c-30.9 30.9 -21 60.8 0.699997 82.5l1.2 1.10004h1.70001c57.9 -1.20001 92.3 -5.20001 139.9 -5.20001c55.4 0 89.2 4.09998 140.9 5.20001h1.70001l1.19998 -1.10004c30.2 -30.2 23.1 -60.1 0.700012 -82.5l-1.10001 -1.09998h-1.60001
c-64.9 -1.5 -66.4 -12.1 -67.8 -61.4c-2.5 -87.1 -3 -135.3 -3 -215.1c0 -58.9 0.5 -95 1.29999 -136.9c1.60001 -88.8 -40.6 -144.6 -77.1 -175.7c-37.7 -32.2 -84.7 -49.4 -137.2 -49.4c-31.5 0 -102 21.3 -102 84c0 54.8 55.6 64 71 64c53.3 0 69.1 -44.9 70.1 -46.8
c4 -4.4 9.5 -5.2 9.89999 -5.2c8.20001 0 19.3 16.5 20 55.7zM284 109.5c-0.700012 -37.4 -10.3 -63.5 -28 -63.5c-2.8 0 -11.1 1.4 -16.4 8.6c-2 2.7 -14.5 43.4 -63.6 43.4c-14.6 0 -63 -8.7 -63 -56c0 -55.2 63.8 -76 94 -76c50.7 0 95.7 16.5 132 47.5
c35.2 30 75.9 83.5 74.3 169.4c-0.799988 41.9 -1.29999 78.2 -1.29999 137.1c0 79.8 0.5 128.2 3 215.3c1.5 50.5 6.79999 67.3 74 69.2c18.2 18.9 25 41.8 -0.700012 68.7c-49.4 -1.10004 -84.1 -5.20001 -139.3 -5.20001c-47.8 0 -80.7 3.90002 -138.3 5.20001
c-17.7 -18.3 -26.8 -41.3 -0.599991 -68.8c64.8 -3 71.8 -10.5 73.9 -68.9c2.89999 -79.9 3 -128.5 3 -214.5c0 -79.7 -0.899994 -125 -3 -211.5z" />
    <glyph glyph-name="K" unicode="K" horiz-adv-x="870" 
d="M290.6 109c2 -83 17 -88 87 -91c6 -6 6 -17 0 -23c-50 1 -78.7 5 -129 5c-50.7 0 -81 -4 -130 -5c-6 6 -6 17 0 23c70 3 85 8 87 91s3 129 3 212s-1 132 -3 215s-17 88 -87 91c-6 6 -6 17 0 23c50 -1 78.7 -5 129 -5c50.7 0 81 4 130 5c6 -6 6 -17 0 -23
c-70 -3 -84.5 -8 -87 -91c-2.30002 -76.3 -2.89999 -123.7 -3 -193.9c37.2 2.60001 71.4 21.3 92 43.9l160 176c40.9 45 -1.89996 61.6 -38 65c-6 6 -6 17 0 23c47 -1 78 -5 118 -5s58 4 105 5c6 -6 6 -17 0 -23c-40 -5 -90 -20 -136 -69l-147 -151c-34 -35 -35 -42 -35 -49
c0 -8 5.29999 -15.9 13 -25l219 -260c33.6 -41.6 80.1 -52.4 98 -55c6 -6 6 -17 0 -23c-47 1 -72 5 -111 5c-30 0 -28 -4 -48 -5c-4 0 -4.59998 3 -5 6c-2 16 -15.7 46.4 -36 72l-157 198c-20.8 26.3 -56.7 42.4 -92 43c0 -79.2 1 -124.5 3 -205zM310.6 287.8
c20.9 -5.79999 38.1 -14.9 50.9 -31l157 -198.1c15.3 -19.3 29.8 -49.6 31.2 -60.6c2.70001 -21.9 20.7 -26.1 27.9 -26.1h1.10004c23.5 1.2 16.9 5 46.9 5c35.3 0 57.7 -3.9 110.5 -5l9.80005 -0.200001c17.4 18.3 27.5 40.5 1.5 67.9l-7.60004 1.1
c-12.8 1.8 -52.5 8.3 -83.5 46.8l-208.8 246.8c-10.3 12.2 -15.4 30 10.5 56.6l147.2 151.1c42.6 45.3 83 57.1 130 63.1c18.2 19 23.7 41.9 -1.29999 68c-45.8 -1.10004 -72.4 -5.20001 -114.3 -5.20001c-37.2 0 -73.3 3.90002 -127.3 5.20001
c-17.2 -17.9 -27.3 -40.9 -1.19998 -68.3c9.69998 -0.600037 38.4 0.0999756 38.4 -13.5c0 -9.70001 -10.9 -21.3 -18.5 -29.6l-148.5 -160.4c-10.8 -11.6 -29.9 -25.9 -51.8 -31.6c0.199982 53.1 1 90.1 2.79999 155.6c2.10001 76.9 15.4 76.1 75.4 78.6
c18.3 19.6 13.7 51.9 -1.60001 69c-44.6 -1.09998 -91.8 -5 -136.8 -5c-48.2 0 -100.4 4 -139.7 5c-19 -21.2 -16.3 -53.2 -1.60001 -69c64.3 -2.70001 73.6 -5.40002 75.4 -78.6c2 -83 1 -121.7 1 -204.4c0 -82.7 1 -118.1 -1 -201.1c-1.90001 -77 -16.4 -76 -76.4 -78.5
c-18.3 -19.6 -13.7 -51.9 1.60001 -69c44.6 1.1 91.8 4.9 136.8 4.9c48.2 0 100.4 -3.9 139.7 -4.9c19 21.2 16.3 53.2 1.60001 69c-64.3 2.7 -73.6 5.3 -75.4 78.5c-1.70001 71.2 -1.89999 106.5 -1.89999 167.9zM318.7 381c16.3 6.79999 29.5 16.8 37.9 25.9l148.5 160.3
c8.19998 9 16 19.5 16.4 24.1c-2.20001 2.90002 -20.5 4.90002 -32.4 5.70001l-1.5 0.0999756l-1.10001 1.10004c-31 31 -19.7 60.9 1.29999 81.9l1.20001 1.20001l1.70001 -0.0999756c54.1 -1.20001 92.1 -5.20001 128.9 -5.20001c41.7 0 67.8 4.20001 115.8 5.20001
l1.69995 0.0999756l1.20001 -1.20001c29.3 -29.3 24 -59.2 1.60004 -81.6l-0.900024 -0.900024l-1.40002 -0.199951c-46.2 -5.80005 -84.8 -16.3 -126.6 -60.8l-147.2 -151.2c-23.8 -24.5 -18 -36.6 -10.2 -45.8l208.9 -246.9c29.2 -36.1 66.3 -42.3 78.4 -44l10.3 -1.5
l0.899963 -0.900002c31 -31 18.5 -61.1 -1.79999 -81.4l-1.20001 -1.2l-13.2 0.299999c-53.3 1.1 -75.7 5 -110.3 5c-28.2 0 -21.3 -3.7 -46.5 -5h-0.799988h-0.700012c-9.09998 0 -32.4 6 -35.8 33.2c-1 7.7 -15.2 38.4 -29.5 56.5l-157.1 198.2
c-9.10001 11.5 -22.3 19.9 -36.6 25.1c0 -54 0.299988 -87.2 1.89999 -153.9c1.70001 -71.7 7.10001 -71.2 70.9 -73.9c20.5 -20.2 21.1 -61.9 -1.69998 -84.8c-41.5 1 -94.6 4.9 -143.1 4.9c-45.2 0 -95.2 -3.8 -140.3 -4.8c-19.7 19.8 -25.1 61.6 -1.7 84.7
c61 2.6 70.2 -0.600002 72 73.9c2 82.9 1 115.1 1 197.9c0 82.8 1 118.4 -1 201.3c-1.70001 71.7 -7.3 71.2 -71.1 73.9c-20.5 20.2 -21 62 1.8 84.9c41.5 -1 94.7 -5.09998 143.2 -5.09998c45.2 0 95.2 4 140.3 5c19.7 -19.8 25.1 -61.9 1.70001 -85
c-61 -2.59998 -69 0.900024 -71 -73.7c-1.60001 -60.2 -2.5 -95.5 -2.79999 -141.3z" />
    <glyph glyph-name="L" unicode="L" horiz-adv-x="712" 
d="M303.1 109c0.5 -31 5.5 -80 57 -80h73c106 0 143 59 163 131c12.4 1.8 13.2 -0.300003 23 -5c-6 -52 -16 -110 -26 -160c0 0 -92 5 -119.3 5h-212.7c-30 0 -81 -4 -130 -5c-6.00001 6 -6.00001 17 0 23c70 3 85 8 87 91s3 129 3 212s-1 132 -3 215s-17 88 -87 91
c-6.00001 6 -6.00001 17 0 23c50 -1 78.7 -5 129 -5c50.7 0 81 4 130 5c6 -6 6 -17 0 -23c-70 -3 -84.5 -8 -87 -91c-2.5 -84 -3 -133 -3 -216s1.69998 -128.5 3 -211zM260.9 -31.7c-49.3 0 -100.6 -4 -142.9 -5c-23.9 24 -23.6 63.4 -1.8 84.9
c60.6 3.1 69.2 -1.6 70.9 70.9c2.09999 86.3 3 122.3 3 201.9c0 86 -1.10001 124.3 -3 204.2c-1.8 75.3 -11.5 67.9 -70.9 70.9c-24.6 24.3 -18.1 64 2.8 85c45.3 -1.09998 97.3 -5.09998 142.9 -5.09998c49.4 0 98.4 4.09998 141.1 5.09998
c23.9 -24 22.5 -63.5 0.799988 -85c-64.7 -2.79999 -68.2 -0.899963 -69.9 -70.9c-2.10001 -87.1 -2.79999 -125.4 -2.79999 -205.2c0 -85.8 1.69998 -130.8 3 -210.5c0.600006 -36.3 16 -49.5 36 -49.5h63c102.6 0 118.4 55.3 138.6 127.8c41.8 6 60.8 -4.8 80.7 -14.4
c-8.5 -73.6 -21 -144.8 -33.5 -207.4l-0.700012 -3.4l-3.40002 0.200001c-23.6 1.3 -98.3 6.2 -141 6.2zM260.9 -23.7l212.9 0.700001c41.2 0 110.2 -4.4 137.9 -6c11.7 58.6 23.8 127.3 32.1 197.7c-15.9 7.60001 -31.4 16.2 -65.8 11.9
c-19.4 -69.3 -39.5 -128.6 -144.9 -128.6h-63c-25.3 0 -43.4 18.6 -44 57.4c-1.30002 79.6 -3 124.7 -3 210.6c0 79.8 0.199982 118.3 2.79999 205.4c1.80002 73.1 10.1 75.9 74.4 78.6c14.7 15.8 17.4 47.8 -1.59998 69c-39.5 -1 -88.5 -5 -136.8 -5
c-44.9 0 -95.3 3.90002 -139.6 5c-15.3 -17.1 -19.9 -49.4 -1.60001 -69c60.1 -2.5 72.5 -1.70001 74.4 -78.6c1.89999 -79.8 3 -118.3 3 -204.4c0 -79.7 -0.900009 -115.8 -3 -202.1c-1.8 -73.2 -11.1 -75.8 -75.4 -78.5c-14.7 -15.8 -17.4 -47.8 1.60001 -69
c39.3 1 91.4 4.9 139.6 4.9z" />
    <glyph glyph-name="M" unicode="M" 
d="M743.7 103l-25.8 431h-2l-225 -529c-4 -8 -8 -11 -14 -11s-12.2 3.9 -15 11l-207 519h-2l-37.9 -414c-5.39999 -56.3 -0.100006 -87 65.9 -92c6 -6 6 -17 0 -23c-30 1 -62 5 -86 5s-58 -4 -88 -5c-6 6 -6 17 0 23c57 5 69.1 30.1 75 90l44 425c7.8 74.9 1 90 -68 94
c-6 6 -6 17 0 23l129 -5l205 -508c4 -9 7.5 -23 14 -23c6.50003 0 11.3 10.4 17 24l212 507l117 5c6 -6 6 -17 0 -23c-68 -4 -72.8 -31 -68.7 -85l32.8 -434c5.79999 -82.8 8.90002 -87 76.9 -90c6 -6 6 -17 0 -23c-33.2 1 -77.5 5 -106 5c-26 0 -60 -4 -107 -5
c-6 6 -6 17 0 23c65 3 68.8 4 63.8 85zM711.7 111.1l-17.1 293.5l-175.5 -412.6l-0.399963 -0.9c-9.70001 -19.4 -28.1 -28.1 -41.8 -28.1c-26.7 0 -39.3 19.3 -43.8 30.5l-160.7 403l-24.6 -279.4c-0.800003 -8.2 -1.10001 -12.7 -1.40001 -16.2
c-3.5 -45.1 1.3 -49.3 46.8 -52.7l1.5 -0.200001l1.09998 -1c31.1 -31.1 20 -61 -1.19998 -82.2l-1.30002 -1.2h-1.69998c-36.8 1.2 -76.7 5.4 -96.7 5.4c-27 0 -68.1 -4.4 -98.6 -5.4h-1.8l-1.2 1.2c-29.9 29.9 -23.5 59.5 -1.7 81.7l1.4 1.4l1.4 0.0999985
c49.7 4.4 52.8 14.5 58.6 73.1l42.1 415.1c0.899994 8.39996 1.2 12.7 1.5 16.2c3.7 43.5 -1.10001 40.2 -50.8 44.3l-1.5 0.0999756l-1 1c-31.1 31.1 -20.4 61 1.09999 82.5l1.20001 1.20001l162.6 -6.29999l199.3 -493.8l206.4 493.7l150.3 6.5l1.29999 -1.29999
c30.1 -30.1 23.8 -59.8 1.09998 -82.5l-1 -1l-1.39996 -0.0999756c-49.8 -5.79999 -53.4 -8.20001 -50.1 -52.4l31.8 -424c4.89996 -65.6 -5.80005 -68.9 58.9 -71.8l1.5 -0.0999985l1.10004 -1.1c31 -31 20.9 -60.8 -0.800049 -82.5l-1.19995 -1.2l-1.70001 0.100002
c-40.8 1.2 -90.4 5.3 -116.8 5.3c-26 0 -73.9 -4.3 -117.8 -5.2l-1.69995 -0.0999985l-1.20001 1.2c-30.2 30.2 -23.2 60 -0.799988 82.4l1 1l1.39996 0.100002c46.3 5 46.9 11 43.9 62.7zM719.7 111.6c3 -51.8 -0.200012 -65.3 -49.6 -70.9
c-18.4 -19.1 -25.2 -42 0.5 -68.9c42.2 1 90 5.2 116.3 5.2c26.7 0 74.4 -4 115.2 -5.3c17.7 18.3 27.1 41.4 0.800049 68.9c-66.5 3.2 -60.2 14.6 -65 79.1l-31.7 424c-3.5 46.6 4.59998 54.8 55.7 60.8c18.6 19.3 24.7 42.1 -0.900024 68.9l-141.7 -6l-212 -507.1
l-204.6 507.1l-153.9 6c-18.2 -19.2 -27.1 -41.4 -0.900009 -68.9c48.1 -3.90002 60.7 -5.29999 56.7 -52.8c-0.300003 -3.5 -0.700012 -7.90002 -1.60001 -16.3l-42 -415.1c-5.7 -58.2 -11.6 -75.1 -64.4 -80.1c-18.4 -19.2 -24.3 -42 1.1 -68.5c28.2 1 70.2 5.3 97.2 5.3
c20.6 0 58.3 -3.9 95.2 -5.3c17.4 18.1 27.3 41 1 68.6c-47.1 3.8 -56.5 13.9 -52.5 63.4c0.199997 3 0.599991 6.8 1.29999 14.2l27.5 312.7l173.2 -434.1c3.79999 -9.6 14.3 -25.5 36.3 -25.5c10.5 0 26.3 7.1 34.6 23.7l0.299988 0.5l188.8 443.9z" />
    <glyph glyph-name="N" unicode="N" horiz-adv-x="931" 
d="M669 525c0 91 -17 95 -87 102c-6 6 -6 17 0 23c50 -1 65.2 -5 107 -5c42.2 0 59 4 108 5c6 -6 6 -17 0 -23c-70 -7 -87 -13 -87 -102l-1 -504c0 -19 2 -31 -12 -31c-16 0 -29 9 -40 24l-349 441c-17 22 -28 33 -34 33c-8 0 -13.1 -15 -13 -49l1 -319
c0 -91 17 -95 87 -102c6 -6 6 -17 0 -23c-50 1 -65.2 5 -107 5c-42.2 0 -59 -4 -108 -5c-6 6 -6 17 0 23c70 7 87 13 87 102l1 430c-11 39 -36 71 -84 74c-6 6 -6 17 0 23l129 -2l343 -442c29 -37 40 -55 48 -55c7 0 12.1 11 12 30zM638 525c0 86.7 0 65.2 -68.7 72.1
l-1.39996 0.200012l-1 1c-31 31 -19.6 60.9 1.29999 81.8l1.20001 1.10004h1.69995c56.5 -1.10004 81.3 -5.20001 117.9 -5.20001c43.5 0 68.7 4.20001 118.9 5.20001h1.69995l1.20001 -1.10004c29.7 -29.7 23.8 -59.3 1.29999 -81.8l-1 -1l-1.39996 -0.200012
c-72 -7.19995 -68.7 8.20001 -68.7 -72.1c0 -173.5 -0.900024 -345.6 -0.900024 -515.6c0 -17.3 -10.7 -50.4 -43.1 -50.4c-33.8 0 -53.3 21.3 -64.7 36.3l-340.2 429.9l0.899994 -295.2c0 -72.8 1.79999 -75.4 68.7 -82.1l1.39999 -0.200001l1 -1
c31 -31 19.6 -60.9 -1.30002 -81.8l-1.19998 -1.2h-1.70001c-56.5 1.1 -81.3 5.3 -117.9 5.3c-43.5 0 -68.7 -4.3 -118.9 -5.3h-1.7l-1.2 1.2c-29.7 29.7 -23.8 59.3 -1.3 81.8l1 1l1.4 0.200001c70.5 7 68.7 13.2 68.7 82.1l1 415.5c-12 37.3 -29.3 45.8 -64.5 48.2
l-2.1 0.0999756l-1.1 1.10004c-30.9 30.9 -20.5 60.7 0.899994 82.1l1.2 1.20001l157 -2.40002l356.6 -459.6zM646 525l1.09998 -332.3l-368.7 475.1l-149.7 2.29999c-17.6 -18.2 -27 -41 -0.799995 -68.5c37 -2.69995 58.4 -14.3 70.9 -54.3l0.199997 -0.599976l-1 -416.7
c0 -69 -1.5 -82.4 -74.4 -89.9c-18.3 -19.1 -24.2 -41.8 1.1 -68.3c48 1.1 73.7 5.2 117.3 5.2c37.3 0 59.7 -3.9 116.3 -5.2c17.2 17.8 27.4 40.8 1.20001 68.3c-67.7 6.9 -74.5 15.9 -74.5 89.9l-1 318.3l354.6 -448.1c11 -14.5 28.5 -33.2 58.4 -33.2
c25.3 0 35.1 26.6 35.1 42.4c0 170.1 0.900024 342.1 0.900024 515.6c0 81.5 3.20001 73.1 74.5 79.9c18.3 19.1 24.1 41.8 -1.20001 68.3c-48 -1.10004 -73.7 -5.20001 -117.3 -5.20001c-37.3 0 -59.7 3.90002 -116.3 5.20001c-17.2 -17.8 -27.3 -40.8 -1.10004 -68.3
c66 -6.20001 74.4 8.79999 74.4 -79.9z" />
    <glyph glyph-name="O" unicode="O" horiz-adv-x="835" 
d="M397 634c-91 0 -201 -97 -201 -307c0 -192 118 -313 240 -313c114 0 203 117 203 296c0 202 -110 324 -242 324zM729 329c0 -84 -20 -156.3 -59.8 -213c-54.9 -78.3 -142.4 -126 -253.2 -126c-170 0 -310 123 -310 320c0 87.2 22.4 165.7 66.3 226
c54.8 75.2 138.4 122 237.7 122c179 0 319 -122 319 -329zM397 603c-70.1 0 -170 -79.9 -170 -276c0 -184.5 112.2 -282 209 -282c91.5 0 172 97.8 172 265c0 196 -104.5 293 -211 293zM397 611c112.2 0 219 -102.3 219 -301c0 -169.1 -81.8 -273 -180 -273
c-102.4 0 -217 102.4 -217 290c0 198.4 101.7 284 178 284zM760 329c0 -92.8 -23 -170.4 -65.4 -230.8c-62.7 -89.4 -162.3 -139.2 -278.6 -139.2c-190.1 0 -341 141.3 -341 351c0 96.3 25.5 180.3 72.2 244.3c62.3 85.5 156.9 134.7 262.8 134.7
c198.7 0 350 -140.5 350 -360zM752 329c0 215.3 -147.5 352 -342 352c-103.4 0 -195.5 -48 -256.3 -131.5c-45.5 -62.5 -70.7 -144.6 -70.7 -239.5c0 -205.4 147.2 -343 333 -343c114 0 210.9 48.6 272 135.8c41.3 58.9 64 134.7 64 226.2z" />
    <glyph glyph-name="P" unicode="P" horiz-adv-x="711" 
d="M304.1 296.4c0.100006 -72.5 0.699982 -136.8 2 -211.4c1 -57.7 32 -63.5 101 -67c6 -6 6 -17 0 -23c-50 1 -87.2 5 -143 5c-50.7 0 -81 -4 -130 -5c-6 6 -6 17 0 23c70 3 85.3 7.3 87 91c1.7 83 2 129 2 212s-0.700012 132 -2 215c-1.3 82.7 -17 88 -87 91
c-6 6 -6 17 0 23c50 -1 78.7 -5 129 -5c40 0 110 10 136 10c185 0 221 -110 221 -169c0 -85 -52 -199 -234 -199c-33.9 0 -60.4 2.79999 -82 9.39999zM306.1 583c-1.30002 -83 -2 -178.7 -2 -261.7v-5.79999c13.5 -2.70001 53.3 -4.5 77 -4.5c97 0 152 49 152 157
c0 127 -72 163 -141 163c-72 0 -84.8 -19.2 -86 -48zM335.2 258.6c0.299988 -62.3 0.899994 -104.8 1.89999 -163.1c0.699982 -38.5 13.5 -43.6 81.9 -47.1l1.60001 -0.100002l1 -1c30.9 -30.9 20.9 -60.8 -0.700012 -82.4l-1.29999 -1.2h-2.20001
c-59.5 1.2 -98.9 5.3 -153.3 5.3c-55.4 0 -89.2 -4.2 -140.9 -5.3h-1.7l-1.2 1.2c-30.4 30.4 -22.7 60.1 -1.10001 82.1l1.4 1.4l1.5 0.0999985c62.5 5.6 66.9 6 68 70.4c1.39999 90 2 121 2 202.1c0 86.1 -0.700012 124.7 -2 204.5c-1 59.4 -19.4 67.5 -67.4 70.9
l-2.1 0.199951l-1.4 1.5c-30.9 31.6 -19.9 60.6 0.700005 81.6l1.6 1.59998l1.7 -0.0999756c57.9 -1.20001 92.3 -5.20001 139.9 -5.20001c40.4 0 108.1 10 136 10c206.7 0 252 -131 252 -200c0 -102.4 -69.8 -230 -265 -230c-22.4 0 -39.8 1.29999 -50.9 2.60001z
M327.2 263.2v4.5l4.5 -0.600006c12.5 -1.70001 30 -3.10001 54.4 -3.10001c190.8 0 257 123.4 257 222c0 65.5 -41.9 192 -244 192c-26.8 0 -94.5 -10 -136 -10c-47.8 0 -80.7 3.90002 -138.3 5.20001c-17.7 -18.3 -26.9 -41.3 -0.600006 -68.8
c49.5 -3.60004 72.8 -16.2 73.9 -78.8c1.29999 -79.8 2 -118.5 2 -204.6c0 -81.1 -0.600006 -112.2 -2 -202.2c-1.20001 -65.9 -10.3 -72.4 -73.9 -78.1c-18.4 -19.1 -25.1 -42 0.600006 -68.9c49.4 1.1 84.1 5.2 139.3 5.2c54.3 0 93.9 -3.9 152.3 -5.2
c17.6 18.2 26.9 41.2 0.700012 68.7c-65.1 3.4 -87.2 10.5 -88 54.9c-1 59.6 -1.70001 104.8 -1.89999 167.8zM337.1 582.1c-1.30002 -79.8 -1.89999 -166.3 -2 -238.6c20.5 -1.29999 35.7 -1.5 46 -1.5c85.6 0 121 35.8 121 126c0 114 -57.1 132 -110 132
c-56.4 0 -54.7 -11.5 -55 -17.9zM329.1 582.3c0.600006 13.1 6.29999 25.7 63 25.7c55.8 0 118 -21.7 118 -140c0 -93.5 -39.6 -134 -129 -134c-11 0 -29.7 0.399994 -50.3 1.79999l-3.69998 0.200012v3.79999c0.100006 74.9 0.699982 161.1 2 242.5z" />
    <glyph glyph-name="Q" unicode="Q" horiz-adv-x="865" 
d="M397 634c-91 0 -201 -97 -201 -307c0 -192 118 -313 240 -313c114 0 203 117 203 296c0 202 -110 324 -242 324zM729 329c0 -84 -20 -156.3 -59.8 -213c-44.4 -63.4 -110.3 -106.7 -192.6 -120.9c-33.4 -9.8 -87.2 -34.7 -137.5 -71.6c7.19998 1 18.9 1.5 24.9 1.5
c110 0 191 -82 279 -82c29 0 65 15 87 42l17 -12c-39 -56 -81 -82 -144 -82c-130 0 -193 95 -286 95c-15 0 -53 -13 -73 -59l-39 20c35.4 51.3 106.2 109.9 183.5 144.1c-157.4 12.5 -282.5 132.6 -282.5 318.9c0 87.2 22.4 165.7 66.3 226c54.8 75.2 138.4 122 237.7 122
c179 0 319 -122 319 -329zM397 603c-70.1 0 -170 -79.9 -170 -276c0 -184.5 112.2 -282 209 -282c91.5 0 172 97.8 172 265c0 196 -104.5 293 -211 293zM397 611c112.2 0 219 -102.3 219 -301c0 -169.1 -81.8 -273 -180 -273c-102.4 0 -217 102.4 -217 290
c0 198.4 101.7 284 178 284zM310.3 -24.9c-51.9 -33.4 -96.6 -75 -124.2 -115l-14.9 -21.6l84.1 -43.2l9.8 22.5c14.5 33.4 43.2 45.1 52 45.2c6.5 0 14.7 -0.399994 26.9 -3.2c62.4 -14.3 130.8 -91.8 259 -91.8c67.3 0 119 28.7 162.9 91.8l13 18.8l-53.2 37.6
l-13.5 -16.7c-15.2 -18.7 -44 -33.5 -69.2 -33.5c-60.5 0 -122.1 52 -218.8 74.8l-10.7 2.5l9.79999 5c8.40002 4.3 22.8 11.8 36.2 17.2c7.29999 2.9 12 5.4 17.3 6.3c87.5 14.3 161.3 59.8 211.2 131c41.3 58.9 64 134.7 64 226.2c0 215.3 -147.5 352 -342 352
c-103.4 0 -195.5 -48 -256.3 -131.5c-45.5 -62.5 -70.7 -144.6 -70.7 -239.5c0 -167.9 97.3 -290.5 234.7 -329.7c-3.40002 -2.3 -3.80002 -3.1 -7.40002 -5.2zM299.5 -22.3c-132.2 44.9 -224.5 167.5 -224.5 332.3c0 96.3 25.5 180.3 72.2 244.3
c62.3 85.5 156.9 134.7 262.8 134.7c198.7 0 350 -140.5 350 -360c0 -92.8 -23 -170.4 -65.4 -230.8c-47.7 -68.1 -116.8 -113.1 -198.4 -130.8c-10 -1.1 -25 -6.5 -35.8 -10.9c-9.29999 -3.8 -18.6 -8.2 -23.7 -10.6c93.6 -24.8 152.1 -71.9 206.3 -71.9
c22.3 0 49.4 13.9 63 30.6l18.2 22.4l65.8 -46.4l-17.6 -25.3c-45.1 -64.7 -99.4 -95.3 -169.4 -95.3c-131.2 0 -203 78.8 -260.7 92c-11.4 2.60001 -19.3 3 -25.2 3c-4.60001 -0.100006 -31.4 -9.89999 -44.7 -40.4l-13.1 -30.3l-99.9 51.2l20.1 29.1
c27.1 39.3 70 79.9 120 113.1z" />
    <glyph glyph-name="R" unicode="R" horiz-adv-x="823" 
d="M304.1 296.4c0.100006 -72.5 0.699982 -136.8 2 -211.4c1 -57.7 32 -63.5 101 -67c6 -6 6 -17 0 -23c-50 1 -87.2 5 -143 5c-50.7 0 -81 -4 -130 -5c-6 6 -6 17 0 23c70 3 85.3 7.3 87 91c1.7 83 2 129 2 212s-0.700012 132 -2 215c-1.3 82.7 -17 88 -87 91
c-6 6 -6 17 0 23c50 -1 78.7 -5 129 -5c40 0 110 10 136 10c185 0 221 -110 221 -169c0 -64.1 -29.6 -144.6 -122.2 -180.4l124.6 -217.6c26 -43.4 64 -77 109 -77c4 -8 4.5 -7.1 1 -14c-10 -5 -37 -7 -52 -7c-60 0 -100.3 42.4 -129 89l-107 174
c-14 22.8 -24.9 34 -58.4 34c-33.9 0 -60.4 2.79999 -82 9.39999zM306.1 583c-1.30002 -83 -2 -178.7 -2 -261.7v-5.69998c13.5 -2.70001 53.3 -4.60001 77 -4.60001c97 0 152 49 152 157c0 127 -72 163 -141 163c-72 0 -84.8 -19.2 -86 -48zM386.1 264
c10.3 0 15.1 0.600006 24.8 1c0 0 10.1 -17.7 14 -24l107 -174c28.2 -45.9 73.1 -100 148.6 -100c15.9 0 48.1 2.8 69.1 12.8c9.60004 20.3 8.5 28.2 -3.89996 54.2c-43.9 0.5 -70.2 10.4 -103.4 65.8l-108.4 190.4l-4.10004 6.79999c79.6 43.4 113.3 121.9 113.3 189
c0 65.5 -41.9 192 -244 192c-26.8 0 -94.5 -10 -136 -10c-47.8 0 -80.7 3.90002 -138.3 5.20001c-17.7 -18.3 -26.9 -41.3 -0.600006 -68.8c49.5 -3.60004 72.8 -16.2 73.9 -78.8c1.29999 -79.8 2 -118.5 2 -204.6c0 -81.1 -0.600006 -112.2 -2 -202.2
c-1.20001 -65.9 -10.3 -72.4 -73.9 -78.1c-18.4 -19.1 -25.1 -42 0.600006 -68.9c49.4 1.1 84.1 5.2 139.3 5.2c54.3 0 93.9 -3.9 152.3 -5.2c17.6 18.2 26.9 41.2 0.700012 68.7c-65.1 3.4 -87.2 10.5 -88 54.9c-1 59.6 -1.70001 104.8 -1.89999 167.8v4.5l4.5 -0.600006
c12.5 -1.70001 30 -3.10001 54.4 -3.10001zM406.5 256.3c-5.39999 -0.199982 -14.8 -0.299988 -20.4 -0.299988c-22.4 0 -39.8 1.29999 -50.9 2.60001c0.299988 -62.3 0.899994 -104.8 1.89999 -163.1c0.699982 -38.5 13.5 -43.6 81.9 -47.1l1.60001 -0.100002l1 -1
c30.9 -30.9 20.9 -60.8 -0.700012 -82.4l-1.29999 -1.2h-2.20001c-59.5 1.2 -98.9 5.3 -153.3 5.3c-55.4 0 -89.2 -4.2 -140.9 -5.3h-1.7l-1.2 1.2c-30.4 30.4 -22.7 60.1 -1.10001 82.1l1.4 1.4l1.5 0.0999985c62.5 5.6 66.9 6 68 70.4c1.39999 90 2 121 2 202.1
c0 86.1 -0.700012 124.7 -2 204.5c-1 59.4 -19.4 67.5 -67.4 70.9l-2.1 0.199951l-1.4 1.5c-30.9 31.6 -19.9 60.6 0.700005 81.6l1.6 1.59998l1.7 -0.0999756c57.9 -1.20001 92.3 -5.20001 139.9 -5.20001c40.4 0 108.1 10 136 10c206.7 0 252 -131 252 -200
c0 -67.3 -34.5 -145.9 -110.6 -191.6l108.6 -190.5c33.5 -55.8 55.3 -61.9 99.1 -61.9h2.5l1.09998 -2.2c13.7 -27.4 16.8 -40.3 4.40002 -64.8l-0.600037 -1.1l-1.19995 -0.6c-21.7 -10.9 -56.6 -14.3 -73.9 -14.3c-79.8 0 -126.7 57.1 -155.4 103.8l-107 174
c-4.39999 7.09999 -8.60001 14 -11.6 19.5zM337.1 582.1c-1.30002 -79.8 -1.89999 -166.3 -2 -238.6c20.5 -1.29999 35.7 -1.5 46 -1.5c85.6 0 121 35.8 121 126c0 114 -57.1 132 -110 132c-56.4 0 -54.7 -11.5 -55 -17.9zM329.1 582.3c0.600006 13.1 6.29999 25.7 63 25.7
c55.8 0 118 -21.7 118 -140c0 -93.5 -39.6 -134 -129 -134c-11 0 -29.7 0.399994 -50.3 1.79999l-3.69998 0.200012v3.79999c0.100006 74.9 0.699982 161.1 2 242.5z" />
    <glyph glyph-name="S" unicode="S" horiz-adv-x="679" 
d="M499.6 631c10.4 -53 14.4 -81 17.9 -129c-9 -7 -11.1 -5.79999 -22.6 -6c-20 66 -60.9 138 -158 138c-58.9 0 -111.5 -66 -111.5 -122c0 -98 137.6 -136.2 186.5 -157c72.1 -30.8 137.1 -75.8 137.1 -171c0 -63.6 -36.5 -125.2 -94 -161.2
c-34.8 -21.7 -77.9 -32.8 -123.4 -32.8c-88.7 0 -116.7 23 -179.7 23c-12 49 -15.9 75 -19.9 152c9.60001 5.10001 10.2 7 22.5 3c22.1 -99.5 92.1 -152 185.5 -152c79.8 0 127 52 127 133c0 114.8 -103.6 136.6 -166.6 164c-77.5 33.7 -144.4 78.9 -144.4 172
c0 106 88.9 173 190.3 173c97.6 0 95.5 -19 153.3 -27zM547.9 486.5c-28.5 -22.4 -44.3 -21.3 -72.8 -21.9l-3 -0.100006l-0.899994 2.89999c-22.3 73.8 -50.1 135.6 -134.3 135.6c-40.1 0 -80.5 -53.5 -80.5 -91c0 -69.7 112.1 -104.8 167.6 -128.5
c78.6 -33.5 156 -89.6 156 -199.5c0 -79.2 -46.2 -148.5 -108.6 -187.5c-42.9 -26.8 -85.9 -37.5 -139.8 -37.5c-100.2 0 -128.5 23 -179.7 23h-24.3l-0.799995 3.1c-15.2 62.2 -21.5 95.8 -25.8 178.3l-1 19.7l2.3 1.2c24.6 13 46.8 18 76.5 8.39999l2.2 -0.699997
l0.5 -2.2c21.5 -97.1 72.4 -142.8 158.5 -142.8c65.7 0 96 38.2 96 102c0 91.8 -79.4 105.8 -148 135.6c-83 36.1 -163 91.5 -163 200.4c0 126 107.6 204 221.3 204c119 0 113.9 -21.2 176.7 -29.9l2.79999 -0.399963l0.600037 -2.79999c12.6 -64.4 18.9 -109.2 23 -166
l0.199951 -2.10001zM541.3 491.5c-4.09998 54.7 -10 97 -22.2 160c-62.2 9.29999 -56.7 29.5 -172.8 29.5c-110.4 0 -213.3 -75.3 -213.3 -196c0 -104 75.8 -157.2 158.2 -193.1c66 -28.7 152.8 -44.5 152.8 -142.9c0 -67.1 -33.8 -110 -104 -110
c-89 0 -142.9 47.5 -165.8 146.8c-25.4 7.39999 -43.4 4.09999 -65.9 -7.40001l0.699997 -14.6c4.2 -81 9.9 -112.1 24.9 -173.8h18c54.1 0 81 -23 179.7 -23c52.8 0 92.6 9.6 135.6 36.3c60.3 38.1 104.8 104.5 104.8 180.7c0 105.3 -73.4 159.1 -151.1 192.2
c-52.7 22.5 -172.5 58 -172.5 135.8c0 41.2 42.2 99 88.5 99c88.4 0 118.6 -64.8 141.1 -138.4c25.3 0.5 37.9 -0.5 63.3 18.9z" />
    <glyph glyph-name="T" unicode="T" horiz-adv-x="778" 
d="M358.1 536c-1.70001 61 -10 80 -47 80h-59c-66 0 -112 -36 -132 -116c-12 0 -14 1 -24 5c11 48 21 103 25 148c0 1 2 3 4 3c38 -3 156 -11 233 -11h86c79 0 190 8 224 11c1 0 3 -2 3 -3c1 -45 6 -99 13 -145c-9 -4 -13 -5 -24 -5c-17 77 -64 113 -139 113h-32
c-36 0 -44 -16 -46 -80c-2.70001 -84.7 -3 -133 -3 -216s1 -128.5 3 -211c2 -83 27 -88 97 -91c6 -6 6 -17 0 -23c-50 1 -84.8 5 -139 5c-54.6 0 -91 -4 -140 -5c-6 6 -6 17 0 23c70 3 95 8 97 91s3 129 3 212s-0.700012 132.7 -3 215zM327.1 535.1
c-1.70001 49.1 -23.6 49.9 -36 49.9h-39c-54.2 0 -85.2 -25.9 -101.9 -92.5l-5.89999 -23.5h-3.10001c-39.4 0 -56.4 7.20001 -77.5 15.6l-3.7 1.5l5.9 25.8c11.6 50.4 20.8 104.4 24.3 143.4l0.400002 4.40002c2.1 -0.200012 3.8 27.3 35.6 27.3h0.200005h0.0999985
c42.8 -3.40002 171.4 -11 231.6 -11h86c67.2 0 190.6 8.20001 222.5 11h0.200012h0.200012c22.1 0 35.1 -17.5 35.1 -33.7c1.20001 -53.6 8.60004 -114 15.8 -161l0.399963 -3l-2.70001 -1.29999c-25.4 -11.3 -45.4 -16 -77.1 -16h-3.29999l-5.29999 24.3
c-14.9 67.6 -49.3 88.7 -108.8 88.7c-47.6 0 -45.7 -6.09998 -47 -50c-2.60001 -87.7 -3 -135.1 -3 -215c0 -86.1 0.100006 -130.9 3 -210.2c2 -55.2 9.79999 -58.3 77.2 -61.3h2.20001l1.09998 -1.1c30.9 -30.9 21 -60.8 -0.699951 -82.5l-1.20001 -1.2l-13.2 0.299999
c-55 1.1 -88.9 5 -138.4 5c-60.6 0 -98 -4.2 -150.8 -5.3h-1.7l-1.20001 1.2c-30.2 30.2 -23.1 60.1 -0.699997 82.5l1.10001 1.1h1.5c65.1 2.5 75.7 8 77.8 60.8c3.10001 89.4 3 131.3 3 211.7c0 86.2 -0.300018 135.1 -3 214.1zM335.1 535.4
c2.69998 -79.1 3 -128.2 3 -214.4c0 -80.4 0.100006 -122.5 -3 -212c-2.20001 -55.9 -18.1 -65.7 -83.9 -68.4c-18.2 -18.9 -25.1 -41.9 0.600006 -68.8c50.4 1.1 89 5.2 149.3 5.2c49.9 0 84 -3.9 138.6 -5l9.79999 -0.200001c17.7 18.3 26.8 41.3 0.599976 68.8
c-68 3.1 -81.9 10.4 -84 68.9c-2.89999 79.4 -3 124.5 -3 210.5c0 79.9 0.399994 127.5 3 215.3c1.29999 45 3.89999 57.7 55 57.7c62.3 0 101 -24.1 116.6 -95l4 -18c26.7 0.299988 43.9 3.89999 67.8 14.1c-7 46.5 -14.2 105.7 -15.4 159.2c0 11.2 -10.1 27.2 -26.8 25.7
c-32.2 -2.79999 -155.4 -11 -223.2 -11h-86c-60.7 0 -189 7.59998 -232.2 11c-22.7 -0.799988 -25.9 -18.4 -27.7 -24.6c-3.5 -39.1 -12.9 -93.7 -24.5 -144.3l-4.39999 -19.1c18.9 -7.5 32.7 -13.5 68.8 -14l4.39999 17.4c17.2 68.9 51.6 98.6 109.6 98.6h39
c15.2 0 42.2 -4.40002 44 -57.6z" />
    <glyph glyph-name="U" unicode="U" horiz-adv-x="868" 
d="M275.4 269c0 -65 4 -146 53 -193c30.1 -28.9 71 -55 119 -55c169 0 189 144 189 256v259c0 83 -17 84 -92 91c-6 6 -6 17 0 23c50 -1 67.7 -5 111 -5c37.9 0 48 4 97 5c6 -6 6 -17 0 -23c-60 -7 -77 -8 -77 -91v-241c0 -178 -44 -305 -249 -305c-90 0 -232 42 -232 246
c0 33.2 1 42 1 85c0 83 -1 132 -3 215s-17 88 -87 91c-6 6 -6 17 0 23c50 -1 78.7 -5 129 -5c50.7 0 81 4 130 5c6 -6 6 -17 0 -23c-70 -3 -84.5 -8 -87 -91c-1.79999 -60.9 -2.60001 -102.9 -2.89999 -153c-0.200012 -30.5 0.899994 -90.9 0.899994 -114zM613.4 525.4
v-248.4c0 -27.9 -1.40002 -56.8 -5.60004 -84.1c-12.8 -82.6 -48.2 -148.9 -160.4 -148.9c-39.8 0 -75.2 21.8 -103.1 48.6c-40.1 38.5 -45.9 111.1 -45.9 176.4c0 23.9 -1.10001 83.5 -0.899994 113.9c0.299988 50 -0.100006 81.6 1.70001 142.5
c1.89999 76.9 15.4 76 75.4 78.5c18.3 19.6 13.7 52 -1.60001 69.1c-44.6 -1.09998 -91.8 -5 -136.8 -5c-48.2 0 -100.3 4 -139.6 5c-19 -21.2 -16.3 -53.3 -1.6 -69.1c64.3 -2.70001 73.6 -5.30005 75.4 -78.5c2 -83 2 -121.7 2 -204.4c0 -42.4 -1 -51.2 -1 -85
c0 -219.6 158.3 -269 255 -269c137.3 0 213.8 57.3 247.4 149.6c18.9 52 24.6 112.3 24.6 178.4l-0.200012 230.4c1.89996 77 15.4 76 75.4 78.5c18.3 19.6 13.7 52 -1.59998 69.1c-45.5 -1.20001 -82.6 -5 -116.8 -5c-35.3 0 -76 4 -115.6 5
c-19 -21.2 -16.3 -53.3 -1.59998 -69.1c64.3 -2.70001 73.6 -5.30005 75.4 -78.5zM605.4 525.3c-1.70001 71.7 -5.60004 68 -69.4 70.7l-1.5 0.0999756l-1.09998 1.10004c-20.5 20.2 -21.1 59.7 1.69995 82.6l1.20001 1.20001h1.70001c41.7 -1 81.9 -5 117.2 -5
c33.9 0 72.6 3.90002 118.4 5h1.70001l1.20001 -1.20001c19.7 -19.8 25.1 -59.5 1.70001 -82.6l-1.10004 -1.10004l-1.59998 -0.0999756c-61 -2.59998 -67.5 3.79999 -69.3 -70.7l0.200012 -230.3c0 -66.6 -5.70001 -127.8 -25.1 -181.2
c-34.8 -95.6 -115.1 -154.8 -254.9 -154.8c-99.1 0 -263 51.9 -263 277c0 34 1 42.8 1 85c0 82.8 0 121.4 -2 204.3c-1.7 71.7 -5.59999 68 -69.4 70.7l-1.5 0.0999756l-1.1 1.10004c-20.5 20.2 -21.1 59.7 1.7 82.6l1.2 1.20001h1.7c41.5 -1 92.7 -5 141.2 -5
c45.2 0 93.3 4 138.4 5h1.69998l1.20001 -1.20001c19.7 -19.8 25.1 -59.5 1.70001 -82.6l-1.10001 -1.10004l-1.60001 -0.0999756c-61 -2.59998 -67.5 3.90002 -69.3 -70.7c-1.80002 -60.9 -1.40002 -92.4 -1.70001 -142.5c-0.200012 -30.2 0.899994 -89.7 0.899994 -113.8
c0 -65.3 6.5 -135.2 43.4 -170.6c27.1 -26 60.9 -46.4 97.6 -46.4c107.5 0 139.9 61.2 152.5 142.1c4.19995 26.7 5.5 55.2 5.5 82.9v248.3z" />
    <glyph glyph-name="V" unicode="V" horiz-adv-x="877" 
d="M571.5 627c-6 6 -6 17 0 23c47 -1 86 -5 109 -5s48 4 88 5c6 -6 6 -17 0 -23c-66 -8 -89.1 -58.7 -108.3 -106l-206.7 -510c-5.79999 -14.3 -13 -23 -24 -23c-10 0 -17 7.4 -23 23l-197.5 512c-28.5 73 -42.5 99 -99.5 104c-6 6 -7 17 -1 23c47 -1 64 -5 104 -5
c39 0 74 4 121 5c6 -6 6 -17 0 -23c-68 -7 -69.7 -33.5 -46.5 -93l159 -407l9.89999 -23.7l10.8 23.7l157.8 401c21.4 54.4 21 94 -53 99zM560.7 681.2c51.2 -1.10004 101.8 -5.20001 119.8 -5.20001c21.7 0 62.1 4.40002 98.8 5.29999h1.79999l1.20001 -1.20001
c29.4 -29.4 24.1 -59.1 1.60004 -81.6l-1 -1l-1.40002 -0.200012c-58.1 -7 -72.2 -37.7 -92.6 -87.9l-206.6 -510c-8.79999 -21.8 -26.3 -42.4 -52.8 -42.4c-35 0 -47.1 30.4 -51.9 42.8l-197.5 512.1c-29.6 76.6 -33 80.7 -83.1 85.1l-1.4 0.0999756l-1 1
c-30.4 30.4 -21.4 60.4 0.200005 82l1.2 1.20001l2.4 -0.0999756c54.3 -1.20001 78.6 -5.20001 114.1 -5.20001c42 0 84.6 4.20001 131.9 5.20001l1.70001 0.0999756l1.19998 -1.20001c29.5 -29.5 23.8 -59.4 1.40002 -81.8l-1.10001 -1.09998l-1.60001 -0.100037
c-13.2 -0.399963 -21.3 -1.5 -26.6 -3.59998c-13.7 -5.29999 -14.9 -19.3 1.20001 -60.4l135.8 -347.5l139.3 353.8c5.5 14.1 8 23.1 8.59998 29.9c1.5 17.3 -8.79999 24.8 -45 27.5l-1.5 0.100037l-1 1c-31 31 -20.3 60.9 1 82.2l1.20001 1.20001zM562.2 673.2
c-17.5 -18.2 -27 -41.1 -0.799988 -68.6c34.6 -2.89996 53 -11.7 50.9 -36c-0.700012 -8.09998 -3.59998 -17.9 -9.20001 -32.2l-146.7 -372.7l-143.3 366.5c-15.4 39.5 -18.1 62.3 3.5 70.7c6.5 2.5 14.4 3.79999 27.5 4.19995c18 18.8 23.9 41.8 -1.30002 68.1
c-45 -1.10004 -88.5 -5.20001 -130.3 -5.20001c-36 0 -59.6 3.90002 -113.3 5.20001c-17.6 -18.3 -25.9 -41.2 0 -68.4c51.2 -4.70001 58.9 -13.9 88.3 -90l197.6 -512.1c4.89999 -12.6 15.3 -37.7 44.4 -37.7c21.7 0 37.1 17 45.4 37.4l206.6 510
c20.1 49.6 35.7 84.4 97.7 92.7c18.3 19.1 23.8 41.8 -1.40002 68.1c-34.7 -1 -75.3 -5.20001 -97.3 -5.20001c-18.9 0 -66.4 4 -118.3 5.20001z" />
    </font>
</defs>
</svg>
